<?xml version="1.0" standalone="no"?>
<!DOCTYPE svg PUBLIC "-//W3C//DTD SVG 20010904//EN"
 "http://www.w3.org/TR/2001/REC-SVG-20010904/DTD/svg10.dtd">
<svg version="1.0" xmlns="http://www.w3.org/2000/svg"
 width="300.000000pt" height="240.000000pt" viewBox="0 0 300.000000 240.000000"
 preserveAspectRatio="xMidYMid meet">
<metadata>
Created by potrace 1.10, written by Peter Selinger 2001-2011
</metadata>
<g transform="translate(0.000000,240.000000) scale(0.100000,-0.100000)"
fill="#000000" stroke="none">
<path d="M1436 2331 c-3 -4 29 -19 72 -31 117 -35 173 -65 234 -128 68 -68
114 -143 159 -255 18 -45 41 -94 51 -109 21 -30 23 -49 6 -66 -10 -10 -8 -15
9 -27 36 -25 135 -183 128 -204 -3 -10 -28 -56 -55 -102 -28 -45 -50 -85 -50
-88 0 -3 41 -18 90 -34 178 -55 164 -43 258 -226 67 -131 81 -165 72 -181 -19
-35 -10 -45 16 -17 38 44 66 32 100 -44 21 -45 42 -72 83 -106 31 -25 59 -51
64 -58 15 -27 21 -164 7 -180 -15 -18 -7 -19 19 -3 17 10 27 5 76 -37 60 -51
95 -98 95 -127 0 -28 -18 -21 -35 12 -8 16 -29 36 -45 45 -30 15 -110 18 -165
6 l-30 -7 31 -16 c34 -19 94 -82 95 -101 0 -7 4 -3 8 8 5 12 2 33 -6 52 -11
28 -11 33 1 33 23 0 59 -17 81 -37 62 -59 114 -8 74 73 -19 41 -105 124 -127
124 -11 0 -18 24 -28 98 -7 55 -41 109 -97 152 -15 12 -39 43 -54 68 -34 60
-79 109 -108 116 -17 4 -37 35 -80 123 -32 65 -62 120 -67 121 -4 2 -8 10 -8
18 0 31 -57 73 -147 108 -51 20 -97 36 -103 36 -13 0 -9 19 10 42 8 10 27 46
42 80 l26 62 -30 61 c-17 33 -34 62 -38 65 -16 11 -64 96 -61 108 1 8 -16 53
-38 100 -21 48 -53 118 -70 156 -29 64 -106 172 -148 206 -52 44 -112 81 -131
83 -12 1 -22 4 -22 8 0 15 -156 34 -164 20z"/>
<path d="M1248 2284 c-37 -25 -86 -69 -109 -97 -38 -48 -89 -145 -89 -171 0
-6 -7 -24 -16 -41 -23 -44 -84 -235 -84 -262 0 -13 -7 -26 -15 -30 -17 -6 -71
-85 -100 -147 -27 -57 -23 -87 19 -145 36 -51 39 -71 11 -71 -8 0 -38 -11 -68
-24 -59 -26 -92 -64 -147 -171 -19 -37 -55 -88 -80 -115 -107 -115 -140 -151
-140 -157 0 -3 -11 -14 -24 -24 -13 -10 -34 -40 -46 -66 -29 -63 -62 -113 -76
-113 -15 0 -84 -66 -122 -116 -42 -55 -73 -130 -67 -161 6 -34 13 -40 21 -17
26 80 79 167 135 218 63 58 79 67 79 40 0 -25 18 -6 25 27 16 72 56 137 140
228 47 52 98 109 112 128 18 24 33 33 54 33 27 0 28 2 17 20 -11 17 -8 29 21
82 59 109 63 113 143 136 40 11 85 23 101 26 24 6 39 26 19 26 -4 0 -32 31
-61 70 -51 67 -52 70 -41 104 17 52 85 152 117 172 15 10 29 19 31 20 2 1 -2
12 -8 24 -13 25 12 111 92 307 47 115 54 126 119 188 38 35 95 78 127 94 l57
30 -40 0 c-31 0 -55 -10 -107 -45z"/>
<path d="M1342 2270 c-66 -42 -142 -130 -182 -210 -25 -49 -100 -262 -100
-282 0 -5 9 -4 19 2 24 12 98 13 105 1 4 -5 -7 -12 -24 -16 -31 -7 -90 -50
-90 -65 0 -5 28 3 63 19 58 26 152 52 241 66 54 9 181 -4 203 -21 16 -12 10
-13 -42 -8 -111 11 -301 -37 -448 -113 -77 -41 -111 -76 -129 -135 -11 -37
-10 -44 15 -92 15 -28 47 -72 71 -98 24 -26 54 -67 65 -90 12 -24 55 -85 95
-136 56 -71 75 -88 80 -76 6 17 -7 41 -73 129 -17 22 -40 58 -52 80 -27 49
-85 126 -91 120 -2 -2 -15 16 -28 40 -14 25 -28 45 -32 45 -5 0 -8 19 -8 42 0
45 35 102 73 119 12 5 29 13 37 19 95 61 321 117 501 123 84 3 318 -168 334
-245 9 -39 -23 -99 -90 -168 -49 -51 -135 -180 -135 -204 -1 -6 -9 -29 -20
-51 -11 -22 -19 -48 -20 -58 0 -41 27 -5 84 109 49 95 73 131 123 180 68 66
102 128 103 185 0 29 -10 46 -54 95 -66 73 -202 167 -280 194 -32 12 -108 26
-169 33 -137 16 -117 23 90 33 84 4 150 11 147 15 -3 5 -32 9 -66 9 -33 0 -88
7 -122 16 -67 18 -208 14 -280 -7 -34 -9 -37 -12 -22 -21 10 -6 45 -8 77 -6
80 6 62 -15 -28 -31 -63 -12 -71 -11 -115 9 -51 22 -55 31 -34 71 7 14 16 38
20 53 23 94 94 197 203 299 l52 49 25 -19 c14 -10 25 -20 26 -23 0 -3 -14 -13
-30 -22 -39 -22 -38 -42 4 -81 18 -18 39 -49 46 -70 17 -53 -2 -71 -96 -92
-78 -17 -166 -67 -172 -97 -3 -15 3 -14 40 7 24 13 89 36 143 51 97 25 127 41
146 76 11 21 1 48 -18 48 -11 0 -12 8 -7 35 6 35 5 36 -45 58 -28 12 -51 28
-51 35 0 17 22 15 82 -8 64 -24 78 -25 78 -3 0 28 -72 87 -129 104 l-52 16
-57 -37z"/>
<path d="M827 1157 c-52 -46 -59 -57 -64 -98 -3 -26 0 -55 6 -68 12 -21 11
-22 -38 -15 -60 8 -81 -5 -81 -47 0 -19 -8 -34 -25 -45 -14 -9 -25 -24 -25
-33 0 -25 -20 -41 -52 -41 -34 0 -36 -17 -8 -75 18 -37 70 -95 85 -95 10 0 5
29 -9 42 -7 8 -19 30 -26 50 -13 36 -13 37 27 81 23 25 49 60 59 78 20 41 31
49 65 49 37 0 56 27 61 89 4 42 11 59 34 80 54 51 63 48 150 -37 24 -24 48
-41 54 -37 6 4 5 12 -5 21 -8 9 -15 19 -15 23 0 9 -116 125 -128 128 -4 1 -33
-21 -65 -50z"/>
<path d="M1959 1176 c-93 -25 -131 -57 -242 -203 -7 -9 -5 -13 6 -13 8 0 35
20 59 46 24 25 62 59 86 75 42 30 50 27 43 -13 -3 -21 17 -4 34 28 10 19 32
44 47 55 26 19 37 40 21 38 -5 0 -29 -6 -54 -13z"/>
<path d="M1017 1163 c-10 -16 35 -104 49 -99 8 3 14 1 14 -4 0 -6 4 -10 10
-10 5 0 32 -13 58 -30 51 -31 112 -49 112 -33 0 5 -35 31 -77 58 -43 28 -97
67 -120 88 -23 21 -44 34 -46 30z"/>
<path d="M1999 1113 c-28 -17 -67 -73 -51 -73 5 0 26 11 46 25 20 14 46 25 57
25 19 0 20 -4 13 -69 -11 -119 17 -167 31 -54 4 32 16 81 26 108 10 28 19 51
19 53 0 11 -120 -2 -141 -15z"/>
<path d="M2166 1027 c-70 -125 -80 -180 -19 -101 15 20 35 45 44 57 16 20 17
19 54 -39 25 -38 38 -69 37 -87 -2 -16 7 -45 19 -64 19 -30 21 -40 12 -64 -14
-36 -9 -36 34 -3 42 32 43 59 3 73 -28 9 -30 13 -30 61 0 39 -6 59 -27 88 -16
21 -39 62 -52 90 -14 29 -28 52 -32 52 -5 0 -24 -28 -43 -63z"/>
<path d="M1074 790 c-190 -4 -255 -8 -267 -19 -26 -21 -29 -67 -14 -216 8 -77
13 -143 10 -147 -2 -4 -21 -1 -41 8 -20 9 -70 27 -109 39 -74 24 -132 70 -112
90 14 14 11 21 -16 33 -28 13 -103 16 -129 6 -29 -11 -17 -23 17 -17 28 4 36
1 51 -21 9 -15 33 -34 51 -43 48 -23 44 -37 -8 -29 -50 8 -129 -2 -121 -15 3
-5 25 -9 48 -9 89 0 366 -68 366 -89 0 -5 -37 -8 -82 -8 -69 1 -94 -4 -148
-27 -91 -39 -101 -41 -95 -24 3 8 30 29 60 47 30 19 55 36 55 39 0 9 -144 -8
-202 -25 -72 -20 -65 -36 13 -28 57 5 59 4 59 -19 0 -46 40 -52 132 -22 23 8
70 17 103 21 33 4 74 10 90 14 29 8 31 7 33 -23 4 -54 42 -299 47 -304 14 -14
14 19 0 184 -14 170 -43 496 -48 539 -2 20 7 20 671 30 371 6 677 8 681 5 4
-3 0 -108 -10 -235 -22 -310 -31 -539 -19 -500 13 40 18 74 26 173 l7 83 41
-5 c23 -3 68 -8 101 -11 88 -9 225 -43 263 -65 42 -25 64 -25 87 0 10 11 24
20 32 20 38 0 -24 56 -99 90 -72 33 -98 20 -32 -15 41 -22 84 -69 84 -93 0
-13 -4 -12 -22 5 -65 59 -188 93 -343 93 -90 0 -98 1 -84 16 10 9 36 16 66 17
29 1 61 10 79 21 16 11 52 22 81 24 40 3 56 10 67 27 8 12 28 25 44 28 22 5
33 15 45 44 16 42 13 60 -8 43 -19 -16 -105 -41 -116 -34 -5 3 7 19 27 36 19
17 42 45 51 61 15 30 15 32 -8 49 -13 10 -30 23 -36 28 -8 6 -13 33 -13 62 0
48 -1 50 -17 36 -10 -9 -42 -28 -70 -42 -68 -34 -69 -51 -4 -42 48 6 48 6 75
-34 29 -44 28 -63 -4 -100 -21 -25 -26 -56 -10 -62 6 -2 12 -13 15 -25 3 -18
-2 -24 -23 -28 -15 -3 -47 -12 -72 -21 -25 -9 -70 -23 -100 -31 -30 -8 -61
-20 -67 -25 -10 -8 -13 -5 -14 8 -1 33 2 125 6 144 2 10 7 70 11 134 7 113 6
118 -16 142 l-24 24 -420 -2 c-232 -2 -534 -5 -672 -8z"/>
<path d="M450 725 c0 -30 41 -91 78 -118 l33 -25 24 21 23 22 -51 27 c-29 16
-64 43 -79 60 -24 27 -28 29 -28 13z"/>
<path d="M1465 690 c-137 -4 -325 -8 -416 -9 -124 -1 -168 -4 -171 -13 -5 -14
6 -341 17 -545 12 -220 25 -120 25 197 l0 309 33 5 c17 3 273 10 567 16 425 8
537 7 547 -3 9 -9 13 -79 15 -267 4 -471 23 -472 34 -1 l7 321 -204 -2 c-112
-1 -316 -5 -454 -8z"/>
<path d="M1455 438 c-16 -5 -47 -9 -69 -8 -67 2 -98 -48 -56 -90 24 -24 25
-46 5 -66 -21 -21 -19 -50 6 -75 16 -16 28 -19 54 -15 19 4 36 2 40 -4 11 -18
109 -12 131 8 14 13 26 17 41 11 16 -6 27 -1 48 21 l28 29 -28 41 -28 40 23
25 c28 30 22 65 -15 85 -20 11 -29 11 -49 1 -17 -10 -29 -10 -44 -2 -24 13
-46 13 -87 -1z m185 -56 c0 -9 -7 -11 -19 -7 -25 7 -36 -10 -37 -57 0 -40 14
-53 47 -43 20 7 22 2 13 -32 -8 -29 -21 -29 -43 -1 -23 27 -51 18 -51 -17 0
-28 0 -28 -34 -15 -14 5 -26 6 -26 2 0 -4 -9 -8 -19 -9 -13 -1 -21 6 -23 20
-5 35 -45 35 -59 0 l-11 -28 -19 24 c-25 30 -24 41 4 41 37 0 45 12 38 55 -5
34 -10 41 -36 45 -16 3 -28 8 -27 12 9 28 16 38 28 38 8 0 14 -6 14 -14 0 -24
31 -27 57 -6 32 25 66 25 105 3 30 -18 30 -18 51 10 20 26 23 27 34 11 7 -10
13 -24 13 -32z"/>
<path d="M1444 315 c-3 -8 -3 -19 1 -25 10 -16 35 7 28 26 -7 18 -22 18 -29
-1z"/>
<path d="M1514 319 c-10 -17 13 -36 27 -22 12 12 4 33 -11 33 -5 0 -12 -5 -16
-11z"/>
<path d="M253 410 c-51 -11 -92 -32 -115 -59 -10 -12 -18 -23 -18 -24 0 -8 38
2 75 18 22 10 60 19 85 20 50 3 163 38 153 48 -9 9 -128 7 -180 -3z"/>
</g>
</svg>
