<?xml version="1.0" standalone="no"?>
<!DOCTYPE svg PUBLIC "-//W3C//DTD SVG 20010904//EN"
 "http://www.w3.org/TR/2001/REC-SVG-20010904/DTD/svg10.dtd">
<svg version="1.0" xmlns="http://www.w3.org/2000/svg"
 width="300.000000pt" height="309.000000pt" viewBox="0 0 300.000000 309.000000"
 preserveAspectRatio="xMidYMid meet">
<metadata>
Created by potrace 1.10, written by Peter Selinger 2001-2011
</metadata>
<g transform="translate(0.000000,309.000000) scale(0.050000,-0.050000)"
fill="#000000" stroke="none">
<path d="M2824 6128 c-18 -20 -85 -29 -240 -31 -179 -3 -196 -6 -104 -17 61
-7 99 -15 86 -17 -13 -2 -37 -17 -55 -35 -17 -17 -45 -34 -60 -36 -16 -2 -57
-33 -90 -68 -34 -35 -69 -64 -79 -64 -10 0 -23 -20 -29 -45 -7 -25 -39 -73
-71 -108 -33 -34 -54 -68 -48 -75 7 -6 3 -12 -8 -12 -12 0 -31 -40 -44 -89
-12 -49 -38 -99 -57 -112 -33 -21 -33 -21 0 -11 44 14 44 4 1 -40 -19 -18 -38
-57 -42 -86 -3 -29 -15 -55 -25 -59 -11 -3 -19 -28 -19 -55 0 -27 -9 -66 -20
-88 -48 -95 -55 -116 -81 -220 -14 -60 -33 -119 -40 -130 -22 -31 -21 -253 1
-280 29 -35 52 -280 25 -263 -12 8 -27 5 -34 -5 -6 -10 -50 -37 -97 -60 -48
-23 -104 -58 -126 -77 -22 -19 -58 -46 -79 -60 -133 -87 -181 -114 -194 -110
-8 3 -15 -4 -15 -15 0 -11 -10 -20 -23 -20 -13 0 -38 -13 -55 -29 -101 -93
-123 -111 -132 -111 -5 0 -18 0 -28 0 -9 0 -33 -32 -51 -71 -19 -39 -47 -76
-63 -82 -15 -6 -28 -24 -28 -39 0 -15 -8 -28 -19 -28 -10 0 -25 -20 -33 -45
-7 -25 -32 -61 -54 -80 -22 -19 -33 -35 -25 -35 9 0 6 -12 -6 -27 -13 -15 -17
-33 -9 -40 7 -7 2 -13 -11 -13 -12 0 -23 -17 -23 -38 0 -20 -13 -48 -29 -61
-28 -24 -103 -217 -95 -246 2 -8 -4 -15 -14 -15 -28 0 -70 -137 -92 -300 -4
-27 -8 -50 -10 -50 -2 0 -6 -13 -9 -30 -16 -74 -80 -254 -104 -289 -15 -22
-27 -74 -27 -115 0 -52 -9 -76 -28 -76 -34 0 -49 -66 -54 -230 -2 -66 -16
-134 -30 -151 -24 -27 -52 -141 -54 -214 0 -14 -6 -25 -12 -25 -7 0 -12 -68
-12 -151 0 -83 -9 -157 -20 -165 -27 -18 -74 -126 -61 -139 5 -6 -1 -29 -14
-53 -13 -23 -21 -50 -19 -59 3 -10 -5 -29 -17 -44 -26 -31 28 -249 62 -249 10
0 19 -17 19 -38 0 -41 46 -89 67 -68 7 7 13 2 13 -11 0 -32 210 -237 260 -253
22 -7 35 -21 29 -31 -6 -11 2 -19 19 -19 16 0 42 -18 57 -39 42 -60 175 -77
535 -66 306 8 3403 18 3560 10 39 -1 147 -2 240 0 94 1 235 0 315 -3 179 -6
206 3 249 78 19 33 48 60 65 60 17 0 31 7 31 17 0 9 25 28 55 43 69 34 345
316 345 353 0 15 11 25 25 22 18 -4 25 37 25 150 1 125 -25 228 -32 130 -1
-14 -9 1 -18 32 -10 31 -13 68 -7 83 5 14 -1 33 -15 41 -17 11 -19 7 -8 -13 9
-15 9 -21 -1 -13 -9 9 -19 49 -23 89 -3 40 -13 78 -23 85 -18 12 -20 32 -23
184 -1 51 -19 126 -40 167 -21 40 -33 86 -27 101 6 15 5 36 -2 48 -7 11 -17
85 -21 164 -4 79 -15 148 -24 155 -9 7 -19 26 -23 42 -36 152 -68 251 -84 257
-10 3 -19 28 -19 53 0 26 -8 53 -19 59 -10 7 -18 27 -19 46 0 19 -10 80 -22
135 -12 55 -32 147 -44 205 -13 58 -28 105 -35 105 -7 0 -24 43 -39 95 -15 52
-43 124 -63 159 -21 36 -40 80 -43 100 -3 19 -22 50 -41 70 -20 21 -29 49 -21
71 7 19 6 29 -3 21 -8 -7 -69 49 -136 126 -66 77 -155 158 -198 180 -43 22
-96 57 -117 78 -53 53 -303 211 -323 205 -10 -3 -17 4 -17 15 0 11 -13 20 -30
20 -16 0 -30 14 -30 31 0 17 -9 26 -20 19 -29 -18 -232 33 -282 72 -42 31 -43
39 -24 210 19 164 17 187 -26 298 -41 107 -61 274 -67 556 -1 20 -10 31 -20
25 -10 -7 -15 7 -11 31 5 24 2 54 -5 66 -8 12 -16 29 -17 37 -2 8 -5 17 -7 20
-2 3 -8 28 -13 55 -5 28 -18 53 -29 57 -10 3 -19 22 -19 41 0 19 -11 45 -24
58 -19 19 -19 24 0 24 13 0 24 9 24 19 0 11 -12 15 -27 10 -17 -7 -40 22 -64
80 -20 50 -44 91 -53 91 -9 0 -16 14 -16 30 0 17 -13 30 -30 30 -16 0 -30 14
-30 31 0 17 -7 27 -15 22 -21 -13 -75 30 -91 72 -14 39 16 50 166 61 55 4 29
8 -64 11 -84 1 -177 -6 -206 -17 -29 -11 -47 -12 -41 -2 6 10 -83 25 -199 32
-116 8 -216 23 -221 32 -6 10 -29 18 -51 18 -22 0 -35 -9 -28 -20 7 -11 4 -20
-7 -20 -11 0 -23 8 -26 18 -4 10 -19 5 -33 -10z m156 -163 c1 -41 9 -183 19
-315 10 -132 21 -357 23 -500 l5 -259 -259 -44 -258 -44 -160 -168 c-183 -191
-341 -390 -324 -408 11 -11 121 102 324 333 145 165 195 193 410 230 104 17
210 37 235 43 36 9 45 3 45 -31 0 -23 -7 -42 -15 -43 -208 -10 -450 -66 -525
-121 -35 -25 -32 -25 213 43 111 30 181 39 220 29 l57 -16 -70 -18 c-452 -119
-441 -113 -685 -389 -315 -356 -367 -539 -197 -689 48 -43 97 -78 110 -78 31
0 323 -296 308 -311 -33 -33 -418 297 -500 428 -60 96 -45 401 37 771 53 236
56 270 18 223 -17 -21 -31 -48 -31 -60 0 -55 -44 -171 -61 -160 -58 35 16 356
189 819 196 523 311 653 672 762 201 61 200 61 200 -27z m447 -71 c210 -111
308 -293 445 -820 65 -249 53 -281 -37 -103 -67 133 -288 450 -332 477 -62 38
-29 -44 73 -181 287 -388 403 -646 404 -892 0 -148 -24 -146 -80 10 -85 232
-268 448 -478 562 -142 77 -128 32 22 -70 69 -46 114 -88 101 -92 -29 -10
-221 85 -276 136 -57 54 -107 52 -59 -1 48 -53 27 -71 -55 -47 l-65 18 -14
340 c-8 186 -22 441 -31 565 -9 125 -13 230 -9 233 15 15 283 -78 391 -135z
m55 -1145 c231 -76 250 -103 411 -568 141 -409 136 -507 -34 -722 -56 -72
-282 -239 -321 -239 -48 0 -9 64 61 100 203 103 323 272 331 466 3 68 1 99 -4
69 -14 -91 -34 -64 -93 128 -136 448 -244 578 -543 657 -216 57 -220 58 -198
79 25 24 212 -8 353 -61 140 -52 218 -129 299 -293 34 -69 66 -122 71 -117 23
23 -141 314 -202 361 -85 65 -260 125 -413 143 -108 12 -145 36 -110 72 18 18
236 -24 392 -75z m-454 -212 c-10 -16 -3 -16 23 -2 36 20 44 17 120 -51 16
-15 29 -18 29 -6 0 29 120 -14 178 -66 29 -25 42 -30 34 -12 -8 17 -1 13 17
-9 17 -21 31 -32 31 -24 0 39 124 -126 154 -205 27 -72 29 -91 8 -98 -18 -6
-19 -13 -5 -22 14 -9 4 -33 -28 -67 -27 -29 -49 -62 -49 -73 0 -11 -18 -25
-40 -32 -22 -7 -36 -21 -30 -30 6 -10 -19 -46 -55 -81 -36 -35 -51 -57 -35
-48 17 8 2 -16 -32 -53 -34 -37 -82 -97 -106 -133 -25 -36 -55 -59 -67 -52
-11 7 -16 4 -9 -7 7 -11 -1 -37 -18 -58 -17 -21 -24 -25 -16 -10 9 19 6 23 -9
14 -13 -8 -23 -26 -23 -40 0 -53 -71 -94 -126 -73 -68 25 -217 160 -203 183 6
10 -3 18 -20 18 -44 0 -174 138 -158 167 7 13 6 16 -4 8 -20 -19 -172 125
-157 149 6 9 4 15 -6 12 -36 -12 -148 51 -138 77 6 15 2 27 -9 27 -75 0 2 153
161 320 6 5 20 27 31 49 12 21 48 47 80 58 33 11 68 31 79 46 33 44 242 107
268 81 16 -16 22 -15 22 4 0 16 13 21 31 14 17 -6 26 -3 20 7 -6 10 4 22 24
27 19 5 38 10 41 12 4 1 0 -8 -8 -21z m-1138 -512 c-66 -154 -31 -364 79 -482
126 -136 125 -133 152 -645 30 -577 44 -529 -153 -521 -190 8 -177 -2 -129
105 41 89 55 189 24 170 -9 -5 -33 -65 -53 -131 -39 -131 -78 -181 -112 -147
-14 14 15 117 92 324 179 484 108 401 -154 -178 l-31 -70 -25 60 c-132 314
-364 722 -488 856 -98 105 -53 150 538 543 228 152 286 178 260 116z m220
-120 c-5 -79 3 -185 19 -255 l28 -120 -81 87 c-91 98 -99 196 -27 348 52 111
72 92 61 -60z m2221 40 c619 -396 688 -451 648 -512 -15 -24 -92 -169 -170
-323 -78 -154 -168 -320 -200 -370 l-58 -90 -14 210 c-8 116 -20 334 -28 485
-25 524 -68 316 -86 -419 -8 -308 -21 -531 -33 -541 -47 -40 -271 -5 -261 42
8 37 20 146 60 558 4 41 0 75 -9 75 -17 0 -48 -159 -81 -420 -37 -286 -16
-260 -199 -260 l-160 0 67 95 c175 247 172 273 -7 57 -115 -140 -193 -191
-242 -160 -12 7 78 108 199 225 198 191 230 232 307 393 l86 180 7 435 c3 239
11 435 16 435 5 0 77 -43 158 -95z m-620 -12 c6 -14 2 -64 -8 -110 -18 -79 0
-117 24 -53 7 17 21 30 33 30 28 0 -7 -65 -87 -165 -89 -111 -47 -117 63 -9
108 106 124 113 123 49 -1 -77 -85 -195 -192 -271 -79 -55 -84 -55 -107 6 -41
107 -158 48 -198 -100 -19 -71 -36 -88 -160 -155 -189 -101 -210 -94 -89 30
56 58 144 163 195 233 51 70 125 160 164 200 39 40 99 133 134 207 64 135 87
158 105 108z m-1431 -123 c0 -40 245 -295 488 -509 137 -121 192 -183 192
-215 0 -86 -160 -50 -226 50 -19 30 -65 101 -102 159 -37 58 -77 118 -90 133
-33 40 -100 16 -114 -40 -16 -62 -31 -50 -130 95 -74 108 -77 120 -36 106 40
-12 36 -3 -28 72 -70 82 -89 119 -61 119 7 0 25 -16 41 -35 26 -32 28 -31 18
17 -6 29 -5 58 2 65 22 23 46 14 46 -17z m2847 -527 c120 -203 202 -387 229
-513 61 -282 124 -518 181 -675 47 -129 63 -209 63 -306 0 -108 12 -156 65
-265 55 -112 65 -158 67 -284 2 -129 11 -165 65 -260 119 -210 77 -352 -168
-573 -187 -168 -194 -170 -260 -63 -125 202 -260 372 -280 351 -5 -5 18 -69
53 -143 48 -102 59 -149 50 -201 -22 -115 -132 -109 -132 8 0 195 -142 402
-315 459 -105 35 -106 47 -2 122 151 110 389 123 531 29 56 -36 73 -30 54 18
-6 18 -45 41 -85 51 -40 11 -104 27 -143 37 -69 18 -68 18 65 42 230 41 395
-38 537 -257 70 -108 98 -124 98 -57 0 120 -205 318 -388 375 -67 21 -102 39
-78 40 24 1 49 11 56 22 23 36 -89 21 -214 -30 -67 -27 -128 -45 -134 -38 -22
22 104 104 196 129 131 35 146 59 36 59 -103 0 -122 32 -63 109 16 21 29 46
29 55 0 40 -41 7 -132 -109 -152 -193 -169 -220 -147 -247 14 -17 -3 -32 -61
-56 -174 -69 -162 -17 60 268 189 241 214 287 128 230 -183 -120 24 310 223
462 38 29 69 65 69 80 0 41 -22 33 -99 -33 -85 -73 -93 -73 -110 -4 -8 30 -42
84 -77 120 l-63 66 85 170 c94 190 94 189 59 189 -14 0 -47 -32 -74 -72 -91
-133 -301 -242 -301 -155 0 18 32 122 71 231 40 109 68 208 64 220 -13 40
-194 -187 -268 -336 -75 -152 -94 -171 -115 -116 -25 65 -10 142 40 209 107
143 231 343 257 415 33 90 170 384 179 384 3 0 48 -71 99 -157z m-4066 46 c16
-33 60 -99 96 -149 101 -136 191 -320 143 -290 -42 26 44 -215 123 -345 23
-36 37 -88 33 -120 -7 -54 -8 -54 -47 25 -21 44 -49 90 -61 103 -12 13 -57 82
-100 155 -159 267 -145 158 30 -246 92 -212 95 -226 49 -208 -27 10 -31 1 -23
-52 15 -100 -18 -93 -73 16 -48 96 -84 136 -103 117 -5 -5 36 -103 91 -217
107 -222 119 -285 70 -379 -31 -61 -75 -81 -65 -30 6 30 -240 202 -260 182 -6
-6 7 -36 29 -66 22 -30 100 -143 174 -251 190 -279 181 -293 -77 -121 -225
150 -236 122 -32 -79 161 -158 187 -236 47 -138 -101 71 -146 89 -132 54 6
-16 18 -30 27 -30 9 0 21 -15 28 -32 17 -44 -57 -25 -227 57 -151 73 -449 106
-483 53 -42 -67 -22 -142 30 -108 75 50 175 72 260 58 86 -14 64 -47 -32 -48
-29 0 -59 -9 -66 -20 -9 -14 15 -16 69 -8 121 19 98 -16 -53 -82 -164 -71
-326 -218 -326 -295 0 -77 34 -85 69 -18 97 188 404 343 616 311 140 -22 150
-40 38 -67 -57 -14 -103 -34 -103 -45 0 -11 13 -15 29 -9 112 43 263 35 371
-21 151 -77 150 -106 -7 -183 -186 -92 -273 -224 -273 -416 0 -100 10 -97
-210 -57 -196 35 -225 37 -198 10 17 -17 313 -80 373 -80 8 0 15 -15 15 -33 0
-26 -14 -30 -75 -19 -41 8 -124 19 -185 26 -151 16 -194 42 -350 210 -203 219
-227 354 -101 562 61 102 67 125 58 219 -9 91 -1 126 61 259 59 125 72 177 72
280 0 106 15 164 92 347 131 314 146 358 159 485 13 121 69 278 188 524 151
312 162 323 222 209z m2439 20 c-11 -42 -10 -153 2 -633 8 -312 -7 -399 -61
-345 -24 24 -37 923 -14 985 21 58 88 52 73 -7z m-953 -50 c24 -91 2 -898 -26
-926 -50 -50 -65 24 -58 275 l7 252 -50 -1 c-48 0 -49 -1 -11 -29 21 -16 34
-33 30 -38 -18 -17 -112 12 -159 51 l-50 39 70 -12 c66 -11 68 -10 30 19 -119
93 -123 99 -82 107 20 5 77 -20 125 -54 49 -34 92 -62 98 -62 5 0 9 104 9 232
0 239 26 297 67 147z m1400 -33 c-19 -14 -25 -26 -14 -26 14 0 16 -26 7 -75
-27 -132 -61 -199 -112 -222 -28 -13 -45 -32 -38 -42 15 -25 -66 -106 -91 -91
-10 7 -19 65 -19 130 0 64 -9 120 -20 123 -11 4 2 33 29 64 29 33 62 53 78 47
18 -7 33 4 39 27 6 22 24 39 40 39 16 0 35 13 41 29 6 16 30 27 53 25 40 -2
40 -4 7 -28z m-587 -105 c0 -43 -307 -231 -342 -210 -45 28 -6 65 147 143 179
90 195 96 195 67z m-631 -82 c53 -36 121 -63 165 -66 101 -6 123 -73 25 -73
-75 0 -299 129 -299 171 0 39 5 38 109 -32z m13 -259 c119 -66 149 -70 232
-38 31 13 79 26 106 30 28 3 75 10 105 14 66 10 88 -37 52 -114 -22 -48 -45
-60 -112 -57 -14 0 -25 -7 -25 -17 0 -9 -13 -12 -28 -6 -17 6 -39 -7 -51 -31
-13 -23 -30 -38 -38 -33 -9 6 -45 -8 -81 -30 l-65 -39 -62 59 -61 60 52 24
c29 13 48 32 42 41 -6 9 -1 17 11 17 11 0 21 9 21 20 0 11 -15 20 -33 20 -93
0 -187 47 -187 93 0 58 -8 59 122 -13z m578 -217 c0 -59 -167 -143 -285 -143
-106 0 -84 20 105 97 166 67 180 71 180 46z m-647 -193 c-16 -50 -63 -16 -69
50 l-5 70 40 -50 c22 -27 37 -59 34 -70z m-285 26 c38 -53 35 -57 -56 -65 -86
-8 -101 8 -60 66 39 55 78 55 116 -1z m2101 -148 c87 -34 91 -79 91 -1017 0
-490 -7 -891 -15 -891 -8 0 -719 -2 -1580 -5 l-1565 -5 0 916 0 916 49 49 49
49 1469 0 c809 0 1484 -6 1502 -12z m320 -181 c-11 -103 -7 -137 21 -180 47
-72 51 -193 7 -250 -52 -71 -62 -39 -71 236 -5 140 -16 269 -26 287 -25 47 16
88 55 56 21 -17 24 -53 14 -149z m317 -11 c31 -64 30 -67 -22 -122 -82 -86
-136 -67 -127 45 16 193 77 225 149 77z m-133 -546 c7 -18 -16 -61 -56 -105
-37 -41 -83 -96 -101 -122 -18 -26 -43 -41 -55 -33 -26 16 44 149 92 177 16 9
37 38 48 65 20 54 55 63 72 18z m-3653 -830 c0 -70 -6 -80 -45 -80 -28 0 -36
-6 -21 -16 17 -11 8 -47 -35 -134 -60 -121 -80 -257 -51 -345 13 -41 9 -45
-60 -45 -87 0 -148 46 -148 113 0 60 51 62 68 2 19 -69 48 -6 63 137 7 65 20
143 30 174 10 30 10 51 1 45 -23 -14 -57 -106 -71 -196 -10 -56 -22 -75 -51
-75 -62 0 -10 241 73 340 39 47 198 151 242 159 3 1 5 -35 5 -79z m3545 -77
c69 -76 135 -238 135 -330 0 -61 -80 -213 -112 -213 -32 0 -38 32 -9 49 91 57
36 383 -83 495 -86 80 -112 69 -37 -16 103 -118 119 -224 67 -443 -19 -80 -58
-52 -49 35 11 119 -11 205 -77 303 -45 66 -59 110 -60 182 l0 96 76 -39 c42
-22 109 -75 149 -119z m-3525 -162 c0 -90 -19 -111 -69 -75 -32 24 -32 29 3
90 48 85 66 81 66 -15z m3342 -24 c13 -25 18 -79 11 -129 -10 -71 -7 -84 17
-75 36 13 37 -6 9 -88 -17 -47 -36 -63 -85 -71 -89 -13 -101 1 -54 60 32 41
40 81 40 199 0 149 20 182 62 104z m-3424 -169 c40 47 82 39 82 -15 0 -26 18
-70 40 -98 55 -71 52 -75 -50 -75 -101 0 -131 39 -129 166 1 48 5 55 16 27 14
-33 17 -34 41 -5z m3278 -24 c4 -26 -14 -64 -44 -94 l-50 -50 -1450 0 -1450 0
-49 45 c-73 66 -92 144 -31 124 86 -27 2974 -21 3002 7 33 33 65 20 72 -32z
m836 -67 c31 -50 -76 -97 -210 -92 -163 6 -185 45 -38 66 58 8 124 21 146 30
57 23 86 22 102 -4z m-4574 -23 c181 -34 185 -74 7 -74 -111 0 -146 8 -181 41
-74 69 -45 74 174 33z"/>
<path d="M2881 5514 c-11 -31 -21 -68 -21 -82 0 -41 -64 -103 -154 -149 -46
-23 -89 -52 -96 -63 -7 -11 -19 -17 -27 -12 -8 5 -16 -10 -18 -34 -2 -24 -13
-47 -24 -50 -12 -4 -20 -27 -19 -51 2 -27 6 -31 11 -12 10 35 340 212 360 193
22 -22 -28 -65 -148 -125 -63 -32 -118 -65 -122 -73 -3 -9 -15 -11 -25 -5 -19
12 -20 9 -28 -66 -6 -61 32 -58 183 13 195 92 207 111 207 318 0 205 -39 302
-79 198z"/>
<path d="M2909 4993 c-21 -15 -66 -37 -99 -48 -44 -16 -49 -22 -20 -23 38 -2
170 66 170 88 0 15 -7 13 -51 -17z"/>
<path d="M2162 4809 c-61 -103 -44 -141 21 -49 30 43 46 85 38 99 -10 16 -30
-1 -59 -50z"/>
<path d="M3540 5065 c0 -10 32 -48 71 -86 40 -38 104 -121 143 -185 81 -133
111 -139 48 -9 -66 137 -262 346 -262 280z"/>
<path d="M1592 3729 c-87 -70 -184 -133 -215 -140 -69 -15 -197 -130 -197
-178 0 -26 11 -30 45 -20 96 29 175 68 175 85 0 10 52 46 116 80 135 72 171
107 214 212 44 105 40 104 -138 -39z"/>
<path d="M1535 3465 c-6 -26 15 -560 24 -600 16 -70 41 38 41 180 0 329 -33
541 -65 420z"/>
<path d="M1766 3110 c-85 -164 -182 -478 -129 -419 37 42 186 426 179 461 -6
30 -17 20 -50 -42z"/>
<path d="M4678 3563 c-24 -68 6 -383 36 -383 27 0 30 23 17 174 -13 167 -37
258 -53 209z"/>
<path d="M5512 1323 c-10 -15 148 -123 181 -123 41 0 -2 97 -48 106 -30 6 -70
17 -88 24 -18 7 -38 4 -45 -7z"/>
<path d="M5454 995 c34 -36 99 -139 143 -228 84 -168 123 -217 123 -153 -1 99
-232 446 -298 446 -20 0 -10 -21 32 -65z"/>
<path d="M5060 925 c0 -8 54 -48 120 -89 135 -83 200 -173 200 -276 0 -92 78
-193 132 -172 35 14 34 18 -17 55 -40 29 -55 58 -55 104 -1 84 -61 210 -132
277 -81 75 -248 144 -248 101z"/>
<path d="M1008 3165 c-103 -155 -183 -365 -348 -912 -66 -219 -120 -430 -120
-470 0 -41 -23 -116 -50 -168 -28 -52 -46 -95 -40 -95 6 0 1 -20 -12 -45 l-23
-45 42 44 c23 24 54 51 69 60 51 31 117 148 121 211 2 36 10 75 18 87 8 13 15
92 17 176 l3 154 43 -40 c42 -40 171 -102 211 -102 52 0 10 38 -109 100 -72
37 -122 73 -112 79 10 6 31 56 47 111 16 55 39 101 52 103 13 1 32 3 43 5 25
3 27 62 2 62 -10 0 -22 -11 -27 -24 -4 -14 -13 -10 -22 12 -12 32 -5 35 49 27
66 -9 70 18 25 183 -25 92 42 32 83 -75 22 -56 48 -103 57 -103 29 0 -4 126
-50 188 -40 55 -41 62 -12 120 17 34 42 121 55 192 12 72 27 150 32 175 12 59
0 57 -44 -10z"/>
<path d="M476 945 c-70 -74 -136 -187 -136 -231 0 -57 36 -21 93 92 28 57 70
124 93 149 22 25 32 45 21 45 -11 0 -43 -25 -71 -55z"/>
<path d="M874 952 c-154 -42 -254 -165 -254 -313 0 -85 30 -58 70 61 38 115
93 164 231 210 155 52 117 86 -47 42z"/>
<path d="M540 423 c0 -21 116 -42 225 -43 91 0 99 30 13 48 -92 18 -238 15
-238 -5z"/>
<path d="M1514 2172 c-16 -41 34 -101 72 -86 18 7 38 4 44 -6 11 -18 307 -10
326 9 5 5 28 -1 52 -13 23 -13 74 -21 112 -19 287 20 533 16 573 -11 32 -21
45 -22 51 -4 5 15 57 25 142 26 74 1 134 9 134 18 0 9 11 9 25 0 14 -9 84 -17
155 -19 72 -1 155 -7 185 -13 30 -6 59 -3 65 5 5 9 120 13 255 9 135 -4 254
-8 265 -8 251 -6 470 46 470 111 0 43 -2910 44 -2926 1z"/>
</g>
</svg>
