<?xml version="1.0" standalone="no"?>
<!DOCTYPE svg PUBLIC "-//W3C//DTD SVG 20010904//EN"
 "http://www.w3.org/TR/2001/REC-SVG-20010904/DTD/svg10.dtd">
<svg version="1.0" xmlns="http://www.w3.org/2000/svg"
 width="825.000000pt" height="549.000000pt" viewBox="0 0 825.000000 549.000000"
 preserveAspectRatio="xMidYMid meet">
<metadata>
Created by potrace 1.10, written by Peter Selinger 2001-2011
</metadata>
<g transform="translate(0.000000,549.000000) scale(0.100000,-0.100000)"
fill="#000000" stroke="none">
<path d="M3529 5141 c-7 -2 -19 -10 -26 -17 -9 -9 -46 -13 -120 -12 -83 0
-109 -3 -118 -15 -6 -9 -29 -15 -60 -15 -33 -1 -52 -6 -57 -17 -5 -8 -18 -15
-28 -15 -26 0 -60 -34 -60 -60 0 -10 -8 -23 -17 -29 -14 -7 -15 -12 -5 -23 15
-19 3 -32 -15 -16 -20 16 -25 5 -13 -26 12 -32 4 -50 -17 -42 -12 5 -14 0 -10
-21 6 -32 -24 -66 -67 -77 -19 -5 -26 -13 -26 -31 0 -27 27 -34 48 -13 19 19
15 -12 -6 -56 -16 -33 -20 -36 -32 -21 -12 14 -15 13 -27 -17 -12 -27 -16 -30
-23 -17 -12 21 -1 59 16 59 8 0 14 7 14 15 0 8 -7 15 -15 15 -8 0 -15 -7 -15
-15 0 -8 -7 -15 -16 -15 -11 0 -15 -6 -11 -20 3 -13 -2 -25 -15 -34 -26 -18
-16 -35 17 -28 20 3 24 1 19 -11 -3 -9 -23 -18 -45 -22 -24 -4 -39 -12 -39
-21 0 -16 16 -19 25 -4 10 16 25 1 25 -25 0 -16 -10 -30 -30 -42 -17 -9 -30
-26 -30 -36 0 -15 -5 -18 -21 -14 -17 5 -20 1 -17 -26 3 -28 0 -32 -19 -29
-17 2 -23 -2 -23 -15 0 -10 -14 -31 -30 -47 -17 -16 -30 -38 -30 -48 0 -10 -7
-21 -15 -24 -8 -4 -15 -17 -15 -30 0 -14 -7 -27 -15 -30 -8 -4 -15 -16 -15
-29 0 -13 -7 -26 -16 -29 -10 -4 -14 -15 -12 -33 2 -23 7 -27 28 -25 14 2 27
8 28 13 6 16 40 10 45 -8 3 -10 6 -41 6 -69 1 -45 -2 -52 -20 -57 -19 -5 -21
-10 -15 -52 6 -35 3 -56 -12 -88 -11 -23 -23 -60 -27 -81 -4 -27 -19 -51 -45
-78 -69 -67 -87 -37 -19 33 25 27 37 45 31 51 -16 16 -52 -1 -52 -24 0 -14 -5
-18 -15 -14 -10 4 -15 -1 -15 -14 0 -13 -7 -20 -19 -20 -25 0 -38 -17 -47 -65
-4 -22 -12 -43 -18 -47 -8 -6 -8 -10 1 -16 23 -15 63 -83 63 -107 0 -37 -17
-30 -41 16 -11 23 -29 51 -40 62 l-19 21 -21 -23 c-20 -22 -20 -23 -3 -37 18
-14 17 -15 -14 -10 -30 5 -32 4 -26 -19 5 -20 2 -25 -20 -31 -14 -3 -26 -10
-26 -14 0 -10 -72 -6 -89 4 -6 4 -14 0 -17 -8 -5 -12 -21 -16 -63 -16 -31 0
-61 -4 -67 -10 -5 -5 -45 -13 -87 -16 -45 -4 -82 -13 -88 -20 -6 -8 -17 -14
-23 -14 -6 0 -23 -8 -36 -17 -14 -10 -32 -16 -41 -15 -9 2 -19 -4 -22 -13 -4
-8 -15 -15 -26 -15 -23 0 -51 -42 -32 -48 21 -7 11 -22 -14 -22 -19 0 -25 5
-25 22 l0 21 -25 -23 c-19 -18 -22 -26 -13 -37 10 -12 7 -13 -16 -7 -21 5 -32
1 -49 -18 -13 -14 -32 -30 -43 -36 -14 -8 -16 -14 -7 -23 6 -6 9 -18 6 -26 -9
-22 -49 -63 -62 -63 -6 0 -11 -5 -11 -10 0 -6 -8 -10 -17 -8 -14 2 -17 -3 -15
-23 2 -20 -2 -28 -17 -32 -13 -3 -21 -13 -21 -26 0 -11 -7 -24 -16 -29 -9 -5
-15 -15 -12 -23 3 -8 -8 -36 -24 -63 -16 -27 -27 -55 -24 -63 3 -8 -5 -25 -19
-37 -27 -26 -31 -46 -13 -75 16 -26 4 -51 -22 -44 -17 5 -21 2 -20 -13 5 -46
-1 -74 -15 -74 -11 0 -15 -11 -15 -39 0 -22 -5 -43 -11 -46 -6 -4 -7 -19 -4
-37 8 -35 -11 -112 -31 -129 -20 -17 -17 -45 7 -68 l21 -19 -21 -7 c-32 -10
-27 -43 7 -47 19 -2 28 -9 30 -25 4 -29 -20 -30 -55 -3 -14 11 -32 20 -39 20
-10 0 -11 6 -4 26 16 41 -4 57 -59 49 -25 -4 -50 -11 -55 -16 -6 -5 -52 -9
-102 -9 -69 0 -96 -4 -108 -15 -8 -8 -21 -15 -29 -15 -8 0 -20 -7 -27 -15 -7
-8 -22 -15 -34 -15 -12 0 -34 -15 -50 -32 -15 -18 -50 -56 -77 -84 -44 -47
-48 -54 -42 -88 5 -33 3 -38 -17 -43 -19 -5 -21 -11 -17 -39 5 -27 2 -36 -14
-44 -16 -9 -19 -22 -19 -83 0 -52 -5 -79 -17 -97 -22 -31 -27 -139 -7 -147 19
-7 18 -59 -1 -67 -23 -8 -23 -494 0 -502 13 -5 15 -35 15 -180 0 -146 2 -176
15 -180 12 -5 15 -28 15 -120 0 -93 3 -116 15 -120 11 -5 15 -23 15 -75 0 -53
4 -71 15 -75 8 -4 15 -17 15 -30 l0 -24 3905 0 3905 0 0 100 0 100 -34 0 c-21
0 -36 6 -40 15 -4 12 -27 15 -120 15 -92 0 -115 3 -120 15 -4 11 -22 15 -73
15 -63 1 -70 3 -93 30 -13 17 -32 30 -42 30 -10 0 -27 9 -38 20 -25 25 -28 95
-5 104 8 3 15 16 15 30 0 13 7 26 15 30 10 3 15 19 15 45 0 25 5 41 15 45 8 3
15 16 15 30 0 13 7 26 15 30 8 3 15 16 15 30 0 13 7 26 15 30 8 3 15 16 15 30
0 13 7 26 15 30 10 3 15 19 15 45 0 25 5 41 15 45 8 3 15 16 15 30 0 13 7 26
15 30 10 3 15 19 15 45 0 25 5 41 15 45 8 3 15 16 15 30 0 13 7 26 15 30 10 3
15 19 15 45 0 25 5 41 15 45 8 3 15 16 15 30 0 13 7 26 15 30 8 3 15 16 15 30
0 13 7 26 15 30 8 3 15 16 15 30 0 13 7 26 15 30 8 3 15 16 15 30 0 13 7 26
15 30 10 3 15 19 15 45 0 25 5 41 15 45 8 3 15 16 15 30 0 13 7 26 15 30 10 3
15 19 15 45 0 25 5 41 15 45 8 3 15 17 15 31 0 22 9 30 33 26 4 0 7 87 7 194
l0 195 -49 0 c-34 0 -51 4 -55 15 -4 12 -24 15 -90 15 -65 0 -85 3 -90 15 -4
12 -24 15 -90 15 -65 0 -85 3 -90 15 -4 11 -21 15 -60 15 -39 0 -55 4 -60 15
-4 12 -24 15 -90 15 -65 0 -85 3 -90 15 -4 11 -22 15 -75 15 -52 0 -70 4 -75
15 -4 11 -22 15 -75 15 -52 0 -70 4 -75 15 -4 12 -30 15 -142 15 l-136 0 -39
-39 c-28 -28 -39 -47 -39 -69 0 -16 -7 -35 -15 -42 -8 -7 -15 -23 -15 -35 0
-13 -7 -25 -15 -29 -10 -3 -15 -19 -15 -45 0 -25 -5 -41 -15 -45 -8 -3 -15
-16 -15 -30 0 -13 -7 -26 -15 -30 -8 -3 -15 -16 -15 -30 0 -13 -7 -26 -15 -30
-8 -3 -15 -16 -15 -30 0 -13 -7 -26 -15 -30 -9 -3 -15 -18 -15 -39 0 -19 -7
-40 -15 -47 -8 -7 -15 -23 -15 -35 0 -13 -7 -25 -15 -29 -8 -3 -15 -16 -15
-30 0 -13 -7 -26 -15 -30 -10 -3 -15 -19 -15 -45 0 -25 -5 -41 -15 -45 -8 -3
-15 -16 -15 -30 0 -13 -7 -26 -15 -30 -10 -3 -15 -19 -15 -45 0 -25 -5 -41
-15 -45 -8 -3 -15 -16 -15 -30 0 -13 -7 -26 -15 -30 -8 -3 -15 -16 -15 -30 0
-13 -7 -26 -15 -30 -8 -3 -15 -14 -15 -24 0 -11 -7 -25 -15 -32 -8 -7 -15 -23
-15 -35 0 -13 -7 -25 -15 -29 -8 -3 -15 -16 -15 -30 0 -13 -7 -26 -15 -30 -8
-3 -15 -16 -15 -30 0 -25 -16 -36 -54 -36 -12 0 -26 -4 -32 -9 -5 -5 -42 -12
-82 -15 -60 -6 -73 -5 -78 8 -4 9 -24 19 -45 22 -22 4 -42 11 -45 15 -3 5 -23
9 -45 9 -26 0 -42 5 -45 15 -4 9 -19 15 -39 15 -18 0 -38 7 -45 15 -7 8 -21
15 -31 15 -9 0 -24 7 -33 15 -8 8 -21 13 -28 10 -8 -3 -23 3 -33 15 -13 15
-31 20 -67 20 -34 0 -50 5 -54 15 -4 10 -20 15 -44 15 -21 0 -43 7 -50 15 -7
8 -21 15 -32 15 -10 0 -21 7 -24 15 -4 8 -16 15 -28 15 -13 0 -30 14 -45 35
-18 27 -29 34 -44 29 -14 -4 -27 3 -48 25 -15 17 -37 31 -49 31 -11 0 -23 7
-26 15 -4 9 -19 15 -35 15 -16 0 -29 5 -29 12 0 6 -20 30 -45 54 -25 23 -45
50 -45 60 0 11 -21 38 -45 62 -25 24 -45 52 -45 63 0 16 -7 19 -40 19 -27 0
-43 5 -46 15 -4 8 -15 15 -27 15 -11 0 -29 7 -39 17 -17 15 -18 15 -18 -5 0
-25 -3 -26 -31 -9 -17 10 -22 9 -30 -5 -14 -24 -62 -24 -57 0 2 9 13 18 26 20
31 5 28 22 -4 22 -16 0 -24 5 -21 13 5 14 66 12 81 -3 17 -17 26 -11 26 15 0
14 -7 28 -15 31 -8 4 -15 15 -15 25 0 22 -64 89 -85 89 -19 0 -19 -16 0 -24
16 -6 21 -36 5 -36 -41 0 -78 48 -50 65 19 12 10 48 -20 77 -16 15 -30 32 -30
36 0 18 -48 52 -74 52 -19 0 -29 6 -33 20 -3 11 -8 20 -12 20 -4 0 -18 14 -30
31 l-23 31 24 22 c28 24 36 93 12 103 -8 3 -14 16 -14 29 0 19 -5 24 -25 24
-28 0 -34 -15 -10 -24 11 -4 14 -13 9 -31 -5 -21 -2 -27 15 -32 21 -5 21 -7 5
-24 -25 -27 -46 -25 -38 5 4 16 1 25 -11 30 -11 4 -14 12 -10 26 5 14 -2 27
-22 44 -22 20 -26 27 -15 37 17 18 15 56 -3 63 -8 3 -15 16 -15 30 0 16 -7 27
-20 31 -15 5 -19 12 -14 29 4 19 -1 28 -30 46 -30 18 -35 26 -30 46 5 18 2 24
-10 24 -12 0 -16 10 -16 43 0 35 -6 49 -29 71 -89 84 -93 85 -83 14 13 -94 9
-173 -8 -173 -11 0 -14 10 -13 35 11 209 11 249 -3 254 -22 9 -17 24 21 57 19
17 35 39 35 49 0 10 7 23 15 30 8 7 13 16 10 20 -2 4 2 16 10 26 8 10 15 26
15 35 0 8 16 30 35 49 19 18 32 36 30 40 -3 4 4 19 15 33 11 14 20 32 20 40 0
8 7 20 15 27 8 7 15 20 15 30 0 10 7 20 15 24 8 3 15 16 15 29 0 14 7 30 15
37 8 7 15 19 15 27 0 7 7 25 16 38 9 13 13 33 10 43 -4 11 0 24 9 32 10 9 15
31 15 75 0 43 5 66 15 75 8 7 15 20 15 30 0 10 7 23 15 30 8 7 15 25 15 41 0
15 7 34 15 43 8 8 15 25 15 38 0 13 9 29 19 35 13 8 18 19 14 33 -3 11 2 32
12 46 10 16 16 46 16 82 0 51 -3 60 -30 84 -17 15 -31 36 -31 46 0 21 -73 96
-83 86 -4 -4 -4 -18 -1 -30 8 -30 -6 -31 -34 -1 -28 30 -28 37 2 37 22 0 24 5
28 51 2 41 -1 54 -15 64 -13 9 -17 20 -12 35 5 16 2 23 -14 27 -17 4 -21 13
-21 43 0 30 -6 44 -30 63 -16 14 -30 34 -30 44 0 23 -181 203 -204 203 -23 0
-126 107 -126 131 0 10 -4 19 -9 19 -5 0 -13 9 -16 20 -5 15 -12 19 -26 15
-14 -5 -27 3 -46 25 -28 34 -23 34 -157 14 -30 -5 -37 -3 -34 7 3 9 20 14 44
14 28 0 39 4 39 15 0 11 -9 14 -38 12 -25 -3 -43 1 -50 11 -13 16 -64 26 -88
18z m-69 -86 c-13 -14 -30 -25 -37 -25 -8 0 -25 -11 -38 -25 -24 -27 -105 -50
-91 -27 4 7 13 12 19 12 7 0 18 9 25 20 18 30 83 69 116 69 l29 1 -23 -25z
m330 -124 c0 -4 32 -28 70 -54 57 -39 74 -46 90 -37 27 14 30 13 30 -15 0 -15
-8 -29 -21 -36 -18 -9 -27 -7 -50 10 -15 12 -37 21 -47 21 -21 0 -132 104
-132 124 0 7 -9 21 -20 31 -11 10 -17 22 -14 26 5 9 94 -57 94 -70z m-704 -82
c10 -17 -13 -36 -27 -22 -12 12 -4 33 11 33 5 0 12 -5 16 -11z m954 -75 c0
-11 -8 -14 -27 -12 -39 4 -42 28 -4 28 21 0 31 -5 31 -16z m121 -87 c34 -17
38 -47 6 -47 -14 0 -30 6 -37 14 -7 10 -29 14 -59 14 -26 -1 -55 3 -65 9 -16
9 -13 11 20 17 22 5 49 19 63 34 l25 27 11 -28 c6 -16 22 -34 36 -40z m-1211
-186 c0 -10 -7 -21 -15 -25 -8 -3 -18 -24 -21 -46 -4 -22 -14 -45 -23 -49 -9
-5 -25 -32 -36 -60 -11 -28 -25 -51 -31 -51 -7 0 -15 -16 -18 -35 -7 -36 -29
-47 -40 -19 -11 29 -6 54 14 71 11 10 20 23 20 30 0 7 6 13 13 13 8 0 19 11
25 25 6 14 16 25 22 25 5 0 10 16 10 35 0 22 6 38 15 41 8 4 15 14 15 23 0 20
19 41 37 41 7 0 13 -9 13 -19z m1320 9 c0 -5 -6 -10 -14 -10 -8 0 -18 5 -21
10 -3 6 3 10 14 10 12 0 21 -4 21 -10z m-80 -129 c0 -23 -16 -36 -25 -21 -9
14 1 40 15 40 5 0 10 -9 10 -19z m-1140 -40 c0 -17 -4 -33 -10 -36 -6 -4 -10
8 -10 29 0 20 5 36 10 36 6 0 10 -13 10 -29z m1347 -137 c-9 -9 -28 6 -21 18
4 6 10 6 17 -1 6 -6 8 -13 4 -17z m-1634 -78 c6 -14 -15 -52 -56 -101 -21 -25
-28 -28 -39 -17 -10 10 -10 17 4 40 10 15 25 42 35 60 17 33 47 43 56 18z
m243 -85 c-10 -11 -16 -36 -16 -64 0 -26 -4 -47 -10 -47 -13 0 -13 97 -1 104
5 4 12 25 16 49 10 61 20 68 23 18 2 -29 -2 -49 -12 -60z m-478 -475 c-11 -8
-18 -26 -18 -46 0 -34 24 -117 46 -162 10 -18 11 -33 5 -50 l-10 -23 0 24 c-1
22 -22 74 -57 143 -8 14 -14 35 -14 46 0 12 -4 24 -10 27 -20 12 -9 40 23 56
37 19 64 7 35 -15z m371 -47 c-12 -21 -14 -22 -17 -6 -6 28 6 53 19 40 8 -8 7
-18 -2 -34z m-609 -195 c0 -28 2 -27 -39 -13 -34 12 -42 35 -13 41 32 7 52 -4
52 -28z m158 17 c3 -8 -1 -12 -9 -9 -7 2 -15 10 -17 17 -3 8 1 12 9 9 7 -2 15
-10 17 -17z m-509 -97 c2 -2 -4 -13 -14 -24 -21 -24 -48 -26 -65 -5 -14 17
-75 20 -85 5 -3 -5 -14 -9 -23 -9 -15 1 -15 2 1 6 9 2 17 11 17 18 0 8 12 16
28 18 27 4 134 -2 141 -9z m651 -45 c0 -17 -4 -28 -10 -24 -5 3 -10 17 -10 31
0 13 5 24 10 24 6 0 10 -14 10 -31z m-896 -25 c4 -9 5 -19 2 -21 -6 -6 -46 20
-46 29 0 15 38 8 44 -8z m164 -11 c-2 -5 -12 -25 -21 -45 -10 -21 -22 -38 -27
-38 -18 0 -24 32 -9 44 9 6 18 19 22 29 3 9 14 17 23 17 8 0 14 -3 12 -7z
m-518 -412 c0 -24 -18 -37 -32 -23 -8 8 -7 16 2 27 17 21 30 19 30 -4z m-60
-85 c-13 -13 -35 7 -25 24 5 8 11 8 21 -1 10 -8 12 -15 4 -23z m-16 -57 c-7
-11 -44 -12 -44 -1 0 15 11 20 30 15 11 -3 17 -9 14 -14z m2556 -120 c0 -31
-4 -48 -10 -44 -17 11 -12 95 7 95 2 0 3 -23 3 -51z m-2630 -83 c0 -8 -4 -17
-9 -21 -12 -7 -24 12 -16 25 9 15 25 12 25 -4z m2631 -73 c2 -96 2 -460 0
-758 -2 -318 -19 -201 -25 170 -4 187 -6 347 -5 355 0 8 3 84 5 168 5 164 23
210 25 65z m-2625 23 c3 -8 -4 -24 -15 -35 -12 -12 -21 -28 -21 -36 0 -8 -7
-15 -15 -15 -20 0 -19 31 3 69 18 33 39 40 48 17z m-73 -198 c-10 -54 -23 -27
-18 40 2 37 5 69 6 72 5 16 16 -90 12 -112z m2617 -32 c0 -41 -4 -78 -10 -81
-6 -4 -10 23 -10 74 0 47 4 81 10 81 6 0 10 -31 10 -74z m-2278 -28 c-15 -15
-46 -5 -50 14 -3 15 0 16 28 6 20 -7 28 -14 22 -20z m-206 11 c10 -17 -13 -36
-27 -22 -12 12 -4 33 11 33 5 0 12 -5 16 -11z m34 -93 c0 -2 3 -11 6 -20 4
-12 0 -16 -15 -16 -14 0 -21 6 -21 20 0 11 7 20 15 20 8 0 15 -2 15 -4z m3238
-34 c3 -9 -2 -13 -14 -10 -9 1 -19 9 -22 16 -3 9 2 13 14 10 9 -1 19 -9 22
-16z m-3488 -42 c0 -30 -13 -40 -25 -20 -8 13 4 50 16 50 5 0 9 -13 9 -30z
m3534 -6 c4 -10 -3 -25 -18 -39 l-25 -23 -9 28 c-7 19 -7 31 1 39 16 16 44 13
51 -5z m-2126 -62 c4 -25 -13 -30 -22 -6 -9 25 -7 36 7 32 6 -3 13 -14 15 -26z
m2130 -29 c-4 -22 -22 -20 -26 1 -2 10 3 16 13 16 10 0 15 -7 13 -17z m-2078
-22 c15 -29 -1 -31 -27 -4 -21 22 -21 23 -3 23 11 0 24 -9 30 -19z m-1460 -47
c0 -34 1 -35 33 -29 25 5 37 2 51 -14 18 -19 17 -20 -20 -27 -23 -4 -44 -2
-56 5 -11 7 -28 9 -39 6 -16 -5 -19 -1 -19 25 0 34 27 83 41 74 5 -3 9 -21 9
-40z m1375 7 c-14 -12 -135 -21 -135 -10 0 9 35 14 76 10 12 -1 27 6 34 14 9
11 16 13 24 5 6 -6 6 -13 1 -19z m-1164 -70 c-8 -5 -20 -7 -28 -4 -21 8 -15
13 15 13 20 0 23 -3 13 -9z m919 -31 c-35 -21 -60 -43 -60 -52 0 -6 -11 -23
-25 -40 -14 -16 -25 -36 -25 -44 0 -9 -5 -24 -11 -35 -8 -16 -13 -18 -25 -8
-20 16 -17 52 6 93 14 22 17 37 10 41 -20 13 -9 23 48 40 31 10 61 21 67 26 5
5 13 5 19 -1 8 -8 6 -14 -4 -20z m308 -8 c2 -7 -2 -10 -12 -6 -9 3 -16 11 -16
16 0 13 23 5 28 -10z m-80 -20 c2 -7 -6 -12 -17 -12 -21 0 -27 11 -14 24 9 9
26 2 31 -12z m132 5 c0 -1 -9 -10 -20 -20 -19 -16 -20 -16 -20 3 0 13 7 20 20
20 11 0 20 -1 20 -3z m-1520 -57 c0 -22 -16 -35 -25 -20 -9 14 4 52 16 45 5
-4 9 -15 9 -25z m1454 15 c22 -17 12 -38 -15 -30 -11 4 -31 0 -44 -9 -29 -19
-58 -22 -34 -3 9 7 21 22 28 35 13 25 37 28 65 7z m166 -40 c0 -8 -4 -15 -10
-15 -5 0 -10 7 -10 15 0 8 5 15 10 15 6 0 10 -7 10 -15z m2235 -5 c3 -6 -1
-13 -10 -16 -19 -8 -30 0 -20 15 8 14 22 14 30 1z m-2293 -22 c2 -16 9 -22 21
-20 21 4 49 -16 41 -29 -9 -15 -49 -10 -65 9 -25 29 -31 41 -24 52 11 17 23
11 27 -12z m2388 12 c0 -5 -7 -10 -15 -10 -8 0 -15 5 -15 10 0 6 7 10 15 10 8
0 15 -4 15 -10z m-2610 -19 c0 -5 -12 -14 -27 -20 -16 -6 -41 -20 -58 -30 -16
-11 -39 -20 -50 -20 -17 -1 -16 3 10 24 17 13 37 24 46 25 9 0 22 7 29 15 14
16 50 21 50 6z m2570 -1 c0 -5 -9 -10 -20 -10 -11 0 -20 5 -20 10 0 6 9 10 20
10 11 0 20 -4 20 -10z m-140 -25 c0 -8 -4 -15 -10 -15 -5 0 -10 7 -10 15 0 8
5 15 10 15 6 0 10 -7 10 -15z m-1876 -20 c3 -8 12 -15 20 -15 9 0 20 -9 26
-19 8 -16 17 -19 45 -14 42 7 48 -12 9 -29 -23 -11 -28 -10 -41 7 -12 17 -24
20 -89 17 -58 -2 -75 0 -72 10 3 7 20 15 39 18 22 3 30 8 22 13 -21 13 -15 27
11 27 13 0 26 -7 30 -15z m-124 -13 c0 -4 -25 -16 -56 -27 -30 -10 -60 -27
-65 -37 -5 -10 -16 -18 -24 -18 -7 0 -15 -5 -17 -11 -2 -6 -13 -9 -23 -6 -19
5 -19 5 3 12 12 4 22 11 22 15 0 4 21 24 47 44 32 25 57 36 80 36 18 0 33 -4
33 -8z m-1800 -32 c0 -11 -4 -20 -10 -20 -5 0 -10 9 -10 20 0 11 5 20 10 20 6
0 10 -9 10 -20z m4043 -4 c33 -26 19 -36 -47 -34 l-64 2 21 22 c25 25 64 29
90 10z m-1193 -166 c8 -15 8 -20 -3 -20 -14 0 -37 19 -37 32 0 16 30 7 40 -12z
m219 -69 c26 -17 -5 -39 -55 -39 -24 0 -44 3 -44 6 1 17 19 34 29 28 6 -4 19
-2 28 3 22 13 25 13 42 2z m-169 -61 c0 -5 -9 -10 -20 -10 -11 0 -20 5 -20 10
0 6 9 10 20 10 11 0 20 -4 20 -10z m-2120 -114 c0 -17 -14 -29 -23 -20 -8 8 3
34 14 34 5 0 9 -6 9 -14z m-580 -96 c0 -15 -27 -23 -47 -16 -15 6 -15 8 -3 16
20 13 50 12 50 0z m3343 -366 c4 -8 19 -14 31 -14 13 0 26 -7 30 -15 3 -8 12
-15 21 -15 8 0 15 -7 15 -15 0 -12 -14 -15 -64 -15 -36 0 -68 5 -71 10 -3 6
-33 10 -65 10 -32 0 -65 3 -74 6 -25 10 -19 33 12 40 15 4 36 13 47 21 24 16
106 7 118 -13z"/>
<path d="M2732 4471 c2 -7 7 -12 11 -12 12 1 9 15 -3 20 -7 2 -11 -2 -8 -8z"/>
<path d="M2550 3995 c0 -8 5 -15 10 -15 6 0 10 7 10 15 0 8 -4 15 -10 15 -5 0
-10 -7 -10 -15z"/>
<path d="M2493 3953 c0 -29 6 -52 14 -58 9 -7 14 -31 14 -68 1 -64 18 -89 21
-30 3 58 2 66 -6 90 -6 19 -2 25 21 35 31 14 43 26 43 46 0 22 -20 13 -31 -14
-9 -26 -10 -26 -29 -9 -11 10 -20 26 -20 37 0 10 -6 18 -13 18 -10 0 -14 -15
-14 -47z"/>
<path d="M1350 2994 c0 -17 22 -14 28 4 2 7 -3 12 -12 12 -9 0 -16 -7 -16 -16z"/>
<path d="M4300 2365 c0 -8 7 -15 15 -15 8 0 15 7 15 15 0 8 -7 15 -15 15 -8 0
-15 -7 -15 -15z"/>
<path d="M4412 2188 c-17 -17 -15 -38 3 -38 12 0 35 28 35 44 0 11 -26 6 -38
-6z"/>
<path d="M4450 2127 c0 -22 39 -52 51 -40 8 8 5 17 -7 32 -21 24 -44 28 -44 8z"/>
</g>
</svg>
