<?xml version="1.0" standalone="no"?>
<!DOCTYPE svg PUBLIC "-//W3C//DTD SVG 20010904//EN"
 "http://www.w3.org/TR/2001/REC-SVG-20010904/DTD/svg10.dtd">
<svg version="1.0" xmlns="http://www.w3.org/2000/svg"
 width="275.000000pt" height="183.000000pt" viewBox="0 0 275.000000 183.000000"
 preserveAspectRatio="xMidYMid meet">
<metadata>
Created by potrace 1.10, written by Peter Selinger 2001-2011
</metadata>
<g transform="translate(0.000000,183.000000) scale(0.050000,-0.050000)"
fill="#000000" stroke="none">
<path d="M2249 3420 c-163 -24 -180 -35 -274 -176 -188 -282 -318 -561 -304
-652 10 -71 5 -89 -39 -131 -29 -26 -52 -56 -52 -67 0 -10 -24 -47 -53 -81
-44 -53 -48 -64 -20 -69 34 -7 47 -44 15 -44 -23 0 -64 51 -52 64 59 58 -371
-95 -473 -168 -145 -105 -378 -716 -273 -716 17 0 40 -20 52 -45 20 -42 21
-41 23 20 0 36 11 65 23 65 16 0 15 10 -2 30 -33 40 -14 59 33 34 49 -25 87
-9 87 35 0 33 8 33 104 8 58 -15 144 -27 191 -27 47 0 117 -13 156 -29 38 -16
69 -22 69 -13 0 31 -252 109 -485 150 -75 13 -153 112 -88 112 8 0 160 -63
243 -101 22 -10 103 -37 180 -61 77 -23 151 -57 165 -74 14 -17 25 -22 25 -11
0 32 -57 75 -195 147 -69 36 -125 72 -125 81 0 8 -40 20 -88 28 -91 13 -136
77 -98 137 8 13 16 33 17 44 2 11 4 31 6 46 4 33 229 19 278 -18 109 -82 201
-219 262 -388 l44 -120 -10 114 c-15 172 -185 460 -279 471 -121 13 -237 40
-186 42 36 2 75 25 108 64 28 33 55 56 61 51 5 -6 -5 -25 -23 -42 -52 -53 -30
-106 29 -69 20 13 21 18 4 19 -14 0 -25 9 -25 19 0 11 14 15 30 8 17 -6 30
-25 30 -41 0 -19 11 -26 32 -18 17 7 35 12 40 12 4 0 8 14 8 30 0 42 55 38 66
-5 9 -33 9 -33 12 0 6 92 102 -19 102 -118 0 -52 14 -86 50 -119 55 -50 80
-309 27 -276 -15 9 -18 5 -9 -9 23 -38 -8 -143 -42 -143 -19 0 -26 -11 -18
-32 7 -17 12 -42 12 -55 1 -12 33 -59 72 -103 51 -57 68 -67 59 -37 -8 28 -2
46 18 54 17 6 30 23 29 37 -1 20 -3 21 -11 1 -6 -14 -19 -25 -29 -25 -11 0
-10 18 3 42 12 23 18 46 12 51 -5 6 -15 -9 -23 -31 -16 -52 -77 -58 -63 -7 49
173 76 367 56 391 -31 37 -8 55 55 44 29 -6 39 -4 22 3 -50 23 -80 74 -53 92
17 11 16 20 -4 33 -21 13 -22 20 -3 32 14 8 32 3 42 -12 13 -21 17 -17 18 15
0 26 -16 46 -40 53 -24 6 -40 27 -40 52 0 23 -7 42 -17 42 -9 0 -16 11 -16 25
0 14 -31 68 -67 120 -37 52 -62 100 -55 107 7 7 32 -18 56 -55 l42 -67 -11 70
c-7 39 -16 89 -21 113 -5 26 7 58 30 78 23 21 39 25 39 12 0 -13 -7 -23 -16
-23 -8 0 -15 -18 -15 -40 0 -22 5 -40 11 -40 7 0 25 -56 40 -125 27 -118 30
-121 39 -57 12 74 61 111 61 47 0 -65 44 -171 60 -145 10 15 18 9 25 -18 6
-23 3 -42 -7 -42 -10 0 -18 -14 -18 -31 0 -18 10 -25 22 -18 15 9 18 0 9 -28
-7 -23 -4 -74 6 -113 11 -39 12 -65 2 -59 -28 17 -45 -84 -21 -125 18 -30 21
-25 23 34 2 59 5 64 21 30 13 -27 15 2 8 93 -6 73 -2 155 8 182 14 37 11 57
-12 80 -27 28 -26 35 10 71 57 57 75 95 111 240 39 149 142 318 241 394 84 64
91 89 25 81 -179 -19 -442 -402 -370 -537 18 -34 16 -38 -12 -27 -27 10 -31 4
-20 -31 13 -41 12 -42 -19 -11 -38 38 -32 108 33 375 22 94 46 224 53 290 13
135 39 151 117 73 46 -46 47 -48 9 -74 -38 -27 -97 -143 -81 -159 5 -5 51 22
103 58 68 49 86 71 65 79 -56 21 -11 73 63 73 46 0 67 8 61 25 -13 41 -100 43
-129 3 -25 -35 -28 -35 -61 1 -33 35 -33 36 4 23 27 -9 51 1 80 33 22 26 37
37 31 25 -5 -12 4 -8 20 9 44 46 90 39 88 -14 -2 -34 8 -45 43 -45 68 0 74 28
19 80 -27 25 -45 52 -40 60 5 8 -9 35 -30 60 -49 57 -49 59 0 46 22 -6 46 -32
52 -59 8 -29 32 -52 65 -61 68 -17 113 -59 78 -73 -14 -5 -2 -11 25 -13 l50
-4 -50 -14 c-51 -14 -89 -142 -42 -142 11 0 16 13 9 30 -9 25 4 28 83 17 65
-9 99 -5 109 11 18 30 81 -24 81 -69 0 -16 10 -29 21 -29 12 0 15 11 7 25 -8
15 -7 18 4 8 58 -53 -13 -101 -181 -122 -120 -15 -330 -121 -371 -187 -19 -29
-20 -27 -10 11 7 25 4 45 -8 45 -21 0 -47 -80 -82 -252 -34 -170 -53 -240
-106 -381 -47 -128 -84 -556 -78 -902 1 -65 -81 -101 -100 -43 -8 25 13 293
34 420 23 141 -27 69 -122 -177 -93 -240 -85 -285 50 -285 33 0 65 -9 72 -20
7 -11 43 -20 80 -20 37 0 93 -10 124 -23 31 -12 97 -29 146 -37 50 -8 104 -20
122 -28 26 -11 32 3 34 82 1 70 -3 85 -16 56 -11 -26 -17 43 -16 190 0 147 6
208 16 170 22 -85 24 8 3 120 -9 48 -7 95 6 118 15 27 14 40 -4 46 -14 5 -25
22 -25 38 0 15 -9 28 -20 28 -11 0 -20 14 -20 31 0 17 -18 50 -39 73 -22 23
-37 47 -33 54 4 7 -14 34 -40 61 l-46 48 -22 -56 c-32 -84 -48 -46 -18 43 14
42 23 94 20 116 -3 22 1 34 8 26 8 -8 26 -3 40 11 31 32 48 230 20 241 -11 4
-3 14 17 23 22 9 43 5 52 -9 8 -13 30 -17 49 -10 25 10 38 1 46 -31 9 -33 16
-38 28 -18 13 20 17 17 17 -13 0 -22 -8 -53 -19 -70 -13 -22 -9 -34 16 -44 30
-12 29 -15 -9 -27 -24 -7 -49 -34 -55 -60 -7 -25 -29 -52 -51 -59 -35 -11 -41
-131 -8 -168 17 -20 106 88 118 142 7 32 25 64 41 69 15 6 28 29 28 50 0 22 8
34 19 28 33 -21 42 25 11 56 -33 33 -40 73 -12 73 9 0 22 18 28 40 12 47 -20
68 -131 88 -115 21 -110 98 5 80 66 -11 80 -7 80 19 0 18 -9 33 -20 33 -32 0
-23 55 12 68 17 7 57 12 88 12 32 0 64 10 71 22 20 32 48 -19 49 -87 0 -43 -9
-55 -43 -55 -39 0 -41 -8 -31 -105 6 -58 6 -89 1 -70 -6 19 -19 35 -31 35 -12
0 -14 -15 -5 -35 25 -60 16 -143 -20 -169 -26 -19 -32 -176 -6 -176 12 0 15
-7 7 -15 -9 -8 -27 1 -41 21 -24 33 -27 31 -40 -18 -16 -66 -2 -82 44 -46 27
21 26 17 -5 -21 -32 -38 -34 -45 -7 -36 25 9 30 3 22 -30 -8 -28 -4 -37 12
-27 14 9 23 0 23 -25 0 -22 -11 -44 -25 -49 -18 -7 -14 -18 12 -38 45 -35 50
-141 26 -568 l-18 -303 68 -14 c37 -7 108 -19 157 -25 50 -6 96 -19 102 -30
19 -30 149 -31 143 -2 -7 39 75 72 195 80 79 5 102 2 80 -13 -16 -11 -46 -21
-65 -21 -19 0 -35 -9 -35 -20 0 -11 -19 -20 -41 -20 -23 0 -36 -9 -29 -20 7
-11 -1 -14 -19 -8 -17 7 -31 2 -31 -10 0 -31 80 -28 81 3 0 15 11 11 27 -10
14 -19 48 -35 74 -35 39 1 42 4 18 21 -21 13 14 16 110 7 148 -14 222 -45 108
-46 -38 0 -113 -7 -168 -14 l-100 -14 100 -25 c61 -15 81 -25 51 -27 -71 -3
-22 -45 71 -60 104 -17 89 -48 -36 -74 -174 -35 -319 -48 -305 -27 6 11 -20
19 -60 19 -39 0 -71 9 -71 20 0 11 36 20 80 20 l80 0 0 90 0 90 -75 0 c-41 0
-97 6 -123 13 -34 9 -44 6 -34 -10 8 -13 61 -24 118 -25 82 -2 93 -5 54 -18
-48 -15 -48 -16 -5 -18 65 -3 56 -42 -10 -42 -43 -1 -49 -5 -25 -21 22 -14 10
-18 -46 -15 -42 2 -84 17 -93 34 -12 21 -20 11 -31 -39 -14 -62 -17 -64 -42
-29 -33 44 -37 110 -8 110 11 0 20 9 20 20 0 11 -13 20 -30 20 -31 0 -41 30
-15 45 8 5 3 5 -12 2 -90 -23 -170 -132 -113 -154 17 -7 30 -21 30 -32 0 -12
-13 -21 -30 -21 -16 0 -30 14 -30 32 0 23 -10 28 -35 18 -95 -38 -167 -51
-295 -52 -76 0 -142 7 -145 16 -3 9 -41 14 -85 9 -50 -4 -80 1 -80 15 0 12
-29 22 -65 22 -78 0 -215 36 -215 56 0 9 27 45 60 81 33 36 60 74 60 84 0 11
12 19 26 19 24 0 114 87 114 110 0 34 -59 -5 -153 -100 -93 -94 -116 -109
-163 -99 -112 25 -116 31 -48 67 l66 34 -42 38 c-26 23 -48 31 -56 19 -23 -32
-121 -69 -152 -57 -82 31 -31 120 58 103 49 -9 77 15 139 122 23 39 -56 13
-172 -58 -51 -31 -98 -51 -105 -44 -20 20 -13 65 9 65 12 0 15 -10 7 -23 -9
-15 -5 -18 10 -8 18 11 18 22 -2 46 -23 28 -21 29 15 10 49 -27 99 -2 99 49 0
42 83 61 116 28 33 -33 63 -27 35 7 -93 112 -287 22 -342 -159 -14 -44 -29
-69 -33 -55 -5 14 -22 25 -38 25 -15 0 -28 14 -28 30 0 17 -7 30 -16 30 -30 0
-105 82 -93 101 15 25 -42 47 -81 32 -27 -11 -26 -17 5 -49 19 -20 62 -71 95
-112 83 -106 110 -132 132 -132 10 0 29 -23 42 -50 12 -28 34 -50 49 -50 14 0
21 -12 15 -27 -6 -17 7 -32 33 -39 35 -9 42 -23 35 -69 -4 -32 3 -69 17 -81
31 -29 175 -33 157 -4 -8 12 21 19 74 18 l86 -1 -67 -24 c-85 -31 490 -95 954
-106 157 -4 303 -16 323 -27 47 -25 146 -26 131 -1 -6 10 -3 24 8 30 10 7 15
-6 11 -28 -6 -34 3 -41 56 -42 35 -1 226 -18 424 -37 308 -31 368 -33 418 -9
71 33 73 33 67 2 -4 -19 39 -24 165 -23 94 1 152 -4 130 -12 -40 -14 13 -21
460 -59 110 -10 204 -18 209 -19 5 -1 0 -10 -10 -20 -11 -11 -98 -11 -209 -2
-104 9 -319 28 -476 41 -221 19 -292 19 -310 1 -28 -28 12 -61 76 -62 22 0 65
-13 95 -29 30 -16 71 -26 90 -22 68 13 315 39 331 34 10 -2 11 5 4 17 -20 32
78 23 121 -12 33 -27 34 -30 4 -20 -19 6 -35 2 -35 -9 0 -10 25 -20 55 -20 96
-3 174 -17 263 -48 48 -17 153 -31 235 -31 l147 0 0 69 c0 76 -7 81 -180 100
-60 7 -132 30 -159 50 l-48 37 95 227 c53 125 127 296 164 380 105 234 128
313 128 429 l0 106 -75 13 c-41 8 -210 39 -375 71 -329 63 -435 71 -464 33
-10 -14 -66 -137 -124 -275 -263 -624 -262 -622 -482 -542 -322 116 -379 140
-481 206 -61 40 -133 104 -160 143 -27 39 -69 76 -93 82 -25 7 -59 36 -75 66
-16 30 -50 74 -76 98 -25 24 -73 96 -105 160 -32 64 -69 126 -82 137 -14 11
-51 72 -85 135 -33 63 -78 137 -99 165 l-40 50 108 195 c60 107 114 226 121
264 7 38 34 121 60 184 58 144 58 168 1 245 -25 34 -59 103 -74 152 -53 170
-408 475 -532 458 -10 -2 -63 -10 -119 -18z m22 -71 c-17 -18 -31 -41 -31 -52
0 -10 -8 -14 -18 -8 -11 6 -32 -2 -49 -19 -34 -34 -53 -38 -53 -13 0 19 139
120 166 122 9 0 3 -13 -15 -30z m287 -69 c38 -32 78 -53 90 -46 14 7 14 3 -1
-13 -16 -18 -33 -19 -62 -4 -28 15 -46 14 -65 -3 -21 -19 -24 -17 -14 9 6 18
-2 51 -19 75 -41 59 -9 51 71 -18z m-564 -255 c-19 -32 -134 -288 -134 -297 0
-5 -18 -29 -40 -53 -22 -23 -40 -57 -40 -74 -1 -27 -3 -27 -20 -1 -25 39 -25
66 0 50 11 -7 20 4 20 25 0 21 13 55 29 76 17 22 30 50 30 63 1 23 75 146 122
201 22 27 47 34 33 10z m290 -1279 c14 -29 18 -121 10 -260 -6 -119 -3 -234 6
-256 17 -40 17 -40 20 0 3 40 3 40 20 0 26 -61 23 -118 -9 -161 -40 -54 -89 9
-90 116 -1 41 -10 75 -21 75 -11 0 -20 -36 -20 -80 0 -87 -28 -107 -47 -35
-26 97 -15 275 18 275 26 0 30 29 25 185 -6 176 39 336 60 218 3 -18 16 -53
28 -77z m476 -182 c12 -47 30 -80 41 -74 11 7 14 -12 7 -47 -8 -36 -3 -64 13
-74 18 -11 22 -3 14 28 -7 25 -3 38 8 31 12 -7 14 -46 6 -92 -13 -77 -11 -80
34 -67 32 9 38 8 20 -5 -35 -24 5 -53 49 -36 17 7 25 3 18 -8 -7 -11 3 -20 22
-20 26 0 24 -8 -14 -37 -49 -38 -136 -74 -163 -67 -8 2 -15 -10 -15 -26 0 -33
112 2 173 53 19 15 34 16 53 1 17 -15 34 -15 55 -1 24 17 23 19 -6 10 -19 -7
-35 -4 -35 5 0 10 18 22 40 28 22 6 35 2 29 -8 -6 -10 0 -19 15 -19 14 -1 6
-11 -19 -23 -48 -24 -55 -49 -26 -95 13 -20 25 -23 44 -8 42 33 123 49 101 20
-28 -35 -23 -97 6 -73 21 18 104 13 125 -8 5 -5 -33 -15 -83 -23 -51 -7 -97
-22 -103 -31 -6 -10 -28 -18 -48 -18 -20 0 -47 -13 -61 -30 -28 -34 -80 -40
-80 -10 0 11 16 21 35 22 21 1 25 5 10 11 -14 6 -20 19 -14 29 6 10 -9 18 -35
19 -42 1 -40 3 14 28 70 33 47 39 -45 12 -41 -11 -69 -11 -77 2 -7 11 -25 15
-40 9 -59 -23 -24 9 54 49 45 23 78 46 74 50 -19 19 -167 -75 -182 -116 -27
-74 -46 -8 -39 139 3 75 5 145 4 156 -8 72 -16 436 -9 420 4 -11 18 -59 30
-106z m2285 -274 c41 -8 75 -22 75 -32 0 -10 14 -18 30 -18 17 0 30 -11 30
-25 1 -18 5 -18 15 -3 18 27 105 0 105 -31 0 -12 -17 -38 -39 -60 -21 -21 -41
-68 -45 -105 -5 -51 -16 -67 -51 -72 -38 -6 -45 -19 -45 -85 0 -54 -9 -79 -28
-79 -18 0 -31 -30 -38 -85 -22 -196 -99 -370 -137 -310 -11 16 -16 6 -17 -30
0 -52 -5 -55 -95 -56 -105 -2 -217 -35 -127 -38 27 0 43 -7 36 -13 -7 -7 -35
-7 -64 0 -59 15 -49 52 15 52 29 0 36 7 23 20 -29 29 -208 28 -208 -1 0 -39
-82 -18 -99 26 -10 25 -19 36 -20 25 -1 -11 -10 -6 -21 10 -18 28 -32 -25 -22
-85 1 -8 -27 -14 -63 -13 -36 2 -50 7 -32 11 40 11 63 61 36 78 -10 6 -19 28
-19 49 0 23 -17 41 -45 46 -28 5 -23 7 12 4 32 -2 61 8 67 23 6 15 17 23 25
18 8 -5 35 26 59 70 29 52 59 79 85 79 35 0 40 10 33 69 -4 37 -1 64 6 60 15
-9 47 50 41 76 -2 8 15 48 36 88 22 40 34 82 28 92 -6 10 8 36 31 57 23 22 43
48 45 59 3 25 11 56 17 69 3 6 6 17 8 25 12 63 144 76 357 35z m-3445 -569 c0
-10 20 -21 43 -25 61 -8 68 -48 13 -63 -33 -9 -56 -1 -81 29 -43 52 -45 78 -5
78 17 0 30 -8 30 -19z m2413 -90 c-6 -17 3 -44 20 -61 17 -17 36 -66 41 -108
9 -66 17 -76 53 -69 39 7 39 6 -3 -12 -31 -14 -109 -14 -240 0 -107 11 -288
27 -404 36 l-210 15 262 17 c201 12 261 22 261 43 0 16 -11 28 -24 28 -13 0
-35 14 -49 30 -15 18 -59 30 -114 30 -63 0 -87 7 -81 25 13 36 170 21 245 -22
77 -45 127 -140 87 -165 -22 -14 -22 -17 -1 -18 72 -1 104 133 42 171 -10 6
-18 20 -18 32 0 45 58 -43 79 -120 12 -46 30 -83 40 -83 20 0 13 86 -15 174
-15 47 -14 66 3 73 37 15 38 15 26 -16z m-2295 -44 c42 -12 35 -17 -50 -39
-132 -35 -140 -34 -98 12 38 42 69 48 148 27z m2766 -454 c-113 -13 -173 -12
-187 2 -14 14 38 20 166 19 l187 -2 -166 -19z"/>
<path d="M2810 1183 c5 -14 10 -30 10 -35 0 -22 33 -4 54 30 21 33 18 37 -25
35 -32 -2 -46 -12 -39 -30z"/>
<path d="M2643 2891 c19 -20 157 -27 168 -9 6 10 -30 18 -83 18 -52 0 -90 -4
-85 -9z"/>
<path d="M2122 2415 c-10 -25 -12 -54 -5 -65 7 -11 16 0 19 24 4 29 16 40 35
33 16 -6 29 -2 29 9 0 44 -62 43 -78 -1z"/>
<path d="M1095 1907 c14 -6 25 -19 25 -30 0 -11 -9 -14 -20 -7 -11 7 -20 -10
-20 -39 0 -43 9 -51 60 -51 56 0 60 4 47 55 -14 60 -41 85 -87 83 -20 -1 -22
-4 -5 -11z"/>
<path d="M2515 1870 c14 -75 65 -109 65 -43 0 30 -16 60 -37 71 -32 18 -36 14
-28 -28z"/>
<path d="M1513 1868 c7 -21 19 -47 27 -58 7 -11 25 -58 40 -105 14 -47 32 -85
40 -85 32 0 38 29 13 58 -16 18 -39 65 -51 105 -13 41 -37 85 -53 98 -25 21
-28 18 -16 -13z"/>
<path d="M1210 1760 c-7 -11 -10 -21 -6 -22 3 -1 24 -4 46 -7 22 -3 57 -13 78
-22 27 -11 34 -9 24 8 -8 12 -27 23 -43 23 -16 0 -29 9 -29 20 0 11 -13 20
-29 20 -16 0 -34 -9 -41 -20z"/>
<path d="M2564 1567 c3 -79 13 -133 21 -120 8 13 15 2 15 -27 0 -27 10 -63 22
-80 20 -29 18 16 -11 258 -17 141 -53 118 -47 -31z"/>
<path d="M1440 1603 c0 -9 23 -37 50 -63 60 -56 67 -26 9 36 -43 47 -59 54
-59 27z"/>
<path d="M1850 1593 c-26 -30 -69 -195 -48 -182 9 6 22 42 29 80 13 67 49 117
49 67 0 -14 5 -19 12 -13 6 7 4 25 -5 41 -13 22 -22 24 -37 7z"/>
<path d="M986 1491 c36 -27 36 -28 0 -37 -26 -7 -22 -10 14 -11 28 -2 86 -7
130 -13 l80 -10 -60 29 c-33 16 -75 30 -94 30 -18 1 -39 10 -46 21 -7 11 -23
20 -36 19 -13 0 -8 -13 12 -28z"/>
<path d="M530 1401 c-142 -24 -226 -95 -273 -231 -50 -147 -24 -985 36 -1140
16 -42 106 -38 119 5 59 185 138 248 138 109 0 -51 8 -64 40 -64 37 -1 36 -4
-10 -40 l-50 -39 55 -1 c43 0 55 9 55 42 0 23 21 59 48 80 60 47 76 106 41
152 -15 20 -28 52 -28 71 -1 19 -10 35 -21 35 -11 0 -20 9 -20 20 0 11 29 16
65 12 36 -4 81 -9 100 -10 28 -1 34 -14 26 -57 l-10 -55 23 55 c13 30 38 56
55 57 77 4 134 13 166 27 27 12 33 8 23 -17 -9 -23 -1 -32 31 -32 24 0 38 9
31 20 -14 23 -24 22 234 26 107 2 179 -2 160 -10 -18 -7 65 -12 186 -11 135 2
250 -7 297 -24 43 -14 114 -21 157 -15 72 10 76 8 41 -16 -21 -15 -87 -31
-147 -35 l-108 -8 123 -3 c78 -3 126 4 131 19 9 26 74 29 376 18 170 -6 193
-10 120 -21 -49 -8 -74 -15 -55 -17 19 -2 35 -16 35 -33 0 -16 10 -30 22 -30
58 0 621 -64 708 -80 131 -25 634 -40 573 -17 -25 9 -83 20 -129 23 -46 4
-119 22 -161 40 -92 40 -111 41 -289 11 -98 -17 -167 -18 -245 -3 l-109 21
100 3 c73 2 92 8 70 22 -58 38 455 -1 667 -50 114 -27 173 -23 173 11 0 9 -25
16 -55 15 -59 -1 -366 29 -765 75 -137 16 -358 37 -490 48 -132 11 -433 38
-670 61 -236 22 -529 49 -650 60 -121 11 -349 33 -507 50 -310 32 -543 38
-433 10 l60 -15 -55 -3 c-30 -1 -55 -10 -55 -20 0 -27 148 -39 165 -14 9 14
15 9 15 -12 0 -41 -32 -65 -50 -36 -7 11 -30 20 -51 20 -53 0 -52 -72 1 -86
40 -10 62 -154 24 -154 -32 0 -64 49 -64 97 0 27 -13 59 -29 71 -31 23 -44
150 -32 302 l7 80 14 -80 c11 -62 15 -68 17 -25 4 74 43 71 43 -4 0 -38 -12
-61 -35 -67 -19 -5 1 -10 45 -11 65 -1 88 10 125 57 l45 57 -41 70 c-46 78
-52 144 -31 323 41 355 47 339 -118 311z m-3 -281 c13 0 35 -18 48 -40 22 -35
20 -40 -13 -40 -44 0 -68 -48 -51 -108 10 -37 9 -38 -11 -7 -13 21 -16 55 -7
80 23 71 25 96 5 84 -10 -6 -18 -24 -18 -40 0 -16 -9 -29 -20 -29 -27 0 -25
53 3 106 15 27 27 34 32 19 5 -14 19 -25 32 -25z m3163 -940 c-16 -26 -151
-26 -190 0 -21 14 4 19 86 20 73 0 112 -8 104 -20z"/>
<path d="M860 1404 c1 -32 37 -68 56 -57 11 7 24 1 30 -13 5 -15 60 -38 122
-52 62 -14 112 -33 112 -43 0 -35 57 -19 69 19 9 27 25 35 54 27 42 -11 42
-11 -3 -45 -57 -43 -39 -75 50 -91 53 -10 81 -3 122 29 36 28 43 42 22 42 -17
0 -35 -11 -41 -25 -8 -20 -10 -20 -11 0 -1 14 -16 25 -33 25 -17 0 -26 -9 -19
-20 14 -23 -4 -24 -59 -2 -34 13 -30 18 29 39 37 13 72 17 79 8 6 -8 52 -18
101 -22 l90 -6 -70 72 c-64 67 -72 70 -95 38 -23 -32 -25 -32 -25 -1 0 21 -16
34 -40 34 -22 0 -40 8 -40 17 0 10 -85 13 -188 8 -110 -6 -214 -1 -250 11 -34
12 -62 16 -62 8z"/>
<path d="M2563 1340 c0 -38 12 -106 27 -150 l26 -80 -7 90 c-4 50 -16 117 -27
150 l-19 60 0 -70z"/>
<path d="M734 1285 c7 -19 23 -42 35 -50 12 -8 4 -15 -19 -15 -61 -2 22 -60
85 -60 26 0 42 -9 35 -20 -7 -11 -43 -20 -80 -20 -97 0 -100 -27 -9 -78 83
-47 89 -82 35 -189 -25 -47 -16 -54 84 -68 46 -6 88 -22 93 -35 5 -13 30 -20
55 -15 50 9 87 -43 48 -67 -13 -9 -17 -5 -8 9 27 44 -24 23 -88 -37 -35 -33
-75 -61 -87 -62 -13 -1 8 -9 47 -18 78 -19 108 -9 92 31 -5 15 0 23 14 19 13
-5 48 31 78 80 30 49 44 87 32 85 -28 -6 -158 161 -248 320 -43 76 -79 120
-93 112 -14 -9 -17 -2 -9 21 8 20 5 29 -6 22 -10 -6 -30 7 -44 29 -31 50 -60
54 -42 6z"/>
<path d="M2564 1015 c-3 -126 2 -155 26 -155 17 0 30 9 30 20 0 11 -9 20 -19
20 -11 0 -22 61 -26 135 l-7 135 -4 -155z"/>
<path d="M1791 925 c-6 -15 -20 -22 -31 -15 -11 7 -20 3 -20 -9 0 -39 50 -43
125 -12 105 44 112 71 17 68 -48 -2 -85 -15 -91 -32z"/>
<path d="M2051 845 c-7 -19 -4 -37 8 -41 11 -4 21 -21 21 -37 0 -17 11 -26 25
-21 14 5 23 19 20 32 -3 12 20 22 53 22 34 0 63 13 70 32 16 43 15 63 -3 35
-20 -31 -165 -58 -165 -31 0 11 11 25 25 31 16 6 13 10 -8 11 -18 1 -39 -14
-46 -33z"/>
<path d="M2354 825 c13 -9 22 -29 21 -45 -5 -88 10 -129 23 -60 11 60 20 69
62 64 61 -7 140 11 140 32 0 9 -18 17 -40 19 -22 1 -40 -6 -40 -16 0 -10 -11
-14 -25 -10 -59 18 -163 30 -141 16z"/>
<path d="M1965 755 c12 -37 68 -41 82 -6 9 23 -1 31 -39 31 -32 0 -48 -9 -43
-25z"/>
<path d="M2620 755 c-49 -22 -48 -22 30 -34 72 -10 130 11 130 48 0 19 -107
10 -160 -14z"/>
<path d="M766 710 c17 -50 111 -72 153 -36 59 50 53 56 -59 56 -58 0 -97 -8
-94 -20z"/>
<path d="M2429 660 c7 -46 105 -47 177 -2 l64 41 -122 -4 c-96 -4 -122 -12
-119 -35z"/>
<path d="M1166 611 l-45 -69 89 -13 c50 -7 124 -7 165 1 l75 15 -55 19 c-30
11 -55 28 -55 38 0 10 -14 18 -31 18 -16 0 -35 14 -42 30 -18 48 -54 35 -101
-39z"/>
<path d="M989 354 c-11 -13 -43 -55 -70 -94 -27 -38 -65 -84 -84 -102 -19 -18
-35 -41 -35 -51 0 -10 -20 -36 -45 -58 l-45 -39 79 -6 c63 -6 86 2 114 40 42
54 47 96 12 96 -17 1 -15 7 5 20 35 23 100 27 70 5 -25 -18 -39 -165 -17 -165
10 0 32 34 50 75 l33 75 -11 -78 c-9 -61 -5 -75 17 -68 17 6 27 35 25 72 -1
35 6 61 16 58 11 -2 32 32 48 76 34 96 34 96 9 80 -11 -7 -20 -3 -20 9 0 11
17 21 39 21 21 0 44 9 51 20 20 33 -103 23 -130 -10 -14 -16 -44 -30 -67 -29
-40 0 -41 2 -8 27 19 14 35 32 35 39 0 22 -49 13 -71 -13z"/>
<path d="M1269 319 c-23 -38 6 -43 64 -11 l57 30 -54 1 c-29 1 -60 -9 -67 -20z"/>
<path d="M1565 306 c19 -5 35 -20 35 -34 0 -14 33 -26 80 -29 44 -2 80 4 80
14 0 10 36 18 80 17 44 -1 80 -9 80 -18 0 -9 36 -16 80 -16 152 0 79 33 -125
57 -197 22 -382 28 -310 9z"/>
<path d="M1220 252 c0 -17 9 -32 19 -32 11 0 14 -14 8 -32 -9 -23 -17 -25 -28
-7 -25 42 -69 -69 -61 -156 8 -90 102 -20 102 76 0 62 8 97 20 89 11 -7 40 2
65 20 l45 33 -52 -6 c-29 -4 -67 6 -85 21 -28 23 -33 22 -33 -6z"/>
<path d="M1437 169 c-10 -35 -2 -39 68 -32 75 7 76 9 32 32 -28 14 -52 16 -60
5 -6 -10 -16 -6 -21 8 -6 18 -13 13 -19 -13z"/>
<path d="M1696 134 c-14 -14 -42 -32 -61 -40 -20 -7 -34 -20 -33 -28 7 -43 -6
-49 -40 -18 -35 32 -38 32 -50 0 -20 -52 -3 -56 128 -28 75 16 179 21 275 14
85 -7 223 -17 305 -23 l150 -10 -130 30 c-71 16 -139 42 -151 57 -13 18 -43
24 -80 18 -40 -6 -51 -3 -32 10 21 15 19 21 -10 32 -20 8 -39 5 -43 -7 -4 -11
-43 -21 -86 -21 -56 0 -78 -8 -78 -30 0 -16 -13 -30 -30 -30 -37 0 -31 41 10
74 19 16 21 25 6 25 -13 1 -35 -11 -50 -25z"/>
<path d="M2880 142 c0 -16 179 -6 198 11 5 4 -38 7 -95 7 -56 0 -103 -8 -103
-18z"/>
<path d="M3750 78 c-27 -10 -4 -15 70 -15 61 0 128 8 150 17 52 23 -162 21
-220 -2z"/>
<path d="M4267 41 c52 -29 101 -41 150 -35 l73 7 -83 4 c-46 1 -87 11 -90 22
-4 10 -34 24 -67 31 -56 13 -55 11 17 -29z"/>
<path d="M2404 16 c-19 -7 47 -13 146 -12 185 1 182 10 -6 20 -58 3 -121 0
-140 -8z"/>
<path d="M3848 26 c7 -8 83 -16 168 -17 94 -2 135 3 104 12 -65 20 -291 23
-272 5z"/>
</g>
</svg>
