<?xml version="1.0" standalone="no"?>
<!DOCTYPE svg PUBLIC "-//W3C//DTD SVG 20010904//EN"
 "http://www.w3.org/TR/2001/REC-SVG-20010904/DTD/svg10.dtd">
<svg version="1.0" xmlns="http://www.w3.org/2000/svg"
 width="300.000000pt" height="316.000000pt" viewBox="0 0 300.000000 316.000000"
 preserveAspectRatio="xMidYMid meet">
<metadata>
Created by potrace 1.10, written by Peter Selinger 2001-2011
</metadata>
<g transform="translate(0.000000,316.000000) scale(0.050000,-0.050000)"
fill="#000000" stroke="none">
<path d="M2497 6232 c-345 -141 -521 -380 -637 -863 -97 -406 -101 -426 -132
-659 -73 -539 -62 -610 125 -813 125 -136 141 -209 52 -229 -437 -98 -756
-350 -854 -675 -75 -247 -135 -366 -261 -515 -82 -96 -114 -153 -130 -229 -12
-55 -40 -131 -64 -170 -24 -38 -81 -146 -127 -241 -47 -95 -117 -217 -157
-272 -100 -140 -121 -199 -180 -508 -81 -422 -59 -522 122 -567 30 -8 100 -35
155 -61 56 -25 178 -82 271 -125 120 -56 211 -83 309 -93 77 -8 149 -21 160
-31 12 -9 51 -23 89 -31 37 -8 104 -31 150 -52 45 -20 123 -37 172 -38 50 0
192 -14 316 -30 184 -24 271 -26 466 -8 180 16 246 16 267 -2 22 -17 39 -17
73 1 28 15 83 19 150 11 74 -8 113 -4 132 14 34 35 1269 32 1374 -2 127 -42
559 38 783 145 81 39 161 71 177 71 93 0 333 116 422 204 256 254 276 378 109
689 -190 351 -289 565 -350 757 -54 167 -173 468 -197 498 -10 12 -42 94 -72
182 -161 475 -350 702 -720 863 -77 34 -188 93 -246 132 -96 63 -271 130 -431
165 -75 16 -60 84 45 210 191 227 257 584 147 795 -23 45 -44 139 -52 236 -7
88 -31 225 -53 305 -22 79 -40 172 -40 206 0 178 -64 266 -378 518 -340 273
-667 343 -985 212z m647 -25 c30 -15 73 -47 95 -71 23 -24 41 -37 41 -28 0 9
44 -21 98 -66 59 -50 96 -96 93 -117 -6 -41 137 -135 172 -113 14 9 18 5 9 -9
-8 -13 -7 -23 2 -24 68 -3 135 -103 146 -218 11 -112 0 -149 -30 -101 -7 11
-32 30 -56 43 -25 13 -4 -20 51 -79 52 -56 95 -114 95 -128 0 -28 -317 302
-319 331 -1 10 22 3 49 -15 28 -17 74 -47 102 -66 l52 -34 -50 100 c-28 54
-72 111 -100 126 -43 23 -204 212 -204 241 -1 13 -110 123 -110 110 0 -5 -36
13 -79 40 -58 37 -83 44 -93 26 -8 -14 -8 -19 0 -12 9 8 31 -1 50 -20 20 -18
53 -44 74 -57 21 -13 -16 -2 -82 24 -339 135 -478 133 -717 -11 -72 -43 -145
-79 -163 -79 -18 0 -26 -10 -19 -21 7 -12 -1 -37 -17 -55 -38 -42 -199 -406
-186 -419 5 -5 37 35 70 88 93 147 74 71 -45 -189 -60 -129 -127 -292 -151
-364 -65 -195 -140 -328 -141 -253 -1 80 57 273 102 337 50 70 123 236 110
249 -5 6 -25 -22 -43 -60 -41 -87 -90 -134 -90 -86 0 56 64 199 149 333 110
173 125 204 57 121 -128 -156 -130 -157 -116 -101 69 274 361 583 626 660 81
23 505 -1 568 -33z m-347 -107 c-51 -9 -112 -22 -135 -29 -24 -8 -42 -5 -42 6
0 23 71 37 190 38 l80 0 -93 -15z m-257 -70 c-14 -16 -44 -30 -67 -29 -42 0
-42 1 -4 30 54 40 105 40 71 -1z m764 -91 c53 -43 76 -81 86 -138 7 -44 30
-102 51 -128 50 -64 75 -131 88 -242 6 -51 12 -98 13 -106 6 -38 -7 -41 -71
-14 -113 47 -104 35 62 -84 182 -130 277 -207 255 -207 -19 0 -162 96 -215
143 -47 42 -101 57 -135 36 -21 -13 -17 -21 15 -33 106 -41 441 -322 501 -422
86 -140 75 -412 -24 -601 -59 -114 -60 -108 -10 57 22 72 39 153 38 180 -2 46
-3 45 -17 -10 -88 -359 -355 -848 -676 -1239 -109 -134 -191 -318 -200 -453
l-10 -137 -125 1 c-69 1 -143 -8 -165 -19 -38 -21 -42 -16 -51 62 -5 47 -15
108 -23 135 l-14 50 31 -50 31 -50 0 47 c2 131 -92 368 -235 595 -89 141 -146
203 -278 304 -443 339 -562 559 -478 885 56 212 336 784 451 920 l41 49 -21
-60 c-12 -33 -116 -264 -230 -513 -183 -397 -209 -466 -209 -560 0 -136 104
-366 198 -438 35 -27 92 -72 128 -101 35 -29 86 -64 114 -78 233 -123 573
-546 619 -770 20 -97 84 -90 131 14 21 47 37 93 34 101 -2 8 4 13 13 10 54
-16 619 630 694 794 81 175 156 424 137 454 -8 14 -5 18 7 10 34 -21 71 121
58 219 -13 92 -96 275 -136 300 -14 9 -18 6 -9 -9 22 -35 -2 -28 -94 26 -46
27 -97 70 -112 95 -26 44 -26 45 10 14 45 -38 88 -64 88 -52 0 4 -67 55 -149
113 -82 58 -170 136 -195 173 -28 42 -84 84 -146 110 -55 23 -115 55 -133 72
-24 20 -37 22 -47 6 -8 -13 19 -52 63 -91 42 -38 131 -118 197 -179 l120 -111
-110 43 c-252 97 -288 103 -634 89 -346 -14 -363 -11 -261 41 113 57 176 128
153 172 -56 105 46 158 221 116 61 -15 183 -29 271 -32 88 -2 199 -19 248 -36
229 -84 326 -2 139 118 -51 33 -149 96 -216 140 -229 150 -282 172 -386 161
-84 -8 -95 -5 -95 30 0 21 -8 39 -18 39 -10 0 -23 15 -30 33 -11 27 -8 29 18
7 20 -17 30 -18 30 -3 0 80 327 -21 348 -107 10 -38 30 -50 101 -61 141 -21
144 -6 24 132 -62 71 -113 135 -113 143 0 28 174 -47 244 -105z m-844 -28 c0
-18 34 -39 85 -52 128 -35 133 -45 35 -72 l-90 -24 117 12 c162 15 132 -47
-54 -112 -193 -69 -237 -143 -156 -260 68 -98 68 -99 -32 -142 -52 -24 -133
-84 -181 -137 -96 -105 -81 -49 33 122 39 60 51 105 54 210 5 174 22 285 48
311 12 12 21 38 21 58 0 61 38 115 81 115 21 0 39 -13 39 -29z m470 -158 c95
-20 119 -33 114 -60 -3 -19 8 -48 25 -65 44 -44 42 -131 -2 -114 -22 9 -29 5
-19 -10 16 -26 -30 -21 -248 27 -130 29 -211 29 -256 2 -13 -9 -24 -7 -24 2 0
23 151 108 165 93 6 -6 17 8 25 30 7 23 20 42 29 42 10 0 13 18 7 40 -13 48
11 49 184 13z m804 -420 c84 -90 127 -155 145 -221 37 -131 20 -130 -74 3 -44
63 -101 133 -125 155 -46 42 -100 133 -100 169 0 44 39 17 154 -106z m-757
-273 c34 0 44 -9 36 -31 -10 -24 -5 -26 25 -10 28 15 48 10 83 -20 25 -21 54
-39 64 -39 11 0 14 -13 8 -29 -6 -15 5 -40 23 -55 30 -23 31 -22 9 7 -22 27
-20 34 15 43 27 7 40 1 40 -19 0 -16 8 -25 17 -19 9 6 36 -7 60 -29 24 -23 43
-31 43 -20 0 11 13 15 29 8 17 -6 28 -21 25 -34 -2 -13 8 -21 22 -18 14 3 30
-8 37 -25 6 -16 19 -25 29 -19 10 6 28 -11 41 -39 12 -28 29 -47 37 -42 16 10
16 14 29 -253 7 -132 3 -235 -10 -270 -12 -31 -22 -61 -22 -67 0 -5 -18 -29
-40 -53 -30 -32 -34 -45 -13 -53 18 -8 19 -16 4 -27 -12 -10 -28 -43 -36 -75
-8 -32 -61 -103 -118 -157 -57 -54 -90 -92 -74 -83 17 8 -6 -21 -50 -65 -44
-45 -93 -86 -110 -92 -20 -8 -14 -12 16 -13 26 -1 41 -11 34 -22 -7 -11 -36
-14 -66 -7 -48 12 -51 10 -27 -19 23 -28 20 -34 -23 -45 -35 -9 -47 -23 -40
-48 7 -26 -6 -40 -47 -52 -108 -29 -130 -30 -117 -4 7 14 0 9 -16 -10 -38 -46
-50 -44 -58 10 -3 25 -14 42 -24 38 -34 -12 -55 55 -31 98 12 24 18 47 12 52
-5 6 -15 -9 -23 -31 -7 -23 -22 -42 -33 -42 -10 0 -13 10 -6 22 8 12 6 28 -4
35 -36 26 -87 123 -87 167 -1 61 -30 108 -49 78 -7 -12 -2 -22 11 -22 14 0 19
-6 11 -14 -15 -15 -93 62 -93 93 0 11 -16 14 -35 7 -19 -7 -28 -5 -20 4 8 9
-5 27 -30 40 -25 13 -43 34 -40 48 4 14 -3 19 -15 12 -11 -7 -26 2 -32 19 -7
17 -25 31 -40 31 -15 0 -41 22 -59 49 -21 32 -43 44 -66 36 -27 -10 -29 -7 -8
18 21 26 16 34 -25 53 -28 13 -50 32 -50 44 0 39 -4 50 -26 77 -71 86 -54 355
28 423 7 6 10 33 7 60 -2 28 4 64 13 80 11 20 17 21 17 5 1 -14 11 -25 22 -25
12 0 16 9 9 20 -7 11 -5 20 5 20 9 0 18 20 20 44 2 24 22 69 44 99 23 30 41
65 41 76 0 12 7 19 15 17 8 -3 34 6 57 19 24 13 48 18 55 11 7 -7 13 -4 13 7
0 19 162 16 216 -3 14 -5 21 -1 15 9 -15 24 77 38 189 29 50 -4 111 -8 137 -8z
m-908 -156 c-18 -31 -51 -79 -72 -105 l-39 -49 33 70 c32 67 86 140 103 140 5
0 -7 -25 -25 -56z m1781 -417 l10 -117 -29 130 c-17 72 -39 151 -50 176 -35
78 -21 78 20 1 21 -41 43 -126 49 -190z m-2006 -160 c4 -46 0 -79 -9 -74 -8 5
-14 56 -13 113 3 112 12 95 22 -39z m2094 -639 c71 -20 183 -73 249 -117 162
-109 145 -100 304 -159 78 -29 172 -80 210 -113 38 -33 51 -52 29 -40 -78 40
-195 81 -229 81 -19 0 -50 17 -69 38 -19 21 -64 44 -100 50 -36 7 -132 59
-214 115 -125 86 -166 103 -263 112 -177 16 -152 -32 70 -136 138 -66 173 -90
139 -95 -25 -4 -75 10 -111 32 -117 68 -207 90 -277 66 -84 -30 -84 -28 -11
112 55 104 69 119 104 106 23 -9 99 -32 169 -52z m-2216 -139 c-59 -27 -113
-48 -120 -47 -19 2 185 98 208 97 11 -1 -28 -23 -88 -50z m374 18 l74 -33
-110 -16 c-61 -8 -136 -25 -167 -37 -30 -11 -88 -21 -127 -21 -75 0 -382 -137
-426 -190 -14 -17 -47 -30 -74 -30 -26 0 -43 -9 -37 -19 7 -11 27 -14 45 -7
22 9 28 5 18 -11 -8 -12 -30 -24 -48 -25 -21 -1 -24 -5 -9 -11 41 -17 7 -47
-51 -46 -48 2 -50 4 -14 19 22 9 28 18 13 19 -79 4 220 257 347 294 44 13 157
51 250 85 197 71 216 73 316 29z m166 -243 c40 -85 102 -217 137 -294 35 -77
76 -164 92 -193 33 -61 41 -307 9 -287 -11 7 -20 39 -20 71 0 33 -10 59 -22
59 -12 0 -17 -13 -11 -30 16 -41 -5 -90 -38 -90 -16 0 -32 31 -39 75 -22 132
-25 137 -28 43 -4 -177 -75 -57 -83 142 l-3 70 -16 -68 c-9 -38 -8 -90 2 -117
30 -79 22 -105 -33 -105 -68 0 -129 34 -129 72 0 25 11 23 58 -11 32 -22 64
-41 71 -41 26 0 -14 44 -76 83 l-63 41 60 -12 60 -11 -63 32 c-66 34 -105 107
-56 107 15 0 32 -9 39 -20 24 -38 46 -20 41 34 -4 30 -33 75 -69 105 -67 55
-85 114 -29 93 28 -11 29 -9 5 21 -26 31 -24 31 22 7 28 -14 55 -34 61 -44 43
-64 179 -10 179 70 0 3 -35 2 -77 -2 -71 -7 -79 -2 -109 61 -64 135 -135 131
-206 -11 -97 -192 -207 -207 -208 -27 -1 113 -22 123 -137 60 -107 -60 -113
-72 -108 -227 l3 -70 -18 60 c-18 57 -23 60 -109 53 -77 -6 -89 -2 -79 25 14
38 90 42 124 8 36 -36 30 24 -7 73 -35 46 -40 90 -6 56 17 -17 30 -15 51 6 26
26 84 39 133 31 9 -2 33 19 54 45 36 45 109 78 179 81 17 0 37 12 46 26 9 14
31 26 50 26 19 0 61 18 94 39 130 83 191 57 272 -115z m1495 128 c56 9 118 -1
211 -31 136 -46 208 -98 100 -74 -155 35 -360 38 -423 6 -58 -30 -63 -30 -71
2 -7 28 -10 26 -12 -7 -1 -24 -21 -67 -44 -96 -46 -59 -38 -94 12 -52 16 14
30 17 30 7 0 -9 9 -4 19 13 12 18 42 27 79 23 33 -3 78 4 101 16 27 15 41 15
41 2 0 -35 265 -9 292 29 13 18 27 25 31 16 4 -9 57 -41 117 -72 165 -83 213
-128 185 -174 -23 -36 -21 -77 5 -145 12 -28 5 -34 -31 -30 -34 4 -50 -8 -62
-45 -11 -33 -13 -17 -7 49 8 73 4 93 -12 77 -13 -13 -19 -72 -15 -142 4 -66 0
-116 -8 -111 -8 5 -15 -5 -15 -22 0 -43 47 -29 63 19 7 23 15 -16 17 -90 4
-104 8 -118 20 -70 10 39 16 46 17 20 4 -69 -20 -130 -51 -130 -24 0 -28 21
-19 105 l11 105 -22 -85 c-19 -73 -76 -123 -76 -66 0 11 -13 15 -30 8 -22 -8
-30 3 -30 41 0 29 11 52 25 52 17 1 15 7 -5 20 -20 13 -22 19 -5 20 18 0 25
54 25 202 0 168 -5 200 -29 191 -20 -7 -31 6 -36 43 l-7 54 -23 -53 c-15 -35
-20 -145 -14 -310 5 -163 2 -239 -9 -207 l-18 50 -4 -50 -4 -50 -16 50 c-15
48 -16 48 -18 5 -2 -41 -10 -44 -86 -34 -94 12 -116 33 -102 96 7 32 5 36 -10
15 -16 -22 -24 -20 -42 14 -34 63 -26 101 11 54 30 -38 31 -38 18 20 -12 55
-30 196 -38 305 -4 64 -33 56 -34 -10 -3 -213 -16 -449 -25 -458 -6 -6 -59 7
-118 29 -73 27 -120 34 -151 22 -25 -9 -45 -11 -45 -5 0 7 -14 1 -30 -13 -17
-14 -36 -21 -42 -14 -23 22 57 524 96 601 21 42 34 89 29 103 -19 48 124 193
168 170 21 -12 73 -15 116 -8z m615 -113 c93 -44 178 -75 188 -69 10 6 57 -9
104 -34 47 -25 102 -46 121 -48 52 -4 114 -66 148 -148 16 -38 50 -92 76 -120
41 -43 151 -272 151 -312 0 -50 -90 86 -181 272 -119 243 -152 269 -285 213
-69 -29 -126 -98 -106 -130 11 -18 113 -17 144 2 27 17 144 -60 155 -101 5
-19 20 -77 34 -131 17 -66 39 -101 68 -113 47 -18 91 -64 100 -104 2 -14 14
-49 26 -77 12 -29 36 -132 55 -230 18 -99 49 -215 68 -259 19 -44 31 -92 27
-106 -12 -36 36 -146 57 -133 10 6 18 1 18 -11 0 -51 -66 -5 -87 60 -13 39
-32 67 -43 63 -21 -7 -21 -12 1 -68 7 -19 5 -35 -6 -35 -16 0 -49 63 -94 180
-13 35 0 -46 19 -120 12 -46 11 -47 -16 -14 -23 27 -33 30 -42 10 -6 -14 -7
-6 0 19 6 26 1 45 -11 45 -16 0 -16 12 0 42 18 33 17 39 -1 28 -17 -10 -21 -3
-13 22 71 234 52 568 -33 568 -26 0 -109 -127 -152 -235 -33 -79 -84 -84 -140
-13 -66 83 -69 121 -16 193 77 104 85 124 47 109 -44 -17 -42 -2 17 116 61
125 66 210 11 210 -38 0 -58 -16 -128 -100 -26 -32 -52 -42 -95 -35 -55 8 -57
6 -30 -33 16 -23 39 -40 50 -37 12 3 22 -9 22 -26 0 -17 8 -26 18 -20 10 6 14
-7 8 -29 -6 -22 -18 -45 -28 -51 -9 -6 -7 -34 3 -63 17 -45 12 -61 -35 -114
-31 -34 -58 -66 -61 -71 -3 -4 -17 4 -30 18 -14 15 -16 22 -5 16 38 -21 72 39
38 67 -25 21 -34 20 -49 -3 -37 -58 -19 213 21 331 22 64 39 149 38 188 l-1
72 -27 -70 c-33 -85 -39 -52 -8 38 13 35 28 59 34 53 6 -6 27 17 48 50 20 34
62 76 94 94 l57 33 -69 36 c-37 21 -76 32 -86 26 -35 -22 -201 36 -295 102
-124 89 -100 86 107 -13z m-1613 -52 c17 -13 36 -20 44 -15 7 4 12 -4 12 -17
-3 -67 8 -95 35 -95 33 0 41 -71 10 -90 -12 -7 -14 2 -6 22 7 21 5 30 -7 22
-11 -6 -55 48 -98 122 -89 151 -110 198 -57 124 20 -27 50 -60 67 -73z m261
-70 c0 -28 -59 -97 -83 -97 -31 0 -18 65 18 92 44 33 65 35 65 5z m-1780 -133
c0 -31 -50 -80 -95 -93 -51 -16 -52 -13 -25 58 18 48 120 78 120 35z m341 -60
c-10 -37 -4 -105 19 -195 69 -277 68 -253 6 -245 -48 5 -57 16 -61 76 -3 39
-15 137 -27 219 -20 135 -19 151 14 175 54 39 67 32 49 -30z m64 -128 l-12
-106 -18 80 c-9 44 -11 112 -4 150 21 112 50 7 34 -124z m363 4 c4 -53 11
-104 16 -113 19 -36 16 -165 -4 -177 -50 -31 -140 12 -141 67 -2 47 -4 48 -18
13 -8 -22 -12 -50 -7 -63 13 -34 -26 -51 -50 -22 -11 14 -30 57 -42 95 -21 66
-21 65 -13 -35 5 -58 2 -105 -8 -105 -32 0 -77 265 -61 360 8 50 16 80 17 68
10 -86 260 -14 264 76 3 56 39 -73 47 -164z m1305 -42 c-19 -290 -93 -432 -93
-179 0 65 -9 142 -20 170 -18 49 -7 82 74 216 34 58 50 -30 39 -207z m-2015
57 c-91 -118 -102 -130 -91 -95 5 17 15 55 22 85 8 37 25 55 50 55 21 0 44 9
51 20 7 11 17 20 23 20 6 0 -19 -38 -55 -85z m-156 -83 c-55 -177 -71 -205
-190 -321 -130 -126 -206 -143 -94 -21 88 95 122 155 183 318 36 96 111 187
134 163 4 -4 -11 -67 -33 -139z m357 -214 c1 -16 -82 -50 -119 -49 -44 2 -36
217 12 327 l38 86 34 -176 c18 -97 34 -181 35 -188z m641 261 c0 -30 -24 -22
-74 24 -66 63 -57 87 14 37 33 -23 60 -51 60 -61z m456 56 c40 -79 41 -412 1
-409 -34 2 -41 35 -69 319 -14 144 18 188 68 90z m576 -160 c-26 -208 -37
-248 -53 -205 -27 74 14 310 54 310 7 0 6 -47 -1 -105z m1260 -20 c-20 -77
-23 -80 -28 -28 -8 64 6 113 33 113 9 0 7 -38 -5 -85z m-3100 -229 c-4 -4 -47
12 -96 35 -87 43 -88 45 -68 109 l20 66 76 -102 c42 -55 72 -104 68 -108z
m3930 -164 c45 -94 108 -257 142 -362 57 -181 306 -738 340 -761 80 -56 183
-447 136 -519 -23 -36 -24 -35 -30 81 -7 126 -127 390 -291 640 -133 202 -142
223 -198 470 -53 233 -174 569 -222 618 -31 31 -21 58 11 31 17 -14 67 -103
112 -198z m-4100 -16 c38 -46 98 -178 98 -217 0 -38 -78 -38 -92 0 -6 16 -40
34 -75 41 -139 28 -136 26 -102 93 17 33 27 70 23 83 -5 13 15 68 43 123 l53
98 11 -92 c6 -51 24 -109 41 -129z m1371 82 c247 -29 493 -17 727 35 56 12
195 14 370 4 312 -18 304 -21 -110 -46 l-290 -18 300 5 c611 12 820 -24 867
-151 19 -53 -4 -781 -28 -855 -11 -36 -8 -45 13 -38 15 5 31 29 34 53 4 23 16
43 28 43 11 0 16 -18 10 -40 -7 -26 0 -40 18 -40 15 0 28 -11 29 -25 1 -28
176 -153 276 -197 87 -38 82 -45 -70 -88 -74 -21 -157 -57 -185 -81 -75 -61
-112 -70 -158 -38 -38 27 -41 24 -54 -51 -7 -44 -23 -85 -34 -92 -25 -16 -5
125 37 250 32 99 58 665 26 586 -10 -25 -25 -119 -33 -210 l-15 -164 -16 180
c-12 122 -10 182 4 186 12 4 21 20 21 36 0 15 9 28 20 28 11 0 20 8 20 17 0 9
-13 16 -30 16 -16 0 -30 -12 -30 -28 0 -15 -9 -22 -19 -15 -13 7 -18 -108 -15
-314 4 -345 -22 -776 -47 -776 -8 0 -12 56 -7 125 5 95 3 113 -12 75 -15 -40
-18 -29 -11 50 5 55 1 136 -8 180 -17 84 -34 -258 -24 -480 3 -66 -2 -91 -14
-73 -11 17 -23 20 -30 7 -7 -11 1 -25 18 -32 20 -7 38 6 53 38 25 56 37 61 72
26 19 -19 24 7 26 115 1 115 5 129 20 79 23 -76 1 -244 -36 -281 -51 -51 -130
-57 -432 -32 -162 14 -304 19 -314 13 -36 -22 -373 -11 -485 17 -103 25 -133
24 -290 -9 -135 -28 -267 -37 -579 -37 -452 -1 -443 -4 -415 146 8 45 2 89
-18 128 -17 33 -41 121 -53 195 -12 74 -47 190 -78 258 -83 178 -108 268 -94
336 7 38 -11 150 -50 303 -35 134 -67 263 -73 288 -5 24 -17 40 -25 35 -9 -6
-13 28 -9 75 7 74 5 77 -9 25 -15 -52 -18 -44 -20 54 -3 149 49 196 216 196
61 1 157 14 212 30 116 33 410 25 803 -22z m-1693 -70 c0 -17 8 -16 28 1 20
16 33 16 41 2 21 -34 -72 -180 -143 -223 -36 -23 -81 -60 -101 -84 -49 -61
-105 -103 -105 -79 0 11 31 50 70 87 58 57 70 82 70 154 0 48 9 104 21 125 22
42 119 55 119 17z m3844 -159 c16 -45 111 -39 184 11 106 72 113 49 10 -33
-47 -37 -125 -105 -175 -152 -150 -142 -209 -102 -142 98 58 172 83 187 123
76z m-3578 -179 c187 -197 172 -209 -110 -88 -88 37 -172 68 -187 68 -16 0
-23 12 -16 30 6 17 24 30 39 30 15 0 42 23 60 50 48 73 67 65 214 -90z m3904
26 c-8 -31 -17 -105 -20 -166 -4 -60 -8 -128 -9 -150 -3 -51 43 -84 141 -100
43 -8 86 -27 95 -44 12 -22 40 -29 98 -23 71 7 82 2 99 -44 19 -49 16 -51 -59
-54 -64 -2 -74 2 -55 24 18 22 15 26 -14 21 -20 -4 -129 -12 -243 -18 l-208
-10 -62 63 c-35 35 -71 62 -80 59 -10 -3 -12 9 -5 27 6 18 12 44 12 58 0 58
291 446 316 422 5 -5 2 -34 -6 -65z m-153 -56 c-43 -74 -77 -106 -77 -72 0 11
9 25 20 32 12 7 15 22 8 33 -6 11 5 32 25 48 61 46 68 33 24 -41z m-145 -69
c-10 -66 -7 -78 18 -68 22 8 27 2 18 -22 -8 -20 -26 -29 -43 -22 -23 9 -25 6
-9 -14 14 -17 15 -37 3 -56 -14 -23 -19 -18 -22 21 -8 126 -6 175 8 167 8 -5
15 9 15 32 0 22 6 41 13 41 6 0 6 -36 -1 -79z m-4113 -64 c-31 -115 -110 -269
-189 -367 -87 -107 -103 -143 -118 -254 -7 -52 -36 -174 -65 -270 -29 -97 -59
-210 -67 -252 -18 -91 -34 -112 -52 -65 -7 19 6 126 30 237 23 112 56 270 72
350 29 148 65 224 182 378 35 46 79 129 98 185 53 160 151 212 109 58z m401
-48 c105 -84 200 -158 212 -165 40 -25 51 -97 19 -123 -44 -37 -87 -13 -78 42
10 59 -117 144 -262 177 -148 33 -166 48 -166 139 0 120 52 107 275 -70z
m3594 83 c-11 -34 -63 -26 -70 11 -5 26 4 31 36 23 23 -6 38 -21 34 -34z
m-3294 -153 c30 -112 8 -130 -61 -51 -68 77 -73 102 -24 129 47 27 60 14 85
-78z m3318 28 c-20 -24 -22 -36 -4 -41 15 -5 19 -33 12 -77 -8 -48 -4 -69 14
-69 13 0 19 -13 13 -28 -11 -29 52 -101 71 -81 6 6 16 -2 22 -18 25 -65 -44
-46 -89 24 -26 40 -61 73 -77 73 -21 0 -31 24 -34 80 -3 62 0 72 16 45 11 -19
15 -44 9 -54 -7 -10 -3 -24 9 -31 24 -15 27 108 3 146 -9 14 -31 20 -50 13
-18 -8 -33 -5 -33 6 0 34 25 44 63 23 29 -15 40 -12 50 12 6 17 17 27 22 21 6
-5 -2 -25 -17 -44z m-3694 -119 c215 -144 281 -228 306 -388 8 -49 26 -109 40
-132 25 -39 23 -42 -51 -45 -74 -3 -119 25 -88 53 8 8 18 4 23 -9 9 -26 86
-12 86 15 0 10 -9 18 -20 18 -11 0 -20 26 -20 57 0 34 -18 72 -45 95 -45 38
-45 38 -10 -4 19 -22 35 -66 35 -97 l0 -55 -61 65 c-34 36 -70 83 -82 104 -24
45 -3 77 23 35 10 -16 24 -23 32 -15 57 57 -189 270 -352 305 -100 21 -104 27
-65 81 45 61 23 69 249 -83z m-204 -88 c32 0 123 -47 197 -102 23 -17 56 -66
73 -110 l32 -78 -62 70 -62 70 53 -89 54 -89 -85 73 c-46 40 -111 79 -143 86
-62 13 -59 49 4 49 22 0 39 8 39 18 0 42 -214 57 -284 20 -36 -19 -33 -11 16
58 53 73 61 77 97 52 22 -15 54 -28 71 -28z m628 -86 c9 9 10 -5 2 -32 -10
-34 -8 -43 10 -32 18 11 19 5 1 -28 -12 -23 -32 -42 -43 -42 -11 0 -14 10 -7
21 20 33 -9 123 -35 107 -15 -10 -18 -3 -9 20 7 20 14 55 15 79 2 29 10 18 26
-33 13 -42 31 -69 40 -60z m3856 -40 c30 -31 99 -62 122 -57 10 2 11 -5 4 -17
-7 -11 -22 -15 -34 -8 -12 8 -17 2 -12 -14 11 -31 -156 -96 -248 -97 -89 -1
-153 134 -92 195 32 32 226 31 260 -2z m-4424 -76 c96 -43 171 -104 204 -166
15 -28 3 -24 -51 17 -41 31 -82 48 -95 40 -14 -9 -19 -7 -11 6 15 25 -28 63
-124 108 -40 18 -59 34 -43 35 17 1 71 -17 120 -40z m4740 -23 c0 -14 14 -51
30 -83 23 -43 25 -64 8 -84 -17 -21 -9 -33 35 -52 72 -32 88 -48 143 -142 56
-97 56 -109 -3 -53 -102 98 -533 96 -719 -4 -31 -17 -46 -16 -62 5 -12 16 -49
31 -82 35 -33 3 -68 14 -77 23 -23 22 177 86 224 71 21 -7 82 3 135 21 119 40
285 26 324 -27 24 -32 26 -30 20 15 -12 86 -35 105 -111 93 -79 -13 -145 13
-145 58 0 21 26 30 95 31 52 2 79 7 60 12 -44 11 -26 46 24 46 20 0 42 14 48
30 14 36 53 40 53 5z m-4862 -86 c5 -5 -51 -9 -125 -9 -126 0 -184 29 -88 44
45 7 196 -18 213 -35z m193 -88 c44 -33 89 -60 101 -60 11 -1 41 -23 66 -49
l45 -48 -71 -23 c-55 -18 -91 -54 -156 -154 -69 -108 -87 -124 -99 -94 -8 20
-15 26 -16 13 0 -15 -15 -20 -36 -12 -29 10 -30 7 -10 -15 32 -35 32 -81 1
-74 -14 3 -30 -25 -36 -65 l-12 -70 -41 66 c-23 37 -48 64 -54 60 -6 -3 -30
10 -52 29 -23 19 -41 28 -41 20 0 -8 -9 -1 -20 15 -43 68 33 270 114 304 31
13 114 24 185 26 77 1 131 11 136 25 13 39 -112 90 -188 76 -104 -20 -306 8
-294 40 10 26 87 38 298 45 85 3 115 -6 180 -55z m4365 24 c-8 -44 -88 -57
-130 -22 -28 23 -26 28 16 40 88 24 121 19 114 -18z m-3826 -147 c7 -32 22
-53 33 -46 11 7 16 29 11 50 -6 21 -4 38 3 38 16 -1 88 -222 76 -234 -25 -25
-190 20 -199 54 -11 42 -168 126 -185 99 -6 -10 14 -24 45 -31 100 -24 168
-108 87 -108 -98 0 -341 -308 -341 -432 0 -90 -27 -86 -55 7 l-23 75 12 -70
11 -70 -41 46 c-23 26 -46 46 -52 45 -44 -5 -52 7 -52 75 0 112 201 383 319
429 47 18 79 42 72 53 -6 10 -1 26 11 33 12 8 30 2 40 -13 10 -16 18 -20 18
-11 0 10 14 7 30 -7 17 -14 30 -18 30 -9 0 8 18 -1 39 -20 52 -47 107 43 61
99 -22 26 -21 29 6 19 17 -7 37 -39 44 -71z m-1060 -77 c-7 -44 -22 -86 -32
-92 -10 -6 -18 -81 -18 -165 -1 -107 -7 -145 -20 -124 -31 48 -23 153 23 323
46 165 71 196 47 58z m4651 -116 c109 -81 151 -164 172 -334 12 -106 -25 -219
-68 -207 -8 2 -51 -2 -95 -9 -44 -8 -88 -13 -98 -13 -10 1 -23 -7 -30 -17 -15
-23 -261 -112 -274 -99 -5 5 42 56 104 113 102 93 115 113 123 198 10 98 -52
291 -69 219 -5 -19 1 -52 13 -74 35 -66 27 -146 -14 -135 -19 5 -80 15 -135
22 -55 8 -116 18 -135 23 -23 7 -35 0 -35 -22 0 -18 -9 -27 -21 -19 -14 8 -14
21 2 41 13 15 17 28 9 28 -8 0 2 25 21 55 29 45 30 50 4 29 -28 -23 -37 -19
-64 34 -39 76 -39 104 1 52 29 -38 30 -38 17 15 -11 45 -8 54 19 45 17 -5 46
-14 63 -20 25 -8 26 -18 9 -55 -21 -43 -21 -43 9 -6 17 21 31 47 31 57 0 22
139 -1 172 -28 12 -10 26 -13 32 -8 76 77 125 -363 49 -447 -36 -39 -36 -40 2
-30 22 6 54 39 73 74 l33 63 -11 -60 c-9 -49 -7 -53 11 -25 23 38 7 122 -20
106 -9 -6 -20 53 -26 130 -10 148 -67 248 -127 225 -22 -8 -25 4 -15 52 9 45
4 62 -15 64 -16 1 -1 14 32 29 79 37 133 23 251 -66z m459 57 c0 -7 30 -14 67
-15 41 -2 89 -24 121 -54 35 -32 43 -48 23 -45 -17 2 -44 22 -60 43 -23 30
-30 32 -30 9 0 -16 17 -52 38 -79 38 -50 23 -137 -19 -111 -10 6 -33 -11 -51
-39 -18 -28 -41 -46 -50 -40 -10 6 -32 -13 -51 -41 -18 -28 -38 -47 -43 -42
-5 6 -37 -16 -72 -48 -64 -61 -104 -48 -81 26 7 22 2 33 -15 30 -17 -4 -30 28
-38 95 -8 56 -26 124 -41 150 -14 27 -24 58 -21 69 4 11 0 13 -8 5 -17 -17
-69 20 -69 48 0 11 71 16 160 12 103 -4 162 2 168 16 8 23 72 32 72 11z
m-3925 -135 c58 -33 120 -139 95 -163 -5 -6 -1 -21 11 -35 14 -17 11 -28 -13
-37 -24 -9 -29 -26 -19 -65 11 -42 -2 -33 -61 45 -40 54 -76 101 -78 104 -11
13 -90 20 -89 8 0 -8 36 -53 80 -101 104 -114 104 -114 -81 -106 -120 4 -160
0 -160 -19 0 -20 -5 -21 -24 -2 -13 13 -58 24 -100 24 -65 0 -76 7 -78 45 -2
33 -10 23 -30 -35 l-28 -80 8 83 c7 81 189 344 258 375 47 22 245 -4 309 -41z
m-920 -302 c5 -15 6 -31 1 -36 -18 -17 -256 114 -256 141 0 34 239 -65 255
-105z m5105 64 c0 -30 -44 -89 -60 -79 -9 6 -23 2 -30 -10 -7 -11 -32 -30 -56
-42 -28 -15 -16 7 35 60 72 75 111 100 111 71z m-1097 -94 c14 14 55 25 91 25
75 0 88 -41 32 -96 -32 -32 -33 -32 -21 0 7 19 5 40 -4 46 -10 6 -24 -8 -31
-30 -15 -47 -50 -54 -50 -9 0 17 9 26 20 19 11 -7 20 -3 20 8 0 45 -36 37 -58
-13 -27 -58 -61 -33 -61 45 0 33 3 35 18 10 15 -24 24 -25 44 -5z m-251 -27
c-7 -17 -12 -48 -12 -68 0 -39 -178 -120 -266 -120 -36 -1 -39 -4 -14 -21 21
-15 -11 -17 -110 -9 -77 7 -387 15 -690 18 l-550 7 560 -28 c308 -15 621 -33
696 -39 151 -13 224 1 173 33 -24 15 -22 19 11 20 22 0 74 13 115 28 82 29 85
27 54 -31 -42 -79 -93 -82 -1383 -91 l-1255 -8 -32 50 c-22 33 -28 69 -19 110
l13 61 274 -3 c310 -3 635 -27 483 -36 -363 -21 -49 -33 700 -27 988 9 1220
39 1220 161 0 14 10 25 22 25 12 0 17 -14 10 -32z m174 -35 c8 7 14 5 14 -5 0
-11 -26 -34 -57 -53 l-56 -33 3 55 c5 88 31 117 59 65 13 -24 29 -37 37 -29z
m-3078 7 c13 0 42 -14 63 -31 22 -18 26 -25 10 -17 -72 38 -204 17 -141 -22
11 -7 20 -28 19 -46 0 -23 -10 -17 -30 20 -33 61 -18 124 25 107 16 -6 40 -11
54 -11z"/>
<path d="M2932 3373 c-6 -23 -6 -45 -1 -50 5 -6 9 1 9 15 0 13 9 19 20 12 12
-7 17 -19 12 -27 -5 -8 7 -14 27 -14 20 0 35 11 33 25 -6 34 -32 58 -32 28 0
-13 -9 -19 -21 -11 -14 9 -15 20 0 37 15 18 12 25 -8 25 -15 0 -33 -18 -39
-40z"/>
<path d="M4073 3207 c-18 -19 -17 -462 2 -474 8 -5 16 103 17 239 2 136 1 248
-1 248 -3 0 -10 -6 -18 -13z"/>
<path d="M1446 2270 c-2 -91 27 -243 32 -168 7 110 39 114 752 108 363 -4 872
2 1130 14 946 42 920 45 920 -88 0 -86 29 -88 45 -3 35 181 -23 198 -582 175
-227 -9 -696 -17 -1043 -18 -796 -2 -1090 -20 -1164 -72 -73 -51 -73 -51 -81
57 l-8 95 -1 -100z"/>
<path d="M1373 2224 c-9 -37 -11 -72 -5 -79 23 -22 35 11 28 78 l-7 67 -16
-66z"/>
<path d="M3815 2148 c-7 -7 -155 -11 -329 -10 -174 0 -328 -6 -343 -16 -41
-26 140 -47 252 -29 52 8 101 13 109 11 8 -2 47 -8 88 -13 41 -5 83 -18 95
-30 11 -11 89 -21 172 -21 203 -1 201 2 211 -232 5 -109 18 -201 30 -205 11
-3 20 -19 20 -35 0 -15 10 -28 22 -28 12 0 17 -14 10 -31 -7 -20 -3 -26 11
-17 17 10 20 -18 13 -104 -6 -65 -5 -100 2 -78 6 22 18 -32 24 -120 10 -126
11 -116 5 50 -5 116 -13 359 -20 540 -7 182 -21 341 -32 355 -20 26 -316 37
-340 13z"/>
<path d="M1540 2100 c-50 -50 -50 -104 -1 -330 22 -99 59 -270 83 -380 45
-207 68 -262 115 -280 23 -9 24 -5 4 18 -13 17 -23 80 -21 146 5 171 3 180
-35 218 -19 19 -32 38 -28 42 3 4 -4 36 -18 72 -44 117 -48 343 -6 392 39 45
120 60 94 17 -11 -19 -8 -20 14 -3 16 12 68 23 115 26 47 2 109 12 136 23 28
10 79 19 114 20 l64 0 -50 29 c-86 49 -529 41 -580 -10z"/>
<path d="M2990 1250 c-55 -26 -91 -48 -79 -49 27 -1 225 69 242 86 30 29 -69
7 -163 -37z"/>
<path d="M3220 1169 c-49 -14 -112 -27 -138 -27 -27 -1 -43 -8 -36 -15 18 -18
314 35 314 56 0 21 -26 19 -140 -14z"/>
<path d="M2704 1083 c-25 -16 360 -9 406 7 11 4 -70 7 -180 8 -110 1 -212 -6
-226 -15z"/>
<path d="M2455 1065 c-41 -4 -75 -15 -75 -25 0 -18 108 -6 200 22 l50 15 -50
-2 c-27 -1 -84 -5 -125 -10z"/>
<path d="M3086 1059 c-68 -9 -142 -26 -163 -38 -24 -12 -166 -21 -341 -21
-178 0 -305 -8 -312 -20 -8 -13 45 -20 144 -20 86 0 246 -4 356 -9 139 -5 170
-3 100 7 -60 9 -78 17 -45 19 93 5 343 47 385 64 22 9 58 21 80 26 68 14 -71
9 -204 -8z"/>
<path d="M3329 1039 c-146 -25 -231 -63 -99 -44 55 8 158 13 228 11 78 -2 121
3 109 15 -29 29 -129 37 -238 18z"/>
<path d="M4030 947 c46 -89 40 -267 -9 -267 -21 0 -42 16 -47 35 -7 26 -10 27
-12 5 -4 -53 -309 -108 -326 -59 -4 12 -23 15 -46 6 -35 -13 -33 -17 21 -41
55 -25 50 -26 -61 -14 -66 7 -205 14 -310 14 -355 1 -1292 33 -1361 47 -38 7
-62 6 -54 -3 17 -19 481 -69 555 -61 28 3 37 0 20 -7 -16 -6 42 -17 130 -23
117 -9 74 -12 -160 -13 -207 0 -295 5 -250 16 47 10 18 13 -87 6 -99 -6 -166
-2 -183 12 -36 30 -44 5 -29 -90 l13 -80 4 70 c3 68 4 69 35 30 26 -32 30 -33
20 -5 -9 26 -1 35 33 35 36 -1 39 -4 14 -22 -23 -15 -16 -18 30 -10 127 22
1034 18 1315 -6 224 -19 311 -20 364 -2 39 12 79 17 91 10 11 -7 20 -4 20 7 0
10 15 24 32 31 24 9 30 3 24 -23 -8 -30 6 -35 97 -38 59 -1 107 6 107 15 0 10
10 18 21 18 12 0 16 -9 9 -20 -7 -11 -3 -20 8 -20 21 0 21 -1 21 221 0 168
-19 262 -55 274 -15 5 -13 -11 6 -48z m-600 -367 c-28 -12 2 -18 100 -20 114
-3 129 -7 81 -21 -34 -10 -160 -10 -300 1 -132 11 -277 21 -321 23 -86 5 187
28 370 32 77 2 98 -3 70 -15z m550 -2 c25 -18 25 -20 -5 -11 -19 7 -35 3 -35
-8 0 -10 -22 -19 -50 -19 -49 0 -64 19 -37 47 21 20 93 15 127 -9z"/>
<path d="M3140 861 c402 -11 408 -12 291 -38 -97 -23 -166 -23 -390 -3 -416
37 -642 47 -662 27 -9 -9 75 -18 197 -20 545 -6 583 -38 67 -55 -267 -9 -510
-24 -540 -33 -109 -35 1214 34 1403 73 75 15 143 29 150 30 90 16 -193 33
-516 31 l-410 -2 410 -10z"/>
<path d="M3410 766 c-143 -16 -433 -33 -644 -39 -290 -8 -389 -17 -406 -37
-19 -23 -10 -24 54 -6 70 19 180 17 556 -12 86 -7 97 -6 40 5 -110 19 144 43
462 43 196 0 225 4 215 31 -10 24 2 30 60 26 39 -3 78 1 86 9 19 19 -117 13
-423 -20z"/>
<path d="M1840 720 c-38 -24 44 -24 120 0 46 15 44 16 -20 18 -38 1 -83 -7
-100 -18z"/>
<path d="M2029 504 c4 -4 82 -14 174 -22 166 -16 166 -17 47 -21 -66 -2 -160
-12 -210 -22 -89 -17 -39 -15 410 17 77 5 203 9 280 9 108 0 129 5 90 19 -44
16 -806 35 -791 20z"/>
<path d="M3135 466 c36 -5 90 -5 120 0 30 4 1 8 -65 8 -66 0 -91 -4 -55 -8z"/>
<path d="M4032 466 c-8 -8 -128 -12 -268 -9 -318 7 -314 -8 7 -23 214 -10 319
2 287 35 -6 6 -18 5 -26 -3z"/>
<path d="M5103 508 c-2 -23 -17 -71 -35 -106 -18 -36 -28 -69 -22 -75 20 -19
77 130 68 177 -8 41 -9 42 -11 4z"/>
<path d="M1842 232 c4 -4 71 -13 148 -19 91 -8 126 -6 100 6 -38 17 -266 30
-248 13z"/>
</g>
</svg>
