<?xml version="1.0" standalone="no"?>
<!DOCTYPE svg PUBLIC "-//W3C//DTD SVG 20010904//EN"
 "http://www.w3.org/TR/2001/REC-SVG-20010904/DTD/svg10.dtd">
<svg version="1.0" xmlns="http://www.w3.org/2000/svg"
 width="275.000000pt" height="183.000000pt" viewBox="0 0 275.000000 183.000000"
 preserveAspectRatio="xMidYMid meet">
<metadata>
Created by potrace 1.10, written by Peter Selinger 2001-2011
</metadata>
<g transform="translate(0.000000,183.000000) scale(0.050000,-0.050000)"
fill="#000000" stroke="none">
<path d="M2120 3641 l50 -15 -50 -10 c-33 -7 -18 -11 43 -13 60 -2 101 7 117
27 22 26 10 30 -93 28 -85 -1 -103 -6 -67 -17z"/>
<path d="M2150 3560 c7 -11 -12 -21 -44 -21 -57 -2 -156 -35 -111 -38 36 -2
31 -41 -6 -41 -16 0 -36 -14 -42 -31 -6 -16 -35 -43 -64 -59 -29 -16 -42 -29
-30 -29 13 -1 -2 -27 -35 -59 -32 -33 -58 -76 -58 -98 0 -21 -19 -62 -42 -91
-22 -30 -38 -64 -33 -77 4 -13 -9 -40 -29 -60 -20 -20 -36 -50 -36 -67 0 -17
-9 -26 -20 -19 -11 7 -20 2 -20 -11 0 -14 14 -18 33 -10 32 12 66 -17 67 -58
0 -10 -14 -1 -31 20 -30 38 -31 37 -19 -11 11 -46 10 -47 -12 -11 -23 37 -26
35 -49 -30 -13 -38 -34 -67 -47 -64 -24 6 -30 -21 -8 -42 23 -23 24 -73 2 -73
-14 0 -14 -9 -2 -25 27 -35 -19 -122 -48 -93 -15 15 -19 4 -14 -35 4 -32 2
-42 -4 -23 -10 31 -13 31 -48 1 -21 -18 -34 -39 -28 -48 20 -33 -90 -40 -135
-9 -70 49 -117 41 -117 -18 0 -30 -12 -51 -30 -52 -54 -5 -175 -55 -137 -57
31 -1 50 -57 26 -72 -11 -7 -18 -3 -14 8 14 53 -112 -2 -158 -68 -20 -29 -62
-81 -93 -115 -30 -33 -47 -66 -37 -73 10 -6 12 -47 5 -91 -13 -74 -15 -77 -30
-30 -13 41 -18 43 -26 15 -5 -19 -20 -35 -32 -35 -15 0 -13 -7 4 -18 19 -13
27 -51 25 -120 -2 -58 5 -102 17 -102 29 0 25 -100 -5 -108 -14 -4 -76 -18
-139 -31 -210 -43 -247 -196 -212 -891 8 -159 7 -258 -3 -230 -9 28 -20 122
-23 210 -5 153 -6 155 -13 40 -7 -113 23 -416 48 -480 27 -72 99 -32 146 81
32 79 55 109 78 105 41 -8 56 -96 20 -118 -18 -12 -8 -18 33 -18 l60 -1 -50
-39 -50 -39 55 -1 c40 0 55 10 55 37 0 20 23 57 50 83 60 57 63 115 10 210
-53 94 -54 93 54 80 113 -13 115 -15 87 -68 -12 -23 -15 -42 -5 -42 10 0 28
22 40 50 13 27 35 51 49 52 76 5 129 14 160 27 27 12 33 8 23 -17 -18 -48 50
-41 94 10 20 23 45 36 57 29 33 -21 25 -51 -14 -54 -19 -2 19 -9 85 -16 126
-12 170 -6 131 19 -15 9 1 19 40 27 90 18 114 16 79 -8 -22 -15 2 -20 90 -18
166 5 349 -5 295 -15 -25 -5 -45 -17 -45 -27 0 -21 84 -17 100 4 6 8 60 7 120
-2 104 -15 106 -16 30 -20 -44 -2 -98 -12 -120 -22 -49 -21 105 -6 210 21 39
10 97 25 130 33 65 15 66 15 -610 78 -192 18 -525 49 -739 71 -406 40 -627 48
-511 18 l60 -15 -55 -3 c-30 -1 -55 -10 -55 -20 0 -25 147 -40 163 -17 6 11
17 11 23 2 6 -10 -2 -34 -17 -55 -25 -34 -29 -35 -41 -5 -7 18 -34 33 -62 33
-37 0 -47 -8 -39 -30 7 -16 4 -30 -5 -30 -17 0 -48 -75 -44 -105 1 -8 -9 -15
-23 -15 -17 0 -27 41 -31 125 -3 69 -9 139 -14 155 -4 17 -2 80 6 140 19 147
69 153 86 10 8 -66 11 -41 7 70 -8 222 -7 214 -28 181 -24 -38 -46 -17 -43 43
1 25 3 93 3 151 0 88 36 159 40 80 1 -14 10 -4 20 21 27 68 59 35 59 -61 0
-48 14 -97 33 -118 31 -35 31 -37 -8 -37 -62 0 -70 -90 -30 -334 16 -96 14
-105 -24 -112 -22 -5 2 -10 54 -11 61 -2 95 5 95 20 0 13 14 39 31 58 28 31
27 41 -12 105 -46 79 -53 145 -31 324 8 66 17 161 20 210 2 50 10 104 16 120
7 17 27 91 45 166 17 75 49 182 71 238 21 56 33 111 26 122 -7 11 -2 14 11 6
13 -8 23 -6 23 4 0 70 195 220 330 252 260 64 390 131 390 202 0 13 22 44 49
69 42 39 48 59 39 129 -16 113 284 685 411 784 33 26 306 50 387 34 66 -13
414 -342 414 -391 0 -18 14 -46 30 -62 17 -17 22 -36 11 -42 -10 -7 -37 8 -60
32 -35 38 -41 39 -41 10 0 -19 16 -40 35 -46 19 -7 69 -45 110 -84 70 -66 113
-52 50 16 -20 22 -19 24 5 10 22 -13 19 -1 -9 42 -22 34 -37 87 -34 124 2 36
-5 65 -16 65 -12 0 -21 22 -21 48 0 26 -13 53 -30 59 -21 8 -30 -1 -30 -33 -1
-43 -1 -42 -26 6 -21 41 -21 51 0 56 32 8 35 44 4 44 -12 0 -17 14 -11 30 16
41 -40 39 -63 -2 -14 -25 -21 -13 -31 50 -11 66 -22 82 -55 82 -28 0 -39 10
-32 28 13 33 -87 35 -111 2 -8 -11 -15 -2 -15 20 0 28 -21 47 -70 62 -38 12
-70 15 -70 8 0 -21 -99 -19 -112 3 -5 9 -42 17 -80 17 -42 0 -65 -8 -58 -20z
m-1553 -3234 c3 -41 14 -85 25 -98 15 -19 9 -22 -26 -13 -81 20 -107 125 -41
163 19 12 35 21 36 21 0 1 3 -32 6 -73z"/>
<path d="M4724 3535 c-24 -29 106 -72 133 -44 5 5 -5 9 -24 9 -18 0 -33 10
-33 21 0 12 -8 16 -18 10 -10 -6 -22 -1 -26 11 -5 15 -16 12 -32 -7z"/>
<path d="M2501 3367 c1 -23 59 -99 59 -77 0 10 13 0 28 -21 16 -21 34 -34 40
-28 6 6 -20 41 -59 77 -38 36 -69 58 -68 49z"/>
<path d="M2280 3309 c-11 -29 -20 -61 -20 -73 0 -11 -19 -16 -42 -10 -49 13
-102 -3 -88 -27 19 -29 -34 -45 -54 -17 -14 21 -16 17 -6 -12 18 -50 18 -71 0
-115 -11 -28 -7 -33 21 -22 23 9 31 6 23 -7 -8 -12 0 -33 17 -47 25 -20 28
-19 18 6 -6 16 2 35 18 41 49 19 25 -79 -34 -138 -52 -52 -85 -122 -67 -141 6
-5 51 21 101 60 50 38 102 74 117 79 20 9 20 15 -4 32 -22 16 -32 13 -37 -9
-3 -16 -15 -24 -25 -17 -37 22 26 68 94 68 84 0 88 27 9 59 -52 22 -56 30 -37
72 12 26 30 43 39 37 10 -6 16 1 12 16 -3 14 -27 32 -55 39 -48 12 -47 12 10
15 60 2 124 -59 114 -110 -3 -13 8 -33 23 -46 22 -18 27 -14 25 23 -1 25 -15
55 -32 68 -23 19 -12 22 55 18 47 -3 85 2 85 11 0 10 -17 18 -39 18 -21 0 -45
10 -52 22 -10 16 -20 14 -33 -5 -15 -21 -21 -21 -29 -2 -6 14 -23 25 -38 25
-15 0 -37 18 -49 40 -23 43 44 63 69 21 7 -11 25 -14 42 -8 16 6 29 3 29 -8 0
-10 13 -18 28 -18 24 0 23 8 -5 46 -18 25 -44 42 -57 37 -14 -4 -30 0 -37 11
-23 38 -90 19 -109 -32z"/>
<path d="M2575 3180 c20 -24 58 -40 94 -40 59 1 58 2 -26 40 -108 49 -111 49
-68 0z"/>
<path d="M2590 3100 c40 -17 40 -17 0 -21 -22 -2 0 -11 49 -21 121 -24 152
-58 50 -57 -62 2 -71 5 -39 19 53 23 -61 25 -119 2 -45 -18 15 -41 105 -42 26
0 41 -9 34 -20 -7 -12 11 -20 44 -20 43 1 49 5 26 20 -24 16 -22 19 14 20 38
0 42 7 28 45 -20 56 -92 95 -172 93 -52 -1 -54 -3 -20 -18z"/>
<path d="M1968 2951 c-7 -28 -20 -51 -30 -51 -10 0 -18 -11 -19 -25 0 -14 -43
-112 -96 -219 -103 -206 -111 -261 -73 -501 21 -129 46 -139 30 -12 -26 202
60 154 102 -56 14 -69 31 -121 39 -116 17 10 11 -188 -7 -231 -7 -16 -5 -61 5
-100 l17 -70 4 90 c3 79 6 84 22 40 12 -34 15 -5 9 93 -9 160 6 263 29 197 12
-35 14 -34 25 8 7 25 7 41 1 35 -6 -7 -27 -3 -47 8 -28 14 -38 11 -45 -16 -5
-19 -10 0 -12 42 -2 65 4 76 34 68 19 -5 46 2 59 16 13 14 42 39 66 55 36 26
39 35 16 71 -55 88 79 374 231 496 40 31 72 66 72 76 0 10 -11 8 -24 -5 -30
-30 -63 -32 -45 -2 31 49 -78 -29 -191 -138 -120 -117 -224 -359 -162 -380 12
-4 22 -15 22 -25 0 -10 -15 -12 -33 -5 -27 10 -31 4 -22 -32 10 -37 7 -40 -18
-20 -34 29 -29 74 44 410 27 123 49 246 49 274 0 70 -36 87 -52 25z"/>
<path d="M2643 2891 c19 -19 157 -27 157 -9 0 10 -37 18 -83 18 -46 0 -79 -4
-74 -9z"/>
<path d="M2770 2785 c-168 -16 -399 -120 -451 -202 -17 -27 -19 -23 -9 17 12
48 11 49 -18 10 -17 -22 -38 -49 -46 -60 -9 -11 -18 -59 -21 -106 -7 -104 -49
-271 -113 -444 -49 -132 -49 -129 -79 -900 -3 -66 -9 -72 -76 -63 -23 3 -15
277 14 473 17 116 -20 52 -124 -210 -92 -235 -84 -280 51 -280 33 0 65 -9 72
-20 7 -11 48 -20 92 -20 45 0 100 -11 124 -24 24 -13 85 -30 134 -37 50 -7
104 -19 122 -27 26 -11 32 2 34 72 3 62 -2 78 -16 56 -13 -20 -19 41 -17 190
2 160 7 196 17 130 9 -61 13 -20 12 125 -1 118 -10 215 -19 215 -10 0 -12 14
-6 30 7 18 0 30 -18 30 -17 0 -29 19 -29 48 0 29 -14 51 -37 57 -20 5 -42 29
-48 52 -7 28 -4 38 10 30 12 -8 15 -4 7 10 -8 13 -32 23 -53 23 -44 0 -59 150
-17 164 30 10 57 253 29 262 -11 4 -1 18 24 31 37 20 45 19 45 -6 0 -23 15
-27 59 -18 90 18 133 -79 60 -134 l-49 -38 50 -2 c50 -2 50 -2 6 -23 -42 -20
-94 -122 -72 -143 5 -6 -10 -5 -35 1 -41 11 -44 7 -31 -46 7 -32 15 -69 16
-83 6 -59 105 32 126 117 7 28 37 77 66 109 30 32 51 75 47 95 -4 24 2 33 15
25 13 -8 22 3 22 28 0 22 -10 41 -22 41 -12 0 -17 13 -11 30 14 35 -28 59
-132 78 -120 22 -107 91 15 77 78 -9 89 -6 78 22 -7 18 -20 33 -30 33 -39 0
-15 60 27 68 193 40 195 40 195 -37 0 -58 -8 -71 -40 -71 -43 0 -60 -105 -20
-130 11 -7 20 10 20 40 0 29 9 47 20 40 11 -7 18 -49 16 -94 -2 -70 -6 -76
-28 -47 -44 60 -57 -40 -18 -142 l34 -90 32 47 c17 25 40 52 50 59 23 15 77
217 63 238 -5 9 -2 19 6 22 28 13 85 158 85 217 0 59 -5 63 -130 87 -11 2 -47
2 -80 -2z m-476 -1045 c27 0 29 -20 14 -145 -9 -80 -18 -212 -19 -295 -3 -203
-2 -200 -59 -200 -35 0 -50 11 -50 37 0 20 -6 92 -13 160 -11 103 -8 123 18
123 24 0 29 17 24 75 -27 273 -26 304 7 324 27 15 35 9 40 -30 4 -28 20 -49
38 -49z"/>
<path d="M4924 2776 c-33 -33 -30 -76 6 -76 19 0 30 19 30 50 0 57 -3 59 -36
26z"/>
<path d="M5442 2395 c2 -47 7 -69 12 -50 5 19 17 35 27 35 11 0 19 23 19 50 0
31 -11 50 -30 50 -22 0 -29 -22 -28 -85z"/>
<path d="M2148 2444 c-32 -21 -49 -81 -27 -95 10 -6 20 -2 22 10 1 11 3 29 5
39 1 10 10 26 20 35 11 10 12 7 4 -8 -8 -14 -5 -25 7 -25 25 0 28 33 5 48 -9
5 -25 3 -36 -4z"/>
<path d="M1612 2347 c11 -60 47 -135 59 -123 12 13 -31 153 -50 166 -10 6 -14
-13 -9 -43z"/>
<path d="M1560 2252 c0 -51 0 -51 -138 -40 -147 13 -214 -18 -90 -41 40 -8 93
-34 119 -60 l46 -46 12 47 c6 27 22 48 35 48 12 0 17 -5 11 -12 -13 -13 41
-186 70 -223 11 -14 14 -25 6 -25 -8 0 5 -24 28 -53 32 -41 41 -79 39 -175 -2
-97 -6 -112 -20 -72 -15 43 -16 41 -8 -17 12 -84 -7 -163 -39 -163 -45 0 -9
-110 63 -191 55 -62 68 -69 60 -35 -5 25 1 54 15 65 14 12 21 46 17 76 -7 43
-4 48 12 25 17 -24 21 -17 22 32 0 91 41 199 62 165 22 -34 21 1 -2 53 -15 34
-17 35 -19 5 0 -19 -10 -35 -21 -35 -11 0 -20 -17 -20 -38 0 -67 -84 -262
-113 -262 -19 0 -24 15 -17 45 55 238 69 342 49 367 -31 37 -5 70 47 61 24 -4
35 -4 24 1 -39 16 -102 115 -64 100 19 -7 34 -4 34 7 0 10 -11 19 -24 19 -18
0 -18 6 1 25 20 20 29 19 45 -5 15 -23 18 -19 14 20 -3 28 -18 50 -33 50 -15
0 -38 32 -51 70 -39 113 -172 277 -172 212z"/>
<path d="M2620 2132 c0 -15 14 -33 31 -40 17 -6 26 -21 19 -32 -7 -11 1 -15
19 -8 41 16 39 47 -4 80 -45 35 -65 35 -65 0z"/>
<path d="M5440 2060 c0 -40 10 -60 30 -60 20 0 30 20 30 60 0 40 -10 60 -30
60 -20 0 -30 -20 -30 -60z"/>
<path d="M1009 2026 c-22 -4 -53 -28 -68 -52 -26 -42 -25 -43 11 -10 44 39
282 21 344 -26 114 -87 191 -205 268 -408 l37 -100 -11 109 c-12 113 -100 312
-177 402 -65 74 -256 115 -404 85z"/>
<path d="M2700 1942 c0 -20 13 -48 30 -62 16 -13 58 -82 94 -152 36 -70 72
-128 81 -128 9 0 34 -38 56 -85 69 -148 126 -236 147 -229 11 4 37 -27 57 -67
25 -51 54 -78 91 -85 32 -7 69 -36 90 -72 39 -66 119 -133 241 -201 83 -46
115 -42 73 9 -15 19 -17 30 -4 30 12 0 27 -9 34 -20 7 -11 32 -19 56 -18 24 0
33 6 19 11 -14 6 -25 22 -25 35 0 27 -82 72 -131 72 -16 0 -29 10 -29 22 0 13
-18 18 -40 12 -27 -7 -47 3 -61 28 -11 21 -30 38 -42 38 -14 0 -11 -13 6 -35
24 -32 24 -32 -8 -8 -19 15 -30 35 -25 44 19 29 -36 121 -65 110 -46 -18 -108
27 -95 69 6 20 2 42 -9 49 -12 8 -21 29 -21 49 0 24 -15 35 -45 34 -36 -2 -47
11 -55 63 -11 73 -65 145 -109 145 -16 0 -35 11 -43 23 -10 16 -4 20 18 11 54
-20 57 18 3 43 -27 12 -60 47 -72 78 -20 52 -22 53 -40 15 -14 -33 -16 -30 -7
14 5 29 1 59 -10 66 -29 18 -25 55 5 38 14 -8 0 9 -31 39 -66 63 -134 71 -134
15z"/>
<path d="M1100 1900 c22 -14 23 -19 4 -20 -51 0 -18 -89 36 -97 28 -4 55 -15
61 -25 7 -11 29 -22 50 -27 22 -4 55 -14 74 -21 21 -9 35 -5 35 8 0 12 -18 22
-40 22 -22 0 -40 9 -40 20 0 11 -17 20 -38 20 -33 0 -52 30 -57 88 -2 24 -48
51 -85 51 -27 0 -27 -2 0 -19z"/>
<path d="M1500 1892 c0 -7 18 -46 40 -87 22 -41 46 -104 52 -141 9 -47 19 -61
34 -46 15 15 15 35 0 67 -12 25 -33 74 -46 109 -22 58 -80 130 -80 98z"/>
<path d="M2729 1765 c6 -30 19 -103 30 -163 12 -59 21 -113 21 -120 0 -6 9 1
19 17 13 20 17 -1 12 -64 -3 -52 1 -90 10 -85 29 19 13 161 -35 315 -49 156
-75 201 -57 100z"/>
<path d="M945 1749 c-30 -33 -32 -49 -6 -49 11 0 67 -21 125 -48 105 -47 338
-132 363 -132 40 0 2 39 -71 72 -47 21 -113 57 -147 80 -34 23 -98 49 -141 57
-43 8 -82 22 -88 31 -5 8 -21 3 -35 -11z"/>
<path d="M2600 1766 c0 -12 10 -26 22 -30 44 -15 54 -190 31 -518 -17 -248
-29 -329 -48 -323 -17 6 -25 54 -24 152 1 98 7 130 19 103 20 -47 8 101 -17
210 -11 48 -17 -20 -19 -215 l-3 -285 54 -2 c30 0 73 -6 95 -12 22 -6 85 -15
140 -20 55 -6 106 -20 113 -32 16 -25 224 -55 233 -33 8 20 84 -1 84 -23 0
-10 34 -17 75 -16 67 2 70 4 25 18 -29 9 -36 17 -17 18 18 1 38 17 45 34 9 24
4 29 -19 20 -17 -6 -26 -3 -19 8 6 10 43 18 81 16 38 -1 76 5 84 13 8 9 -38
12 -102 7 -64 -5 -123 -19 -130 -30 -18 -29 -176 -53 -191 -30 -25 42 92 88
231 91 128 3 135 5 83 28 -86 37 -288 -1 -370 -70 -36 -31 -85 -16 -64 19 7
11 1 29 -14 40 -19 13 -21 22 -6 28 90 37 92 66 3 40 -60 -18 -100 -21 -107
-9 -7 11 -27 14 -45 8 -18 -6 -10 6 17 28 28 22 40 40 29 41 -31 0 -82 -45
-96 -85 -9 -26 -1 -35 29 -35 22 0 35 -9 28 -20 -7 -12 -21 -16 -30 -10 -9 6
-23 2 -30 -10 -30 -48 -42 -10 -41 128 0 81 7 145 14 140 7 -4 8 26 3 67 -6
41 -15 159 -20 261 -9 171 -15 191 -68 249 -32 35 -58 54 -58 41z"/>
<path d="M2561 1636 c-1 -77 48 -293 71 -314 28 -25 -20 302 -52 357 -14 23
-19 11 -19 -43z"/>
<path d="M923 1601 l-48 -12 48 -22 c80 -39 117 -47 302 -66 98 -11 193 -31
210 -45 26 -21 30 -21 22 1 -16 49 -447 165 -534 144z"/>
<path d="M1400 1606 c17 -6 55 -34 85 -62 30 -28 55 -42 55 -31 0 34 -90 107
-131 105 -29 -1 -31 -4 -9 -12z"/>
<path d="M4602 1541 c-12 -7 -59 -98 -104 -202 -183 -423 -298 -699 -298 -716
0 -49 -70 -80 -73 -32 -1 27 7 49 18 49 12 0 16 5 10 12 -34 34 -158 -36 -126
-71 17 -19 39 -77 49 -129 l18 -96 -87 13 c-48 7 -162 17 -253 23 -91 5 -238
16 -326 24 l-160 15 191 15 c105 8 236 8 290 1 97 -14 98 -13 61 25 -70 70
-141 108 -206 108 -35 0 -69 9 -76 20 -7 11 -35 20 -64 20 -43 0 -47 -5 -26
-30 14 -17 56 -30 94 -30 101 0 74 -45 -46 -75 -54 -14 -174 -29 -268 -34
-114 -6 -147 -4 -100 7 l70 17 -75 2 c-107 4 -93 43 15 43 90 0 90 0 90 70 0
66 -4 70 -65 68 l-65 -3 60 -13 60 -14 -60 -16 c-54 -15 -56 -18 -20 -33 34
-14 30 -17 -25 -21 -36 -2 -76 -5 -90 -6 -14 -1 -24 14 -22 33 5 65 -28 35
-42 -38 -16 -82 -43 -70 -63 29 -10 47 -6 64 15 64 16 1 7 16 -22 38 -50 39
-161 -7 -161 -67 0 -43 -115 -76 -295 -86 -103 -5 -185 -2 -185 8 0 10 -36 15
-80 10 -50 -4 -80 1 -80 15 0 12 -28 22 -61 22 -129 0 -243 42 -213 78 15 17
34 48 40 67 7 19 27 35 43 35 17 0 31 14 31 30 0 17 9 30 20 30 11 0 20 -12
20 -28 0 -49 51 -76 80 -42 14 16 17 30 6 30 -71 0 -88 52 -35 106 30 30 44
54 30 54 -30 0 -81 -50 -81 -79 0 -11 -9 -21 -21 -21 -11 0 -44 -23 -71 -51
-52 -51 -156 -71 -208 -39 -20 13 -16 21 18 33 25 10 50 35 56 57 6 22 19 35
28 28 22 -13 98 9 98 28 -2 57 -39 69 -93 33 -31 -21 -65 -35 -75 -32 -10 3
-24 -2 -30 -11 -51 -71 -182 -66 -182 7 0 38 54 57 87 30 19 -16 32 -16 49 1
31 31 30 51 -1 62 -14 4 -9 6 10 3 30 -4 105 67 89 84 -16 16 -92 -21 -81 -38
8 -12 4 -15 -9 -7 -12 7 -59 -10 -104 -38 -74 -47 -145 -28 -92 24 6 7 12 2
12 -12 0 -13 9 -19 21 -11 14 8 12 23 -5 44 -23 28 -21 29 14 10 30 -16 53
-14 90 6 28 15 39 28 25 28 -14 1 -25 10 -25 21 0 30 100 48 125 23 40 -40 63
-24 25 17 -94 104 -276 10 -331 -170 -14 -44 -29 -69 -33 -55 -5 14 -22 25
-38 25 -15 0 -28 13 -28 28 0 16 -27 41 -60 55 -34 15 -60 42 -60 63 0 48 -52
65 -89 28 -27 -27 -26 -33 3 -57 29 -23 32 -22 21 6 -7 20 -1 38 15 44 18 7
24 1 18 -16 -12 -31 30 -86 197 -255 62 -64 114 -121 115 -126 0 -6 0 -19 0
-30 0 -11 15 -20 32 -20 24 0 30 -14 24 -56 -14 -101 -67 -90 844 -176 182
-17 401 -28 488 -23 117 7 182 0 250 -25 77 -29 678 -96 932 -103 147 -5 553
-38 680 -56 201 -28 492 -40 479 -19 -6 10 -36 18 -65 18 -31 0 -44 7 -31 15
12 8 65 114 116 235 52 121 107 247 122 280 53 116 189 470 189 492 0 36 -92
10 -95 -27 -2 -22 -16 -54 -31 -72 -16 -18 -25 -44 -20 -58 5 -14 0 -25 -12
-25 -12 0 -22 11 -22 25 -1 17 -7 15 -20 -5 -11 -16 -19 -43 -18 -60 0 -20 7
-16 18 10 20 47 26 4 8 -63 -8 -30 -23 -39 -50 -32 -32 8 -38 -1 -38 -65 0
-56 -9 -76 -39 -84 -31 -8 -37 -22 -28 -68 8 -38 4 -58 -12 -58 -15 0 -19 -15
-10 -43 8 -26 6 -37 -7 -30 -27 17 -129 -241 -113 -289 7 -22 2 -38 -11 -38
-12 0 -17 9 -10 20 8 13 -45 20 -145 20 -95 0 -166 9 -181 24 -19 19 -24 14
-24 -20 0 -28 12 -44 33 -44 19 0 28 -5 22 -12 -21 -20 -93 13 -84 38 7 17
-24 25 -99 26 -77 2 -120 13 -146 39 -35 35 -36 35 -42 -17 -4 -35 -19 -54
-40 -54 -27 1 -29 4 -6 18 21 14 18 21 -15 31 -31 10 -43 30 -43 71 0 31 -11
61 -25 66 -14 5 2 6 35 3 33 -4 49 -2 35 4 -33 13 -31 65 5 127 l29 50 2 -70
3 -70 22 70 c12 39 28 75 35 80 8 6 20 30 28 55 8 25 22 40 32 34 11 -6 19 -2
19 10 0 11 -9 21 -19 21 -10 0 -5 33 12 73 25 60 25 76 3 90 -21 13 -21 16 1
17 18 0 24 14 17 40 -6 24 -2 35 10 28 11 -7 15 -29 10 -50 -6 -21 -2 -38 8
-38 10 0 19 7 20 15 0 8 4 29 8 45 3 17 11 53 16 80 13 66 65 162 98 183 21
14 21 20 0 34 -18 12 -20 29 -6 65 17 42 20 43 21 8 1 -32 5 -34 20 -11 20 32
141 54 141 25 0 -10 34 -16 75 -13 41 2 94 -3 118 -12 24 -9 118 -26 210 -38
92 -12 196 -26 232 -32 61 -10 65 -7 65 49 0 54 -8 61 -75 73 -41 6 -147 25
-235 41 -88 16 -214 38 -280 50 -66 12 -157 28 -203 37 -46 8 -93 9 -105 2z
m-3002 -821 c0 -11 17 -20 37 -20 47 0 63 -17 49 -52 -16 -42 -93 -34 -122 13
-26 41 -17 79 17 79 11 0 19 -9 19 -20z m130 -141 c29 -14 15 -16 -50 -9 -58
6 -76 4 -51 -7 36 -15 34 -18 -17 -31 -68 -17 -87 -4 -52 38 27 33 108 37 170
9z m1040 -79 c-7 -11 -2 -20 10 -20 14 0 11 -12 -7 -30 -17 -16 -35 -30 -42
-30 -22 0 -10 77 14 87 37 15 38 15 25 -7z"/>
<path d="M845 1515 c4 -14 34 -28 67 -31 56 -7 57 -6 18 24 -49 37 -96 41 -85
7z"/>
<path d="M989 1482 c7 -12 2 -23 -13 -24 -45 -4 131 -36 194 -35 54 1 51 4
-28 29 -48 15 -105 33 -127 40 -27 8 -35 5 -26 -10z"/>
<path d="M2860 1469 c1 -63 32 -100 48 -57 8 21 1 48 -17 66 -28 27 -31 27
-31 -9z"/>
<path d="M873 1375 c5 -8 22 -15 38 -15 16 0 29 -19 29 -41 0 -23 8 -36 18
-30 26 16 222 -29 222 -51 0 -10 14 -18 32 -18 20 0 28 11 21 29 -17 45 23 58
75 24 26 -17 66 -26 89 -19 25 6 43 1 43 -11 0 -34 -101 -53 -120 -23 -18 30
-60 9 -60 -30 0 -14 -10 -30 -23 -34 -13 -5 -19 -20 -14 -35 7 -21 16 -19 42
7 22 22 50 29 83 21 63 -16 149 8 111 31 -16 11 9 22 69 31 l95 14 -65 67
c-75 77 -91 82 -104 33 -9 -33 -9 -33 -12 0 -1 20 -18 35 -39 35 -20 0 -42 6
-49 13 -18 18 -492 20 -481 2z"/>
<path d="M2851 1324 c-10 -34 -5 -54 20 -72 38 -28 -12 -66 -53 -41 -24 15
-23 -13 2 -51 18 -26 25 -24 55 12 19 23 51 48 70 54 19 7 35 32 35 55 0 23
-9 36 -20 29 -11 -7 -20 -25 -20 -41 0 -17 -12 -23 -33 -15 -30 12 -30 14 0
36 18 14 33 36 33 50 0 19 -7 20 -28 2 -22 -18 -30 -18 -37 2 -5 15 -15 7 -24
-20z"/>
<path d="M757 1253 c24 -28 23 -33 -5 -33 -61 0 -32 -36 40 -49 89 -17 101 -6
60 52 -18 25 -32 39 -32 31 0 -9 -20 -5 -45 9 -41 21 -42 20 -18 -10z"/>
<path d="M2995 1172 c-72 -49 -153 -83 -180 -76 -8 2 -15 -10 -15 -27 0 -24 8
-26 41 -9 22 12 60 17 85 10 27 -8 35 -6 19 5 -21 15 81 97 115 92 22 -4 60
18 60 35 0 32 -53 19 -125 -30z"/>
<path d="M790 1125 c-94 -13 -97 -34 -10 -82 106 -60 94 -103 -24 -86 -8 2 -9
-11 -3 -29 9 -22 19 -24 34 -9 11 11 28 21 37 21 28 0 17 -56 -16 -90 -42 -41
-32 -50 85 -67 77 -12 96 -22 94 -51 -2 -26 3 -30 19 -14 27 27 94 29 94 3 0
-11 -25 -33 -55 -49 -63 -33 -150 -126 -100 -107 17 7 40 2 52 -10 12 -12 25
-18 29 -14 4 5 41 52 83 105 l77 95 -50 55 c-48 52 -133 173 -203 289 -19 30
-45 54 -58 52 -14 -2 -52 -7 -85 -12z"/>
<path d="M3110 1101 c-46 -18 76 -63 125 -46 42 15 28 50 -15 39 -22 -6 -35
-2 -29 8 14 22 -26 21 -81 -1z"/>
<path d="M2051 845 c-7 -19 -4 -37 8 -41 11 -4 21 -25 21 -46 0 -45 31 -51 47
-9 6 15 0 33 -13 38 -13 5 9 11 49 11 47 1 77 13 85 34 18 47 15 55 -13 33
-38 -31 -155 -52 -155 -28 0 11 20 24 45 29 40 8 39 9 -8 11 -33 2 -58 -10
-66 -32z"/>
<path d="M2452 823 c-70 -16 -104 -64 -82 -115 16 -37 17 -37 25 2 5 22 20 47
32 55 16 10 13 15 -7 17 -16 2 -3 9 30 16 33 8 65 6 72 -3 14 -20 78 2 78 27
0 20 -59 20 -148 1z"/>
<path d="M2640 755 l-90 -22 89 -16 c85 -16 120 -2 121 48 0 17 -2 17 -120
-10z"/>
<path d="M765 715 c21 -62 106 -84 152 -38 56 56 54 63 -12 44 -31 -8 -76 -8
-102 2 -34 12 -44 10 -38 -8z"/>
<path d="M3420 691 l-90 -24 90 -15 c50 -8 134 -18 188 -23 162 -14 333 -158
249 -211 -22 -14 -22 -17 -1 -18 64 0 94 61 58 117 -18 29 -43 78 -56 109 -23
56 -24 56 -138 19 -19 -7 -16 1 8 19 35 27 33 29 -30 29 -38 0 -95 5 -128 12
-33 6 -100 0 -150 -14z"/>
<path d="M2449 660 c6 -38 76 -49 130 -21 66 36 48 56 -46 53 -66 -1 -87 -10
-84 -32z"/>
<path d="M3913 607 c26 -52 47 -114 47 -139 0 -49 38 -88 43 -44 7 67 -1 100
-40 185 -24 50 -55 91 -70 91 -20 0 -15 -25 20 -93z"/>
<path d="M1163 607 l-47 -72 61 9 c34 5 56 1 51 -8 -13 -21 129 -18 182 3 37
15 36 18 -15 31 -30 8 -55 22 -55 32 0 10 -13 18 -28 18 -15 0 -33 14 -39 30
-19 50 -60 34 -110 -43z"/>
<path d="M3295 564 c-91 -11 -62 -37 40 -37 52 0 82 4 65 9 -16 6 -34 15 -40
22 -5 7 -35 9 -65 6z"/>
<path d="M999 354 c-17 -13 -52 -55 -79 -94 -26 -38 -64 -85 -84 -102 -20 -18
-36 -38 -36 -45 0 -7 -20 -33 -45 -58 l-45 -45 58 -7 c82 -9 152 33 152 92 0
26 13 61 29 76 62 63 69 13 13 -97 -35 -68 -35 -74 -4 -74 19 0 45 25 58 55
l23 55 -7 -55 c-4 -34 3 -55 19 -55 33 0 53 55 38 108 -9 32 -7 35 8 13 16
-23 23 -17 34 30 8 32 27 81 44 107 27 44 27 47 -4 35 -19 -7 -28 -4 -21 7 7
11 25 20 41 20 16 0 29 9 29 20 0 11 -22 20 -49 20 -27 0 -54 -9 -61 -20 -20
-32 -70 -24 -57 10 14 36 -11 38 -54 4z"/>
<path d="M2390 341 l-60 -41 66 0 c37 0 61 8 55 18 -6 10 50 17 131 16 82 -1
126 -8 105 -17 -34 -13 -34 -14 -2 -16 19 0 35 -9 35 -18 0 -23 182 -60 350
-72 99 -6 119 -4 70 7 -67 16 -65 17 36 19 65 2 102 11 94 23 -8 12 25 21 84
22 106 3 -413 65 -714 86 -171 12 -196 9 -250 -27z"/>
<path d="M1685 325 c-115 -10 -120 -65 -5 -65 56 0 80 9 80 28 0 16 11 33 25
39 14 5 16 9 5 8 -11 -1 -58 -5 -105 -10z"/>
<path d="M1920 260 c0 -11 37 -20 81 -20 49 0 76 8 69 20 -7 11 -43 20 -81 20
-38 0 -69 -9 -69 -20z"/>
<path d="M3670 250 c110 -14 259 -40 330 -59 72 -18 161 -41 199 -51 38 -10
77 -12 87 -6 22 14 365 30 351 17 -7 -8 -200 -26 -323 -30 -9 -1 -11 -10 -4
-21 7 -11 37 -16 66 -12 30 5 114 14 187 22 355 35 227 64 -533 122 -66 5
-186 18 -266 29 -81 10 -180 18 -220 17 -41 -1 16 -14 126 -28z"/>
<path d="M1220 243 c0 -45 98 -61 144 -23 44 37 45 39 5 39 -23 1 -51 -9 -63
-21 -15 -15 -25 -15 -35 0 -16 26 -51 29 -51 5z"/>
<path d="M1920 200 c0 -11 38 -19 85 -19 66 1 76 6 45 19 -56 24 -130 24 -130
0z"/>
<path d="M3330 200 l-100 -14 110 -1 c61 -1 128 6 150 15 50 21 -4 21 -160 0z"/>
<path d="M3680 182 c0 -38 11 -42 115 -42 63 0 151 -6 195 -13 127 -20 73 8
-80 41 -77 17 -160 36 -185 44 -37 10 -45 5 -45 -30z"/>
<path d="M1180 161 c-41 -77 -25 -161 30 -161 46 0 50 7 50 88 0 98 -45 138
-80 73z"/>
<path d="M3460 160 c0 -11 47 -19 105 -19 77 1 94 6 65 19 -56 24 -170 24
-170 0z"/>
<path d="M1690 140 c-7 -11 -29 -20 -49 -20 -28 0 -35 -10 -26 -43 7 -25 3
-38 -8 -31 -22 13 -81 -18 -65 -35 6 -6 61 0 121 13 87 18 176 17 404 -4 161
-14 299 -21 306 -13 8 7 -11 13 -41 13 -86 0 -234 43 -245 71 -7 17 -35 23
-84 17 -60 -7 -66 -5 -33 12 33 17 28 19 -27 10 -38 -5 -94 -10 -125 -10 -63
0 -79 -32 -23 -46 19 -5 6 -10 -30 -12 -36 -1 -65 7 -65 18 0 11 8 20 18 20
10 0 23 14 29 30 13 34 -37 42 -57 10z"/>
<path d="M4785 147 c-54 -22 41 -76 143 -81 346 -17 519 -35 452 -47 -67 -13
-66 -14 25 -16 92 -3 95 -1 95 54 l0 57 -305 23 c-323 25 -370 26 -410 10z"/>
<path d="M3680 75 c0 -8 35 -15 78 -15 43 0 82 -9 85 -20 4 -12 95 -24 207
-28 116 -4 162 -1 110 6 -73 11 -81 16 -40 25 28 6 -22 7 -110 4 -159 -7 -160
-7 -80 21 l80 29 -165 -4 c-91 -1 -165 -9 -165 -18z"/>
<path d="M4200 71 c0 -18 146 -72 169 -63 11 5 6 10 -12 10 -19 1 -37 10 -40
19 -8 18 -117 50 -117 34z"/>
<path d="M2409 18 c-6 -10 63 -17 155 -16 190 1 187 11 -9 24 -75 5 -140 1
-146 -8z"/>
</g>
</svg>
