<?xml version="1.0" standalone="no"?>
<!DOCTYPE svg PUBLIC "-//W3C//DTD SVG 20010904//EN"
 "http://www.w3.org/TR/2001/REC-SVG-20010904/DTD/svg10.dtd">
<svg version="1.0" xmlns="http://www.w3.org/2000/svg"
 width="300.000000pt" height="316.000000pt" viewBox="0 0 300.000000 316.000000"
 preserveAspectRatio="xMidYMid meet">
<metadata>
Created by potrace 1.10, written by Peter Selinger 2001-2011
</metadata>
<g transform="translate(0.000000,316.000000) scale(0.100000,-0.100000)"
fill="#000000" stroke="none">
<path d="M1358 3133 c12 -2 32 -2 45 0 12 2 2 4 -23 4 -25 0 -35 -2 -22 -4z"/>
<path d="M1480 3129 c30 -6 65 -12 77 -15 12 -2 35 -18 52 -35 17 -17 31 -28
31 -24 0 4 22 -12 49 -34 30 -25 48 -48 47 -59 -4 -20 68 -67 87 -56 6 4 9 4
5 -1 -5 -5 8 -19 27 -32 35 -24 40 -35 48 -110 5 -40 -4 -56 -18 -33 -3 6 -11
10 -17 10 -6 0 8 -20 31 -45 22 -24 41 -50 41 -57 0 -7 -38 28 -84 77 -46 50
-83 91 -81 93 2 2 21 -6 44 -18 23 -11 41 -18 41 -15 0 19 -36 67 -84 114 -30
30 -53 58 -51 62 3 4 -2 10 -11 13 -8 3 -13 10 -10 14 3 5 -10 24 -29 42 -19
19 -35 31 -35 26 0 -4 -10 0 -22 8 -31 22 -60 21 -33 -1 20 -16 20 -16 0 -8
-39 14 -141 43 -170 49 -43 9 -141 -19 -207 -59 -31 -19 -60 -35 -65 -35 -8 0
-92 -167 -113 -225 -13 -35 -4 -27 34 30 41 62 31 24 -28 -103 -29 -64 -61
-142 -70 -172 -9 -30 -30 -80 -46 -110 -27 -51 -29 -53 -29 -25 -1 49 25 132
57 183 40 63 54 112 16 55 -16 -24 -32 -43 -36 -43 -17 0 32 130 74 195 18 27
17 27 -11 -5 -35 -39 -36 -38 -16 20 17 48 14 67 -3 23 -44 -113 -118 -488
-129 -659 -5 -64 -2 -76 25 -130 17 -32 49 -77 71 -99 28 -27 41 -48 41 -66 0
-25 -6 -29 -52 -43 -77 -22 -216 -92 -268 -134 -77 -63 -99 -90 -115 -144 -39
-135 -86 -234 -144 -307 -43 -54 -63 -89 -75 -135 -10 -33 -24 -68 -31 -76 -8
-9 -22 -34 -31 -55 l-16 -40 26 24 c33 31 40 23 26 -30 -16 -58 -54 -132 -100
-193 -40 -54 -46 -68 -56 -130 -3 -22 -19 -85 -35 -140 -16 -56 -29 -111 -29
-123 0 -12 -5 -25 -10 -28 -21 -13 -23 31 -5 114 10 47 24 120 30 162 13 79
41 144 82 193 27 33 57 89 67 126 4 14 -5 3 -20 -24 -14 -27 -41 -70 -59 -96
-18 -25 -40 -61 -49 -79 -19 -37 -62 -234 -72 -333 -6 -64 -6 -66 24 -95 18
-16 49 -35 71 -42 22 -6 95 -38 163 -70 86 -40 140 -60 178 -64 58 -5 134 -26
212 -58 26 -10 71 -19 100 -20 29 0 76 -4 103 -9 96 -18 161 -20 279 -9 97 9
120 9 127 -2 7 -11 14 -11 44 0 23 8 53 11 79 7 32 -5 46 -3 55 8 18 22 576
22 669 1 50 -12 78 -13 130 -5 131 20 215 42 285 76 39 19 78 34 87 34 17 0
109 34 149 55 50 25 125 110 156 177 25 51 14 106 -40 209 -81 152 -154 308
-171 361 -19 64 -56 159 -94 248 -16 36 -41 99 -56 140 -43 122 -88 201 -156
273 -54 58 -82 77 -193 134 -228 116 -239 121 -270 128 -16 3 -5 -4 26 -18 68
-29 119 -60 144 -87 10 -11 27 -20 38 -20 30 0 160 -65 182 -92 11 -12 13 -18
5 -12 -8 6 -44 21 -80 33 -36 13 -72 28 -80 35 -8 8 -28 16 -45 20 -16 4 -64
30 -107 57 -61 40 -87 51 -132 56 -74 8 -75 -12 -3 -50 60 -32 115 -72 82 -60
-11 4 -33 15 -50 24 -42 24 -85 31 -123 20 -18 -6 -32 -7 -30 -3 2 4 16 31 31
60 l28 54 42 -6 c41 -5 41 -5 9 5 -30 9 -33 13 -28 36 4 14 24 48 46 77 21 28
47 72 58 97 42 97 46 234 9 306 -8 15 -18 65 -21 110 -4 45 -15 113 -25 150
-10 37 -21 90 -25 118 -11 84 -38 122 -157 220 -138 113 -193 142 -279 149
l-65 5 55 -10z m387 -463 c42 -45 63 -76 71 -107 6 -24 9 -45 7 -47 -1 -2 -16
14 -31 35 -16 21 -48 59 -71 85 -24 26 -43 51 -43 57 0 5 -3 16 -6 25 -12 32
15 14 73 -48z m-791 -32 c-19 -43 -68 -152 -110 -242 -92 -199 -97 -234 -42
-348 38 -79 90 -131 216 -216 64 -42 82 -60 90 -87 5 -19 8 -37 6 -39 -3 -2
-21 15 -41 37 -21 22 -65 61 -99 85 -78 56 -187 169 -215 223 -26 52 -28 136
-5 214 25 84 119 285 177 376 28 45 53 81 54 79 2 -2 -12 -39 -31 -82z m745
-117 c184 -138 209 -187 179 -348 -9 -49 -48 -144 -55 -137 -2 2 5 35 16 73
21 78 25 122 4 60 -35 -108 -99 -255 -110 -255 -2 0 4 19 14 43 10 23 35 96
55 162 42 132 43 167 6 253 -18 42 -35 58 -135 128 -63 43 -115 82 -115 85 -1
20 76 -15 141 -64z m-788 -694 c-7 -2 -19 -2 -25 0 -7 3 -2 5 12 5 14 0 19 -2
13 -5z m753 -45 c-14 -24 -36 -57 -50 -74 -25 -32 -106 -100 -106 -90 0 4 24
32 53 64 29 31 68 76 86 100 19 23 36 42 38 42 2 0 -7 -19 -21 -42z m-914 -2
c-46 -19 -86 -37 -90 -41 -4 -5 2 -5 13 0 80 32 180 65 198 65 12 -1 33 -7 47
-15 l25 -13 -30 -7 c-17 -4 -50 -13 -74 -21 -25 -8 -60 -14 -79 -14 -37 0
-190 -69 -212 -95 -7 -8 -23 -15 -37 -15 -13 0 -22 -4 -18 -10 3 -5 13 -6 22
-3 11 4 14 3 9 -5 -4 -7 -15 -12 -24 -12 -13 0 -14 -2 -3 -9 10 -6 6 -11 -15
-19 -24 -9 -26 -11 -7 -11 16 -1 20 -6 16 -22 -5 -18 -50 -46 -59 -36 -10 9
21 77 35 77 13 0 13 2 2 9 -16 11 -6 23 79 96 59 50 124 87 205 116 86 31 84
20 -3 -15z m-25 -72 c-3 -3 -12 -4 -19 -1 -8 3 -5 6 6 6 11 1 17 -2 13 -5z
m1512 -100 c14 -12 -19 -1 -35 12 -18 14 -18 14 6 3 14 -6 27 -13 29 -15z m75
-29 c13 -14 27 -38 31 -53 3 -15 21 -43 39 -62 29 -31 83 -147 73 -157 -11
-11 -51 57 -122 209 -31 67 -109 60 -170 -14 -24 -30 -26 -31 -20 -8 12 40 54
89 83 96 15 3 32 7 37 9 20 7 26 4 49 -20z m-1863 -159 c-27 -88 -35 -101 -97
-162 -30 -29 -54 -60 -54 -69 0 -14 3 -15 14 -6 10 8 16 9 21 1 10 -17 -36
-89 -72 -111 -18 -11 -41 -30 -51 -42 -10 -12 -28 -31 -41 -42 l-24 -20 13 25
c7 14 25 37 40 51 24 22 28 34 28 74 -1 38 3 52 20 65 12 10 19 20 16 22 -2 3
11 17 31 32 25 20 49 57 85 131 42 89 75 133 88 120 2 -2 -6 -33 -17 -69z
m2059 -231 c23 -47 59 -136 80 -198 33 -98 123 -305 150 -347 6 -8 28 -52 50
-97 41 -83 51 -150 30 -183 -12 -18 -12 -17 -15 40 -3 64 -63 195 -146 320
-65 100 -71 113 -98 230 -27 118 -65 232 -97 292 -16 30 -18 42 -5 33 6 -3 28
-44 51 -90z m-1380 28 c141 -16 209 -13 360 13 59 10 114 13 178 8 51 -4 91
-9 89 -11 -3 -2 -62 -7 -133 -12 -123 -7 -118 -8 102 -8 148 -1 239 -5 252
-12 11 -6 31 -11 44 -11 16 0 30 -10 43 -32 17 -29 19 -51 16 -208 -1 -96 -7
-192 -12 -214 -12 -44 -4 -60 17 -32 8 11 14 14 14 8 0 -7 7 -12 15 -12 8 0
15 -6 15 -12 0 -13 86 -75 123 -90 34 -14 15 -42 -42 -60 -30 -10 -64 -27 -76
-38 -23 -22 -65 -26 -82 -9 -9 9 -13 5 -18 -17 -11 -48 -13 -51 -14 -14 0 19
6 54 14 76 17 49 31 335 14 294 -6 -14 -14 -65 -18 -115 -8 -84 -8 -86 -10
-30 -2 33 -6 80 -11 105 -5 29 -6 3 -2 -70 5 -128 -4 -242 -19 -219 -6 10 -9
8 -10 -11 -1 -17 -6 -8 -14 25 l-13 50 -1 -91 c-1 -103 -9 -156 -22 -148 -5 3
-10 35 -11 72 -1 60 -2 62 -5 17 -5 -54 -21 -74 -41 -48 -11 16 -12 16 -12 0
0 -9 -7 -17 -15 -17 -10 0 -15 10 -15 34 0 19 -4 37 -8 40 -5 3 -8 -13 -8 -36
1 -38 -2 -42 -29 -50 -16 -4 -37 -5 -45 -1 -8 3 -20 5 -27 4 -6 -1 -14 3 -17
8 -4 5 -72 8 -164 6 -111 -3 -139 -1 -97 5 33 4 113 8 178 9 101 1 117 3 117
17 0 12 7 15 25 12 14 -3 28 -1 31 4 4 6 -33 8 -97 4 l-104 -6 65 17 c60 15
63 17 35 24 -16 3 -122 6 -235 6 l-205 -1 200 -6 c191 -5 198 -6 144 -18 -44
-10 -83 -10 -180 -2 -203 18 -336 23 -342 14 -3 -5 43 -10 101 -10 59 -1 139
-6 177 -12 l70 -9 -70 -2 c-178 -3 -392 -15 -415 -22 -15 -5 24 -7 95 -5 78 3
101 1 65 -3 -30 -4 -48 -9 -40 -10 13 -1 13 -2 0 -12 -12 -8 -10 -9 10 -5 68
17 122 18 229 5 110 -13 113 -14 67 -21 -28 -4 -53 -5 -56 -3 -4 2 -105 7
-225 9 -120 3 -235 8 -254 11 -30 4 -32 4 -13 -5 12 -5 60 -13 105 -17 l82 -7
-89 -8 c-58 -5 -93 -4 -102 3 -19 16 -24 -3 -15 -52 l9 -44 1 40 c2 37 3 39
16 21 13 -17 15 -18 15 -3 0 9 5 17 11 17 5 0 8 -4 5 -9 -6 -9 83 -27 164 -35
20 -1 10 -4 -25 -5 -33 -1 -78 -6 -100 -11 -28 -7 -6 -8 75 -4 63 2 137 4 163
4 27 -1 54 4 61 9 8 7 32 8 62 4 l49 -7 -60 -13 c-33 -7 -156 -16 -273 -19
l-213 -7 2 54 c3 82 0 111 -11 104 -5 -3 -10 -4 -10 -1 0 2 -3 12 -7 22 -4 12
-3 15 5 10 7 -4 12 -3 12 2 0 6 -7 12 -15 16 -8 3 -15 18 -15 33 0 35 -34 156
-41 148 -13 -12 -43 92 -42 140 1 31 -13 108 -38 202 -21 83 -40 164 -40 180
l-1 28 -8 -30 c-7 -27 -8 -25 -9 16 -2 73 18 90 120 100 46 5 102 13 124 18
49 10 175 5 355 -16z m857 -820 c-3 -10 -5 -4 -5 12 0 17 2 24 5 18 2 -7 2
-21 0 -30z m-629 -30 c-32 -2 -86 -2 -120 0 -35 2 -9 3 57 3 66 0 94 -1 63 -3z
m629 -35 c-3 -7 -5 -2 -5 12 0 14 2 19 5 13 2 -7 2 -19 0 -25z m30 -50 c-2
-18 -4 -6 -4 27 0 33 2 48 4 33 2 -15 2 -42 0 -60z m770 40 c-3 -7 -5 -2 -5
12 0 14 2 19 5 13 2 -7 2 -19 0 -25z m-1116 13 c-11 -7 -10 -11 5 -20 17 -11
16 -12 -9 -6 -15 3 -48 9 -75 12 l-47 8 40 6 c64 10 102 10 86 0z m189 -11 c0
-5 -10 -10 -22 -9 -22 0 -22 1 -3 9 11 5 21 9 23 9 1 1 2 -3 2 -9z m40 0 c0
-5 -7 -10 -15 -10 -8 0 -15 5 -15 10 0 6 7 10 15 10 8 0 15 -4 15 -10z m856
-37 c-10 -10 -19 5 -10 18 6 11 8 11 12 0 2 -7 1 -15 -2 -18z m-1723 10 c-7
-2 -19 -2 -25 0 -7 3 -2 5 12 5 14 0 19 -2 13 -5z m547 -3 c-11 -7 6 -10 55
-11 39 -1 59 -4 45 -6 -14 -3 -81 -1 -150 3 -114 8 -120 9 -65 15 103 10 132
10 115 -1z m347 -12 c-3 -8 -6 -5 -6 6 -1 11 2 17 5 13 3 -3 4 -12 1 -19z
m-82 2 c3 -5 -1 -10 -9 -10 -9 0 -16 5 -16 10 0 6 4 10 9 10 6 0 13 -4 16 -10z
m-329 -21 c100 -7 190 -8 200 -4 27 12 64 13 64 2 0 -5 9 -7 20 -4 11 3 23 1
26 -4 3 -5 10 -6 16 -3 7 4 8 2 4 -5 -6 -9 -54 -10 -199 -5 -317 12 -354 13
-554 16 -105 2 -195 7 -199 11 -11 11 421 8 622 -4z m484 -44 c-16 -20 -92
-29 -137 -17 l-38 10 36 1 c19 1 41 7 47 13 10 10 15 10 21 -1 7 -10 14 -6 32
18 22 30 23 30 37 10 10 -15 11 -23 2 -34z m730 47 c0 -5 -7 -17 -15 -28 -15
-19 -20 -8 -9 20 6 17 24 22 24 8z m-822 -17 c-10 -10 -49 -14 -43 -4 4 5 16
9 27 9 12 0 19 -2 16 -5z m-303 -24 l90 -6 -102 -8 c-90 -7 -233 5 -233 19 0
6 139 3 245 -5z m1075 -1 c0 -5 -10 -15 -22 -21 -23 -12 -23 -12 -4 10 21 23
26 26 26 11z m-953 -6 c-3 -3 -12 -4 -19 -1 -8 3 -5 6 6 6 11 1 17 -2 13 -5z
m76 -11 c-7 -2 -19 -2 -25 0 -7 3 -2 5 12 5 14 0 19 -2 13 -5z m235 -48 c-14
-14 -100 -45 -124 -45 -8 0 -12 -5 -8 -11 4 -8 -11 -9 -52 -5 -33 4 -187 8
-344 10 l-285 4 290 -15 c403 -20 440 -20 438 -6 -2 10 75 35 85 27 12 -8 -22
-42 -50 -50 -19 -6 -288 -11 -649 -12 -684 -3 -643 -7 -637 65 l3 38 75 3
c109 5 340 -10 278 -18 -26 -3 -50 -8 -53 -12 -3 -3 189 -4 427 -3 467 4 539
11 590 59 22 20 23 20 26 2 2 -10 -2 -24 -10 -31z m-205 -2 c-7 -2 -21 -2 -30
0 -10 3 -4 5 12 5 17 0 24 -2 18 -5z"/>
<path d="M722 1135 c0 -16 2 -22 5 -12 2 9 2 23 0 30 -3 6 -5 -1 -5 -18z"/>
<path d="M1847 1154 c-3 -3 -194 -7 -424 -9 -230 -2 -469 -7 -532 -12 -106 -8
-115 -10 -137 -36 -13 -16 -24 -33 -24 -38 0 -6 11 3 25 20 l26 30 327 -4
c180 -2 437 1 572 6 479 21 460 22 460 -36 0 -43 15 -46 24 -4 6 30 -7 67 -28
81 -13 9 -280 11 -289 2z m-714 -21 c-13 -2 -35 -2 -50 0 -16 2 -5 4 22 4 28
0 40 -2 28 -4z"/>
<path d="M681 1084 c0 -11 3 -14 6 -6 3 7 2 16 -1 19 -3 4 -6 -2 -5 -13z"/>
<path d="M2160 860 c0 -7 3 -10 7 -7 3 4 3 10 0 14 -4 3 -7 0 -7 -7z"/>
<path d="M2141 844 c0 -11 3 -14 6 -6 3 7 2 16 -1 19 -3 4 -6 -2 -5 -13z"/>
<path d="M2093 725 c0 -22 2 -30 4 -17 2 12 2 30 0 40 -3 9 -5 -1 -4 -23z"/>
<path d="M1193 643 c4 -3 10 -3 14 0 3 4 0 7 -7 7 -7 0 -10 -3 -7 -7z"/>
<path d="M1530 635 c-33 -19 -21 -19 21 0 19 8 27 14 19 14 -8 0 -26 -6 -40
-14z"/>
<path d="M1163 633 c4 -3 10 -3 14 0 3 4 0 7 -7 7 -7 0 -10 -3 -7 -7z"/>
<path d="M1483 613 c4 -3 10 -3 14 0 3 4 0 7 -7 7 -7 0 -10 -3 -7 -7z"/>
<path d="M1620 584 l-45 -14 45 6 c25 3 49 9 55 15 12 12 2 11 -55 -7z"/>
<path d="M2103 550 c0 -25 2 -35 4 -22 2 12 2 32 0 45 -2 12 -4 2 -4 -23z"/>
<path d="M1538 563 c7 -3 16 -2 19 1 4 3 -2 6 -13 5 -11 0 -14 -3 -6 -6z"/>
<path d="M1428 543 c23 -2 59 -2 80 0 20 2 1 4 -43 4 -44 0 -61 -2 -37 -4z"/>
<path d="M1549 530 c-37 -5 -76 -13 -87 -19 -12 -7 -81 -11 -171 -11 -99 0
-151 -4 -151 -11 0 -6 28 -10 73 -9 39 1 117 -1 172 -4 66 -3 83 -2 50 3 -44
7 -46 8 -15 10 19 1 63 8 97 15 34 7 65 11 67 8 3 -3 11 0 18 5 7 6 22 13 33
16 20 5 20 5 0 5 -11 -1 -50 -4 -86 -8z"/>
<path d="M1208 523 c12 -2 30 -2 40 0 9 3 -1 5 -23 4 -22 0 -30 -2 -17 -4z"/>
<path d="M1675 519 c-33 -4 -71 -12 -85 -18 -20 -9 -15 -9 25 -3 28 4 78 6
113 5 34 -1 60 2 57 6 -8 14 -46 17 -110 10z"/>
<path d="M2012 480 c7 -10 14 -18 15 -16 6 6 -9 36 -18 36 -5 0 -4 -9 3 -20z"/>
<path d="M920 360 c-12 -8 -10 -10 10 -9 14 1 36 5 50 9 23 7 22 8 -10 9 -19
0 -42 -4 -50 -9z"/>
<path d="M945 220 c3 -5 8 -10 11 -10 2 0 4 5 4 10 0 6 -5 10 -11 10 -5 0 -7
-4 -4 -10z"/>
<path d="M1055 140 c-3 -6 1 -7 9 -4 18 7 21 14 7 14 -6 0 -13 -4 -16 -10z"/>
<path d="M941 116 c2 -2 31 -6 64 -9 39 -4 50 -3 30 2 -31 9 -102 14 -94 7z"/>
<path d="M1169 3069 l-24 -20 28 17 c15 9 27 18 27 20 0 8 -8 4 -31 -17z"/>
<path d="M1105 3024 c-18 -16 -22 -22 -9 -15 18 9 53 42 43 41 -2 -1 -17 -12
-34 -26z"/>
<path d="M1054 2968 c-4 -7 -3 -8 4 -4 7 4 12 9 12 12 0 8 -9 4 -16 -8z"/>
<path d="M1713 2973 c4 -3 10 -3 14 0 3 4 0 7 -7 7 -7 0 -10 -3 -7 -7z"/>
<path d="M1024 2928 c-4 -7 -3 -8 4 -4 7 4 12 9 12 12 0 8 -9 4 -16 -8z"/>
<path d="M995 2879 c-4 -6 -5 -12 -2 -15 2 -3 7 2 10 11 7 17 1 20 -8 4z"/>
<path d="M1024 2828 c-4 -7 -3 -8 4 -4 12 7 16 16 8 16 -3 0 -8 -5 -12 -12z"/>
</g>
</svg>
