<svg xmlns="http://www.w3.org/2000/svg" width="400" height="412" version="1.0" viewBox="0 0 300 309"><path d="m141 3-12 1c-9 0-10 0-5 1l4 1-2 2-3 1-5 4-4 3-1 2-4 6c-2 1-3 3-2 3l-1 1-2 4-3 6v1c2-1 2-1 0 2l-2 4-1 3-1 3-1 4-4 11-2 6v14c1 2 3 14 1 14h-1l-5 3-7 4-4 3-9 5-1 1-1 1-3 1-6 6h-2l-2 4-4 4-1 2-1 1-2 2-2 4-2 2v3l-1 1-1 2-1 3c-2 1-6 11-5 12l-1 1c-1 0-3 7-4 15l-1 3v1c-1 4-4 13-6 14l-1 6-1 4c-2 0-3 3-3 12l-2 7-2 11-1 1v8l-1 8c-2 1-4 6-4 7v2l-1 3-1 3c-1 1 1 12 3 12l1 2c0 2 2 4 3 3l1 1c0 1 11 12 13 12l1 2 1 1 3 2c2 3 9 4 27 3a13543 13543 0 0 1 206 0c9 0 10 0 12-4l3-3 2-1 3-2c3-2 17-16 17-18l1-1c1 0 2-2 2-7 0-7-2-12-2-7l-1-1v-5l-1-2-1 1v1l-1-5-1-4-1-9-2-9c-1-2-2-4-1-5v-2l-1-8-2-8-1-2-4-13-1-3-1-2-1-3-1-7a1164 1164 0 0 1-6-20l-3-8-2-5-2-3c-1-1-2-3-1-4v-1c-1 1-4-2-7-6l-10-9-6-4a75 75 0 0 0-17-11l-1-1-2-2-1-1c-1 1-12-1-14-3s-2-2-1-11c1-8 1-9-2-15-2-5-3-13-3-27l-1-2v-1l-1-3-1-2v-1l-1-3-1-3-1-2-1-3v-1l1-1h-1l-4-4-2-5-1-2-1-1-2-2-1-1c-1 1-3-1-4-3s1-3 8-3c3-1 1-1-3-1l-10 1h-3l-9-2-12-1-2-1c-1 0-2 0-1 1l-1 1-1-1-2 1zm8 8a451 451 0 0 0 2 40v13l-13 3-12 2-8 8c-10 10-18 20-17 21l17-17c7-8 9-10 20-12l12-2c2 0 2 0 2 2l-1 2c-10 1-22 3-26 6l11-2c5-2 9-2 11-2l3 1-4 1c-23 6-22 6-34 20-16 17-19 27-10 34l5 4c2 0 17 15 16 16-2 1-21-15-25-22-3-5-2-20 2-38l1-12-2 3c0 3-2 9-3 8-3-1 1-17 9-41 10-26 16-32 34-38 10-3 10-3 10 2zm22 3c11 6 16 15 23 41 3 13 2 14-2 5-4-6-15-22-17-23-3-2-1 2 4 9 14 19 20 32 20 44 0 8-1 8-4 0-4-12-13-23-24-28-7-4-6-2 1 3 4 2 6 5 5 5l-14-7c-2-3-5-3-2 0 2 3 1 4-3 2l-3-1-1-17-2-28V8c1-1 14 3 19 6zm3 58c12 3 13 5 21 28 7 20 6 25-2 36-3 4-14 12-16 12s-1-3 3-5c10-5 16-14 17-23 0-4 0-5-1-4 0 5-1 3-4-6-7-23-13-29-27-33-11-3-11-3-10-4s10 0 17 3 11 7 15 15l4 6c1-2-7-16-10-18-5-4-13-7-21-8-5 0-7-1-5-3 0-1 11 1 19 4zm-23 10h2c1-1 2-1 6 3h1l9 3c1 2 2 2 2 1-1-1 0-1 0 0l2 2c0-2 6 6 8 10v6c1 0 0 2-2 3l-2 4-2 1-1 2-3 4-2 2-2 3-5 7c-1 2-3 3-3 2l-1 1-1 3c0 1-1 1 0 0l-1-1-1 2c0 3-4 5-6 4-4-1-11-8-10-9l-1-1c-3 0-9-7-8-8l-1-1c-1 1-8-6-7-7l-1-1c-1 1-7-2-7-4v-1c-4 0 0-8 8-16l2-2c0-2 2-3 4-3l4-3c1-2 12-5 13-4h1l2-1h1l1-1 2-1-1 1zm-56 26c-4 7-2 18 3 24 7 7 7 6 8 32 2 29 2 27-8 26-9 0-8 0-6-5s3-10 1-9l-2 7c-2 6-4 9-6 7l5-16c8-24 5-20-8 9l-2 4-1-3c-7-16-18-37-24-43-5-6-3-8 27-27 11-8 14-9 13-6zm11 6v12l2 6-4-4c-5-5-5-10-2-17 3-6 4-5 4 3zm111-2c31 20 34 22 32 25a422 422 0 0 0-19 35l-2 4-1-10-2-24c-1-26-3-16-4 21l-1 27c-3 2-14 0-14-2a474 474 0 0 0 3-32l-4 21c-2 14-1 13-10 13h-8l3-5c9-12 9-13 0-3-6 7-10 10-12 8l10-11c10-9 11-11 15-19l5-9v-22l1-22 8 5zm-31 0-1 6c-1 4 0 6 1 2l2-1c1 0 0 3-4 8-5 6-3 6 3 1 5-6 6-6 6-3 0 4-4 10-10 14-4 3-4 3-5-1-2-5-8-2-10 5-1 4-2 5-8 8-9 5-10 5-4-1l9-12 9-10 6-10c4-7 5-8 6-6zm-72 6c0 2 12 15 24 26 7 6 10 9 10 11 0 4-8 2-11-3l-5-8-5-6c-2-2-5-1-6 2 0 3-1 2-6-5-4-6-4-6-2-5 2 0 2 0-1-4-4-4-5-6-3-6l2 2c1 1 1 1 1-1v-3c1-2 2-1 2 0zm142 27c6 10 10 19 12 25l9 34 3 16c0 5 1 7 3 13 3 5 4 8 4 14s0 8 3 13c6 11 4 18-9 29-9 8-9 8-13 3-6-10-13-19-14-18l3 7c3 5 3 8 3 10-1 6-7 6-7 0 0-10-7-20-16-23-5-2-5-2 0-6 8-6 20-6 27-1 3 1 3 1 2-1l-4-3-7-2c-3-1-3-1 3-2 12-2 20 2 27 13 4 5 5 6 5 3 0-6-10-16-19-19l-4-2 3-1c1-2-5-1-11 2l-7 1c-1-1 5-5 10-6 6-2 7-3 2-3s-6-2-3-5l1-3c0-2-2-1-7 5-7 10-8 11-7 13l-3 2c-9 4-8 1 3-13 9-12 11-14 6-11-9 6 2-16 12-24l3-4c0-2-1-1-5 2-4 4-5 4-5 0l-4-6-3-3 4-9c5-9 5-9 3-9l-4 4c-4 6-15 12-15 7l4-11 3-11c-1-2-10 9-14 17-3 7-4 8-5 5-2-3-1-7 2-10 5-7 11-17 12-21l9-19 5 8zm-203-2 5 7c5 7 9 16 7 14-2-1 2 11 6 18l2 6c-1 2-1 2-3-2l-3-5-5-7c-8-14-7-8 2 12 5 10 5 11 2 10l-1 3c1 5-1 5-3-1-3-5-5-7-6-6l5 11c5 11 6 14 3 19-1 3-3 4-3 2 1-2-12-11-13-10l2 4 8 12c10 14 9 15-3 6-12-7-12-6-2 4 8 8 9 12 2 7l-6-3 1 2 1 2c1 2-2 1-11-3-7-4-22-6-24-3s-1 7 1 5c4-2 9-3 13-2 5 0 4 2-1 2l-3 1h3c6-1 5 1-3 4-8 4-16 11-16 15s2 5 3 1c5-9 21-17 31-15 7 1 8 2 2 3l-5 2 1 1c6-3 14-2 19 1 8 4 8 5 0 9-10 4-14 11-14 21 0 5 1 4-10 2H27l18 4 1 2-4 1-9-2c-8-1-10-2-17-10-11-11-12-18-6-28 4-5 4-7 3-11 0-5 0-7 3-13s4-9 4-14c0-6 1-8 5-18 6-15 7-17 8-24 0-6 3-14 9-26 8-16 8-16 11-10zm122-1v31c0 16 0 20-3 17-1-1-2-46-1-49s5-2 4 1zm-48 2c2 5 0 45-1 46-2 3-3-1-3-13v-13h-2c-2 0-2 0-1 1l2 2c-1 1-6 0-8-2l-3-2h5c-5-5-6-5-4-6l7 3 5 3v-12c0-12 1-14 3-7zm70 2v5c-1 6-3 10-6 11-1 0-2 1-1 2 0 1-4 5-5 4l-1-6-1-6 1-3 4-3c1 1 2 0 2-1l2-2 2-1 3-2c2 0 2 1 0 2zm-29 5c0 2-15 11-17 10s0-3 7-7c9-4 10-5 10-3zm-32 4 9 3c5 1 6 4 1 4-4 0-15-6-15-9 0-2 0-1 5 2zm1 13c6 3 8 3 12 2l5-2h5c4-1 5 2 3 5-1 3-2 3-6 3l-1 1h-1l-3 2-2 2-4 1-3 2-3-3-3-3 2-1 2-2 1-1 1-1-2-1c-4 0-9-2-9-5s0-3 6 1zm29 11c0 3-8 7-14 7s-4-1 5-5c8-3 9-3 9-2zm-32 9c-1 3-3 1-4-2v-4l2 3 2 3zm-15-1c2 3 2 3-2 3-5 1-5 0-3-3s4-3 5 0zm105 8a676 676 0 0 1 4 95H71v-91l2-3 3-2h73l75 1zm16 9c0 5 0 6 2 9s2 9 0 12c-3 4-3 2-4-12l-1-14c-1-2 1-4 3-3v8zm16 0c2 3 2 4-1 6-4 5-7 4-6-2 1-10 4-11 7-4zm-6 27-3 6-5 6c-1 1-2 2-3 1-1 0 2-7 5-8l2-4c1-2 3-3 4-1zM67 274c0 4 0 4-2 4s-2 0-1 1l-2 7c-3 6-4 12-3 17 1 2 1 2-3 2s-7-2-7-6c0-3 3-3 3 0 1 4 3 1 4-7l1-8v-3c-1 1-3 6-3 10l-3 4c-3 0 0-12 4-17 2-2 10-8 12-8v4zm177 4c4 4 7 12 7 16 0 3-4 11-6 11v-2c5-3 2-20-4-25-4-4-6-4-2 1 5 6 6 11 3 22-1 4-3 2-2-2 0-6-1-10-4-15l-3-9v-5l4 2 7 6zm-176 8c0 4-1 6-3 4-2-1-2-2 0-5 2-4 3-4 3 1zm167 1 1 7c-1 3-1 4 1 3v5c-1 2-2 3-4 3-5 1-5 0-3-3 2-2 2-4 2-10 0-7 1-9 3-5zm-171 9c2-3 4-2 4 0l2 5c3 4 3 4-2 4-6 0-7-2-7-8 0-3 0-3 1-2 1 2 1 2 2 1zm164 1-2 5-3 2H78l-2-2c-4-4-5-7-2-6a2724 2724 0 0 0 154 1zm42 3c1 3-4 5-11 5-8-1-9-2-2-4l8-1h5zm-229 1c9 2 9 4 0 4-5 0-7 0-9-2-3-4-2-4 9-2z"/><path d="m144 33-1 4c0 2-3 6-8 8l-4 3-2 1-1 1-1 3-1 2c0 2 0 2 1 1 0-2 17-11 18-10s-2 4-8 7l-6 3h-1l-2 4c0 3 2 3 10-1 9-4 10-5 10-16 0-10-2-15-4-10zm1 26-4 3c-3 1-3 1-1 1 1 0 8-3 8-5l-3 1zm-37 10c-3 5-2 7 1 2 2-2 2-4 2-5l-3 3zm69-13 4 4 7 9c4 7 5 7 2 1-3-7-13-18-13-14zm-97 67-11 7c-4 0-10 6-10 8s1 2 2 1c5-1 9-3 9-4l6-4c7-3 8-5 10-10 3-6 3-6-6 2zm-3 13c-1 1 1 28 1 30 1 3 2-2 2-9 0-17-2-27-3-21zm11 18c-4 8-9 23-6 20 2-2 9-21 9-23 0-1-1-1-3 2zm146-23c-1 3 0 19 2 19l1-9c-1-8-2-13-3-10zm42 112c-1 1 7 6 9 6s0-5-3-5l-4-2-2 1zm-3 16 7 12c4 8 6 10 6 7 0-5-12-22-15-22l2 3zm-20 4 6 4c7 4 10 9 10 14s4 10 7 9c1-1 1-1-1-3s-3-3-3-5c0-5-3-11-7-14-4-4-12-7-12-5zM50 151c-5 8-9 18-17 45l-6 24-2 8-2 5-1 2-1 3 2-3 3-3c3-1 6-7 6-10l1-5 1-8v-8l2 2 11 5c3 0 0-2-5-5l-6-4 2-5 3-6h2v-3l-1 1h-1c-1-2-1-2 2-2 3 1 4-1 1-9-1-5 2-2 5 4l2 5c2 0 0-6-2-9s-2-4-1-6l3-10 2-9c0-3 0-3-3 1zM24 262c-4 3-7 9-7 11 0 3 2 1 5-4l4-8 1-2-3 3zm20-1c-8 2-13 9-13 16 0 4 2 3 4-3 1-6 4-8 11-11 8-2 6-4-2-2zm-17 27 11 2c5 0 5-1 1-2H27zm49-88c-1 2 1 5 3 5h21l6 1c14-1 27-1 29 1h2l7-1 7-1h1l8 1h38c13 0 24-2 24-6 0-2-146-2-146 0z"/></svg>