<svg xmlns="http://www.w3.org/2000/svg" width="1200" height="1264" version="1.0" viewBox="0 0 900 948"><path d="M401 8c-3 1 1 2 12 2l12-1c-2-1-22-2-24-1zm28 0-2 1 2 1 18 2c18 1 17 1 30 9 6 4 8 6 8 8l2 2 1 1-1 1-3-1-4-2-4-1-2-1c0-2-3-1-4 0-1 2-1 2 1 3l3 1 2 2c3 1 4 3 1 3l-3-2-4-1-3-1-5-2-23-6c-14-5-24-6-34-4-18 4-35 11-53 24-4 3-7 4-9 4-5 0-6 1-5 3 1 1 1 3-2 7-4 4-11 18-15 26l-8 19-6 15-1 5c1 0 9-11 12-17l4-4 1-3c0-2 2-2 3-1l-1 6-3 6-4 9a578 578 0 0 1-20 45l-11 32-20 41c-2 0-1-16 1-25 6-23 7-25 12-32a129 129 0 0 0 15-27v-7l-2 3c0 2-9 15-13 20-2 3-4 3-4 0l2-7a103 103 0 0 1 9-26l15-26c4-5 6-10 5-10l-3 3-3 4-5 6-5 6-1 2c-1 2-1 2-2 1v-4l2-6 5-12 1-6 2-3 1-3 2-4 1-3c0-2-2-1-3 1l-2 2-1 4-1 4-2 3-1 4-2 3-1 4-2 5-1 5-2 6-2 10a335 335 0 0 0-16 68 293 293 0 0 0-10 66l-1 7-3 10c-2 8-1 36 2 43 7 19 12 26 34 49l5 6c3 4 1 13-3 15l-4 2-6 1-9 3-8 3-4 1-4 2a262 262 0 0 0-54 30c-3 0-31 25-31 28l-2 4c-3 3-5 9-9 24a414 414 0 0 1-17 47l-3 7-5 8-4 7-6 7c-14 15-23 27-23 32l-1 2-1 6-6 19-2 5-2 3-3 4-1 2-2 3-2 2c-1 1-1 2 1 7h-2c-1 0-2 0-3 3l-2 5v3c1 1 1 0 2-2 2-3 13-11 14-9v9c-2 10-4 16-11 30l-3 6-11 18c-15 18-21 28-22 38l-1 7-1 2a159 159 0 0 1-9 41l-2 6-3 10-3 10-2 13-3 11c0 1-2 0-3-3-3-3-3-5-3-12l1-11 3-9 6-25a440 440 0 0 0 8-47l5-12 1-4 14-20 9-12c3-5 5-8 9-19 4-9 5-14 3-14l-2 2-2 4-1 3-3 8-6 10-5 8-6 8-4 7-3 3-3 6-9 18-2 6-4 20a1526 1526 0 0 0-12 73l1 11 2 2 10 10 4 2c1 2 6 4 10 5a204 204 0 0 1 38 17l7 2 6 3 14 7c2 1 5 3 8 3l7 4c5 3 9 4 21 5l13 2 8 1c5 0 7 0 11 3l8 3 5 1 6 2 16 6 7 3 6 2 19 1 19 1 11 2c7 1 13 2 16 4h4l8-1a669 669 0 0 0 36 1c2-2 5-2 17-1 14 0 15 0 16-2s2-2 6-2c8 0 17 2 18 4s2 2 7 2c4-1 7-1 9-3 3-2 4-2 12-2l14 2c5 1 6 1 9-1 2-1 5-3 5-5l1-2h24a798 798 0 0 1 61 1h11a634 634 0 0 1 130 6l12-1 7-1 12-2a311 311 0 0 0 59-17l8-4 8-4 10-3 9-2 5-1 21-9c6-1 17-7 21-10l6-4a138 138 0 0 0 24-27l4-5 7-11c4-9 4-10 4-17 0-8-1-16-3-23l-12-24-4-8-5-9a176 176 0 0 1-10-17l-1-3a143 143 0 0 0-11-23l-3-6-6-13-3-6-3-8-3-8-4-11-2-5-1-6c0-3-2-8-5-13l-1-4-3-8-3-8-2-1-1-5c0-4-1-5-10-24a405 405 0 0 1-25-64l-7-15-8-15-8-12-9-12-9-8-5-5c0-2-6-8-10-10l-7-4a78 78 0 0 0-20-10l-10-5a228 228 0 0 1-32-17l-7-4-5-3-8-5-13-6-5-1-3-2-5-1-4-1-5-2-4 1 4 2 5 2 3 1 5 1 3 2 20 9 15 12c6 7 11 9 15 9l6 1 4 2 4 1 8 3c9 4 13 6 23 13 8 5 12 9 11 10l-3-1-9-4-14-5-8-2c-4 0-10-3-15-8-2-2-4-3-7-3l-7-2-5-2c-3 0-12-6-30-18a62 62 0 0 0-42-15l-11 1c-1 4 3 8 19 16 10 5 23 13 25 16v1l-4-1-8-4c-21-12-29-13-49-6-3 0-2-2 3-12l9-16 4-8 4 1 7 2h11c1-1-2-2-6-2s-10-4-11-6l2-8c2-5 4-9 9-15 13-15 19-25 24-39l3-8 1-7 2-9a98 98 0 0 0-9-69c-2-3-2-7-3-15a230 230 0 0 0-4-41l-3-16-3-6c-2-2-4-17-5-26a73 73 0 0 0-14-41l-2-3-6-4-9-8-8-6-9-7a269 269 0 0 0-46-35c-6-5-18-9-25-9l-9-1c-8-2-17-2-20-1zm70 29c13 10 22 19 21 20h-2l-3-2c-2 0-5-3-16-13l-8-10c0-1 2 0 8 5zm13 19-1 2-1-2 1-1 1 1zm4 3-1 2-2-2h3zm7 9 17 10 6 3 2 1 6 3c12 9 15 13 15 24 2 23 2 24 0 24l-4-2-8-6c-2 0 1 4 9 12 7 7 14 17 14 20s-13-9-23-21a419 419 0 0 0-26-29c0-2 6 0 14 5l6 3 2 2h4l-5-11c-3-7-6-10-9-13l-25-25h5zm25 10-2 1c-1 0-2-1 0-2l2 1zm-5 56c8 6 25 24 30 31s7 12 9 20c2 13 2 13-5 6l-5-6c0-2-12-18-20-26-11-12-13-14-14-20l-1-5c-1-2-1-4 1-4l5 4zm-212 4a313 313 0 0 0-13 31l-4 8a745 745 0 0 1-18 39l-6 14c-22 45-23 47-24 57-3 15 1 33 11 52l7 12c3 6 22 24 39 37l17 13 18 11c7 4 10 9 11 18 2 11-1 12-7 3-4-7-15-18-22-23a334 334 0 0 1-65-56c-7-9-12-18-16-29-2-5-2-7-2-20 0-15 0-18 6-38l16-40 6-12 11-25a453 453 0 0 1 32-53c3-4 5-2 3 1zm181 36c10 2 13 4 22 11l15 12 16 12c4 4 10 10 14 12 8 6 12 11 16 19 7 15 9 25 5 49-2 20-6 31-16 49-3 5-4 1-2-5a154 154 0 0 0 10-44c-1-1-2 2-2 6l-1 5-2 4-1 5-2 4-3 7-6 16-11 25-1 3-3 5c-1 3-2 3-2 2v-5l2-4 1-4c3-5 4-8 17-49l8-23c4-11-1-34-12-55-4-8-4-8-32-27l-38-29c-1-2-1-2 9-1zM311 401c0 2-1 2-5 2-5 0-8-1-6-2l6-1 5 1zm231 5-2 3-11 17c-10 15-16 22-28 31l-6 5-6 3 23-27a930 930 0 0 0 30-35v3zm-257 1c1 1-1 2-5 2l-5 1-4 2-3 1-4 2-4 2-2 1-5 1-4 2-3 1-4 2-3 1c0 1-1 2-3 2s-4 2-2 3l4-1 5-2 3-2 3-1 4-2 3-1 5-1 13-5 10-3c15-4 16-4 22-1l9 4c2 0 3 1 3 2s-10 4-14 4l-16 4c-12 4-15 5-26 6-14 1-16 1-30 10l-8 4-3 1-5 2-3 1-3 2c-2 0-9 6-9 8s-6 4-11 4l-6 1v3h10l-2 2c-1 2-3 3-5 3l-3 1c-3 1-2 2 1 2 8 0 1 5-8 6-5 1-4 2 2 3l6 1-1 6c-1 5-5 8-9 8l-5 2c-5 2-6 0-3-7 0-3 2-6 3-7l2-5c0-5 1-5 5-4 3 0 4 0 4-2l-3-1h-4c-1-2 1-5 3-6l3-4c1-2 2-4 5-6l14-10a152 152 0 0 1 36-25c23-11 30-14 39-16 7-2 11-2 11-1zm-33 30c3 0 1 2-3 2s-5-1-3-2h6zm444 25 2 1 3 1 3 2c3 1 4 3 1 3-2 0-7-3-8-5l-3-1-2-1 2-1 2 1zm31 10c3 3 10 13 11 17 3 10 4 12 12 19 9 9 11 13 13 21l5 12 6 17h-1c-2 0-11-10-11-11l-4-8-5-8a265 265 0 0 0-15-34l-1-3-2-2c0-3-5-7-9-9l-10-1c-12 0-21 6-32 20l-4 5v-8c6-15 19-27 31-28 11-1 12-1 15 1zm-550 33-1 6-7 19c-5 20-12 31-20 36-5 3-14 12-16 17l-5 5c-2 1-2 2-2 5 1 4 1 4 5 1h4l3 3-4 8c-4 10-11 18-21 25-7 5-17 14-17 16l-12 9c-2 0 0-5 2-6l1-2c0-2 11-12 12-12 2 0 7-9 6-10-2-2-2-13-1-19 2-8 4-11 8-14 3-1 4-2 3-3l9-9c11-11 16-17 22-29l9-22c2-7 8-18 11-21l9-5 2 2zm599 64c2 2 5 7 6 11s4 11 7 15a122 122 0 0 1 13 27l11 32a263 263 0 0 0 24 59l12 26 2 3c2 4 4 8 4 11l5 8 6 9a963 963 0 0 0 11 24c6 12 8 18 8 30 0 9 0 11-2 15l-3 5c-2 0-3-5-2-12l-1-12a537 537 0 0 0-31-70c-32-46-31-45-34-54a552 552 0 0 1-16-67l-6-17a326 326 0 0 0-10-27l-5-10-4-8c-2-3 1-3 5 2zm-451 11a317 317 0 0 1 49 4 268 268 0 0 0 106-2c8-3 27-4 40-4a535 535 0 0 1 40 4l-18 2a315 315 0 0 1-53 3c-10 2 45 3 63 1h24a626 626 0 0 0 54 4l12 3c7 0 8 1 8 3l3 4c6 4 12 21 9 27-2 2-2 8-2 33l-1 45c-1 15-1 20-5 33-1 6 1 6 7 2 2-1 4-2 5-1 6 1 8 2 9 5 0 3 7 9 14 12l9 7c6 5 9 7 12 7 2 0 6 5 6 8 0 4-4 7-11 9l-9 2-7 2-6 4c-12 11-13 11-20 11-6 0-7 0-10-3l-5-3-2 10-4 11c-1 1-1 1-1-3l1-12 3-13c3-6 4-12 5-24l2-15c2-6 2-6 1-10-2-5-2-6-1-15 2-11 2-34 1-34l-3 4-2 8-2 22-3 32c-1 1-1-5-1-15a177 177 0 0 0-3-34c0-9-1-12-2-8v22a213 213 0 0 1-3 72c0 5-1 6-1 2 0-6-2-4-2 4-1 8-2 8-4 0l-2-6-1-8c0-4-1-7-2-7-1-1-2 15-2 38a131 131 0 0 1-2 28c-1 4-1 4-3 2-1-2-2-4-2-20-1-16-2-20-3-19l-1 15-1 15-5 1h-4l-1-4-2-4c-1 0-2 1-2 4 0 4 0 4-5 5h-4v-8c0-6 0-9-2-12l-3-4c-2 0-1 6 1 7l1 8c0 9-2 12-6 12l-7 1c-7 3-14 2-14-1 0-1-1-1-3 1-2 1-2 1-4-1l-5-4h-23a560 560 0 0 1-57 0l15-2 40-1 37-1v-4c-3-3 1-5 14-4 4 0 5-1 5-3-1-2-3-2-12-1l-15 1-33 1 6-2a177 177 0 0 0 24-5l4-3-7-1-9-2-28-1h-29c-46-2-64-1-64 1a214 214 0 0 0 43 2l67 1h7l-5 2c-15 5-37 6-49 4l-24-2c-36-2-42-3-44-4l-17-1-16-1v-7l-1-7 5-1h10l11 1 8 1c2 2 6 2 19 2 20 0 25-1 7-2l-13-2 8-1 12-2 9-2 14-3c9-2 14-2 16 0 1 2 1 2-2 2-6 1-5 4 0 4l6-1 15-1 16-2h9c1 1 11 2 13 1 1-1 1-2-1-4l-5-3c-5 0-9-2-9-3l2-2 14-8a225 225 0 0 0 32-28c20-18 36-41 44-61 3-8 4-22 1-29-1-5-7-12-10-12-1 0-1 1 1 14 1 6 1 7-1 14-3 10-4 13-9 22a180 180 0 0 1-25 33 272 272 0 0 1-53 45c-9 5-9 5-11 10s-5 6-8 3c-2-2-3-2-8-2a469 469 0 0 1-38 5l-6 1-6 2c-4 2-8 2-41 4-18 0-25-1-25-4l3-3 3-2-3-1c-2-2-3-2-2-5l1-14c2-20 3-25 6-27l6-1 7 1c3-1 5-6 5-9-2-3 1-4 6-3 9 3 21 5 24 5l4-2-4-3-3-1c-1-2-9-3-23-5-8-2-9-2-10 0l-2 3-3 4c-1 2-2 2-8 2l-9-1-4 1-1 11-3 26a162 162 0 0 0 0 49l-2 8-1 5h-18a98 98 0 0 0-28 4l-5 2 12 1a332 332 0 0 1 32 0l-5 1 2 2c3 0 4 1 1 3l-2 2h6l4-1 7-2c5-1 41-2 46 0l32 4 11 2-14 2c-10 1-14 1-23-1l-49-1a511 511 0 0 1-90-5c-7 0-8 1-2 3l5 2c0 1 6 2 13 2l17 2 12 1 9 1c1 1-5 1-16 1l-27 1c-8 1-9 1-12-1-3-4-4-4-6-1-2 1-3 2-2 4l2 11c0 10 1 13 3 11 1-1 2-4 1-10 0-10 1-11 5-3l3 5 1-3v-5c0-2 0-2 3-2 4 0 5 1 2 2l-2 2h14l55-1 64-1a459 459 0 0 1 69 4l18 1c6 2 30 3 36 1h5c1 1 2 1 4-2 3-3 6-4 8-1 1 1 5 1 7-2 1-2 1-1 1 3 0 2 0 3 2 3l2-1 6-1c4 0 5 0 6 2s1 2 3 1c3-2 4 0 1 2a788 788 0 0 0-83 0 265 265 0 0 0-44-4l-25 3c-1 1-9 0-15-3-7-3-41-4-51-2a414 414 0 0 1-70 0l2 1c12 3 24 5 37 5 14 0 8 1-12 2l-36 3c-4 4 45 4 64-1 5-1 7-1 13 1 10 2 17 1 21-2 5-4 9-4 29 0l5 1h-4l-10 1-7 2-6 1a1180 1180 0 0 1-135 5l-2-8 1-9c2-2 2-12 0-17l-1-9c0-5 0-5-1-3l-2 3-5-11c0-2 3-2 3 0 1 3 3 2 3-1 0-2-1-2-3-3-4-2-5-4-6-14l-2-11-1-7-1-4-2-6-3-6-1-6c0-3 0-3-1-2-3 2-3 1-3-4 1-5 1-5-1-3l-1 2-1-3-2-4-3-8c-4-11-4-15-4-21 2-10 1-19-1-29a328 328 0 0 1-8-30 1250 1250 0 0 0-10-39c1-2 0-3-1-4-2-1-2-2-2-8l-1-10c-1-2-1-2-1 3l-2 7c-1 4-2-2-2-12 0-11 2-17 7-21 6-5 10-6 29-7 15-1 26-2 31-4l10-3c8-1 17-1 53 1zm342 155c1 1-2 5-3 4l2-5 1 1zm-180 59-2 1c-3 0-4-1-2-2 1-1 3-1 4 1zm-83 30 14 2 13 2 11 1 13 1 4 1h-3l-24 1h-33c-21 2-26 2-25 0v-5c0-2 1-3 3-3h27zm228 8c-1 1-1 0-1-3 0-2 0-4 1-2v5zm-176 6c10 1 0 2-32 2h-35l15-2h52zm176 9c0 6 0 6-1 3v-9l1 6zm10 8c0 12-1 19-2 17v-29c1-3 2 2 2 12zm231-7c0 5-1 7-2 6v-10c1-2 2 0 2 4zm-334 0-3 1-2 3 6 4 3 1-3 1-22-4-11-2h-6l10-1 11-2 7-1 8-1 2 1zm55 5c0 1-9 3-11 2s1-2 4-2l4-1c0-2 3-1 3 1zm13-1c0 3-2 4-5 3-7-1-6-4 1-4l4 1zm257 7c0 5-1 7-3 7-3 0-3-5 0-9 2-3 3-2 3 2zm-518 1c1 0 2 0 1 1l-6 1c-4 0-5 0-5-2-1-1 0-1 4-1l6 1zm270 3c0 3-1 4-2 4s-2-4-1-7c2-3 3-1 3 3zm-105-2-2 1c-2 0-3 2-1 2l19 2h18l-8 2c-8 1-13 1-46-2l-23-2h-11l15-1 17-2h22zm78 3c2 2 1 3-2 3l-7-2 6-3 3 2zm48 13c3 2 2 6-2 9-5 3-11 4-22 5-10 0-26-2-27-3l7-1a23 23 0 0 0 17-5c0-2 3-1 4 1l3 3 8-8 4-6 2-4 2 4 4 5zm217-7c0 3-3 9-5 11-2 3-3 3-3-2-1-3 0-4 3-7 3-4 5-5 5-2zm-248 5c1 1-3 3-8 3-6 1-5-2 2-3h6zm-130 6a956 956 0 0 1 53 4l-18 2a207 207 0 0 1-62-4c-5-1-6-2-5-3h4l28 1zm363 3-5 4-3 3h-2c-1-1 12-12 13-12l-3 5zm-286 1h-5c-1-1 0-1 2-1 3 0 5 0 3 1zm98 6c-1 11-5 15-22 20a875 875 0 0 0-31 10c-10 1-16 0-29-3-12-2-22-3-42-2h-40l-45-1c-49 1-48 4 2 4l41 1 42 1a178 178 0 0 1 65 7c7 1 25 0 29-2 2-1 3-4 0-4a498 498 0 0 0 27-6c0 3-5 9-9 11-17 6-17 6-21 5-6-2-40-2-51 0a25207 25207 0 0 0-261 1h-53l-3-3c-5-5-6-15-3-23 1-5 1-5 5-5a5495 5495 0 0 0 78 0l16 2c9 0 23 1 20 2l-11 1c-10 1-19 3-19 4l25 1a1628 1628 0 0 1 97 1c3-2 10-2 45-2 67 0 97 0 102-2l27-8 16-10 1-3c2-5 3-3 2 3zm-73-4h-11c-1-1 0-1 5-1l7 1zm6 16h-8c-2-1 0-1 4-1s6 0 4 1z"/><path d="m811 677 2 2 2-1-2-2-2 1zm-595-74c-1 4 0 13 1 10v-10c-1-2-1-2-1 0zm341-1-27 2a1396 1396 0 0 0-69 2c-6-2-18-2-76-2a853 853 0 0 0-156 12c-2 0-7 7-9 10-1 3-2 5-1 6 1 2 1 2 1 0 1-3 8-11 13-14 3-2 12-3 23-1h48c13 1 29 2 72 1l39 1c17 1 37 0 52-2l37-1 35-1c20-3 91-5 96-2 4 2 6 7 7 17l1 8c4 0 7-15 5-23-1-6-6-11-11-13h-80zm-220 7h-14c-6-1-5-1 8-1s13 0 6 1zm-133 14c0 5 1 7 3 4l-2-9-1 5zm354 25c-18 2-24 5-27 13-2 5-4 10-5 19l-2 11a737 737 0 0 0-11 47l-3 15c-3 10-2 14 0 14 3 0 7-5 10-11l4-15 9-37 7-29c4-12 5-13 20-17l14-2c13-1 15-2 11-6-3-2-4-2-12-3l-15 1zm-176 9-2 8-2 10-3 15-4 16-1 13c1 3 1 4 3 4l5-1c2-1 2-2 2-9-1-8 0-12 4-20l7-29v-10l-5-2c-2 0-2 1-4 5zm-54 11c-3 3-4 5-8 15l-3 6-2 12a362 362 0 0 1-7 34c1 3 6 2 9-2 4-4 4-5 6-12 1-11 6-27 12-42 3-7 3-9 0-12s-4-3-7 1zm179 2c-13 7-23 22-15 25 4 1 7 0 10-4l4-6c3-2 10-12 10-13 0-2-3-5-4-5l-5 3zm-75 13c-2 2-3 3-9 3-11 2-28 12-29 20-1 4 1 7 5 7l9-5c9-8 18-12 25-13 6 0 7-1 8-4 2-3 2-3 0-7-2-5-6-5-9-1zm215 8c-1 2 0 3 2 3l1-3c0-2-2-3-3 0zm-5 3v6l2-4c1-3 0-4-1-4l-1 2zm-16 38 1 11c1 0 2-4 1-14 0-13-2-11-2 3zm-180-2-2 8c0 9-2 13-7 18-4 4-13 9-17 9l-14 3c-2 2-1 5 1 6l12 1c9 0 10 0 16-3l7-4 4-1c3-2 7-5 6-7-1-1-1-2 1-5 3-6 4-14 1-18-3-6-7-10-9-7zm-103 10-5 1-6 2-7 1-4 2-5 1c-4 0-9 2-11 5l-1 9-2 18c-1 9-1 12 1 20 2 6 1 21-1 25-3 4-2 7 1 9 7 4 12-3 12-16l-1-14c-2-10 0-40 2-43 2-2 15-6 29-10 6-2 9-4 9-9 0-3 0-3-4-3l-7 2zm124 14c-2 1-3 3 0 4l6-2c0-2-3-3-6-2zm-182 5-10 5c-1 2-2 3-1 4 1 2 2 2 7 2 7 0 9-2 11-6 1-5-1-7-7-5zm183 3-4 5c-2 4-2 5-1 7 1 3 1 4-3 4-4 1-2 3 3 3 4 0 5 0 7-2l4-8c1-6 1-6-1-8-1-2-2-2-5-1zm20 10c-4 5-5 7-3 6l5-2c5 0 6-1 6-5-1-4-4-4-8 1zm142 12 1 10v-14c-1-9-1-9-1 4zm-364-4c0 2 3 4 9 6h5c3-2 2-3 0-3l-3-1-4-2-4-1c-1-2-3-1-3 1zm150 5-1 1h43c7 0 7 0 3-1h-45zm-74 15v5c2 0 6-3 6-4-1-2-4-2-6-1zm260 3 3 6c1 4 3 4 3 0s-4-9-6-9-2 0 0 3zm-319 35c-5 1-9 3-9 4 0 2 9 2 17 0s10-4 5-4h-13zm0 42c-1 1-1 2 1 3 2 3 3 2 3-1s-2-4-4-2zm34 26c-2 3-2 3 2 2 3-1 4-2 1-3-2-1-2-1-3 1zm-35 8c-2 1 3 2 10 2l10 2c7 2 17 1 13-2-3-2-31-4-33-2zm80-893v1c2 0 3-1 3-2 0-2-1-1-3 1zm-7 3a141 141 0 0 0-6 4l-6 5h3l3-2 2-2 2-1 3-1 2-2c2-1 3-3 1-3l-4 2zm-18 13-2 3 2-1 3-2 1-2c0-2-1-1-4 1zm-11 9c-3 3-2 4 2 1l3-3c0-2-3-1-5 1zm-10 11-1 3 2-1c3-4 2-5-1-2zm-8 11c-3 4-6 12-4 10l1-2 1-2c1 0 5-7 4-8l-2 2z"/></svg>