<?xml version="1.0" standalone="no"?>
<!DOCTYPE svg PUBLIC "-//W3C//DTD SVG 20010904//EN"
 "http://www.w3.org/TR/2001/REC-SVG-20010904/DTD/svg10.dtd">
<svg version="1.0" xmlns="http://www.w3.org/2000/svg"
 width="900.000000pt" height="948.000000pt" viewBox="0 0 900.000000 948.000000"
 preserveAspectRatio="xMidYMid meet">
<metadata>
Created by potrace 1.10, written by Peter Selinger 2001-2011
</metadata>
<g transform="translate(0.000000,948.000000) scale(0.100000,-0.100000)"
fill="#000000" stroke="none">
<path d="M4012 9404 c-33 -15 11 -24 121 -24 74 0 117 4 112 9 -11 11 -213 24
-233 15z"/>
<path d="M4290 9398 l-25 -10 25 -8 c14 -5 97 -13 184 -20 174 -12 170 -11
298 -95 59 -38 78 -55 78 -72 0 -14 6 -23 15 -23 8 0 15 -4 15 -10 0 -5 -5
-10 -10 -10 -6 0 -19 5 -30 10 -11 6 -29 15 -40 20 -11 6 -29 10 -40 10 -11 0
-20 5 -20 10 0 15 -26 12 -40 -5 -10 -12 -7 -15 14 -21 14 -3 26 -12 26 -19 0
-8 10 -15 22 -17 27 -4 37 -28 11 -28 -10 0 -27 7 -37 15 -11 8 -29 15 -41 15
-12 0 -25 4 -30 9 -6 6 -28 14 -50 20 -123 31 -157 41 -225 63 -141 47 -240
58 -342 37 -182 -36 -350 -112 -528 -239 -36 -26 -66 -40 -87 -40 -50 0 -64
-8 -51 -30 10 -15 6 -26 -25 -66 -33 -42 -108 -183 -143 -269 -12 -30 -69
-155 -85 -187 -9 -17 -19 -46 -55 -146 -9 -24 -14 -46 -12 -48 5 -4 84 104
118 161 13 22 30 44 37 48 7 4 13 14 13 22 0 21 19 28 26 10 4 -9 -1 -35 -11
-58 -10 -23 -21 -51 -26 -62 -4 -11 -20 -49 -35 -85 -27 -67 -73 -168 -149
-325 -24 -49 -50 -106 -59 -126 -19 -45 -106 -308 -106 -322 0 -16 -194 -407
-202 -407 -17 0 -7 158 16 250 58 228 65 249 116 316 44 59 128 206 136 241 4
13 10 26 15 29 12 7 11 61 -1 69 -5 3 -12 -6 -16 -21 -7 -29 -92 -158 -131
-200 -28 -31 -47 -31 -39 -1 4 12 11 44 16 70 10 48 32 123 49 162 5 11 23 54
40 95 31 73 98 189 150 260 38 51 64 100 53 100 -5 0 -20 -16 -33 -35 -13 -19
-27 -35 -30 -35 -3 0 -25 -27 -49 -60 -24 -33 -47 -60 -51 -60 -4 0 -11 -9
-14 -21 -5 -15 -10 -18 -18 -10 -8 8 -7 20 5 44 9 17 19 43 21 57 6 33 26 88
43 123 8 16 14 39 14 52 0 12 7 28 15 35 8 7 15 20 15 29 0 10 7 26 15 37 8
10 15 25 15 32 0 18 -20 15 -27 -5 -4 -10 -12 -22 -20 -26 -7 -4 -13 -21 -13
-36 0 -16 -7 -34 -15 -41 -8 -7 -15 -23 -15 -35 0 -12 -7 -28 -15 -35 -8 -7
-15 -22 -15 -34 0 -11 -7 -30 -15 -40 -8 -11 -15 -31 -15 -45 -1 -14 -7 -37
-15 -51 -8 -14 -14 -43 -15 -64 0 -21 -9 -64 -19 -95 -10 -31 -24 -76 -31
-101 -7 -25 -18 -61 -26 -80 -17 -44 -50 -208 -73 -365 -5 -33 -19 -94 -31
-135 -41 -141 -69 -332 -87 -580 -3 -41 -9 -79 -13 -85 -4 -5 -11 -35 -15 -65
-3 -30 -13 -77 -22 -104 -23 -73 -13 -360 15 -431 72 -181 121 -251 337 -481
20 -21 43 -49 51 -60 29 -42 14 -138 -23 -150 -10 -3 -30 -12 -45 -20 -14 -8
-41 -14 -60 -14 -18 0 -60 -14 -93 -30 -33 -16 -69 -30 -80 -30 -11 0 -29 -7
-39 -15 -11 -8 -26 -15 -34 -15 -23 0 -348 -155 -358 -171 -3 -5 -12 -9 -20
-9 -19 0 -90 -48 -129 -89 -16 -17 -34 -31 -38 -31 -29 -1 -307 -255 -307
-280 0 -6 -11 -26 -24 -43 -24 -31 -43 -85 -85 -237 -29 -105 -113 -347 -137
-395 -12 -22 -28 -56 -36 -75 -8 -19 -23 -53 -32 -75 -10 -21 -30 -55 -44 -75
-15 -19 -36 -51 -46 -70 -11 -19 -36 -53 -57 -75 -140 -147 -229 -270 -229
-313 0 -12 -4 -23 -9 -26 -4 -3 -11 -29 -15 -58 -7 -57 -34 -145 -60 -193 -9
-16 -16 -35 -16 -41 0 -6 -11 -23 -25 -38 -14 -15 -25 -31 -25 -35 0 -5 -7
-14 -15 -21 -8 -7 -15 -20 -15 -30 0 -10 -7 -21 -16 -24 -15 -6 -14 -17 3 -63
3 -7 -3 -10 -16 -6 -16 4 -22 -1 -27 -23 -4 -16 -14 -39 -22 -52 -10 -16 -12
-26 -5 -33 8 -8 15 -3 24 17 18 35 126 111 140 97 7 -7 5 -39 -6 -94 -19 -96
-40 -157 -106 -295 -16 -33 -29 -63 -29 -67 0 -9 -91 -158 -112 -182 -152
-179 -205 -271 -215 -373 -3 -31 -10 -62 -15 -69 -5 -7 -7 -16 -4 -21 8 -13
-31 -195 -69 -322 -9 -30 -21 -73 -27 -95 -5 -22 -14 -49 -18 -60 -5 -11 -18
-54 -30 -95 -12 -41 -26 -85 -31 -98 -5 -13 -16 -71 -24 -130 -8 -58 -19 -110
-24 -115 -5 -5 -20 7 -35 29 -23 34 -26 49 -26 121 0 50 5 92 14 110 8 15 19
55 26 88 11 58 27 128 56 250 13 55 26 140 54 343 5 40 14 81 20 92 5 10 10
26 10 35 0 16 8 37 45 120 7 17 16 37 19 45 18 41 86 143 136 200 26 30 65 82
87 115 34 52 49 83 92 190 37 92 48 145 32 145 -6 0 -13 -11 -17 -25 -3 -13
-12 -29 -20 -36 -8 -6 -14 -20 -14 -30 0 -10 -16 -45 -35 -78 -19 -33 -44 -79
-54 -103 -10 -24 -34 -59 -53 -78 -19 -19 -44 -56 -56 -81 -13 -26 -32 -55
-43 -65 -12 -11 -25 -28 -30 -39 -5 -11 -19 -36 -30 -55 -38 -62 -82 -152 -90
-184 -4 -17 -12 -44 -17 -61 -10 -28 -23 -90 -42 -195 -8 -41 -20 -107 -50
-280 -6 -36 -18 -87 -26 -115 -18 -61 -34 -197 -41 -331 -3 -83 -1 -103 11
-113 9 -8 16 -18 16 -23 0 -11 85 -98 96 -98 4 0 22 -11 40 -25 17 -13 63 -34
100 -46 38 -12 83 -28 101 -35 17 -8 33 -14 36 -14 12 0 218 -103 223 -111 3
-5 14 -9 25 -9 10 0 42 -11 71 -25 28 -14 57 -25 62 -25 16 -1 96 -42 133 -68
18 -12 53 -29 78 -36 25 -8 58 -22 73 -32 48 -33 95 -45 210 -54 62 -5 121
-14 131 -20 11 -5 47 -10 80 -10 50 0 69 -5 109 -30 28 -17 63 -30 81 -30 18
0 42 -5 54 -12 12 -6 38 -15 57 -19 72 -16 126 -35 160 -57 19 -12 51 -25 70
-28 19 -4 48 -13 63 -21 21 -10 69 -14 183 -14 103 0 167 -5 192 -13 21 -8 71
-17 112 -21 74 -7 128 -19 163 -37 12 -6 23 -5 32 2 10 8 37 10 82 5 37 -3
130 -8 206 -11 111 -4 141 -2 158 10 17 12 48 13 169 9 144 -6 148 -5 159 16
9 17 21 21 58 21 84 0 172 -20 184 -42 9 -18 19 -20 68 -16 38 3 68 11 89 27
29 20 41 22 120 18 48 -3 112 -10 143 -16 51 -11 58 -11 93 10 21 12 42 33 47
46 l9 23 242 -1 c134 -1 301 -5 372 -10 79 -6 133 -6 140 0 6 5 47 6 100 1 50
-5 97 -5 105 0 9 4 205 7 436 5 331 -1 435 -5 491 -17 39 -8 76 -18 83 -22 13
-9 94 -25 176 -35 39 -5 81 -3 120 5 33 8 83 13 112 14 28 0 63 4 78 10 14 5
67 16 118 24 134 22 335 64 357 76 10 5 28 10 39 10 12 0 49 13 83 28 35 16
83 37 108 47 25 11 61 31 80 45 19 14 55 32 80 39 25 8 71 22 103 32 31 11 72
19 90 19 18 0 41 6 52 13 24 16 168 72 210 82 56 13 170 71 210 108 22 20 45
37 51 37 11 0 116 104 187 185 19 22 45 59 57 83 13 24 32 49 43 55 11 7 40
55 66 107 43 90 46 99 45 173 -1 76 -14 154 -36 227 -16 52 -99 221 -117 239
-9 9 -29 46 -44 81 -16 36 -36 76 -45 90 -9 14 -31 54 -50 90 -18 36 -40 72
-48 81 -8 8 -14 21 -14 27 0 10 -54 127 -79 172 -4 8 -16 33 -26 55 -9 22 -23
51 -30 65 -34 66 -45 88 -61 130 -10 25 -24 52 -32 62 -7 9 -22 43 -32 77 -11
33 -23 68 -29 78 -23 43 -41 92 -41 111 0 11 -7 36 -15 55 -8 20 -15 48 -15
61 0 24 -17 71 -46 128 -8 14 -14 33 -14 42 0 9 -13 45 -30 79 -16 35 -30 69
-30 74 0 6 -7 13 -15 17 -10 3 -15 19 -15 43 0 38 -7 55 -96 238 -29 61 -63
135 -75 165 -52 131 -61 158 -75 209 -8 29 -30 92 -50 140 -20 47 -43 104 -51
126 -18 49 -19 51 -73 150 -53 97 -53 99 -79 155 -12 25 -49 77 -83 117 -35
39 -76 92 -92 118 -15 25 -52 64 -82 86 -30 22 -54 44 -54 49 0 19 -59 76
-102 98 -23 13 -55 31 -69 40 -77 50 -137 83 -162 89 -15 3 -30 9 -33 14 -6
10 -92 49 -108 49 -10 0 -159 69 -231 108 -16 8 -56 35 -87 59 -31 24 -62 43
-68 43 -7 0 -29 13 -49 29 -20 16 -55 37 -76 46 -97 42 -111 48 -137 61 -14 8
-35 14 -46 14 -11 0 -25 7 -32 15 -7 9 -29 15 -50 15 -21 0 -40 4 -42 10 -1 5
-23 12 -47 16 -35 6 -43 4 -39 -7 2 -8 21 -15 41 -17 19 -2 41 -10 47 -18 7
-8 22 -14 34 -14 12 0 31 -7 42 -15 10 -8 25 -15 33 -15 15 0 114 -48 198 -94
53 -30 84 -54 153 -120 65 -62 107 -86 152 -86 18 0 46 -7 62 -15 15 -8 33
-15 38 -15 6 0 24 -6 41 -14 18 -7 52 -21 77 -31 90 -35 126 -54 235 -127 75
-50 112 -84 102 -94 -4 -4 -17 0 -29 8 -13 8 -52 25 -88 37 -67 22 -77 26
-143 55 -21 9 -53 16 -73 16 -43 0 -103 30 -152 75 -26 25 -45 35 -69 35 -18
0 -50 9 -70 20 -21 11 -45 20 -53 20 -30 0 -120 55 -295 179 -165 118 -224
138 -427 149 -86 4 -98 3 -104 -12 -15 -40 29 -78 182 -153 102 -51 233 -136
252 -166 11 -15 11 -18 2 -9 -8 6 -25 12 -39 12 -15 1 -53 17 -86 36 -204 119
-290 131 -487 68 -30 -9 -22 17 35 112 29 49 69 124 91 167 l38 78 36 -7 c21
-3 54 -12 75 -20 42 -16 103 -19 111 -5 7 10 -27 21 -66 21 -35 0 -95 36 -103
61 -4 11 3 48 15 83 16 49 38 84 89 143 129 149 192 253 237 392 13 41 28 79
33 85 5 6 11 36 14 66 3 30 10 68 16 85 21 52 32 240 21 347 -9 92 -64 288
-82 296 -4 2 -17 25 -29 50 -16 36 -22 72 -25 152 -2 58 -7 125 -10 150 -3 25
-9 83 -13 130 -5 47 -13 103 -19 125 -22 83 -31 121 -37 165 -4 25 -14 52 -21
61 -19 21 -46 165 -49 254 -5 128 -62 314 -113 365 -13 14 -29 37 -34 53 -6
15 -14 27 -19 27 -6 0 -31 19 -57 43 -26 23 -69 58 -97 77 -27 19 -61 44 -75
56 -14 12 -52 46 -86 75 -92 82 -123 108 -191 160 -34 26 -72 57 -85 69 -30
28 -124 90 -136 90 -5 0 -27 12 -48 28 -66 47 -188 92 -249 92 -24 0 -66 4
-92 9 -81 16 -177 20 -203 9z m703 -292 c124 -98 217 -190 206 -201 -7 -7 -13
-4 -20 8 -6 9 -18 17 -27 17 -17 0 -52 29 -157 130 -62 60 -85 85 -85 95 0 13
20 1 83 -49z m127 -191 c0 -8 -4 -15 -10 -15 -5 0 -10 7 -10 15 0 8 5 15 10
15 6 0 10 -7 10 -15z m43 -30 c1 -5 -6 -11 -15 -13 -11 -2 -18 3 -18 13 0 17
30 18 33 0z m69 -83 c4 -9 107 -70 170 -101 27 -12 50 -27 54 -32 3 -5 12 -9
20 -9 8 0 35 -15 60 -32 126 -91 151 -128 159 -235 16 -231 16 -243 -3 -243
-9 0 -28 10 -42 23 -32 29 -72 57 -83 57 -16 0 13 -37 95 -120 72 -74 138
-170 138 -201 0 -28 -127 88 -230 211 -40 47 -114 128 -166 181 -52 53 -94
101 -94 108 0 24 62 3 145 -50 17 -10 40 -23 52 -28 11 -5 24 -15 28 -20 9
-16 35 -13 35 3 0 8 -21 56 -47 106 -34 67 -59 101 -92 128 -59 48 -251 241
-251 253 0 11 47 12 52 1z m248 -103 c0 -5 -7 -9 -15 -9 -15 0 -20 12 -9 23 8
8 24 -1 24 -14z m-48 -555 c78 -64 253 -248 295 -310 53 -77 72 -122 89 -209
25 -124 22 -129 -41 -60 -30 33 -54 63 -55 67 -1 22 -117 174 -200 262 -110
116 -126 139 -136 192 -3 21 -11 47 -16 57 -9 18 -3 37 12 37 4 0 28 -16 52
-36z m-2120 -46 c-13 -28 -33 -73 -67 -158 -15 -36 -45 -103 -66 -148 -22 -46
-39 -86 -39 -87 0 -5 -83 -182 -136 -290 -24 -50 -44 -94 -44 -97 0 -4 -28
-64 -61 -135 -218 -454 -227 -477 -243 -575 -24 -150 15 -326 116 -517 28 -53
58 -109 66 -126 29 -59 226 -240 392 -364 91 -67 170 -125 175 -129 12 -9 103
-67 173 -112 70 -43 99 -91 112 -181 16 -112 -5 -120 -67 -26 -45 68 -151 173
-223 222 -155 104 -322 241 -465 382 -89 87 -170 169 -180 183 -72 93 -120
178 -166 290 -20 48 -22 73 -22 200 0 153 4 176 65 375 29 95 96 265 160 405
17 36 41 90 55 120 40 91 49 109 118 250 36 74 75 151 86 170 101 171 169 276
233 363 24 33 46 21 28 -15z m1813 -362 c97 -18 129 -35 210 -106 39 -34 108
-87 155 -118 47 -30 119 -88 160 -127 41 -39 103 -93 137 -118 78 -59 120
-109 161 -189 75 -147 87 -249 56 -488 -25 -196 -62 -307 -162 -487 -29 -52
-44 -11 -18 49 24 53 76 227 76 252 0 13 7 43 15 66 17 47 19 98 6 118 -10 16
-20 -15 -21 -63 0 -16 -7 -39 -15 -49 -8 -11 -15 -29 -15 -40 0 -12 -7 -34
-15 -50 -8 -15 -15 -32 -15 -37 0 -5 -13 -37 -29 -71 -16 -35 -43 -104 -60
-154 -26 -77 -79 -200 -111 -254 -5 -8 -11 -22 -15 -30 -3 -8 -14 -31 -25 -50
-15 -29 -19 -32 -25 -17 -4 10 0 27 9 42 9 13 16 32 16 41 0 9 6 28 14 42 28
54 36 78 167 492 33 107 67 212 75 233 41 110 -7 334 -117 551 -38 76 -38 75
-316 268 -238 164 -370 264 -384 290 -12 22 -9 22 86 4z m-2025 -2271 c0 -11
-13 -15 -54 -15 -51 0 -74 9 -59 24 3 3 30 6 60 6 40 0 53 -4 53 -15z m2308
-42 c-8 -10 -18 -26 -21 -35 -3 -10 -50 -84 -103 -165 -99 -151 -166 -225
-279 -311 -33 -25 -62 -49 -65 -52 -7 -7 -49 -30 -56 -30 -14 0 162 211 222
265 18 17 262 313 280 341 12 17 20 22 27 15 7 -7 6 -16 -5 -28z m-2564 -12
c8 -12 -18 -21 -56 -21 -16 0 -36 -7 -44 -15 -9 -8 -26 -15 -39 -15 -13 0 -27
-4 -30 -10 -3 -5 -24 -14 -45 -20 -22 -6 -40 -15 -40 -20 0 -6 -10 -10 -23
-10 -13 0 -32 -7 -43 -15 -10 -8 -29 -15 -40 -15 -12 0 -27 -7 -34 -15 -7 -8
-23 -15 -37 -15 -13 0 -26 -7 -29 -15 -4 -8 -17 -15 -29 -15 -29 0 -42 -18
-21 -26 9 -3 27 1 41 10 13 9 33 16 43 16 11 0 25 7 32 15 7 8 23 15 35 15 12
0 28 7 35 15 7 8 21 15 32 15 11 0 32 6 46 14 34 17 87 35 132 46 19 5 67 18
105 30 143 43 158 44 218 12 30 -16 69 -34 86 -40 17 -6 31 -15 31 -20 0 -11
-104 -42 -139 -42 -22 0 -73 -15 -161 -45 -115 -40 -151 -48 -264 -55 -135 -8
-156 -15 -292 -97 -39 -24 -78 -43 -85 -43 -8 0 -23 -7 -33 -15 -11 -8 -30
-15 -42 -15 -12 0 -27 -7 -34 -15 -7 -8 -21 -15 -31 -15 -18 0 -89 -65 -89
-81 0 -17 -61 -39 -107 -39 -26 0 -55 -5 -63 -10 -13 -9 -12 -12 5 -26 14 -11
31 -13 60 -8 l40 6 -24 -26 c-14 -14 -35 -26 -47 -26 -12 0 -29 -3 -38 -6 -28
-11 -17 -24 19 -24 79 0 6 -52 -88 -62 -50 -5 -33 -23 26 -26 31 -2 57 -8 57
-13 0 -6 -5 -30 -11 -55 -13 -50 -48 -84 -86 -84 -14 0 -38 -8 -54 -17 -45
-27 -55 -8 -33 63 9 33 25 66 34 74 9 9 17 30 18 48 1 47 8 53 53 46 33 -6 39
-4 39 11 0 14 -6 16 -30 12 -16 -4 -32 -2 -35 3 -10 17 4 46 29 60 14 7 26 25
30 41 4 20 19 38 48 57 48 30 114 79 138 102 93 88 265 220 288 220 4 0 34 13
67 29 237 114 301 141 390 163 72 18 112 21 119 9z m-337 -297 c34 -9 17 -24
-28 -24 -38 0 -52 13 -26 23 17 8 29 8 54 1z m4443 -254 c0 -5 9 -10 19 -10
11 0 26 -6 33 -14 8 -8 23 -15 33 -17 24 -5 32 -29 10 -29 -21 0 -77 30 -88
48 -4 6 -14 12 -22 12 -8 0 -17 5 -20 10 -3 6 3 10 14 10 12 0 21 -4 21 -10z
m305 -105 c39 -29 104 -125 116 -169 25 -94 36 -113 115 -191 91 -90 113 -124
138 -210 10 -33 29 -84 42 -113 20 -44 64 -160 64 -169 0 -2 -6 -3 -12 -3 -13
0 -108 97 -108 111 0 5 -20 42 -45 82 -25 41 -45 77 -45 81 0 7 -50 117 -91
201 -16 33 -29 65 -29 71 0 6 -7 17 -15 24 -8 7 -15 23 -15 35 0 12 -7 28 -15
35 -8 7 -15 18 -15 24 -1 22 -51 67 -91 81 -23 8 -67 15 -98 15 -121 0 -216
-60 -321 -202 -19 -26 -38 -48 -42 -48 -12 0 -9 31 7 78 53 151 180 268 309
282 105 12 118 11 151 -15z m-5497 -329 c2 -10 -3 -35 -11 -55 -14 -35 -27
-76 -62 -196 -56 -192 -124 -309 -207 -358 -50 -29 -138 -119 -162 -164 -8
-17 -27 -40 -41 -51 -20 -16 -24 -27 -21 -53 3 -35 6 -36 43 -12 19 13 25 12
47 -2 14 -10 26 -21 26 -26 0 -4 -16 -41 -35 -81 -48 -103 -116 -182 -210
-246 -72 -49 -175 -145 -175 -162 0 -10 -109 -90 -121 -90 -16 0 -1 53 17 63
8 4 14 14 14 20 0 14 106 117 120 117 16 0 71 92 62 104 -17 21 -22 129 -9
191 15 73 36 106 82 131 23 12 33 24 30 34 -3 10 26 44 81 95 110 101 162 170
220 286 61 125 69 143 94 218 22 67 81 184 108 214 20 22 71 46 92 44 8 -1 16
-11 18 -21z m5995 -637 c21 -24 44 -68 58 -111 12 -38 44 -107 71 -152 54 -88
118 -219 118 -239 0 -7 4 -17 9 -23 10 -9 54 -139 111 -324 55 -180 70 -221
106 -307 8 -17 14 -34 14 -38 0 -4 53 -116 119 -248 65 -133 121 -249 125
-257 3 -8 10 -22 15 -30 25 -44 39 -79 45 -112 4 -23 21 -52 43 -75 19 -21 48
-63 63 -93 15 -30 39 -77 53 -104 15 -27 27 -56 27 -64 0 -8 15 -42 34 -77 61
-113 78 -178 79 -295 0 -87 -4 -113 -22 -152 -12 -27 -26 -48 -32 -48 -19 0
-30 54 -23 122 4 44 2 85 -6 116 -31 118 -54 183 -91 262 -113 235 -191 390
-222 435 -314 466 -307 456 -334 545 -23 76 -71 270 -83 331 -4 25 -13 64 -19
85 -5 21 -17 75 -26 119 -9 44 -23 105 -33 135 -14 48 -25 78 -62 165 -4 11
-24 61 -45 110 -20 50 -40 99 -45 110 -5 11 -11 36 -14 56 -4 19 -24 62 -45
95 -21 32 -41 69 -45 82 -12 36 18 27 57 -19z m-4513 -109 c113 -6 229 -15
259 -21 30 -5 73 -9 96 -9 23 0 82 -6 131 -14 202 -33 393 -49 501 -43 184 10
485 46 558 67 88 25 273 42 404 37 176 -7 432 -25 438 -31 3 -2 -15 -7 -39
-10 -23 -2 -102 -12 -174 -20 -71 -9 -215 -17 -320 -17 -104 -1 -202 -4 -219
-8 -96 -22 457 -30 633 -9 81 9 134 9 240 0 75 -7 218 -15 317 -18 150 -5 187
-10 225 -27 25 -11 79 -23 120 -26 68 -5 75 -8 78 -28 2 -13 16 -32 32 -43 63
-45 116 -211 85 -269 -12 -25 -15 -81 -16 -328 -1 -164 -5 -370 -9 -458 -7
-143 -15 -197 -48 -327 -15 -57 4 -63 64 -23 24 16 45 23 58 19 60 -16 77 -28
83 -55 6 -30 72 -86 145 -123 20 -10 61 -40 90 -66 60 -53 88 -70 117 -70 26
0 61 -46 61 -80 0 -37 -43 -73 -106 -89 -27 -7 -69 -19 -94 -26 -25 -7 -56
-16 -70 -19 -14 -3 -43 -21 -65 -41 -118 -108 -123 -110 -196 -110 -63 0 -70
2 -101 33 -19 17 -38 32 -44 32 -5 0 -17 -44 -26 -97 -10 -55 -24 -103 -33
-112 -15 -15 -15 -12 -11 24 3 22 8 78 11 124 4 52 13 100 26 128 26 58 39
124 48 243 4 52 15 121 25 152 18 54 18 59 2 102 -16 41 -16 55 -4 143 15 115
18 342 3 345 -5 2 -15 -19 -21 -47 -6 -27 -16 -61 -22 -75 -6 -14 -16 -113
-23 -220 -18 -294 -20 -314 -30 -324 -5 -6 -9 53 -10 150 0 87 -5 182 -10 209
-5 28 -12 86 -15 130 -7 96 -14 121 -24 85 -13 -42 -11 -155 4 -222 8 -35 17
-149 21 -254 7 -197 -2 -304 -32 -388 -8 -22 -17 -59 -19 -81 -7 -49 -14 -59
-14 -17 0 64 -18 39 -25 -34 -8 -85 -19 -87 -35 -5 -5 30 -14 59 -20 65 -5 7
-10 42 -12 79 -2 37 -7 68 -13 70 -13 3 -22 -152 -24 -387 0 -99 -5 -193 -11
-210 -5 -17 -12 -48 -15 -68 -6 -36 -6 -37 -24 -19 -16 16 -20 43 -26 200 -6
156 -14 205 -30 189 -2 -2 -5 -70 -8 -151 -2 -81 -6 -149 -8 -151 -2 -2 -24
-6 -49 -8 l-45 -3 -5 40 c-3 27 -10 41 -22 43 -13 3 -17 -6 -20 -40 -3 -43 -3
-43 -45 -46 l-43 -3 0 80 c0 62 -5 90 -21 121 -12 22 -25 40 -30 40 -15 0 -10
-57 6 -70 11 -9 15 -32 15 -82 0 -85 -18 -118 -64 -118 -17 -1 -49 -7 -71 -15
-62 -23 -135 -17 -135 11 0 18 -9 18 -31 -2 -16 -14 -19 -14 -41 8 -12 13 -33
29 -47 36 -28 15 -204 16 -232 2 -24 -14 -624 -24 -664 -12 -23 7 -3 10 90 15
66 3 136 12 155 18 24 8 151 12 395 13 198 0 366 5 373 9 11 7 10 13 -2 32
-26 39 11 50 148 44 33 -1 51 13 43 35 -5 13 -24 14 -119 10 -62 -3 -126 -9
-143 -14 -44 -13 -335 -24 -335 -13 0 5 28 14 63 20 97 18 171 33 187 40 8 4
33 11 55 17 22 6 39 16 38 21 -1 6 -34 13 -73 16 -39 4 -77 12 -85 19 -11 9
-85 11 -282 10 -148 -2 -277 -3 -288 -2 -467 17 -645 14 -645 -13 0 -10 47
-14 209 -20 115 -4 214 -4 220 -1 14 9 571 7 670 -2 l74 -7 -54 -16 c-148 -45
-373 -63 -486 -39 -27 6 -134 15 -238 21 -361 19 -420 24 -440 35 -11 7 -85
13 -172 16 -84 2 -155 6 -158 9 -3 3 -6 34 -7 70 l-3 64 49 12 c34 8 63 9 99
3 27 -6 76 -10 109 -10 35 0 68 -6 81 -15 18 -11 60 -15 184 -16 201 -2 249
15 72 25 -68 4 -128 11 -132 15 -5 5 33 12 85 15 51 4 104 11 118 16 14 6 57
14 95 19 39 6 102 17 140 27 85 20 133 20 153 0 13 -13 11 -15 -22 -21 -52
-10 -48 -35 7 -35 24 0 47 4 53 10 5 5 76 11 158 14 90 2 152 8 159 15 13 13
83 15 91 2 10 -16 105 -24 122 -10 13 10 12 15 -7 35 -12 13 -36 26 -53 29
-44 9 -86 26 -86 36 0 4 10 11 23 15 20 6 78 42 137 86 107 79 182 139 220
177 24 25 71 70 104 99 193 178 355 407 437 615 29 76 37 218 14 286 -17 53
-75 121 -103 121 -15 0 -15 -9 8 -140 10 -57 9 -75 -9 -140 -26 -98 -38 -130
-86 -220 -32 -61 -149 -229 -174 -250 -4 -3 -38 -41 -76 -84 -116 -131 -302
-301 -409 -373 -22 -15 -43 -30 -46 -33 -3 -3 -40 -23 -82 -44 -85 -42 -89
-45 -108 -96 -22 -55 -46 -64 -81 -29 -18 18 -29 20 -82 15 -34 -3 -91 -8
-127 -10 -145 -9 -217 -19 -249 -32 -18 -8 -46 -14 -62 -14 -16 0 -44 -9 -63
-19 -36 -21 -75 -24 -401 -37 -187 -7 -255 2 -255 35 0 10 14 24 32 33 l33 15
-31 16 c-25 13 -30 21 -28 44 2 15 8 78 14 138 21 206 31 255 56 271 16 11 35
14 68 9 25 -4 56 -5 70 -1 27 7 51 55 42 84 -11 33 15 44 65 28 92 -29 207
-49 243 -42 20 4 36 9 36 12 0 11 -29 34 -42 34 -8 0 -20 6 -26 13 -14 13 -91
31 -227 51 -80 12 -91 12 -100 -2 -5 -8 -18 -23 -27 -33 -9 -10 -22 -27 -28
-40 -11 -20 -17 -21 -77 -15 -35 4 -79 4 -97 1 l-33 -7 -12 -111 c-6 -62 -18
-176 -27 -253 -19 -183 -22 -391 -5 -422 9 -18 10 -35 2 -70 -5 -26 -13 -65
-18 -87 l-8 -40 -186 -6 c-116 -4 -194 -11 -209 -19 -12 -6 -43 -15 -68 -19
-25 -3 -47 -12 -50 -20 -4 -12 15 -13 119 -8 199 11 594 17 469 7 -58 -4 -126
-8 -152 -9 -36 -1 -48 -5 -48 -16 0 -9 9 -15 25 -15 30 0 33 -15 5 -30 -11 -6
-18 -15 -15 -21 8 -12 52 -12 60 1 3 5 19 10 34 10 16 0 48 7 71 15 51 18 408
22 457 5 29 -11 105 -20 328 -43 66 -7 115 -15 108 -20 -6 -4 -68 -12 -138
-17 -104 -9 -145 -8 -233 6 -85 12 -187 16 -487 16 -216 0 -399 4 -425 10 -25
6 -128 14 -230 19 -102 5 -213 11 -247 15 -72 7 -85 -7 -25 -27 20 -6 43 -16
50 -22 7 -5 65 -13 130 -18 64 -4 141 -12 171 -18 29 -6 86 -11 125 -11 39 0
78 -5 86 -10 10 -6 -46 -11 -160 -14 -96 -3 -216 -8 -266 -11 -88 -6 -92 -5
-119 19 -33 31 -40 32 -69 8 -19 -14 -21 -22 -14 -42 5 -14 12 -63 15 -110 6
-96 17 -127 37 -110 10 7 13 36 11 100 -2 103 6 109 47 35 l27 -50 11 29 c6
16 8 37 5 47 -5 16 -1 19 29 19 39 0 48 -14 15 -23 -12 -3 -18 -10 -14 -16 8
-14 118 -14 131 -1 7 7 204 12 555 15 299 3 589 6 644 7 95 2 298 -12 470 -31
44 -5 143 -10 220 -10 77 -1 156 -6 175 -12 58 -18 302 -24 356 -9 38 11 47
11 54 0 6 -10 16 -6 40 18 35 35 61 40 80 17 15 -18 48 -11 67 14 13 17 16 11
13 -31 -1 -22 3 -28 19 -28 11 0 23 5 26 10 3 6 28 10 55 10 39 0 52 -4 60
-20 9 -17 14 -18 30 -8 27 17 37 2 14 -23 -18 -20 -25 -21 -104 -14 -47 4
-218 6 -381 6 -171 -1 -318 3 -350 9 -30 6 -128 15 -219 21 -91 5 -191 12
-223 15 -64 7 -225 -12 -244 -28 -13 -11 -93 4 -148 27 -70 31 -417 47 -516
25 -54 -12 -297 -10 -591 6 -74 4 -108 2 -108 -5 0 -6 10 -13 23 -16 121 -29
238 -43 371 -44 133 -2 79 -11 -120 -21 -184 -9 -352 -25 -362 -34 -40 -41
453 -34 641 9 49 11 69 11 130 -2 98 -20 166 -14 211 20 47 36 82 36 291 -2
l50 -9 -46 -1 c-25 0 -68 -8 -95 -16 -27 -8 -59 -15 -71 -15 -12 0 -42 -6 -65
-14 -96 -30 -215 -37 -773 -45 -313 -5 -573 -6 -578 -2 -4 4 -9 41 -12 83 -4
60 -2 78 10 88 19 16 18 119 -2 167 -7 18 -13 58 -14 90 -1 53 -2 55 -12 31
-6 -16 -13 -28 -17 -28 -5 0 -44 98 -45 114 0 19 23 16 28 -4 7 -29 27 -25 27
6 0 19 -7 28 -31 36 -37 13 -46 34 -55 135 -4 43 -13 95 -20 117 -8 21 -14 51
-14 65 0 15 -5 32 -11 38 -6 6 -15 33 -20 59 -5 26 -16 55 -24 64 -8 9 -15 34
-15 55 0 30 -3 36 -12 27 -24 -24 -31 -12 -25 41 6 48 5 50 -8 27 l-13 -25
-12 30 c-7 17 -16 38 -21 47 -5 10 -17 43 -28 75 -38 116 -44 152 -36 211 15
103 10 192 -17 292 -15 52 -34 129 -43 170 -9 41 -22 98 -30 125 -24 84 -75
257 -92 308 -9 27 -13 63 -10 83 5 27 2 36 -14 44 -16 9 -19 22 -20 83 -1 40
-4 83 -8 97 -6 21 -9 15 -15 -30 -4 -30 -10 -64 -14 -75 -10 -32 -19 26 -21
125 -1 109 20 171 72 213 60 49 98 58 287 67 154 8 259 23 311 44 9 4 52 13
95 21 84 15 170 14 534 -5z m3424 -1549 c7 -11 -20 -48 -29 -39 -9 8 4 48 15
48 5 0 11 -4 14 -9z m-1806 -588 c2 -8 -6 -13 -22 -13 -25 0 -33 10 -19 24 10
10 36 3 41 -11z m-828 -304 c25 -6 90 -15 145 -20 55 -5 113 -13 129 -19 16
-5 65 -10 110 -11 45 0 101 -4 126 -8 l45 -8 -39 -8 c-21 -4 -125 -5 -231 -2
-116 4 -250 2 -336 -5 -207 -17 -255 -16 -250 2 2 8 4 28 5 45 1 22 8 31 26
36 39 11 220 9 270 -2z m2277 -76 c-2 -16 -4 -5 -4 22 0 28 2 40 4 28 2 -13 2
-35 0 -50z m-1755 -59 c99 -17 -4 -24 -320 -22 l-347 1 145 12 c161 13 464 18
522 9z m1757 -96 c-1 -61 -1 -62 -11 -25 -9 34 -5 87 7 87 3 0 5 -28 4 -62z
m100 -83 c1 -116 -8 -183 -20 -163 -10 16 -12 259 -2 284 13 33 22 -16 22
-121z m2311 75 c0 -46 -9 -72 -21 -64 -10 6 -12 97 -3 107 14 13 24 -6 24 -43z
m-3340 1 c0 -5 -12 -12 -26 -15 -16 -4 -24 -12 -22 -23 3 -17 16 -26 63 -45
l30 -12 -33 -4 c-40 -4 -158 13 -221 33 -25 7 -73 17 -106 21 l-60 8 95 8 c52
4 104 12 115 18 11 5 43 11 70 13 28 2 60 4 73 5 12 1 22 -2 22 -7z m545 -52
c0 -14 -90 -33 -108 -22 -14 8 14 23 45 23 15 0 30 5 33 11 9 14 30 6 30 -12z
m135 8 c0 -24 -22 -36 -54 -30 -66 12 -59 43 10 43 29 0 44 -4 44 -13z m2570
-72 c0 -46 -9 -65 -31 -65 -24 0 -26 50 -3 85 20 31 34 23 34 -20z m-5178 -5
c11 0 16 -4 13 -10 -3 -5 -30 -10 -60 -10 -40 0 -54 4 -59 16 -6 15 0 16 40
10 26 -3 55 -6 66 -6z m2696 -32 c-2 -30 -8 -43 -18 -43 -15 0 -18 40 -6 72
12 30 27 11 24 -29z m-1043 22 c-3 -5 -15 -10 -26 -10 -21 0 -26 -18 -6 -25 6
-2 93 -8 192 -12 l180 -8 -85 -12 c-84 -11 -129 -10 -455 17 -66 5 -169 13
-230 17 l-110 7 145 8 c80 4 159 11 175 17 41 13 228 14 220 1z m771 -27 c20
-26 17 -33 -13 -33 -37 0 -73 10 -73 20 0 8 44 27 64 29 5 1 15 -7 22 -16z
m485 -134 c34 -18 24 -56 -23 -86 -51 -32 -103 -44 -222 -50 -93 -5 -252 12
-262 28 -3 5 28 9 70 9 58 0 85 5 118 22 24 12 45 26 46 30 7 17 33 7 44 -17
6 -14 17 -25 24 -25 16 0 78 58 86 82 4 9 19 36 34 59 l27 43 20 -42 c11 -24
28 -47 38 -53z m2169 72 c0 -27 -28 -89 -50 -114 -23 -24 -25 -23 -33 25 -5
32 -1 41 29 72 39 40 54 45 54 17z m-2475 -50 c8 -15 -30 -32 -81 -36 -67 -5
-56 22 16 36 52 10 58 10 65 0z m-1305 -62 c567 -22 661 -26 665 -31 3 -3 -57
-8 -132 -12 -76 -4 -158 -11 -183 -16 -61 -12 -350 -12 -386 0 -16 6 -58 15
-94 20 -36 5 -96 15 -135 23 -58 11 -67 15 -51 24 10 6 26 9 35 7 9 -3 135 -9
281 -15z m3633 -27 c-16 -20 -39 -42 -50 -47 -12 -6 -28 -16 -36 -23 -8 -7
-17 -9 -20 -5 -6 9 124 126 131 118 3 -3 -8 -22 -25 -43z m-2860 -9 c-13 -2
-35 -2 -50 0 -16 2 -5 4 22 4 28 0 40 -2 28 -4z m980 -60 c-11 -116 -48 -151
-218 -204 -38 -12 -87 -28 -108 -35 -20 -8 -55 -14 -77 -14 -37 0 -67 -19 -42
-28 33 -11 2 -20 -85 -26 -98 -6 -158 0 -288 29 -128 29 -230 36 -423 27 -103
-4 -284 -4 -402 0 -118 4 -321 5 -450 3 -494 -10 -483 -34 15 -35 193 0 356
-5 410 -12 54 -7 220 -12 420 -13 282 0 340 -3 400 -18 143 -36 192 -46 257
-52 68 -7 244 9 286 26 26 10 29 34 6 43 -24 9 -11 18 38 27 38 7 113 24 201
45 22 5 27 3 27 -13 0 -30 -54 -98 -86 -110 -174 -66 -174 -66 -218 -52 -54
18 -392 17 -508 -2 -90 -14 -210 -15 -1378 -12 -388 1 -942 1 -1232 0 l-528
-2 -30 31 c-50 49 -64 149 -34 237 15 45 18 47 52 47 21 0 192 2 382 5 288 4
355 3 403 -10 32 -8 104 -15 160 -16 87 -1 222 -13 192 -18 -5 -1 -53 -6 -105
-11 -103 -11 -190 -29 -190 -41 0 -4 114 -7 253 -6 138 1 404 -4 590 -11 300
-12 343 -12 377 2 31 12 104 15 451 14 667 -2 966 5 1019 24 67 23 254 78 268
78 16 0 162 90 162 100 0 5 4 20 10 34 17 45 29 29 23 -31z m-728 37 c8 -13
-95 -13 -115 0 -11 7 3 10 47 10 34 0 65 -4 68 -10z m53 -157 c-21 -2 -55 -2
-75 0 -21 2 -4 4 37 4 41 0 58 -2 38 -4z"/>
<path d="M8112 2708 c3 -7 13 -15 22 -16 12 -3 17 1 14 10 -3 7 -13 15 -22 16
-12 3 -17 -1 -14 -10z"/>
<path d="M2155 3447 c-10 -37 4 -130 16 -102 10 26 10 84 -1 110 -7 18 -8 18
-15 -8z"/>
<path d="M5570 3458 c-19 -5 -143 -13 -275 -18 -132 -4 -324 -13 -427 -20
-161 -11 -197 -10 -260 3 -62 13 -180 15 -763 13 -502 -1 -702 -4 -735 -13
-92 -25 -298 -43 -479 -43 -189 0 -283 -14 -322 -47 -8 -7 -19 -13 -23 -13
-13 0 -67 -65 -86 -103 -13 -25 -16 -46 -11 -60 8 -20 8 -20 14 5 8 32 78 111
122 138 37 23 129 27 235 9 47 -7 104 -7 205 2 113 9 166 9 275 -2 134 -13
290 -15 715 -8 121 2 297 -1 390 -7 171 -12 372 -6 520 15 39 6 205 11 370 11
165 0 327 4 359 10 198 32 906 50 957 24 38 -19 59 -73 66 -169 3 -47 9 -85
13 -85 37 0 70 147 51 228 -15 60 -61 115 -110 131 -43 14 -750 13 -801 -1z
m-2199 -70 c-44 -5 -99 -5 -140 0 -60 9 -53 9 74 9 132 0 136 0 66 -9z"/>
<path d="M2040 3250 c0 -48 14 -67 26 -35 8 20 -5 85 -16 85 -6 0 -10 -22 -10
-50z"/>
<path d="M5575 3000 c-178 -24 -238 -53 -266 -125 -21 -52 -35 -107 -49 -190
-5 -27 -16 -77 -24 -110 -21 -85 -57 -245 -62 -275 -3 -14 -11 -47 -19 -75 -7
-27 -20 -84 -29 -125 -8 -41 -22 -107 -30 -146 -22 -99 -21 -144 2 -144 27 0
75 52 99 107 12 26 31 95 42 153 26 125 27 133 86 375 25 105 60 235 77 289
39 120 44 124 198 167 19 6 83 14 143 18 126 8 145 19 102 58 -26 25 -36 27
-119 29 -50 1 -118 -2 -151 -6z"/>
<path d="M3820 2915 c-10 -24 -22 -61 -25 -82 -4 -21 -13 -67 -20 -103 -8 -36
-21 -101 -29 -145 -9 -44 -23 -118 -32 -165 -8 -47 -14 -103 -12 -125 3 -35 6
-40 30 -43 15 -2 37 2 48 8 20 11 21 17 15 89 -8 80 0 117 43 206 22 46 54
173 73 287 12 71 11 79 -6 98 -10 11 -29 20 -42 20 -19 0 -28 -10 -43 -45z"/>
<path d="M3279 2803 c-25 -28 -39 -54 -79 -148 -12 -27 -25 -57 -30 -67 -5 -9
-16 -60 -25 -115 -15 -95 -31 -172 -56 -279 -7 -28 -9 -59 -6 -68 11 -29 52
-18 91 24 35 39 39 49 51 125 15 101 64 267 121 412 30 76 30 94 1 121 -30 28
-38 28 -68 -5z"/>
<path d="M5070 2784 c-135 -77 -227 -227 -152 -251 44 -14 68 -4 98 40 15 23
36 48 46 55 26 18 98 118 98 135 0 13 -31 48 -41 47 -2 -1 -24 -12 -49 -26z"/>
<path d="M4321 2652 c-18 -26 -28 -30 -89 -36 -117 -12 -283 -119 -297 -193
-7 -41 14 -73 50 -73 12 0 53 24 90 54 91 73 185 118 259 125 55 5 62 9 80 40
19 34 19 34 0 70 -26 49 -64 54 -93 13z"/>
<path d="M6466 2574 c-8 -20 1 -34 20 -34 8 0 14 10 14 25 0 28 -24 34 -34 9z"/>
<path d="M6416 2544 c-9 -23 -7 -64 3 -64 5 0 13 18 19 40 8 31 7 40 -3 40 -7
0 -16 -7 -19 -16z"/>
<path d="M6260 2165 c0 -65 4 -115 9 -115 13 0 17 39 13 143 -5 128 -22 107
-22 -28z"/>
<path d="M4455 2180 c-3 -5 -9 -43 -12 -82 -8 -90 -21 -124 -71 -176 -40 -42
-134 -92 -171 -92 -30 0 -125 -22 -138 -33 -19 -14 -16 -45 6 -57 11 -5 65
-10 119 -10 90 0 107 3 161 29 34 16 67 33 74 39 6 5 23 13 37 17 35 11 71 50
57 64 -8 8 -4 22 12 51 31 56 38 136 16 181 -32 64 -74 96 -90 69z"/>
<path d="M3431 2085 c-18 -8 -43 -15 -56 -15 -12 0 -39 -7 -58 -15 -20 -8 -49
-15 -64 -15 -15 0 -37 -7 -47 -15 -11 -8 -34 -15 -51 -15 -36 0 -86 -22 -106
-47 -10 -11 -13 -41 -12 -97 2 -45 -4 -123 -13 -175 -16 -95 -15 -120 6 -201
16 -59 7 -208 -15 -250 -21 -41 -16 -71 16 -89 67 -37 119 32 119 158 0 40 -5
103 -11 141 -15 100 3 405 26 430 14 16 146 62 281 99 63 17 94 46 94 87 0 33
-1 34 -37 34 -21 -1 -53 -7 -72 -15z"/>
<path d="M4672 1939 c-27 -10 -28 -26 -2 -34 26 -8 60 3 60 20 0 17 -30 24
-58 14z"/>
<path d="M2850 1891 c-32 -10 -69 -31 -97 -55 -17 -15 -20 -23 -12 -37 8 -15
21 -19 69 -19 66 0 94 17 106 65 12 50 -7 64 -66 46z"/>
<path d="M4682 1863 c-7 -3 -24 -27 -38 -54 -20 -40 -22 -53 -13 -70 12 -24 4
-36 -29 -41 -41 -6 -23 -23 28 -26 43 -3 53 1 73 22 13 14 29 51 36 81 11 51
11 59 -5 76 -17 19 -28 22 -52 12z"/>
<path d="M4879 1759 c-37 -44 -49 -66 -29 -54 7 4 30 9 52 11 51 3 62 14 53
53 -9 43 -34 40 -76 -10z"/>
<path d="M6303 1640 c0 -75 2 -117 6 -95 4 22 4 83 0 135 -6 93 -6 92 -6 -40z"/>
<path d="M2660 1680 c0 -23 27 -41 87 -60 34 -11 45 -11 58 0 20 17 19 30 -4
30 -10 0 -24 7 -31 15 -7 8 -25 15 -41 15 -15 0 -31 5 -34 10 -11 18 -35 11
-35 -10z"/>
<path d="M4163 1633 c-7 -2 -13 -9 -13 -14 0 -11 337 -12 431 -2 64 7 64 7 24
14 -44 9 -423 10 -442 2z"/>
<path d="M3422 1478 c-13 -13 -17 -48 -4 -48 22 0 62 27 60 40 -4 19 -39 25
-56 8z"/>
<path d="M6022 1448 c14 -18 28 -45 32 -60 9 -37 26 -36 26 2 0 38 -37 90 -63
90 -18 0 -18 -2 5 -32z"/>
<path d="M2830 1101 c-46 -10 -93 -33 -91 -46 2 -13 90 -10 175 7 76 15 101
38 43 38 -19 0 -47 2 -63 4 -16 3 -45 1 -64 -3z"/>
<path d="M2832 678 c-9 -9 -8 -16 5 -30 23 -26 35 -22 31 9 -3 30 -18 39 -36
21z"/>
<path d="M3166 418 c-20 -28 -16 -31 22 -17 35 12 41 24 16 33 -22 8 -21 9
-38 -16z"/>
<path d="M2822 342 c-18 -12 31 -22 103 -22 29 0 72 -7 95 -15 70 -25 171 -16
128 12 -31 19 -304 40 -326 25z"/>
<path d="M3619 9274 c-12 -14 -11 -16 5 -13 11 2 21 10 24 17 5 17 -13 15 -29
-4z"/>
<path d="M3550 9240 c-14 -11 -30 -24 -37 -30 -7 -5 -16 -10 -21 -10 -13 0
-62 -40 -62 -51 0 -13 16 -11 32 4 7 7 21 16 31 20 9 3 17 11 17 17 0 5 9 10
20 10 10 0 23 6 27 13 4 8 16 16 26 20 20 7 23 27 5 27 -7 -1 -24 -10 -38 -20z"/>
<path d="M3371 9115 c-13 -14 -20 -29 -17 -33 4 -4 13 1 20 11 7 9 18 17 25
17 6 0 11 7 11 15 0 21 -12 18 -39 -10z"/>
<path d="M3262 9025 c-34 -38 -26 -49 13 -19 19 14 35 30 35 35 0 18 -27 9
-48 -16z"/>
<path d="M3160 8910 c-12 -12 -18 -26 -14 -32 4 -7 14 -2 25 13 31 40 23 53
-11 19z"/>
<path d="M3079 8801 c-34 -39 -64 -122 -39 -106 6 3 10 15 10 26 0 10 4 19 10
19 10 0 45 68 38 75 -2 2 -11 -4 -19 -14z"/>
</g>
</svg>
