<?xml version="1.0" standalone="no"?>
<!DOCTYPE svg PUBLIC "-//W3C//DTD SVG 20010904//EN"
 "http://www.w3.org/TR/2001/REC-SVG-20010904/DTD/svg10.dtd">
<svg version="1.0" xmlns="http://www.w3.org/2000/svg"
 width="300.000000pt" height="316.000000pt" viewBox="0 0 300.000000 316.000000"
 preserveAspectRatio="xMidYMid meet">
<metadata>
Created by potrace 1.10, written by Peter Selinger 2001-2011
</metadata>
<g transform="translate(0.000000,316.000000) scale(0.100000,-0.100000)"
fill="#000000" stroke="none">
<path d="M1248 3116 c-152 -62 -248 -177 -297 -356 -48 -174 -111 -530 -111
-625 1 -67 30 -127 95 -196 30 -32 55 -62 55 -68 0 -16 -30 -41 -49 -41 -42 0
-200 -74 -269 -126 -88 -67 -115 -104 -145 -203 -38 -127 -78 -206 -137 -270
-38 -43 -52 -66 -60 -107 -6 -29 -21 -68 -33 -86 -13 -18 -35 -62 -51 -98 -31
-69 -37 -80 -103 -181 -24 -36 -47 -86 -53 -114 -61 -294 -63 -325 -21 -364
16 -15 47 -33 70 -39 22 -7 95 -39 163 -71 98 -46 137 -59 193 -65 38 -4 74
-11 80 -15 5 -4 32 -14 60 -20 27 -7 56 -17 63 -23 7 -6 54 -15 105 -20 239
-22 293 -25 302 -20 5 3 92 6 193 7 112 1 186 5 190 12 12 17 573 15 657 -3
64 -13 80 -12 195 6 92 16 144 30 195 55 39 18 84 37 100 40 39 9 130 42 163
59 48 25 130 116 161 178 23 45 8 117 -45 215 -89 164 -146 288 -174 373 -33
99 -80 220 -92 236 -4 6 -25 58 -47 115 -90 244 -155 325 -327 409 -56 27
-122 62 -145 78 -50 34 -156 77 -212 86 -36 7 -38 9 -32 34 4 15 23 47 43 72
45 54 68 103 87 187 21 88 19 125 -9 196 -13 34 -27 96 -31 137 -3 41 -14 109
-25 150 -10 41 -21 97 -24 124 -6 46 -48 136 -64 136 -4 0 -52 38 -107 85 -54
46 -126 98 -159 114 -56 29 -65 31 -175 31 -98 0 -125 -4 -173 -24z m335 -18
c20 -10 37 -23 37 -29 0 -6 4 -8 9 -5 4 3 35 -19 67 -50 33 -30 53 -52 46 -49
-11 6 -11 3 -2 -12 16 -25 69 -55 83 -46 7 3 9 3 5 -2 -5 -5 8 -19 27 -32 36
-24 39 -33 50 -118 l7 -50 -24 21 c-50 45 -50 35 0 -19 28 -31 52 -62 52 -69
0 -7 -38 27 -83 75 -45 48 -85 87 -89 87 -19 -1 16 -53 71 -105 75 -71 98
-107 107 -165 l6 -45 -40 60 c-22 33 -52 71 -67 85 -15 14 -36 43 -46 65 l-19
40 0 -33 c0 -28 9 -43 53 -84 44 -42 46 -47 17 -29 -42 26 -147 81 -155 81 -3
0 32 -25 77 -56 88 -59 134 -98 149 -126 9 -17 -55 21 -138 83 -27 19 -50 29
-65 27 -22 -4 -21 -5 7 -17 16 -7 55 -31 85 -54 179 -136 207 -180 196 -305
-7 -78 -37 -172 -61 -192 -10 -8 -7 10 10 61 14 40 25 89 24 108 l-1 36 -9
-42 c-32 -164 -177 -436 -333 -624 -7 -8 -31 -49 -53 -90 -35 -63 -42 -86 -48
-156 l-8 -83 -87 0 -87 0 1 44 c1 25 -4 50 -9 55 -8 8 -10 0 -7 -27 2 -28 1
-33 -7 -22 -8 12 -11 8 -11 -17 0 -30 -3 -33 -29 -33 -32 0 -47 14 -54 50 -4
21 -4 20 -6 -7 -1 -37 -23 -45 -40 -15 -10 16 -10 16 -11 -1 0 -12 -6 -17 -17
-15 -12 2 -18 14 -19 38 -1 19 -6 46 -12 60 -8 20 -9 14 -8 -35 l1 -60 -34 3
c-19 1 -37 4 -39 7 -7 6 -21 79 -16 84 2 3 18 -5 34 -18 17 -12 30 -17 30 -11
0 6 -16 18 -35 27 -35 17 -50 38 -18 26 12 -5 11 -1 -5 15 -24 24 -52 31 -35
10 6 -7 13 -41 16 -75 l5 -62 -34 2 c-42 4 -45 8 -54 54 l-8 38 -1 -47 c-1
-59 -15 -61 -35 -5 -8 23 -17 49 -20 57 -6 16 -1 -28 10 -80 5 -23 3 -30 -9
-30 -16 0 -19 8 -38 120 -12 70 -14 72 -20 40 -5 -21 -2 -56 7 -90 20 -76 19
-80 -19 -80 -25 0 -34 4 -34 18 1 9 -1 44 -2 77 -2 46 -5 55 -12 40 -6 -14 -8
-8 -4 25 3 36 2 40 -5 20 -7 -19 -8 -13 -5 25 3 32 -1 61 -10 80 -12 23 -13
24 -7 5 4 -14 6 -43 5 -65 -1 -22 5 -72 13 -111 17 -84 14 -118 -12 -122 -13
-2 -31 13 -55 45 -60 81 -63 90 -42 126 23 38 34 67 27 67 -6 0 -64 -91 -64
-101 0 -4 20 -34 45 -67 47 -62 54 -82 32 -82 -7 0 -23 -11 -35 -25 -28 -32
-37 -31 -52 4 -16 40 -10 64 20 72 l25 6 -27 8 c-15 4 -32 4 -37 0 -18 -10
-13 -80 8 -106 30 -39 51 -86 51 -116 0 -15 7 -37 15 -47 8 -11 15 -28 15 -38
0 -37 -44 -16 -90 42 -37 47 -34 60 7 34 l28 -18 -18 21 c-10 12 -35 24 -55
28 -58 11 -69 20 -64 53 3 24 8 29 25 24 28 -7 12 16 -20 29 -13 5 -21 14 -18
20 4 6 9 8 12 5 6 -5 88 85 101 111 5 10 17 48 26 86 15 56 22 67 40 67 17 0
19 2 6 11 -11 8 -5 9 25 5 27 -4 35 -2 25 4 -8 5 -27 10 -42 10 -20 0 -26 4
-22 15 4 9 19 15 39 15 29 0 35 -4 45 -36 7 -19 14 -33 17 -31 7 8 -26 80 -47
102 -11 11 -16 25 -12 31 4 6 38 27 75 46 38 20 68 40 68 44 -1 5 32 9 72 9
53 0 81 5 100 18 34 22 117 24 117 2 0 -8 5 -14 11 -12 6 1 14 -4 17 -12 3 -9
0 -11 -9 -6 -7 5 1 -16 18 -46 16 -30 47 -92 68 -139 44 -99 55 -115 55 -76 0
15 -4 25 -10 21 -5 -3 -14 12 -20 34 -5 21 -17 44 -25 51 -8 7 -12 16 -9 21 3
5 -2 19 -10 31 -19 27 -21 42 -3 33 6 -4 3 2 -9 12 -11 10 -19 24 -16 31 2 7
0 20 -4 30 -4 9 -8 19 -8 22 -1 3 -5 11 -9 18 -5 6 -4 12 0 12 14 0 32 -22 28
-34 -2 -6 19 -29 48 -51 l52 -40 -29 50 c-37 65 -59 88 -131 140 -78 56 -196
179 -224 232 -26 52 -28 136 -5 214 23 77 117 280 175 376 28 48 46 88 43 97
-3 9 -2 28 3 43 6 16 8 34 5 42 -6 17 -94 -167 -129 -269 -14 -41 -38 -100
-54 -130 -26 -51 -28 -53 -28 -25 -1 51 25 131 62 192 20 32 39 72 42 88 6 30
6 30 -13 -5 -27 -51 -54 -91 -59 -86 -9 8 40 134 71 181 18 28 41 62 50 78 33
49 9 28 -39 -35 -52 -70 -52 -55 1 60 50 109 157 207 272 248 54 19 254 8 305
-18z m354 -1244 c78 -20 152 -55 193 -91 19 -16 49 -33 65 -37 49 -12 149 -63
173 -89 22 -23 22 -23 -35 4 -32 16 -67 29 -79 29 -11 0 -29 8 -38 19 -9 10
-31 22 -49 25 -17 4 -66 29 -109 57 -65 43 -86 52 -137 56 -43 4 -61 2 -61 -6
0 -12 134 -81 156 -81 6 0 19 -9 28 -19 17 -19 17 -19 -16 -12 -18 5 -53 19
-78 32 -49 26 -112 31 -132 11 -11 -11 -4 -13 37 -11 37 2 72 -6 133 -31 45
-18 82 -36 82 -40 0 -11 79 -64 86 -57 3 3 -7 13 -23 22 -15 9 -36 28 -47 42
l-19 25 29 -18 c16 -10 36 -26 45 -37 10 -12 19 -16 23 -9 3 6 -9 19 -26 30
-18 12 -49 37 -68 58 -34 36 -34 37 -5 17 46 -32 154 -82 191 -89 18 -3 54
-19 79 -35 24 -16 51 -26 59 -23 18 7 54 -31 73 -76 8 -19 26 -46 39 -60 23
-25 79 -148 71 -156 -8 -9 -33 30 -87 134 -63 122 -84 138 -144 109 -33 -15
-74 -62 -64 -72 3 -3 15 3 27 14 71 62 124 47 157 -44 24 -67 72 -144 102
-162 28 -17 98 -165 142 -303 21 -63 65 -169 99 -235 117 -230 141 -286 141
-325 0 -21 -3 -45 -6 -54 -12 -31 -22 -16 -21 32 1 63 -53 184 -144 322 -65
100 -71 115 -98 231 -39 168 -108 339 -125 311 -3 -6 1 -17 9 -25 8 -9 15 -21
15 -27 0 -6 11 -44 24 -83 26 -81 63 -216 72 -264 5 -26 3 -33 -10 -33 -9 0
-16 -4 -16 -8 0 -5 -13 -7 -29 -4 -20 3 -28 9 -24 18 4 10 10 11 24 3 12 -6
19 -6 19 0 0 5 -5 11 -11 13 -5 2 -7 11 -4 21 4 9 11 15 15 12 5 -3 5 5 2 17
-5 20 -7 20 -10 5 -4 -17 -4 -17 -16 -1 -10 13 -15 14 -21 4 -5 -8 -4 -11 2
-7 6 4 11 -4 11 -19 0 -17 -5 -23 -14 -20 -9 3 -12 -3 -10 -22 3 -22 11 -29
40 -37 20 -6 33 -14 29 -19 -4 -4 1 -7 12 -5 10 2 22 15 25 29 l6 25 7 -27 c6
-24 37 -77 116 -198 9 -14 16 -29 16 -35 1 -5 13 -28 27 -50 31 -46 48 -110
47 -175 -1 -49 -4 -42 -14 33 -4 31 -10 45 -17 41 -8 -5 -9 -1 -5 10 4 9 3 14
-2 11 -5 -3 -12 3 -15 13 -8 23 -66 42 -127 42 -55 0 -200 -27 -213 -40 -6 -6
-1 -8 15 -5 135 28 216 35 259 25 43 -10 49 -16 71 -61 19 -41 21 -54 11 -70
-14 -22 -15 -30 -4 -27 9 4 12 -5 12 -32 0 -11 -4 -20 -10 -20 -5 0 -10 9 -10
20 0 17 -56 120 -65 120 -2 0 7 -22 21 -49 l25 -48 -64 -66 c-52 -52 -75 -69
-118 -81 -29 -9 -54 -16 -56 -16 -2 0 -1 17 2 38 3 25 3 31 -3 17 -7 -14 -10
1 -14 55 -6 95 -24 129 -95 179 -59 43 -91 49 -158 30 -21 -5 -11 -6 30 -3 55
5 64 2 106 -25 84 -56 108 -102 109 -212 0 -58 -3 -68 -27 -91 -33 -32 -52
-39 -163 -66 -155 -38 -248 -40 -219 -6 6 8 18 14 26 14 11 0 11 4 2 21 -9 17
-8 20 3 13 10 -6 11 -5 1 7 -8 9 -9 20 -3 29 17 26 11 69 -9 80 -17 8 -19 21
-19 80 1 81 11 100 71 128 25 12 47 28 50 36 4 9 31 20 66 27 34 6 61 16 61
21 0 5 4 7 9 3 6 -3 8 12 7 35 -2 22 -5 42 -7 43 -2 1 -13 8 -24 15 -11 6 -31
17 -45 23 -39 16 -90 59 -90 74 0 8 -9 19 -20 25 -11 6 -20 20 -20 31 0 11 4
18 8 15 4 -2 8 8 7 22 0 15 5 26 11 25 6 -1 11 5 11 12 0 11 -4 12 -13 4 -10
-8 -13 -6 -14 8 -3 29 -1 144 2 197 2 30 -2 54 -9 62 -15 15 -17 28 -3 19 6
-3 7 1 4 9 -3 9 -11 14 -17 13 -13 -2 -13 32 1 135 5 37 15 75 23 84 8 9 13
41 14 74 0 32 2 56 4 54 2 -2 13 10 23 27 10 16 31 38 47 47 l29 16 -85 22
c-47 13 -91 20 -98 18 -24 -9 -11 -35 31 -62 29 -18 41 -32 38 -42 -3 -8 -8
-26 -10 -40 -3 -19 -2 -22 6 -10 17 25 12 -10 -9 -71 -10 -31 -22 -83 -26
-116 -4 -34 -13 -70 -20 -80 -13 -17 -15 -17 -38 5 -26 25 -46 28 -189 31
l-68 1 -2 33 -1 32 -4 -30 -4 -30 -107 3 c-59 2 -108 5 -110 7 -2 1 4 49 13
105 8 57 15 117 15 134 0 17 11 55 25 84 14 30 23 57 20 62 -2 4 10 27 28 51
18 24 48 74 67 111 19 36 38 64 42 62 4 -3 34 -12 65 -20z m-902 -24 c4 -6 -6
-10 -22 -9 -25 0 -26 1 -8 9 11 5 21 9 22 9 1 1 5 -3 8 -9z m-70 -20 c-3 -5
-13 -10 -21 -10 -17 0 -195 -72 -190 -77 1 -2 44 12 93 32 120 46 158 50 208
26 l40 -19 -41 -1 c-22 -1 -63 -8 -90 -16 -27 -8 -64 -15 -83 -15 -36 0 -190
-70 -211 -95 -7 -8 -24 -15 -39 -16 l-26 -1 25 -8 25 -7 -25 -11 c-25 -11 -25
-11 6 -11 17 -1 37 -8 44 -17 12 -13 11 -14 -11 -4 -18 8 -36 9 -60 2 -25 -8
-28 -10 -11 -11 12 -1 22 -5 22 -9 0 -16 -25 -40 -49 -47 -20 -6 -23 -4 -17
10 3 9 9 28 12 41 3 13 14 24 23 24 13 0 13 2 2 9 -11 7 -9 14 10 34 83 85
211 163 317 192 26 7 48 14 50 14 2 1 0 -3 -3 -9z m1268 -196 c56 -19 64 -44
12 -41 -19 2 -40 8 -47 15 -7 7 -8 12 -4 12 5 0 3 7 -4 15 -15 19 -14 19 43
-1z m-539 -28 c-6 -16 -24 -23 -24 -8 0 10 22 33 27 28 2 -2 1 -11 -3 -20z
m-7 -40 c-18 -48 -27 -95 -35 -179 -8 -93 -17 -116 -44 -117 -5 0 -9 42 -9 93
-1 79 -3 86 -10 47 -4 -25 -8 -66 -8 -92 -1 -37 -5 -48 -17 -48 -14 0 -16 11
-12 78 4 65 10 86 38 132 18 30 42 64 52 76 19 21 52 29 45 10z m-1116 -130
c-27 -88 -35 -101 -97 -162 -30 -29 -54 -60 -54 -69 0 -14 3 -15 14 -6 22 18
29 -4 12 -38 -9 -16 -30 -42 -47 -57 -18 -16 -44 -40 -58 -54 -66 -64 -87 -60
-26 4 28 30 35 45 35 77 0 47 15 79 36 79 8 0 13 4 10 9 -3 4 4 17 15 27 36
32 77 98 105 168 23 57 59 104 72 92 2 -2 -6 -34 -17 -70z m697 -202 c125 -15
157 -14 323 12 80 13 130 13 314 4 132 -6 223 -15 230 -21 7 -8 4 -10 -10 -6
-44 12 -258 17 -390 8 l-140 -10 160 3 c88 2 205 -1 260 -6 55 -4 112 -9 128
-11 15 -1 27 -8 27 -14 0 -7 4 -13 9 -13 22 0 27 -65 21 -250 -4 -107 -11
-203 -15 -214 -6 -14 -5 -18 6 -14 8 3 16 18 19 34 4 20 8 25 14 16 4 -7 5
-19 2 -27 -3 -9 1 -15 9 -15 8 0 15 -6 15 -12 0 -14 82 -72 145 -102 32 -16
36 -21 20 -24 -52 -10 -141 -44 -159 -61 -31 -27 -51 -31 -74 -15 -19 13 -20
11 -27 -23 -4 -20 -8 -74 -10 -119 -2 -45 -6 -91 -9 -102 -13 -40 -56 -46
-220 -35 -83 6 -182 7 -221 3 -62 -7 -206 8 -233 23 -4 3 -47 -4 -97 -14 -69
-14 -136 -18 -292 -19 -231 0 -214 -8 -208 100 2 38 0 58 -5 50 -9 -15 -17 12
-39 129 -7 35 -19 71 -27 79 -10 9 -13 24 -9 41 4 17 3 21 -4 12 -13 -20 -45
82 -37 120 5 28 -13 121 -49 242 -9 32 -14 66 -11 75 5 15 5 15 -8 -1 -12 -16
-14 -15 -20 14 -23 115 5 158 103 160 31 0 79 7 106 14 59 16 214 12 403 -11z
m-768 -147 c14 -13 39 -39 56 -58 37 -42 90 -89 80 -71 -5 8 0 12 15 12 21 0
21 -1 6 -18 -11 -12 -13 -22 -7 -32 7 -10 10 -11 10 -2 0 6 5 12 11 12 6 0 9
-7 5 -15 -3 -8 1 -21 8 -28 17 -16 23 -57 13 -74 -5 -7 -4 -13 2 -13 6 0 15
-10 22 -22 10 -18 9 -20 -5 -15 -9 4 -16 2 -16 -4 0 -6 -5 -7 -12 -3 -7 4 -8
3 -4 -5 4 -6 10 -9 14 -7 4 2 8 -7 8 -20 2 -20 -1 -23 -12 -13 -12 10 -13 8
-7 -7 4 -10 13 -24 20 -29 7 -6 16 -23 19 -39 3 -16 11 -34 19 -40 15 -12 39
-80 51 -140 7 -38 6 -39 -17 -31 -13 4 -44 9 -69 11 -37 3 -40 2 -15 -5 17 -4
50 -16 73 -26 34 -15 44 -26 52 -54 17 -65 22 -132 9 -147 -15 -18 -27 -18
-31 1 -2 10 -7 7 -14 -10 -8 -15 -8 -23 -2 -22 6 1 12 -3 15 -9 2 -7 -4 -11
-14 -10 -18 1 -18 -2 -5 -47 4 -15 0 -17 -24 -11 -16 4 -31 10 -34 13 -3 3
-14 7 -25 9 -56 9 -75 15 -75 24 0 5 -4 7 -9 4 -5 -3 -21 1 -37 9 -15 7 -31
12 -36 9 -9 -6 -47 34 -48 50 0 4 15 6 34 4 19 -2 32 0 30 4 -3 4 -21 8 -40 8
-37 0 -45 -18 -19 -40 9 -7 13 -15 10 -18 -9 -10 -35 -11 -35 -2 0 5 -9 7 -21
5 -16 -3 -19 0 -14 18 5 21 5 20 -8 -2 l-14 -24 -22 22 c-11 11 -21 25 -21 30
0 5 -6 16 -14 24 -20 20 -6 79 31 126 15 20 41 55 57 78 19 28 40 46 65 54 20
6 39 13 43 16 10 6 -2 33 -16 33 -14 1 -66 46 -66 58 0 17 -28 34 -35 22 -3
-5 -11 -10 -17 -10 -7 0 -6 5 1 14 9 11 9 16 0 22 -8 5 -9 3 -4 -6 6 -10 4
-11 -11 -5 -10 5 -28 7 -39 6 -11 -1 -59 -4 -107 -7 l-87 -5 9 31 c8 29 52 97
71 110 4 3 24 39 44 80 24 52 35 86 33 110 -3 31 0 35 24 38 15 2 38 -3 51
-10 54 -30 216 -165 226 -188 5 -14 10 -18 10 -10 1 8 10 21 21 28 11 7 20 21
20 31 0 23 -16 36 -25 21 -3 -5 -1 -10 4 -10 6 0 11 -6 11 -14 0 -27 -21 -28
-48 -4 -15 14 -51 41 -79 62 -29 21 -53 41 -53 46 0 4 21 2 47 -6 25 -8 51
-14 57 -14 18 1 -132 59 -197 77 l-59 17 34 17 c18 9 42 26 52 38 25 27 45 27
76 -2z m-200 -138 c-16 -59 -56 -135 -96 -184 -37 -46 -50 -75 -59 -135 -3
-23 -19 -87 -36 -143 -16 -56 -29 -118 -29 -137 0 -32 -1 -33 -17 -17 -16 16
-15 25 11 164 37 196 50 233 101 301 24 32 53 83 65 113 19 49 56 96 67 85 2
-2 -1 -23 -7 -47z m112 -338 c13 -10 33 -21 45 -25 11 -4 36 -20 54 -36 l33
-29 -29 -7 c-40 -9 -54 -22 -106 -99 -25 -37 -46 -60 -50 -53 -4 6 -10 -14
-15 -43 -8 -53 -8 -53 -15 -19 -6 32 -6 33 -8 7 -1 -30 12 -62 36 -85 18 -19
8 -29 -12 -12 -9 8 -27 15 -39 16 -28 3 -128 52 -138 68 -7 10 -4 52 7 101 3
11 -2 7 -10 -10 l-14 -30 1 38 c1 20 -2 40 -7 45 -4 4 -5 -28 -3 -70 3 -43 4
-78 2 -78 -2 0 -15 5 -29 12 -30 14 -32 -1 22 194 l36 130 108 2 c90 1 111 -2
131 -17z m2428 -348 c-8 -14 -19 -25 -23 -24 -4 1 -19 -7 -34 -19 -44 -34 -49
-22 -5 15 22 20 44 45 47 56 5 16 10 18 18 10 9 -9 8 -18 -3 -38z m-664 -39
c-3 -9 -6 -24 -6 -34 0 -19 -50 -43 -122 -60 l-33 -8 40 -1 c22 0 57 6 78 13
20 8 37 12 37 9 0 -17 -26 -46 -48 -55 -18 -7 -239 -12 -654 -15 l-627 -4 -16
25 c-12 17 -15 35 -10 56 l7 30 136 -1 c155 -1 350 -14 267 -18 -27 -1 -68 -6
-90 -10 -22 -4 163 -6 410 -4 406 4 456 6 512 23 71 22 103 40 103 57 0 7 5
13 11 13 6 0 8 -7 5 -16z m-671 -24 c4 -6 -14 -10 -47 -10 -29 0 -78 -2 -108
-5 l-55 -4 48 9 c27 5 52 11 55 14 9 10 101 6 107 -4z m314 -24 c-2 -2 -35 -6
-74 -10 -46 -4 -63 -3 -50 3 19 9 133 15 124 7z m148 -3 c-20 -2 -52 -2 -70 0
-17 2 0 4 38 4 39 0 53 -2 32 -4z m-499 -10 c-21 -2 -57 -2 -80 0 -24 2 -7 4
37 4 44 0 63 -2 43 -4z"/>
<path d="M1319 3086 c-46 -12 -133 -58 -144 -76 -3 -6 -17 -10 -31 -10 -15 0
-23 -4 -19 -11 4 -5 0 -18 -8 -27 -18 -21 -108 -222 -99 -222 9 0 82 121 111
183 20 41 27 47 54 48 53 1 81 8 110 30 35 26 143 34 189 14 30 -12 62 -41 97
-87 12 -16 10 -19 -10 -27 -22 -8 -22 -9 14 -16 65 -13 62 2 -21 89 -30 31
-65 59 -79 62 -13 4 -58 4 -99 2 -55 -4 -77 -1 -85 9 -6 7 -10 13 -8 13 2 0
34 3 71 6 53 5 83 2 135 -14 90 -27 114 -32 107 -21 -12 20 16 8 43 -18 35
-34 134 -178 127 -185 -2 -3 7 -13 21 -22 14 -9 37 -24 51 -33 l26 -17 -21 42
c-12 23 -49 68 -82 101 -34 32 -59 64 -55 69 3 5 -1 15 -9 22 -8 7 -15 10 -15
7 0 -3 -12 6 -27 20 -16 14 -27 30 -25 35 1 5 -2 7 -8 3 -6 -4 -17 -1 -25 5
-8 7 -15 9 -15 4 0 -4 -6 0 -13 11 -11 14 -16 15 -22 5 -5 -7 -4 -11 1 -8 5 3
18 -4 28 -15 13 -14 15 -19 5 -15 -57 22 -184 58 -202 57 -12 0 -43 -6 -68
-13z m-36 -67 c-13 -13 -80 -29 -88 -21 -8 8 45 30 75 31 17 1 21 -2 13 -10z"/>
<path d="M1235 2951 c5 -10 68 -31 90 -31 15 0 -38 26 -69 34 -18 4 -25 3 -21
-3z"/>
<path d="M1331 2905 c-94 -21 -95 -23 -6 -18 93 6 189 -9 213 -33 9 -9 46 -36
82 -59 112 -72 120 -107 16 -75 -33 11 -64 16 -69 13 -13 -8 100 -43 140 -43
69 0 42 46 -62 107 -33 19 -76 48 -95 63 -38 29 -80 44 -120 42 -23 -2 -23 -1
-5 7 18 9 18 10 -5 10 -14 -1 -54 -7 -89 -14z"/>
<path d="M1321 2851 c-134 -64 -136 -66 -139 -91 -2 -26 34 -97 45 -86 3 3 0
12 -6 20 -7 8 -9 21 -5 27 4 8 3 9 -4 5 -8 -5 -12 2 -12 22 0 23 8 33 39 50
21 12 46 22 54 22 9 0 29 11 44 25 32 28 31 28 -16 6z"/>
<path d="M1262 2754 c-43 -22 -36 -27 14 -9 35 12 49 12 94 0 76 -20 160 -29
160 -18 0 11 -106 33 -185 40 -33 2 -61 -2 -83 -13z"/>
<path d="M1085 2648 c-15 -35 -52 -114 -81 -176 -134 -283 -138 -307 -80 -429
37 -77 100 -137 239 -229 39 -26 67 -52 67 -62 0 -13 2 -14 9 -4 9 16 37 -17
119 -141 29 -43 52 -74 52 -67 0 19 -32 74 -52 88 -10 7 -16 17 -13 22 3 4 -2
11 -11 14 -8 3 -12 10 -9 16 3 6 -1 13 -9 16 -9 3 -16 15 -16 25 0 10 -7 27
-15 37 -45 52 -75 81 -120 116 -28 22 -58 48 -67 57 -10 10 -25 23 -35 31 -24
17 -76 85 -97 125 -22 43 -21 136 2 170 9 15 11 24 5 20 -16 -10 -16 -8 -2 32
6 17 16 31 23 31 6 0 24 21 39 46 15 25 23 43 17 39 -17 -11 -11 11 10 35 11
13 20 28 20 34 0 38 -125 -168 -146 -243 -11 -36 -14 -70 -10 -103 7 -50 44
-138 58 -138 4 0 8 -7 8 -15 0 -8 3 -14 8 -13 9 4 120 -82 152 -118 23 -26 22
-25 -20 6 -25 18 -62 49 -82 69 -33 31 -52 34 -30 5 4 -6 -8 6 -27 25 -40 43
-77 120 -86 182 -5 34 -1 59 18 109 35 94 93 199 122 222 14 11 31 25 38 31
27 25 64 41 107 48 39 6 36 7 -22 6 -40 -1 -69 -7 -72 -13 -2 -6 -19 -22 -38
-35 l-33 -24 16 25 c44 70 72 124 79 155 12 54 -5 41 -35 -27z"/>
<path d="M1515 2689 c3 -4 26 -20 53 -35 50 -29 78 -56 87 -83 3 -9 26 -31 51
-50 24 -19 43 -36 40 -38 -2 -2 -31 7 -65 21 -33 13 -61 23 -61 21 0 -2 35
-21 78 -41 42 -21 79 -40 82 -44 3 -3 30 -22 61 -42 49 -33 59 -44 78 -98 16
-44 21 -73 17 -108 l-6 -47 14 35 c20 49 19 92 -4 157 -25 71 -34 81 -150 160
-52 36 -110 83 -129 105 -27 32 -161 112 -146 87z m328 -243 c31 -21 56 -41
54 -43 -7 -7 -93 47 -118 73 -27 30 -19 26 64 -30z"/>
<path d="M1173 2625 c-29 -13 -53 -29 -53 -35 0 -10 80 30 105 52 15 13 4 9
-52 -17z"/>
<path d="M1377 2573 c18 -2 50 -2 70 0 21 2 7 4 -32 4 -38 0 -55 -2 -38 -4z"/>
<path d="M1871 2345 c18 -46 20 -213 4 -261 -8 -22 -16 -49 -18 -60 -2 -10 -9
-32 -15 -47 -7 -16 -12 -32 -12 -36 0 -14 -81 -124 -106 -143 -13 -11 -29 -31
-37 -46 -7 -15 -19 -26 -26 -24 -7 1 -10 -2 -6 -8 3 -5 2 -10 -3 -10 -5 0 -36
-35 -68 -77 -54 -72 -55 -75 -18 -43 21 20 61 59 88 88 27 28 52 50 56 47 4
-2 16 5 26 18 l19 22 -22 -19 c-42 -35 -23 -2 30 54 28 31 64 78 79 105 45 84
81 204 79 265 -2 65 -28 169 -48 190 -12 13 -13 11 -2 -15z"/>
<path d="M852 1680 c-23 -10 -45 -26 -48 -35 -3 -8 -14 -15 -23 -15 -9 0 -23
-5 -31 -10 -11 -7 -7 -9 15 -7 18 1 29 -3 28 -10 -1 -6 4 -14 13 -17 8 -3 12
-2 9 4 -3 6 -1 10 4 10 6 0 18 -15 26 -32 l15 -33 -6 45 c-7 54 -9 56 -29 40
-18 -15 -28 -9 -20 13 4 8 32 26 63 40 31 14 50 26 42 26 -8 0 -34 -8 -58 -19z"/>
<path d="M988 1623 c-23 -27 -68 -113 -59 -113 4 0 21 24 37 53 l28 52 7 -30
7 -30 1 33 c1 41 12 41 45 -3 15 -19 32 -35 37 -35 6 0 3 7 -6 16 -8 9 -22 29
-30 45 -17 33 -45 37 -67 12z"/>
<path d="M750 1575 c-6 -8 -10 -19 -8 -24 1 -5 11 2 21 15 19 26 8 34 -13 9z"/>
<path d="M1133 1563 c-13 -2 -23 -8 -23 -13 0 -10 38 -1 46 11 3 5 4 8 2 8 -2
-1 -13 -4 -25 -6z"/>
<path d="M791 1484 c0 -21 4 -48 9 -59 5 -12 6 1 3 35 -7 66 -13 79 -12 24z"/>
<path d="M1000 1495 c0 -9 4 -13 10 -10 5 3 22 -2 37 -11 26 -15 27 -15 8 1
-37 31 -55 37 -55 20z"/>
<path d="M1472 1481 c-12 -35 -32 -42 -32 -12 0 11 -4 23 -10 26 -6 3 -10 -5
-10 -18 0 -25 23 -42 42 -31 11 7 30 55 24 61 -2 2 -8 -10 -14 -26z"/>
<path d="M1328 1484 c-3 -11 1 -29 8 -39 14 -18 14 -18 13 1 0 10 -4 28 -8 38
-7 20 -8 19 -13 0z"/>
<path d="M1010 1452 c0 -5 12 -14 28 -21 l27 -13 -22 21 c-24 23 -33 26 -33
13z"/>
<path d="M1351 1400 c0 -14 4 -34 9 -45 8 -18 9 -18 9 5 0 14 -4 34 -9 45 -8
18 -9 18 -9 -5z"/>
<path d="M1313 1350 c0 -25 2 -35 4 -22 2 12 2 32 0 45 -2 12 -4 2 -4 -23z"/>
<path d="M1172 1320 c0 -19 2 -27 5 -17 2 9 2 25 0 35 -3 9 -5 1 -5 -18z"/>
<path d="M1090 1286 c14 -8 27 -12 29 -10 6 6 -1 11 -29 18 l-25 7 25 -15z"/>
<path d="M1781 1674 c-1 -11 -8 -29 -16 -40 -8 -10 -14 -26 -14 -34 0 -11 4
-10 15 5 27 35 32 49 23 70 -7 20 -8 20 -8 -1z"/>
<path d="M1828 1679 c-26 -14 -23 -32 3 -19 11 6 52 11 92 10 91 -2 102 0 52
11 -55 11 -127 10 -147 -2z"/>
<path d="M2033 1470 c0 -36 2 -50 4 -32 2 17 2 47 0 65 -2 17 -4 3 -4 -33z"/>
<path d="M1887 1473 c-4 -3 -7 -16 -6 -27 0 -19 1 -19 10 3 10 24 8 36 -4 24z"/>
<path d="M2154 1466 c-3 -7 -4 -33 -2 -57 3 -43 4 -42 8 14 5 58 4 68 -6 43z"/>
<path d="M2359 1423 c-38 -46 -41 -51 -27 -59 7 -4 10 -4 6 1 -4 4 3 16 15 25
13 11 24 14 28 8 9 -14 -24 -99 -37 -94 -7 3 -10 -3 -7 -15 3 -10 7 -19 10
-19 10 0 64 131 61 147 -5 24 -31 28 -49 6z"/>
<path d="M1887 1413 c-13 -12 -7 -33 8 -33 8 0 15 5 15 10 0 6 -5 10 -11 10
-5 0 -7 5 -4 10 7 11 2 13 -8 3z"/>
<path d="M1875 1350 c8 -27 45 -69 45 -53 0 6 -7 16 -15 23 -8 7 -15 18 -15
26 0 7 -5 16 -11 20 -8 4 -9 -1 -4 -16z"/>
<path d="M2340 1240 c-19 -22 -35 -44 -35 -48 -1 -4 -8 -21 -17 -38 -13 -23
-14 -31 -4 -31 7 0 21 16 32 36 10 20 29 51 42 69 35 49 22 58 -18 12z"/>
<path d="M2488 1233 c-9 -10 -28 -43 -42 -73 -25 -51 -25 -53 -4 -25 13 16 28
38 33 50 15 29 41 31 48 3 4 -13 5 -66 3 -118 -1 -52 1 -82 4 -65 11 46 11
190 0 219 -11 31 -21 32 -42 9z"/>
<path d="M2340 1130 c6 -11 20 -25 32 -31 21 -11 21 -10 -3 19 -27 35 -45 42
-29 12z"/>
<path d="M2443 1087 c-47 -36 -51 -43 -23 -43 10 0 17 2 15 5 -8 7 16 31 31
31 20 0 17 -20 -5 -44 -18 -21 -61 -86 -49 -76 3 3 22 26 42 53 29 37 35 53
30 74 -6 22 -4 25 10 20 9 -4 16 -2 16 3 0 18 -24 9 -67 -23z"/>
<path d="M2260 1067 c0 -47 4 -46 18 4 7 28 7 36 -4 36 -10 0 -14 -13 -14 -40z"/>
<path d="M2357 990 c3 -11 8 -20 12 -20 4 0 7 9 7 20 0 11 -6 20 -12 20 -7 0
-10 -8 -7 -20z"/>
<path d="M2286 962 c6 -4 14 -14 17 -22 4 -10 6 -8 6 8 1 15 -5 22 -16 22 -11
0 -14 -3 -7 -8z"/>
<path d="M2517 933 c-28 -54 -29 -71 -8 -92 21 -21 68 -30 56 -11 -3 5 -12 7
-19 4 -19 -7 -45 22 -39 45 3 13 12 18 26 16 21 -4 21 -3 4 10 -15 11 -16 17
-7 34 6 12 8 21 6 21 -3 0 -12 -12 -19 -27z"/>
<path d="M2551 945 c0 -11 6 -31 14 -45 18 -32 18 -25 0 25 -8 22 -14 31 -14
20z"/>
<path d="M2620 753 c-19 -1 -73 -6 -120 -10 -47 -4 -75 -9 -63 -11 20 -3 22
-6 12 -25 -9 -19 -8 -20 3 -6 26 31 58 41 116 34 43 -5 62 -3 77 9 11 8 18 15
15 14 -3 -1 -21 -3 -40 -5z"/>
<path d="M2680 719 c43 -17 50 -62 8 -51 -14 3 -19 1 -14 -6 13 -21 46 -13 58
13 15 33 -4 55 -46 54 -30 0 -31 0 -6 -10z"/>
<path d="M2570 624 l-35 -14 40 5 c22 3 63 5 90 6 40 1 45 3 25 9 -38 12 -81
10 -120 -6z"/>
<path d="M2555 562 c-89 -14 -141 -37 -61 -27 27 4 55 9 64 13 11 4 13 2 7 -9
-7 -11 -6 -12 6 -3 22 17 120 17 151 0 25 -13 27 -13 25 2 -7 46 -38 50 -192
24z"/>
<path d="M2786 566 c21 -15 30 -14 19 3 -3 6 -14 11 -23 11 -13 0 -13 -2 4
-14z"/>
<path d="M2283 396 c-3 -5 -2 -7 3 -3 20 12 75 -23 89 -57 21 -50 20 -96 -2
-97 -11 0 -13 -3 -5 -6 21 -8 14 -49 -10 -61 -14 -6 -17 -11 -8 -11 42 -2 64
58 48 131 -5 24 -10 51 -11 60 -1 9 -4 15 -8 12 -4 -2 -16 6 -26 19 -18 23
-59 31 -70 13z"/>
<path d="M2423 260 c0 -25 2 -35 4 -22 2 12 2 32 0 45 -2 12 -4 2 -4 -23z"/>
<path d="M2218 269 c12 -14 28 -26 35 -26 6 -1 31 -4 55 -8 29 -5 42 -4 42 4
0 6 -15 11 -32 12 -53 1 -81 8 -102 27 -17 14 -17 12 2 -9z"/>
<path d="M2551 245 c0 -12 -6 -26 -13 -33 -6 -6 -9 -14 -6 -18 10 -9 30 35 25
54 -4 13 -5 13 -6 -3z"/>
<path d="M2256 98 c5 -8 2 -9 -9 -5 -9 3 -19 1 -23 -4 -4 -7 3 -9 17 -7 23 3
40 28 19 28 -6 0 -8 -5 -4 -12z"/>
<path d="M373 1113 c-7 -15 -11 -28 -9 -31 6 -6 28 38 24 48 -2 5 -9 -3 -15
-17z"/>
<path d="M723 1135 c-1 -46 14 -121 16 -84 1 8 11 25 24 37 22 20 28 21 357
18 184 -2 425 1 535 6 527 24 485 28 485 -44 0 -21 4 -37 9 -34 14 9 19 57 9
87 -14 40 -45 43 -277 33 -108 -5 -340 -9 -516 -8 -176 0 -286 -2 -245 -6 52
-4 17 -6 -115 -7 -194 -2 -230 -7 -255 -39 -14 -16 -16 -12 -21 37 l-6 54 0
-50z"/>
<path d="M686 1112 c-4 -18 -5 -36 -2 -39 11 -12 17 5 14 39 l-3 33 -9 -33z"/>
<path d="M662 1090 c0 -19 2 -27 5 -17 2 9 2 25 0 35 -3 9 -5 1 -5 -18z"/>
<path d="M1680 1070 l-145 -6 111 -2 c67 -1 114 -6 122 -14 8 -8 15 -8 29 3
16 13 17 12 4 -4 -20 -25 -10 -29 43 -16 134 34 203 -54 142 -180 -30 -64 -29
-63 -136 -169 -50 -51 -100 -91 -126 -103 -31 -13 -44 -24 -44 -39 0 -11 -7
-20 -16 -20 -8 0 -12 5 -8 11 8 13 -70 5 -156 -16 -30 -8 -92 -15 -137 -16
-46 -1 -83 -5 -83 -9 0 -9 107 -21 164 -18 35 1 32 2 -19 8 -50 6 -53 7 -20 8
22 2 71 9 109 17 66 14 111 10 70 -6 -10 -5 1 -5 26 -1 25 4 76 6 114 5 45 -1
65 2 55 8 -8 5 -26 9 -41 9 -40 0 -35 12 18 39 63 34 175 140 224 213 49 74
75 154 61 191 -13 35 -59 75 -96 84 -26 6 -23 8 30 13 33 4 66 4 73 2 24 -8
32 -51 32 -163 0 -60 3 -109 8 -109 11 0 2 263 -10 277 -11 14 -112 15 -398 3z"/>
<path d="M772 1050 c-15 -14 -22 -33 -22 -55 0 -38 97 -485 107 -494 3 -3 3 6
-1 21 -3 15 -2 29 3 32 17 11 101 -32 102 -51 3 -76 19 -97 19 -26 0 56 -14
75 -71 94 -77 26 -71 45 29 90 54 25 62 32 62 56 l0 28 -22 -31 c-20 -28 -80
-62 -100 -56 -5 1 -8 -2 -8 -8 0 -5 -6 -10 -14 -10 -15 0 -34 52 -54 145 -42
194 -44 231 -11 256 22 16 49 18 303 19 154 0 282 3 285 5 2 3 -128 5 -290 5
-283 0 -296 -1 -317 -20z"/>
<path d="M1742 1030 c-6 -10 -36 -33 -66 -52 -30 -18 -57 -40 -59 -50 -3 -11
8 -6 37 16 23 18 56 38 73 45 17 7 33 21 36 32 7 26 -6 32 -21 9z"/>
<path d="M1808 998 c-36 -10 -45 -23 -53 -88 -1 -8 -5 -22 -8 -30 -3 -8 -8
-28 -11 -45 -6 -30 -37 -172 -52 -230 l-7 -30 24 20 c35 29 36 32 43 92 4 31
18 103 33 160 25 100 28 106 59 119 36 15 102 18 120 6 7 -4 14 -16 17 -27 4
-16 5 -14 6 7 2 41 -23 58 -82 57 -29 -1 -69 -5 -89 -11z"/>
<path d="M1270 968 c-10 -25 -50 -221 -46 -226 2 -1 16 2 31 8 20 7 31 7 41
-1 21 -17 -5 -37 -43 -32 -30 5 -32 3 -39 -33 -10 -52 -11 -280 -1 -290 4 -4
13 0 20 9 8 11 31 17 67 20 l55 3 -62 2 c-60 2 -63 3 -63 27 0 17 7 29 23 35
l22 9 -22 0 c-27 1 -31 18 -5 24 13 4 14 5 1 6 -13 1 -14 10 -5 79 l11 77 33
3 c24 2 32 8 32 23 0 10 4 19 8 19 15 0 102 -32 102 -37 0 -12 -36 -32 -57
-33 -13 0 -23 -5 -23 -11 0 -16 59 -3 82 18 21 19 23 46 6 60 -7 6 -31 13 -53
17 -100 17 -129 41 -105 87 7 11 13 44 15 73 2 28 5 57 7 65 6 24 -21 23 -32
-1z"/>
<path d="M1221 939 c-6 -18 -11 -45 -11 -61 0 -16 -4 -27 -9 -24 -4 3 -6 -10
-4 -30 3 -29 -2 -39 -29 -64 -33 -30 -31 -35 9 -24 17 5 23 16 28 53 4 25 13
75 21 110 16 70 13 91 -5 40z"/>
<path d="M1045 952 c-11 -8 -45 -66 -45 -77 0 -14 31 19 46 48 16 30 15 41 -1
29z"/>
<path d="M1677 928 c-39 -36 -58 -78 -34 -78 24 0 87 64 87 88 0 30 -10 28
-53 -10z"/>
<path d="M1088 933 c-19 -23 -36 -68 -44 -117 -3 -22 -10 -50 -15 -63 -5 -14
-9 -33 -9 -43 0 -17 3 -18 24 -9 19 9 25 21 30 65 3 29 16 79 27 110 22 59 15
90 -13 57z"/>
<path d="M1345 900 c-33 -22 -29 -26 10 -8 14 6 25 15 25 20 0 11 -1 11 -35
-12z"/>
<path d="M1950 886 c-11 -33 -49 -90 -87 -128 -9 -10 -12 -18 -6 -18 17 0 70
66 98 120 28 55 29 60 16 60 -5 0 -15 -15 -21 -34z"/>
<path d="M1440 890 c0 -5 -13 -10 -28 -10 -28 0 -112 -51 -112 -68 0 -12 23
-32 36 -32 7 0 15 8 18 18 8 23 57 52 90 52 21 0 26 5 26 25 0 16 -6 25 -15
25 -8 0 -15 -4 -15 -10z"/>
<path d="M2140 862 c0 -13 -4 -20 -10 -17 -12 7 -11 -66 1 -170 6 -59 7 -54 3
38 -2 67 0 107 6 107 6 0 10 7 10 15 0 8 5 15 11 15 8 0 9 -14 5 -42 -3 -24
-9 -72 -11 -108 -3 -36 -12 -95 -20 -131 -8 -37 -18 -113 -21 -168 -4 -56 -11
-104 -16 -107 -4 -3 -8 -2 -9 3 0 4 -2 16 -4 25 -2 10 1 20 6 24 5 3 9 20 8
37 -1 30 -1 31 -9 7 -5 -16 -8 6 -8 63 0 49 -3 91 -6 94 -5 5 -9 -157 -7 -282
0 -22 -2 -35 -5 -28 -4 9 -12 9 -32 1 -15 -6 -88 -11 -167 -11 l-140 1 140 -8
c81 -5 147 -4 157 1 24 13 40 11 33 -3 -4 -7 2 -3 13 10 11 12 22 28 25 35 3
9 8 9 20 -2 16 -12 17 -8 17 50 1 97 10 191 19 203 4 6 11 24 15 40 12 48 16
290 6 306 -5 8 -10 11 -10 5 0 -5 -5 -3 -10 5 -8 12 -10 10 -10 -8z"/>
<path d="M1012 848 c-14 -14 -16 -38 -3 -38 8 0 23 41 17 47 -1 1 -8 -3 -14
-9z"/>
<path d="M1692 808 c-6 -24 -16 -68 -23 -98 -6 -30 -22 -74 -36 -98 -27 -47
-26 -57 6 -47 14 4 21 15 21 31 0 14 11 75 25 136 14 61 23 113 21 115 -2 2
-8 -16 -14 -39z"/>
<path d="M998 794 c-5 -4 -8 -16 -8 -28 0 -14 3 -17 11 -9 6 6 9 19 7 28 -1 9
-6 13 -10 9z"/>
<path d="M1392 771 c57 -12 88 -37 88 -70 0 -38 -48 -79 -101 -87 -44 -7 -51
-21 -14 -30 24 -6 135 23 133 35 -1 3 4 18 12 33 28 59 -23 118 -108 124 -44
3 -45 3 -10 -5z"/>
<path d="M2093 730 c0 -30 2 -43 4 -27 2 15 2 39 0 55 -2 15 -4 2 -4 -28z"/>
<path d="M1814 707 c-38 -43 -37 -52 2 -17 21 19 41 36 43 38 2 1 -2 2 -11 2
-8 0 -23 -10 -34 -23z"/>
<path d="M1107 695 c-44 -13 -83 -27 -89 -33 -5 -5 -10 -68 -12 -141 -2 -117
0 -131 15 -131 25 0 30 23 23 115 -10 118 -5 131 58 150 28 8 58 15 65 15 17
0 17 -27 1 -33 -10 -4 -10 -6 0 -6 14 -1 17 7 26 57 3 17 2 32 -2 31 -4 -1
-42 -11 -85 -24z"/>
<path d="M2103 605 c0 -38 2 -53 4 -32 2 20 2 52 0 70 -2 17 -4 1 -4 -38z"/>
<path d="M930 629 c-30 -15 -48 -28 -40 -29 9 0 32 -8 52 -18 l36 -19 6 45 c3
25 5 46 4 48 -2 1 -28 -11 -58 -27z"/>
<path d="M1556 611 c-13 -15 -14 -21 -5 -27 9 -5 7 -10 -7 -15 -18 -7 -18 -8
1 -8 27 -1 39 10 43 36 4 29 -12 36 -32 14z"/>
<path d="M1418 543 c23 -2 59 -2 80 0 20 2 1 4 -43 4 -44 0 -61 -2 -37 -4z"/>
<path d="M1140 490 c0 -5 9 -10 20 -10 11 0 20 5 20 10 0 6 -9 10 -20 10 -11
0 -20 -4 -20 -10z"/>
<path d="M2030 397 c0 -50 -3 -57 -19 -57 -11 0 -22 8 -24 18 -4 13 -5 14 -6
1 -2 -27 -155 -53 -163 -28 -2 6 -11 7 -23 3 -16 -7 -14 -9 16 -21 31 -12 28
-13 -41 -6 -41 4 -122 6 -180 5 -116 -3 -595 14 -650 23 -32 5 -33 5 -10 -5
14 -6 104 -15 200 -19 96 -4 150 -9 120 -11 -45 -3 -37 -4 45 -11 55 -4 161
-3 235 2 169 11 213 11 185 -1 -14 -6 1 -9 50 -10 56 -1 64 -3 41 -10 -16 -5
-90 -5 -173 1 -79 6 -152 9 -161 6 -9 -2 37 -8 103 -12 188 -14 309 -10 301
11 -5 13 88 29 104 19 6 -3 15 -3 21 1 8 5 8 9 -1 14 -10 6 -63 0 -127 -15
-13 -3 -23 -2 -23 3 0 10 167 38 175 30 22 -22 -54 -66 -95 -55 -10 3 -21 0
-23 -7 -6 -14 95 -16 106 -1 4 6 10 5 16 -4 10 -16 10 -14 10 109 0 41 -2 77
-5 79 -2 2 -4 -21 -4 -52z"/>
<path d="M1570 430 c149 -4 195 -7 167 -14 -21 -4 -36 -11 -33 -14 3 -2 34 1
68 9 l63 13 -40 8 c-22 4 -128 6 -235 5 l-195 -1 205 -6z"/>
<path d="M1378 413 c12 -2 30 -2 40 0 9 3 -1 5 -23 4 -22 0 -30 -2 -17 -4z"/>
<path d="M1937 388 c8 -44 13 -48 13 -10 0 17 -4 34 -10 37 -6 4 -7 -6 -3 -27z"/>
<path d="M1478 403 c18 -2 45 -2 60 0 15 2 0 4 -33 4 -33 0 -45 -2 -27 -4z"/>
<path d="M1598 393 c17 -2 47 -2 65 0 17 2 3 4 -33 4 -36 0 -50 -2 -32 -4z"/>
<path d="M1858 393 c12 -2 30 -2 40 0 9 3 -1 5 -23 4 -22 0 -30 -2 -17 -4z"/>
<path d="M1188 381 c-80 -3 -149 -9 -153 -12 -6 -7 202 -1 390 11 l120 7 -105
0 c-58 0 -171 -3 -252 -6z"/>
<path d="M1675 378 c-44 -4 -171 -11 -282 -15 -142 -6 -206 -12 -215 -21 -10
-10 -6 -10 21 -1 31 11 87 10 281 -5 42 -3 45 -2 15 3 -57 10 161 27 274 22
58 -2 82 0 77 7 -4 6 -14 8 -23 5 -11 -4 -14 -3 -9 5 8 14 -13 14 -139 0z"/>
<path d="M920 360 c-12 -8 -11 -10 5 -9 11 1 34 5 50 9 l30 8 -35 1 c-19 0
-42 -4 -50 -9z"/>
<path d="M1668 333 c12 -2 32 -2 45 0 12 2 2 4 -23 4 -25 0 -35 -2 -22 -4z"/>
<path d="M907 303 c-2 -4 -1 -28 3 -53 l7 -45 2 38 c1 36 2 37 39 37 20 0 32
-4 25 -8 -6 -4 55 -6 135 -4 230 4 252 8 62 12 -119 2 -162 5 -135 11 27 5 16
6 -33 2 -47 -3 -77 -1 -86 6 -8 7 -16 8 -19 4z"/>
<path d="M1035 249 c17 -4 57 -8 90 -9 64 -3 54 -5 -68 -15 -43 -4 -76 -9 -73
-12 4 -5 205 12 271 23 26 4 27 3 10 -6 -17 -9 -16 -9 5 -3 14 4 56 7 95 6 42
0 62 3 50 7 -12 4 -108 9 -215 11 -107 2 -181 1 -165 -2z"/>
<path d="M1558 233 c23 -2 59 -2 80 0 20 2 1 4 -43 4 -44 0 -61 -2 -37 -4z"/>
<path d="M390 875 c0 -2 29 -22 65 -45 83 -52 142 -112 150 -153 4 -18 10 -36
13 -41 8 -14 21 23 21 59 0 25 -2 27 -8 10 -8 -19 -8 -19 -16 4 -5 18 -3 28
11 38 17 12 15 13 -11 8 -25 -5 -38 2 -80 41 -45 42 -47 45 -17 30 53 -27 48
-12 -5 16 -41 22 -123 44 -123 33z"/>
<path d="M300 820 c0 -12 50 -36 106 -50 49 -12 65 -29 95 -100 23 -56 40 -84
35 -59 -1 8 -16 44 -34 82 -24 52 -38 71 -62 80 -17 8 -27 16 -24 20 13 12 60
-22 92 -67 34 -48 51 -61 32 -26 -26 49 -86 98 -139 114 -62 18 -101 21 -101
6z"/>
<path d="M268 734 c-32 -17 -50 -46 -42 -67 7 -19 37 -27 89 -26 41 1 37 3
-27 14 -28 4 -38 11 -38 24 0 22 23 44 35 33 5 -4 5 -2 1 5 -8 14 54 29 79 19
8 -3 15 -1 15 4 0 15 -82 11 -112 -6z"/>
<path d="M426 664 c21 -14 45 -33 52 -42 7 -9 12 -11 12 -4 0 13 -76 72 -93
72 -5 0 8 -12 29 -26z"/>
<path d="M572 655 c9 -11 18 -31 21 -45 l4 -25 2 26 c0 16 -8 33 -21 45 -23
19 -23 19 -6 -1z"/>
<path d="M746 514 c-3 -9 -4 -19 -1 -22 3 -3 5 1 5 9 0 11 2 11 10 -1 5 -8 10
-10 10 -5 0 6 -4 16 -9 23 -6 11 -10 10 -15 -4z"/>
<path d="M647 451 c4 -16 1 -21 -14 -21 -10 0 -32 -12 -49 -27 -32 -30 -114
-135 -114 -147 0 -4 16 14 36 41 56 74 106 123 126 123 22 0 35 27 20 42 -8 8
-9 5 -5 -11z"/>
<path d="M660 201 c0 -6 5 -13 12 -17 6 -4 8 -3 4 4 -4 7 6 12 26 15 33 4 33
4 -4 5 -21 1 -38 -2 -38 -7z"/>
<path d="M180 545 c-13 -35 -22 -132 -11 -115 6 8 13 33 17 56 3 22 9 46 12
52 12 18 162 18 200 0 36 -18 45 -6 10 14 -14 7 -64 12 -122 12 -90 1 -99 -1
-106 -19z"/>
<path d="M180 304 c0 -2 27 -17 60 -32 33 -16 60 -25 60 -21 0 5 -8 13 -18 18
-25 13 -102 40 -102 35z"/>
<path d="M910 118 c0 -4 13 -8 29 -8 15 0 50 -3 77 -6 27 -4 46 -3 42 1 -10
11 -148 23 -148 13z"/>
<path d="M1340 107 c3 -3 123 -8 268 -11 144 -4 285 -11 313 -17 32 -7 72 -8
107 -3 l57 9 -90 8 c-101 9 -662 21 -655 14z"/>
</g>
</svg>
