<svg xmlns="http://www.w3.org/2000/svg" width="400" height="421.3" version="1.0" viewBox="0 0 300 316"><path d="M125 4c-17 7-26 19-32 44l-7 32c-3 27-3 32 7 42 7 7 7 9-1 11-22 7-35 18-39 33-4 13-7 19-14 26-4 5-5 8-6 12l-3 8-7 12-7 14c-5 7-6 10-9 25-4 21-3 26 6 28l21 9c6 4 10 5 15 5l8 2 5 1 7 3 9 2 16 2h40l8-1h6a485 485 0 0 1 82-1c14-2 18-3 26-6l9-4c5 0 16-6 21-10 14-14 14-18 1-44a270 270 0 0 1-23-53l-4-10c-8-23-17-35-36-43l-12-6-21-9c-4 0-3-4 2-10 9-11 13-29 7-40l-2-12-3-15-2-10c0-9-3-13-19-26-17-14-33-17-49-11zm32 2c2 0 4 2 5 3l2 2 5 3c3 2 5 5 5 6-1 2 6 6 8 5l1 1v1c3 0 6 5 7 11s0 7-1 5l-3-2 2 4 5 6c0 1-16-15-16-17l3 1 5 4 2 1-2-5-5-6-10-12-6-5-4-2c-3-2-4-3-5-2v1c1-1 2 0 3 1l4 3-4-2c-17-6-24-6-36 1l-8 4c-1 0-2 0-1 1l-1 3-10 21 4-5c5-7 4-3-2 10l-8 18c-3 10-7 16-7 12s3-13 5-16c3-4 6-12 6-13-1 0-2 1-2 3-3 5-5 7-5 5 0-3 3-10 7-17 6-9 7-10 3-6-6 8-6 8-5 5 3-12 13-24 25-30l7-4 12 1 15 2zm-30 8-3 2c-2 0-2 0-1-2 3-2 6-2 4 0zm39 6 4 6 2 6c3 4 4 7 4 12l1 6c0 2 0 2-3 0-6-2-6-1 3 5s14 10 12 10l-10-7c-3-2-5-3-7-2-1 1-1 1 1 2 5 2 23 17 25 21 4 8 3 21-1 30-3 6-3 5-1-3l2-9c0-2 0-2-1 1-4 17-18 42-34 61-5 7-9 16-10 23v7h-6l-9 1c-2 1-2 1-2-3l-1-7-1-2 1 2 2 3v-3c0-6-5-18-12-30-4-7-7-10-14-15-22-17-28-28-24-44 3-11 17-39 23-46l2-2-1 3-12 25c-9 20-10 23-10 28 0 6 4 17 9 21 4 4 5 4 1-1l-3-4 3 4 3 4 9 7c12 6 29 27 31 39 1 4 4 4 6-1l2-5 1-1c2 1 30-31 34-37 5-10 11-32 11-37l-7-15-1 1c2 2 0 1-4-1l-6-5c-1-2-1-2 1-1l4 3-7-6c-5-3-9-7-10-9l-7-5-7-4h-2c-1 1 0 3 3 5l10 9 6 5-6-2c-13-5-14-5-32-5-17 1-18 1-13-2 6-2 9-6 8-8-3-5 2-8 11-6l14 2 12 1c11 5 16 1 7-5l-11-7c-11-8-14-9-19-9-4 1-5 1-5-1l-1-2-1-1c-1-2 0-2 7-1 8 0 11 2 12 6l5 3c8 1 8 0 2-7l-6-7c0-2 10 3 13 6zm-43 0 4 3c7 2 7 2 2 4l-4 1 5-1c8-1 7 3-2 6-10 3-12 7-8 13 3 5 3 5-2 7l-9 7c-5 5-4 2 2-6 2-3 2-6 3-11 0-9 1-14 2-15l1-3c0-3 2-6 4-6l2 1zm24 8c4 1 5 2 5 3l1 4c3 2 3 6 0 5l-1 1c1 1-1 1-12-2h-14l8-4 2-2 1-2v-2c0-2 1-2 10-1zm40 21 7 11c2 7 1 7-4 0l-6-8c-2-2-5-6-5-8s2-1 8 5zm-38 14c2 0 2 0 2 2h1c1-1 2 0 4 1l3 2 1 1c-1 1 0 2 1 3s1 1 0 0c-1-2-1-2 1-2 1-1 2 0 2 1l1 1 3 1 2 1h1l2 1 1 1 2 2h1l2 2 2 3c1-1 1-1 1 12 1 11 0 16-3 20-2 1-2 2-1 2v2l-1 3c-1 2-3 6-6 8l-4 4-2 4-6 4c-1 1-1 1 1 1l2 1h-4c-2 0-2 0-1 1 1 2 1 2-1 3-2 0-3 1-2 2l-3 3h-6c1-1 1-1 0 0-2 3-3 2-3 0l-1-2c-2 0-3-3-2-5l1-3-2 2-1 2v-1l-1-2-4-8c0-3-2-6-2-4v1l1 1c-1 0-5-3-5-5h-2l-1-1-1-2-2-2-1-1h-2l-2-2-3-2c-1-2-2-3-3-2v-1c1-1 1-2-1-3-2 0-3-1-3-2l-1-4-2-3-1-4v-1l1-2h-1c-1 1-1 1-1-1l5-10v-3l1-4h1l1 1v-1l1-1 1-2 2-5 2-4 1-1 3-1h2l1-1h12c-1-1 3-2 9-1h7zm-46 8-3 5-2 2 2-3 5-7-2 3zm90 21v5l-1-6-3-9c-2-4-1-4 1 0l3 10zm-101 8v3l-1-5c0-6 1-5 1 2zm105 32 12 5c8 6 8 5 16 8l10 6 2 2-12-4-3-2-5-2-11-6c-6-4-8-5-13-6-9-1-8 2 3 7 7 3 9 5 7 5l-5-2c-6-3-11-4-14-3-4 1-4 1-1-6 3-5 4-6 5-5l9 3zm-111 7-6 2 11-5-5 3zm19-1 4 1-6 1-8 2-7 1c-3 0-19 7-21 9l-4 2-2 1h3l1 1-3 1v1c2 0 0 2-3 2-2 0-2 0 0-1v-1c-4 0 11-13 18-15l12-4c10-3 11-4 16-1zm8 12a1520 1520 0 0 1 12 24c1 3 2 15 0 14l-1-3-1-3-1 1c1 3 0 5-2 5l-1-4c-2-6-2-7-2-2 0 9-4 3-4-7v-4l-1 4v6c2 4 1 5-2 5s-6-2-6-4c0-1 1-1 3 1l3 2c2 0 0-2-3-4l-4-2h3l3 1-3-2c-3-1-5-5-2-5l1 1c2 2 3 1 3-2l-4-5c-3-3-4-6-1-5v-1h1l3 2c2 3 9 1 9-3h-4c-3 0-4 0-5-3-4-7-7-7-11 0-4 10-10 11-10 2 0-6-1-7-7-3-5 3-6 3-5 11v3l-1-3c-1-2-1-3-5-2-4 0-5 0-4-1 0-2 4-3 6-1s1-1-1-3c-1-3-2-5 0-3 1 1 2 0 3-1s4-2 6-1l3-2c2-3 5-4 9-4l2-2 3-1 4-2c7-4 10-3 14 6zm75-7c3 0 6 0 10 2 7 2 11 5 5 4-7-2-18-2-21-1-3 2-3 2-3 0-1-1-1-1-1 1l-2 4c-2 3-2 5 1 3h1l1-1 4-1 5-1h2c0 2 13 0 15-2h1l1 1c1-1 10 5 14 7v4c-1 2-1 4 1 7 0 2 0 2-2 2s-3 0-3 2v-2c0-4 0-5-1-4l-1 7v5l-1 1c0 3 2 2 3-1 1-1 1 1 1 5 0 5 0 6 1 3l1-1c0 4-1 7-3 7l-1-5 1-6-1 5c-1 3-4 6-4 3h-1c-2 0-2-1-2-2l1-3v-2l1-10-1-10c-1 1-2 0-2-2l-1-3-1 3v16c0 8 0 12-1 10l-1-3v5l-1-2c-1-2-1-2-1 0s0 2-4 1c-5 0-6-1-5-4 0-2 0-2-1-1s-1 1-2-1c-2-3-1-5 1-3 1 2 1 2 1-1l-2-15c-1-3-2-3-2 1l-1 23-6-2c-4-1-6-2-8-1h-2l-1 1-3 1a117 117 0 0 1 7-36c-1-2 6-9 8-8h6zm31 6 9 4c1-1 3 0 5 1l6 3c3 0 6 3 8 7l3 6c3 2 8 14 8 16s-4-5-9-14c-6-12-8-13-14-11-8 3-7 8 0 7 5 0 9 2 9 6 2 6 4 10 6 11s4 3 4 5l2 4 3 13 3 13c1 1 2 3 1 4 0 1 2 7 3 6l1 1c0 3-3 0-4-3l-2-3c-2 0-2 0 0 3l-1 2-4-9 1 6c0 2 0 2-1 1-1-2-2-2-2-1v-1l-1-2v-3l-1-2c4-11 3-28-1-28-2 0-6 6-8 12-2 4-4 4-7 0s-3-6-1-9c4-5 5-6 3-6-3 1-2 0 1-5 3-7 3-11 0-11-2 0-3 1-6 5-2 2-3 2-5 2-3-1-3-1-2 1s2 2 3 2l1 2 1 1v1l-1 3v3c1 2 1 3-2 5l-3 4-1-1v-1c1 1 3-2 1-3h-2c-2 3-1-11 1-16l2-10v-4l-1 4c-2 4-2 3-1-2l2-3 2-2 5-5 3-1-4-2-4-2c-2 2-10-1-15-5-6-4-5-4 6 1zm-81 3h2l1 1 1 5c2 0 3 4 1 4v-1l-1-1-5-6c-4-7-5-10-2-6l3 4zm13 3c0 2-3 5-4 5-2 0-1-3 1-5h3zm-89 7c0 1-2 4-5 4-2 1-2 1-1-2s6-4 6-2zm17 3 1 10c3 13 3 12 0 12-2 0-3-1-3-4l-1-11c-1-7-1-8 1-9 2-2 3-1 2 2zm3 6v5l-1-4v-7c1-6 2 0 1 6zm18 0 1 6v8c-2 2-7 0-7-3 0-2 0-2-1-1v4c0 1-2 2-3 1l-2-5c-1-3-1-3-1 2v5c-2 0-4-13-3-18l1-3c0 4 13 0 13-4 0-3 2 3 2 8zm66 2c-1 15-5 22-5 9l-1-8c-1-3 0-5 4-11 1-3 2 1 2 10zm-101-3c-5 6-5 7-5 5l1-4 3-3 3-1 1-1-3 4zm-8 4c-3 9-3 11-9 16-7 7-11 8-5 1 4-4 6-7 9-15 2-5 6-10 7-9l-2 7zm18 11-6 3c-2-1-2-11 1-17l2-4 1 9 2 9zm32-13c0 2-1 1-4-1-3-3-3-5 1-2l3 3zm23-3c2 4 2 21 0 21s-2-2-4-16c0-7 1-10 4-5zm29 8c-2 11-2 13-3 10s1-15 3-15v5zm63 1c-1 4-2 4-2 2 0-4 1-6 2-6v4zM67 190l-5-2c-5-2-5-2-4-6l1-3 4 5 4 6zm197 9 7 18c2 8 15 36 16 37 4 3 9 22 7 26-1 2-1 2-1-4-1-6-7-20-15-32-7-10-7-11-10-24a121 121 0 0 0-12-32c0-3 3 2 8 11zm-206 0 5 11c0 1-4 1-5-1l-4-2c-5 0-7-1-5-3v-2l1-1 1-2 2-7 3-4v4l2 7zm69-4c12 1 24 0 36-2h19c15 1 15 1-6 2l-14 1h15c30-1 41 1 43 7a289 289 0 0 1-1 45l2-3 1-2 1 2c-1 1 0 2 1 2l1 1c0 2 9 8 14 10 4 2 4 2-4 4l-9 5c-4 3-5 3-8 1-2-1-2-1-2 3l-2 5c-1 0 0-7 2-13 1-5 3-33 1-29l-2 10v8l-1-9v-9l1-2 1-1 1-1-1-1-2 2h-1l-1 16c1 17-1 39-2 39v-6c0-5 0-6-1-4s-1 1-1-3v-9c-1-4-2 13-1 24 0 4 0 5-1 4h-1l1 1c1 1 1 0 2-2s2-3 4-1c1 1 1 0 1-6 0-5 0-6 1-4 1 4 0 13-2 15s-6 2-21 1l-16-1c-2 2-19 1-24 0-5-2-7-2-15 0-6 1-13 2-29 2-22 0-22 0-20-7l-1-7-3-10-4-12c-4-9-5-14-5-17a1017 1017 0 0 1-7-31v-4c0-4 0-4-1-2-1 3-1 3-1-2 0-8 3-10 11-10l11-2c5-1 20-1 40 2zm-85 3h3c2 2-3 9-7 11l-5 4c-2 3-5 5-5 4l4-4c2-3 3-4 3-8l1-6c1-2 6-3 6-1zm192 8c1 2 6 2 9-1 6-3 6-2 1 2l-9 8c-7 7-10 5-7-5 3-9 4-10 6-4zm-179 9c10 10 9 10-5 4l-10-3v-2l2-1 3-3c2-3 3-3 10 5zm196-1-1 8-1 7c0 3 2 5 7 5l5 3 5 1c3-1 4 0 5 2s1 3-3 3c-3 0-4 0-3-1 1-2 1-2-1-2l-12 1-10 1-3-3-4-3-1-2 1-2c0-3 15-23 16-22v4zm-8 2c-2 4-4 6-4 4l1-2v-1l2-3c3-2 3-1 1 2zm-7 4c-1 3-1 4 1 3v1l-2 2c-1-1-1-1 0 0v3c-1 1-1 1-1-1v-8l1-2 1-2v4zm-206 3-9 18c-5 6-6 8-6 13l-4 14-3 12c-1 5-2 6-3 3l2-11 3-18c2-7 4-11 10-19l5-9c2-8 7-11 5-3zm20 3 11 8c2 1 2 5 1 6-3 2-5 1-4-2 0-3-6-7-13-9-8-2-9-2-9-7 0-6 3-5 14 4zm180-5c-1 2-3 2-4 0 0-1 0-2 2-1l2 1zm-165 8c2 6 0 7-3 3s-4-6-1-7c2-1 3-1 4 4zm166-1v6l1 3 1 1c-1 1 0 3 1 4 2 1 2 1 1-1l1 1c2 3 0 5-1 2l-6-6c-1 0-2-1-2-4s0-3 1-2l1 3v1-7h-2l-2-1c0-1 1-2 3-1s2 1 3-1l1-1-1 3zm-185 6c11 7 14 11 16 19l2 7c1 2 1 2-3 2s-6-1-4-3l1 1 4-1-1-1-1-3-2-5c-2-2-2-2-1 1l2 4v3l-3-3-4-5c-1-3 0-4 1-2l2 1c2-3-10-14-18-16-5-1-5-1-3-4s1-3 12 5zm-10 4 10 5 4 6 1 3-3-3-3-4 3 5 2 4-4-3-7-5c-3 0-3-2 0-2l2-1c0-2-11-3-14-1-2 1-2 1 1-3 2-3 3-4 4-2l4 1zm31 4 1 2v3l-2 2v-1c1-2-1-6-2-5l-1-1 1-4c0-2 1-1 1 1l2 3zm193 2 6 3 1 1h-2l-1 1c1 2-8 5-12 5-5 0-8-7-5-10h13zm-221 4c5 2 9 5 10 8 1 2 0 2-2 0s-4-3-5-2l-1-1c1-1-1-3-6-5l-2-2 6 2zm237 1 2 4v5c-1 1-1 1 2 2l7 7c3 5 3 6 0 3-5-5-27-5-36 0h-3l-5-2-3-1c-1-1 9-4 11-4 1 1 4 0 7-1 6-2 14-1 16 2 1 1 1 1 1-1-1-4-2-5-6-5-4 1-7 0-7-3l5-1c2 0 4 0 3-1-2 0-2-2 1-2l2-2c1-1 3-2 3 0zm-243 5h-6c-7 0-10-1-5-2 2-1 10 1 11 2zm10 4 5 3 3 2 2 3-3 1c-3 1-5 3-8 8-4 5-5 6-5 4h-3v1l1 3-1 1c-1 0-2 1-2 3v3l-2-2-2-3-1-1-3-1-2-1-1-1c-2-3 2-14 6-15l9-2 7-1c0-2-6-4-10-4-5 1-15 0-14-2l15-2c4 0 5 0 9 3zm218-1c-1 2-5 3-7 1-1-1-1-2 1-2 4-1 6-1 6 1zm-192 7 2 2 1-2v-2l4 12c-2 1-10-1-10-3-1-2-9-6-10-5l3 2c5 1 8 5 4 5-5 0-17 15-17 22 0 4-1 4-3 0v-1c0 1 0 2-2 1l-1-1-1-1c-9 1 3-21 13-25l4-3v-2l2 1 1 1h3l2 1c3 3 5-2 3-5-1-1-1-1 0 0l2 3zm-53 4-1 5-1 8c0 5 0 7-1 6-2-2-1-8 1-16s4-10 2-3zm233 6c8 5 12 20 7 25-2 3-3 1-1-2l1-6c0-2 0-2-1-1l-2 6-1 4c0 1-1 2-8 2l-1 1-4 2-5 2-3 1c-2 0-1-1 3-6 6-5 6-6 7-10 0-5-3-14-4-11l1 4c2 3 1 7-1 7l-7-1-6-2-2 1c0 1 0 2-1 1v-3l2-3v-1c-2 1-2 1-3-2-2-4-2-5 0-2v-1c0-2 0-3 1-2l4 1v3l2-3 9 1h1c4-3 6 19 3 23-2 2-2 2 0 1l3-3 2-4-1 4c0 2 0 2 1 1 1-2 0-6-1-6l-1-6c-1-7-4-12-7-11v-3l-1-3 1-2c4-1 7-1 13 4zm23-3 3 1 6 2 2 3-3-3h-2l2 4c2 2 1 7-1 5l-3 2c0 2-2 3-2 2l-3 2-2 3c0-1-2 0-3 2-4 3-6 2-4-1l-1-2c-1 0-2-1-2-5l-2-7-1-4h-1l-3-2 8-1 8-1h4zm-196 7c3 1 6 7 4 8l1 2c1 0 1 1-1 1l-1 4-3-3-4-5h-4l4 5c5 6 5 6-4 5l-8 1h-1l-5-1c-3 0-4 0-4-2 0-3-1-2-2 2-1 3-1 3-1-1 1-4 10-17 13-18s13 0 16 2zm-46 15v2l-13-7c0-2 12 3 13 5zm255-3-3 4h-2l-2 2c-2 1-1 0 1-3 4-4 6-5 6-3zm-55 4 5-1c3 0 4 2 1 5h-1v-2l-2 1c0 2-2 3-2 0l1-1h1c0-2-2-2-3 1s-3 1-3-2c0-2 0-2 1-1h2zm-12 2-1 3c0 2-9 6-13 6-2 0-2 0-1 1s-1 1-6 1l-34-1-28-1 28 2a1874 1874 0 0 1 44 0v-1l6-1c4-2 4-2 3 1-2 4-5 4-69 5H84l-2-2-1-6 1-3h14c15 0 32 1 24 2-18 1-2 2 35 1 49 0 61-2 61-8l1-1 1 2zm8 1 1 1-3 2-3 2v-3c1-4 2-6 3-3l2 1zm-154 0 4 2c1 0 1 1 0 0-4-1-10 0-7 2l1 2c0 1-1 1-2-1-1-3 0-6 2-6l2 1z"/><path d="M147 147v3-1l1-1 1 2 1 1 2-2c-1-1-2-3-2-1h-1v-3l-2 2zm57 9v23l1-12a187 187 0 0 0-1-11zM72 203l2 8c0-6 2-6 37-5l57-1c47-2 46-2 46 4 0 5 1 5 2 0 2-9-1-10-29-8l-52 1c-40 0-54 1-58 3-4 3-4 3-4-3l-1-4v5zm-3 2-1 4c2 1 2-1 2-4l-1-4v4z"/><path d="M170 209c-13 0-17 1-11 2l5 2c0 1-3 8-5 8v3c1 1 13-6 16-10 2-2 3-2 4-1h4c12-4 20 3 17 14-3 10-20 28-29 32-2 0-3 2-3 2 0 1-2 2-8 2l-12 1c-5 2-24 3-24 1l4-2c3-1 3-1 0-1-3 1-3 1-2-9 0-5 0-5 4-5l4-2c0-1 3-2 4 0l-2 2c-3 3 0 4 4 3 7-3 6-8-1-9-12-2-15-7-8-14 2-2 0-12-1-12-3 0-5 7-7 20l-1 6h3l4 1-3 1c-5 0-5 2-5 21v13h-7l-9 1c-5 2 61-2 70-4l8-1c4-1-10-2-26-2h-20l20 1c20 1 20 1 15 2h-20a1308 1308 0 0 0-28-5v-2h20-5l5-1 14-1h14l6-1-2-1c-3 0-3-1 0-3 8-4 22-18 27-28l3-6 1 6v8h1c1-1 1 0 1 5v5l1 6v-3l-1-27c0-13 0-17-2-18h-37zm-20 67c6 1 6 1-4 1l-17 1h-6l1-2c1-2 2-2 26 0zm-73-65c-2 2-2 3-2 7l9 40c0 2 2 3 4 5 4 1 4 2 4 5 0 4 3 6 5 3 4-4 0-11-7-13-7-1-5-4 4-8l5-4 4-15h-1c-3 2-2-1 1-4 3-4 4-10 2-10l1-1 3-1h-3l-3 1c0 2 0 3-2 4l-2 1v1c-2 1-2 3-3 9 0 8-1 11-3 10h-1c1 2-1 4-4 4l-2-2-2-2-1-1-1-4c-2-6-2-17 0-20 2-2 6-3 4-1h1l8-1 9-2v1c-1 1-1 1 2 1 2 0 2 0 1-1s-1-1 1-1h2c0-4-29-5-33-1z"/><path d="M120 211v1c2 0 3 2 1 3l-2 1h1v2c-2 3-2 8-1 7l-2 6-2 7-2 2c-2 1 1 3 4 2 3 0 3-1 4-5a227 227 0 0 1 4-23c3-3-1-5-5-3zm60 5-3 4-9 37c3 2 8-7 8-12l6-24c3-2 12-3 12 0l-7 13-1 2-3 4-4 8 11-11 1-2c5-2 8-15 6-18-3-2-12-3-17-1zm-71 5c-1 2-4 9-5 16-3 10-3 10 1 9 3-2 4-4 3-6l3-9c3-9 2-14-2-10zm31 0-3 1c-2 0-6 4-4 4 2 1 5 0 5-1h1l1-1 2-1 1-1-1-1h-2zm27 3-4 5-1 1v2l4 1c2-1 2 2 0 3l-2 4c0 4-2 10-4 10v2h2c2-3 2 1 1 4-2 3-1 4 1 3 1 0 2-1 2-3l2-12 1-11c-1-2-1-3 1-5s4-8 2-8l-5 4zm-23 3-3 1c-5 0-13 7-10 9l6 1c0-2 5-6 7-6 4 0 5-2 4-5-1-2-4-3-4 0zm-5 11 2 1c12 3 7 16-6 16-3 0-3 2 0 3 3 2 16-2 17-5v-3c2-8-7-16-13-12zm-28 9-9 3c-2 2-2 27 0 28 3 0 4-5 3-14 0-11 1-12 8-13 5 0 5-1 6-3 1-4 2-4-8-1zm-18 6-4 3 5 2 4 2v-5c1-5 2-5-5-2z"/><path d="m155 252-2 7c-1 1 0 1 2 1 6-1 6-9 1-9l-1 1zm-40 5v1l-1 2v2c1 2 0 5-1 5v1c1 2 5 0 4-2v-9l-1-1h-1zm20 5h21l-9-1-12 1zm67 7c2 4 2 13-1 13l-2-2h-1c0 3-15 5-16 3h-2c-2 0-2 0 1 2h-19a1319 1319 0 0 1-71-3l35 5c8 1 7 1-7 1l-13-1h-4l-9-1c-2-2-3 0-2 4l1 4v-3c0-3 0-3 2-2l1 1c-1-2 0-2 1-2 2 0 2 0 1 1s-1 1 2 1a632 632 0 0 1 88-1h1l2-1c1-1 1-1 1 1-1 1 0 1 5 2l5-1 1-1v1l1 1 1-11c0-8-1-13-3-14v3zm-30 18c-2 1 0 1 5 1s6 0 4 1h-15l-16-1 18-2c4 0 5 0 4 1zm27 0v1h-2l-2 1c-3 0-4-1-2-2h6z"/><path d="M171 278a489 489 0 0 1-53 4h33c-6-1 7-2 23-2 9 0 11 0 10-2l3-1h5c1-1-6-1-21 1zm-79 2h6c2-1 2-1-1-1l-5 1zm9 11 9 1c8 1 8 1 3 1l-11 1 21-1a262 262 0 0 1 18-1l-40-1zm56 2h6c1-1 0-1-3-1-4 0-5 1-3 1zm45 0h-14c-16 0-15 1 1 1 10 1 16 0 14-1h-1zM92 304l8 1h5l-13-1z"/></svg>