<?xml version="1.0" standalone="no"?>
<!DOCTYPE svg PUBLIC "-//W3C//DTD SVG 20010904//EN"
 "http://www.w3.org/TR/2001/REC-SVG-20010904/DTD/svg10.dtd">
<svg version="1.0" xmlns="http://www.w3.org/2000/svg"
 width="300.000000pt" height="316.000000pt" viewBox="0 0 300.000000 316.000000"
 preserveAspectRatio="xMidYMid meet">
<metadata>
Created by potrace 1.10, written by Peter Selinger 2001-2011
</metadata>
<g transform="translate(0.000000,316.000000) scale(0.050000,-0.050000)"
fill="#000000" stroke="none">
<path d="M2497 6232 c-345 -141 -521 -380 -637 -863 -97 -406 -101 -426 -133
-659 -72 -538 -57 -633 134 -821 142 -140 138 -190 -21 -237 -435 -131 -695
-348 -789 -659 -75 -247 -135 -366 -261 -515 -82 -96 -114 -153 -130 -229 -12
-55 -40 -131 -64 -170 -24 -38 -81 -146 -127 -241 -47 -95 -117 -217 -157
-272 -100 -140 -121 -199 -180 -508 -81 -422 -59 -522 122 -567 57 -15 118
-41 416 -180 131 -62 218 -89 319 -99 77 -8 149 -21 160 -31 12 -9 51 -23 89
-31 37 -8 104 -31 150 -52 45 -20 123 -37 172 -38 50 0 192 -14 316 -30 184
-24 271 -26 466 -8 180 16 246 16 267 -2 22 -17 39 -17 73 1 28 15 83 19 150
11 75 -8 113 -4 132 15 33 33 1259 30 1384 -3 57 -16 126 -14 260 6 276 42
353 63 514 139 81 39 159 71 174 71 98 0 332 112 422 202 287 285 288 348 14
882 -105 205 -218 455 -251 555 -70 217 -155 435 -191 493 -15 23 -51 113 -80
200 -161 474 -350 700 -720 861 -77 34 -187 93 -245 131 -95 64 -290 138 -432
167 -75 14 -60 83 45 209 191 227 257 584 147 795 -23 45 -44 139 -52 236 -7
88 -31 225 -53 305 -22 79 -40 172 -40 206 0 178 -63 265 -377 518 -336 271
-669 343 -986 212z m647 -25 c30 -15 73 -47 95 -71 23 -24 41 -37 41 -28 0 9
44 -21 98 -66 59 -50 96 -96 93 -117 -6 -41 137 -135 172 -113 14 9 18 5 9 -9
-8 -13 -7 -23 2 -24 68 -3 135 -103 146 -218 11 -112 0 -149 -30 -101 -7 11
-32 30 -56 42 -24 13 0 -22 53 -78 54 -55 94 -110 90 -123 -7 -21 -317 301
-317 330 0 7 23 -1 50 -19 28 -17 74 -47 102 -66 l52 -34 -50 100 c-28 54 -72
111 -100 126 -43 23 -204 212 -204 241 -1 13 -110 123 -110 110 0 -5 -36 13
-79 40 -58 37 -83 44 -93 26 -8 -14 -8 -19 0 -12 9 8 31 -1 50 -20 20 -18 53
-44 74 -57 21 -13 -16 -2 -82 24 -339 135 -478 133 -717 -11 -72 -43 -145 -79
-163 -79 -18 0 -26 -10 -19 -21 7 -12 -1 -37 -17 -55 -38 -42 -199 -406 -186
-419 5 -5 37 35 70 88 93 147 74 71 -45 -189 -60 -129 -127 -292 -151 -364
-68 -202 -140 -329 -141 -249 -1 84 55 267 102 333 50 70 123 236 110 249 -5
6 -25 -22 -43 -60 -41 -87 -90 -134 -90 -86 0 56 64 199 149 333 110 173 125
204 57 121 -128 -156 -130 -157 -116 -101 60 237 263 479 507 605 l146 74 244
-12 c141 -7 266 -24 297 -40z m-604 -177 c-14 -16 -44 -30 -67 -29 -42 0 -42
1 -4 30 54 40 105 40 71 -1z m772 -104 c35 -35 71 -93 79 -130 8 -36 31 -90
51 -118 50 -72 74 -139 87 -247 6 -51 12 -98 13 -106 6 -38 -7 -41 -71 -14
-113 47 -104 35 62 -84 182 -130 277 -207 255 -207 -19 0 -162 96 -215 143
-47 42 -101 57 -135 36 -21 -13 -18 -20 13 -31 102 -38 464 -342 509 -429 79
-152 66 -412 -29 -596 -60 -114 -61 -108 -11 57 22 72 39 153 38 180 -2 46 -3
45 -17 -10 -88 -359 -355 -848 -676 -1239 -109 -134 -191 -318 -200 -453 l-10
-137 -125 1 c-69 1 -143 -8 -165 -19 -38 -21 -42 -16 -51 62 -5 47 -15 108
-23 135 l-14 50 31 -50 31 -50 0 47 c2 131 -92 368 -235 595 -89 141 -146 203
-278 304 -443 339 -562 559 -478 885 56 212 336 784 451 920 l41 49 -21 -60
c-12 -33 -116 -264 -230 -513 -183 -396 -209 -466 -209 -560 0 -121 86 -328
175 -422 80 -84 96 -65 25 30 l-64 85 71 -80 c39 -43 67 -82 63 -86 -10 -11
110 -113 170 -144 233 -123 573 -546 619 -770 20 -97 84 -90 131 14 21 47 37
93 34 101 -2 8 4 13 13 10 41 -12 608 616 675 749 101 200 233 637 220 731
-12 89 -95 272 -135 297 -14 9 -18 6 -9 -9 22 -35 -2 -28 -94 26 -46 27 -97
70 -112 95 -26 44 -26 45 10 14 45 -38 88 -64 88 -52 0 4 -67 55 -149 113 -82
58 -170 136 -195 173 -28 42 -84 84 -146 110 -55 23 -115 55 -133 72 -24 20
-37 22 -47 6 -8 -13 19 -52 63 -91 42 -38 131 -118 197 -179 l120 -111 -110
43 c-252 97 -288 103 -634 89 -346 -14 -363 -11 -261 41 113 57 176 128 153
172 -56 105 46 158 221 116 61 -15 183 -29 271 -32 88 -2 199 -19 248 -36 229
-84 326 -2 139 118 -51 33 -149 96 -216 140 -229 150 -282 172 -386 161 -84
-8 -95 -5 -95 30 0 21 -8 39 -18 39 -10 0 -23 13 -29 29 -9 23 15 27 137 21
163 -8 239 -43 258 -120 10 -38 30 -50 101 -61 141 -21 144 -6 24 132 -62 71
-113 134 -113 141 0 31 193 -58 252 -116z m-852 -15 c0 -18 34 -39 85 -52 128
-35 133 -45 35 -72 l-90 -24 117 12 c162 15 132 -47 -54 -112 -193 -69 -237
-143 -156 -260 68 -98 68 -99 -32 -142 -52 -24 -133 -84 -181 -137 -96 -105
-81 -49 33 122 39 60 51 105 54 210 5 174 22 285 48 311 12 12 21 38 21 58 0
61 38 115 81 115 21 0 39 -13 39 -29z m470 -158 c95 -20 119 -33 114 -60 -3
-19 8 -48 25 -65 44 -44 42 -131 -2 -114 -22 9 -29 5 -19 -10 16 -26 -30 -21
-248 27 -130 29 -211 29 -256 2 -13 -9 -24 -7 -24 2 0 23 151 108 165 93 6 -6
17 8 25 30 7 23 20 42 29 42 10 0 13 18 7 40 -13 48 11 49 184 13z m804 -420
c84 -90 127 -155 145 -221 37 -131 20 -130 -74 3 -44 63 -101 133 -125 155
-46 42 -100 133 -100 169 0 44 39 17 154 -106z m-757 -273 c34 0 44 -9 36 -31
-10 -24 -5 -26 25 -10 28 15 48 10 83 -20 25 -21 54 -39 64 -39 11 0 14 -13 8
-29 -6 -15 5 -40 23 -55 30 -23 31 -22 9 7 -22 27 -20 34 15 43 27 7 40 1 40
-19 0 -16 8 -25 17 -19 9 6 36 -7 60 -29 24 -23 43 -31 43 -20 0 11 13 15 29
8 17 -6 28 -21 25 -34 -2 -13 8 -21 22 -18 14 3 30 -8 37 -25 6 -16 19 -25 29
-19 10 6 28 -11 41 -39 12 -28 29 -47 37 -42 17 10 18 2 27 -246 9 -220 -11
-328 -72 -397 -29 -33 -32 -45 -11 -53 18 -8 19 -16 4 -27 -12 -10 -28 -43
-36 -75 -8 -32 -61 -103 -118 -157 -57 -54 -90 -92 -74 -83 17 8 -6 -21 -50
-65 -44 -45 -93 -86 -110 -92 -20 -8 -14 -12 16 -13 26 -1 41 -11 34 -22 -7
-11 -36 -14 -66 -7 -48 12 -51 10 -27 -19 23 -28 20 -34 -23 -45 -35 -9 -47
-23 -40 -48 7 -26 -6 -40 -47 -52 -108 -29 -130 -30 -117 -4 7 14 0 9 -16 -10
-38 -46 -50 -44 -58 10 -3 25 -14 42 -24 38 -34 -12 -55 55 -31 98 12 24 18
47 12 52 -5 6 -15 -9 -23 -31 -7 -23 -22 -42 -33 -42 -10 0 -13 10 -6 22 8 12
6 28 -4 35 -36 26 -87 123 -87 167 -1 61 -30 108 -49 78 -7 -12 -2 -22 11 -22
14 0 19 -6 11 -14 -15 -15 -93 62 -93 93 0 11 -16 14 -35 7 -19 -7 -28 -5 -20
4 8 9 -5 27 -30 40 -25 13 -43 34 -40 48 4 14 -3 19 -15 12 -11 -7 -26 2 -32
19 -7 17 -25 31 -40 31 -15 0 -41 22 -59 49 -21 32 -43 44 -66 36 -27 -10 -29
-7 -8 18 21 26 16 34 -25 53 -28 13 -50 32 -50 44 0 39 -4 50 -26 77 -12 15
-25 46 -28 68 -4 23 -17 54 -29 68 -16 20 -16 27 1 27 12 0 22 16 22 35 -1 30
-4 31 -22 5 -16 -23 -18 -19 -8 20 18 72 78 200 94 200 7 0 10 25 6 56 -4 31
1 69 11 85 13 20 18 21 19 4 0 -14 10 -25 21 -25 12 0 16 9 9 20 -7 11 -5 20
5 20 9 0 18 20 20 44 2 24 22 69 44 99 23 30 41 65 41 76 0 12 7 19 15 17 8
-3 34 6 57 19 24 13 48 18 55 11 7 -7 13 -4 13 7 0 19 162 16 216 -3 14 -5 21
-1 15 9 -15 24 77 38 189 29 50 -4 111 -8 137 -8z m-908 -156 c-18 -31 -51
-79 -72 -105 l-39 -49 33 70 c32 67 86 140 103 140 5 0 -7 -25 -25 -56z m1781
-417 l10 -117 -29 130 c-17 72 -39 151 -50 176 -35 78 -21 78 20 1 21 -41 43
-126 49 -190z m-2006 -160 c4 -46 0 -79 -9 -74 -8 5 -14 56 -13 113 3 112 12
95 22 -39z m2094 -639 c71 -20 183 -73 249 -117 162 -109 145 -100 304 -159
78 -29 172 -80 210 -113 38 -33 51 -52 29 -40 -78 40 -195 81 -229 81 -19 0
-50 17 -69 38 -19 21 -64 44 -100 50 -36 7 -132 59 -214 115 -125 86 -166 103
-263 112 -177 16 -152 -32 70 -136 138 -66 173 -90 139 -95 -25 -4 -75 10
-111 32 -117 68 -207 90 -277 66 -84 -30 -84 -28 -11 112 55 104 69 119 104
106 23 -9 99 -32 169 -52z m-2216 -139 c-59 -27 -113 -48 -120 -47 -19 2 185
98 208 97 11 -1 -28 -23 -88 -50z m374 18 l74 -33 -110 -16 c-61 -8 -136 -25
-167 -37 -30 -11 -88 -21 -127 -21 -75 0 -382 -137 -426 -190 -14 -17 -47 -30
-74 -30 -26 0 -43 -9 -37 -19 7 -11 27 -14 45 -7 22 9 28 5 18 -11 -8 -12 -30
-24 -48 -25 -21 -1 -24 -5 -9 -11 41 -17 7 -47 -51 -46 -48 2 -50 4 -14 19 22
9 28 18 13 19 -79 4 220 257 347 294 44 13 157 51 250 85 197 71 216 73 316
29z m166 -243 c40 -85 102 -217 137 -294 35 -77 76 -164 92 -193 33 -61 41
-307 9 -287 -11 7 -20 39 -20 71 0 33 -10 59 -22 59 -12 0 -17 -13 -11 -30 16
-41 -5 -90 -38 -90 -16 0 -32 31 -39 75 -22 132 -25 137 -28 43 -4 -177 -75
-57 -83 142 l-3 70 -16 -68 c-9 -38 -8 -90 2 -117 30 -79 22 -105 -33 -105
-68 0 -129 34 -129 72 0 25 11 23 58 -11 32 -22 64 -41 71 -41 26 0 -14 44
-76 83 l-63 41 60 -12 60 -11 -63 32 c-66 34 -105 107 -56 107 15 0 32 -9 39
-20 24 -38 46 -20 41 34 -4 30 -33 75 -69 105 -67 55 -85 114 -29 93 28 -11
29 -9 5 21 -26 31 -24 31 22 7 28 -14 55 -34 61 -44 43 -64 179 -10 179 70 0
3 -35 2 -77 -2 -71 -7 -79 -2 -109 61 -64 135 -135 131 -206 -11 -97 -192
-207 -207 -208 -27 -1 113 -22 123 -137 60 -107 -60 -113 -72 -108 -227 l3
-70 -18 60 c-18 57 -23 60 -109 53 -77 -6 -89 -2 -79 25 14 38 90 42 124 8 36
-36 30 24 -7 73 -35 46 -40 90 -6 56 17 -17 30 -15 51 6 26 26 84 39 133 31 9
-2 33 19 54 45 36 45 109 78 179 81 17 0 37 12 46 26 9 14 31 26 50 26 19 0
61 18 94 39 130 83 191 57 272 -115z m1495 128 c56 9 118 -1 211 -31 136 -46
208 -98 100 -74 -155 35 -360 38 -423 6 -58 -30 -63 -30 -71 2 -7 28 -10 26
-12 -7 -1 -24 -21 -67 -44 -96 -46 -59 -38 -94 12 -52 16 14 30 17 30 7 0 -9
9 -4 19 13 12 18 42 27 79 23 33 -3 78 4 101 16 27 15 41 15 41 2 0 -37 265
-9 294 32 14 19 26 24 26 11 0 -13 7 -22 15 -19 16 5 210 -104 275 -155 32
-26 35 -38 15 -69 -23 -37 -22 -78 5 -146 12 -28 5 -34 -31 -30 -34 4 -50 -8
-62 -45 -11 -33 -13 -17 -7 49 8 73 4 93 -12 77 -13 -13 -19 -72 -15 -142 4
-66 0 -116 -8 -111 -8 5 -15 -5 -15 -22 0 -43 47 -29 63 19 7 23 15 -16 17
-90 4 -104 8 -118 20 -70 10 39 16 46 17 20 4 -69 -20 -130 -51 -130 -24 0
-28 21 -19 105 l11 105 -22 -85 c-19 -73 -76 -123 -76 -66 0 11 -13 15 -30 8
-22 -8 -30 3 -30 41 0 29 11 52 25 52 17 1 15 7 -5 20 -20 13 -22 19 -5 20 18
0 25 54 25 202 0 168 -5 200 -29 191 -20 -7 -31 6 -36 43 l-7 54 -23 -53 c-15
-35 -20 -145 -14 -310 5 -163 2 -239 -9 -207 l-18 50 -4 -50 -4 -50 -16 50
c-15 48 -16 48 -18 5 -2 -41 -10 -44 -86 -34 -94 12 -116 33 -102 96 7 32 5
36 -10 15 -16 -22 -24 -20 -42 14 -34 63 -26 101 11 54 30 -38 31 -38 18 20
-12 55 -30 196 -38 305 -4 64 -33 56 -34 -10 -3 -213 -16 -449 -25 -458 -6 -6
-59 7 -118 29 -73 27 -120 34 -151 22 -25 -9 -45 -11 -45 -5 0 7 -14 1 -30
-13 -17 -14 -36 -21 -42 -14 -23 22 57 524 96 601 21 42 34 89 29 103 -19 48
124 193 168 170 21 -12 73 -15 116 -8z m614 -113 c92 -45 177 -76 188 -70 11
7 58 -8 105 -33 47 -25 102 -46 121 -48 52 -4 114 -66 148 -148 16 -38 50 -92
76 -120 41 -43 151 -272 151 -312 0 -50 -90 86 -181 272 -119 243 -152 269
-285 213 -148 -62 -144 -151 6 -140 109 8 174 -28 189 -107 24 -126 62 -211
101 -226 46 -18 91 -64 98 -104 3 -14 15 -48 27 -76 13 -27 41 -148 65 -268
23 -119 54 -235 69 -257 15 -22 23 -52 17 -68 -14 -36 33 -150 56 -136 10 6
18 1 18 -11 0 -51 -66 -5 -87 60 -13 39 -32 67 -43 63 -21 -7 -21 -12 1 -68 7
-19 5 -35 -6 -35 -16 0 -49 63 -94 180 -13 35 0 -46 19 -120 12 -46 11 -47
-16 -14 -23 27 -33 30 -42 10 -6 -14 -7 -6 0 19 6 26 1 45 -11 45 -16 0 -16
12 0 42 18 33 17 39 -1 28 -17 -10 -21 -3 -13 22 71 234 52 568 -33 568 -26 0
-109 -127 -152 -235 -33 -79 -84 -84 -140 -13 -66 83 -69 121 -16 193 77 104
85 124 47 109 -44 -17 -42 -2 17 116 61 125 66 210 11 210 -38 0 -58 -16 -128
-100 -26 -32 -52 -42 -95 -35 -55 8 -57 6 -30 -33 16 -23 39 -40 50 -37 12 3
22 -9 22 -26 0 -17 8 -26 18 -20 10 6 14 -7 8 -29 -6 -22 -18 -45 -28 -51 -9
-6 -7 -34 3 -63 17 -45 12 -61 -35 -114 -31 -34 -58 -66 -61 -71 -3 -4 -17 4
-30 18 -14 15 -16 22 -5 16 38 -21 72 39 38 67 -25 21 -34 20 -49 -3 -37 -58
-19 213 21 331 22 64 39 149 38 188 l-1 72 -27 -70 c-33 -85 -39 -52 -8 38 13
35 28 59 34 53 6 -6 27 17 48 50 20 34 62 76 94 94 l57 33 -69 36 c-37 21 -76
32 -86 26 -35 -22 -201 36 -295 102 -124 89 -99 86 106 -13z m-1612 -52 c17
-13 36 -20 44 -15 7 4 12 -4 12 -17 -3 -67 8 -95 35 -95 33 0 41 -71 10 -90
-12 -7 -14 2 -6 22 7 21 5 30 -7 22 -11 -6 -55 48 -98 122 -89 151 -110 198
-57 124 20 -27 50 -60 67 -73z m261 -70 c0 -28 -59 -97 -83 -97 -31 0 -18 65
18 92 44 33 65 35 65 5z m-1780 -133 c0 -31 -50 -80 -95 -93 -51 -16 -52 -13
-25 58 18 48 120 78 120 35z m341 -60 c-10 -37 -4 -105 19 -195 69 -277 68
-253 6 -245 -48 5 -57 16 -61 76 -3 39 -15 137 -27 219 -20 135 -19 151 14
175 54 39 67 32 49 -30z m64 -128 l-12 -106 -18 80 c-9 44 -11 112 -4 150 21
112 50 7 34 -124z m363 4 c4 -53 11 -104 16 -113 19 -36 16 -165 -4 -177 -50
-31 -140 12 -141 67 -2 47 -4 48 -18 13 -8 -22 -12 -50 -7 -63 13 -34 -26 -51
-50 -22 -11 14 -30 57 -42 95 -21 66 -21 65 -13 -35 5 -58 2 -105 -8 -105 -32
0 -77 265 -61 360 8 50 16 80 17 68 10 -86 260 -14 264 76 3 56 39 -73 47
-164z m1305 -42 c-19 -290 -93 -432 -93 -179 0 65 -9 142 -20 170 -18 49 -7
82 74 216 34 58 50 -30 39 -207z m-2015 57 c-91 -118 -102 -130 -91 -95 5 17
15 55 22 85 8 37 25 55 50 55 21 0 44 9 51 20 7 11 17 20 23 20 6 0 -19 -38
-55 -85z m-156 -83 c-55 -177 -71 -205 -190 -321 -130 -126 -206 -143 -94 -21
88 95 122 155 183 318 36 96 111 187 134 163 4 -4 -11 -67 -33 -139z m357
-214 c1 -16 -82 -50 -119 -49 -44 2 -36 217 12 327 l38 86 34 -176 c18 -97 34
-181 35 -188z m641 261 c0 -30 -24 -22 -74 24 -66 63 -57 87 14 37 33 -23 60
-51 60 -61z m456 56 c40 -79 41 -412 1 -409 -34 2 -41 35 -69 319 -14 144 18
188 68 90z m576 -160 c-26 -208 -37 -248 -53 -205 -27 74 14 310 54 310 7 0 6
-47 -1 -105z m1260 -20 c-20 -77 -23 -80 -28 -28 -8 64 6 113 33 113 9 0 7
-38 -5 -85z m-3100 -229 c-4 -4 -47 12 -96 35 -87 43 -88 45 -68 109 l20 66
76 -102 c42 -55 72 -104 68 -108z m3939 -188 c49 -103 112 -264 141 -358 49
-161 298 -718 332 -741 80 -56 183 -447 136 -519 -23 -36 -24 -35 -30 81 -7
126 -127 390 -291 640 -133 202 -142 223 -198 470 -53 233 -174 569 -222 618
-11 10 -19 28 -19 39 0 49 69 -56 151 -230z m-4109 8 c38 -46 98 -178 98 -217
0 -38 -78 -38 -93 1 -6 17 -45 36 -86 42 -105 17 -135 37 -105 73 13 16 18 35
10 42 -7 7 -2 13 10 13 13 0 22 20 20 45 -2 25 18 85 45 133 l49 87 11 -91 c6
-50 24 -108 41 -128z m1371 82 c247 -29 493 -17 727 35 56 12 195 14 370 4
312 -18 304 -21 -110 -46 l-290 -18 300 5 c611 12 820 -24 867 -151 19 -53 -4
-781 -28 -855 -11 -36 -8 -45 13 -38 15 5 31 29 34 53 4 23 16 43 28 43 11 0
16 -18 10 -40 -7 -26 0 -40 18 -40 15 0 28 -11 29 -25 1 -28 176 -153 276
-197 87 -38 82 -45 -70 -88 -74 -21 -157 -57 -185 -81 -75 -61 -112 -70 -158
-38 -38 27 -41 24 -54 -51 -7 -44 -23 -85 -34 -92 -25 -16 -5 125 37 250 32
99 58 665 26 586 -10 -25 -25 -119 -33 -210 l-15 -164 -16 180 c-12 122 -10
182 4 186 12 4 21 20 21 36 0 15 9 28 20 28 11 0 20 8 20 17 0 9 -13 16 -30
16 -16 0 -30 -12 -30 -28 0 -15 -9 -22 -19 -15 -13 7 -18 -108 -15 -314 4
-345 -22 -776 -47 -776 -8 0 -12 56 -7 125 5 95 3 113 -12 75 -15 -40 -18 -29
-11 50 5 55 1 136 -8 180 -17 84 -34 -258 -24 -480 3 -66 -2 -91 -14 -73 -11
17 -23 20 -30 7 -7 -11 1 -25 18 -32 20 -7 38 6 53 38 25 56 37 61 72 26 19
-19 24 7 26 115 1 115 5 129 20 79 23 -76 1 -244 -36 -281 -51 -51 -130 -57
-432 -32 -162 14 -304 19 -314 13 -36 -22 -373 -11 -485 17 -103 25 -133 24
-290 -9 -135 -28 -267 -37 -579 -37 -452 -1 -443 -4 -415 146 8 45 2 89 -18
128 -17 33 -41 121 -53 195 -12 74 -47 190 -78 258 -83 178 -108 268 -94 336
7 38 -11 150 -50 303 -35 134 -67 263 -73 288 -5 24 -17 40 -25 35 -9 -6 -13
28 -9 75 7 74 5 77 -9 25 -15 -52 -18 -44 -20 54 -3 149 49 196 216 196 61 1
157 14 212 30 116 33 410 25 803 -22z m-1693 -70 c0 -17 8 -16 28 1 20 16 33
16 41 2 21 -34 -72 -180 -143 -223 -36 -23 -81 -60 -101 -84 -49 -61 -105
-103 -105 -79 0 11 31 50 70 87 58 57 70 82 70 154 0 48 9 104 21 125 22 42
119 55 119 17z m3844 -159 c16 -45 111 -39 184 11 106 72 113 49 10 -33 -47
-37 -125 -105 -175 -152 -150 -142 -209 -102 -142 98 58 172 83 187 123 76z
m-3578 -179 c187 -197 172 -209 -110 -88 -88 37 -172 68 -187 68 -16 0 -23 12
-16 30 6 17 24 30 39 30 15 0 42 23 60 50 48 73 67 65 214 -90z m3904 26 c-8
-31 -17 -105 -20 -166 -4 -60 -8 -128 -9 -150 -3 -51 43 -84 141 -100 43 -8
86 -27 95 -44 12 -22 40 -29 98 -23 71 7 82 2 99 -44 19 -49 16 -51 -59 -54
-64 -2 -74 2 -55 24 18 22 15 26 -14 21 -20 -4 -129 -12 -243 -18 l-208 -10
-62 63 c-35 35 -71 62 -80 59 -10 -3 -12 9 -5 27 6 18 12 44 12 58 0 58 291
446 316 422 5 -5 2 -34 -6 -65z m-153 -56 c-43 -74 -77 -106 -77 -72 0 11 9
25 20 32 12 7 15 22 8 33 -6 11 5 32 25 48 61 46 68 33 24 -41z m-145 -69
c-10 -66 -7 -78 18 -68 22 8 27 2 18 -22 -8 -20 -26 -29 -43 -22 -23 9 -25 6
-9 -14 14 -17 15 -37 3 -56 -14 -23 -19 -18 -22 21 -8 126 -6 175 8 167 8 -5
15 9 15 32 0 22 6 41 13 41 6 0 6 -36 -1 -79z m-4113 -64 c-31 -115 -110 -269
-189 -367 -87 -107 -103 -143 -118 -254 -7 -52 -36 -174 -65 -270 -29 -97 -59
-210 -67 -252 -18 -92 -34 -112 -53 -64 -7 19 6 126 30 238 24 111 56 268 72
348 30 148 66 224 183 378 35 46 79 129 98 185 53 160 151 212 109 58z m401
-48 c105 -84 200 -158 212 -165 40 -25 51 -97 19 -123 -44 -37 -87 -13 -78 42
10 59 -117 144 -262 177 -148 33 -166 48 -166 139 0 120 52 107 275 -70z
m3594 83 c-11 -34 -63 -26 -70 11 -5 26 4 31 36 23 23 -6 38 -21 34 -34z
m-3294 -153 c30 -112 8 -130 -61 -51 -68 77 -73 102 -24 129 47 27 60 14 85
-78z m3318 28 c-20 -24 -22 -36 -4 -41 15 -5 19 -33 12 -77 -8 -48 -4 -69 14
-69 13 0 19 -13 13 -28 -5 -16 7 -44 29 -64 38 -34 39 -34 27 3 -7 25 -1 21
18 -11 34 -57 -2 -104 -37 -48 -49 80 -94 127 -116 123 -14 -3 -25 27 -28 75
-3 62 0 72 16 45 11 -19 15 -44 9 -54 -7 -10 -3 -24 9 -31 24 -15 27 108 3
146 -9 14 -31 20 -50 13 -18 -8 -33 -5 -33 6 0 34 25 44 63 23 29 -15 40 -12
50 12 6 17 17 27 22 21 6 -5 -2 -25 -17 -44z m-3694 -119 c215 -144 281 -228
306 -388 8 -49 26 -109 40 -132 25 -39 23 -42 -51 -45 -74 -3 -119 25 -88 53
8 8 18 4 23 -9 9 -26 86 -12 86 15 0 10 -9 18 -20 18 -11 0 -20 26 -20 57 0
34 -18 72 -45 95 -45 38 -45 38 -10 -4 19 -22 35 -66 35 -97 l0 -55 -61 65
c-34 36 -70 83 -82 104 -24 45 -3 77 23 35 10 -16 24 -23 32 -15 57 57 -189
270 -352 305 -100 21 -104 27 -65 81 45 61 23 69 249 -83z m-204 -88 c32 0
123 -47 197 -102 23 -17 56 -66 73 -110 l32 -78 -62 70 -62 70 53 -89 54 -89
-85 73 c-46 40 -111 79 -143 86 -62 13 -59 49 4 49 22 0 39 8 39 18 0 42 -214
57 -284 20 -36 -19 -33 -11 16 58 53 73 61 77 97 52 22 -15 54 -28 71 -28z
m628 -86 c9 9 10 -5 2 -32 -10 -34 -8 -43 10 -32 18 11 19 5 1 -28 -12 -23
-32 -42 -43 -42 -11 0 -14 10 -7 21 20 33 -9 123 -35 107 -15 -10 -18 -3 -9
20 7 20 14 55 15 79 2 29 10 18 26 -33 13 -42 31 -69 40 -60z m3856 -40 c30
-31 99 -62 122 -57 10 2 11 -5 4 -17 -7 -11 -22 -15 -34 -8 -12 8 -17 2 -12
-14 11 -31 -156 -96 -248 -97 -89 -1 -153 134 -92 195 32 32 226 31 260 -2z
m-4424 -76 c96 -43 171 -104 204 -166 15 -28 3 -24 -51 17 -41 31 -82 48 -95
40 -14 -9 -19 -7 -11 6 15 25 -28 63 -124 108 -40 18 -59 34 -43 35 17 1 71
-17 120 -40z m4740 -23 c0 -14 14 -51 30 -83 23 -43 25 -64 8 -84 -17 -21 -9
-33 35 -52 72 -32 88 -48 143 -142 56 -97 56 -109 -3 -53 -102 98 -533 96
-719 -4 -31 -17 -46 -16 -62 5 -12 16 -49 31 -82 35 -33 3 -68 14 -77 23 -23
22 177 86 224 71 21 -7 82 3 135 21 119 40 285 26 324 -27 24 -32 26 -30 20
15 -12 86 -35 105 -111 93 -79 -13 -145 13 -145 58 0 21 26 30 95 31 52 2 79
7 60 12 -44 11 -26 46 24 46 20 0 42 14 48 30 14 36 53 40 53 5z m-4862 -86
c5 -5 -51 -9 -125 -9 -126 0 -184 29 -88 44 45 7 196 -18 213 -35z m193 -88
c44 -33 89 -60 101 -60 11 -1 41 -23 66 -49 l45 -48 -71 -23 c-55 -18 -91 -54
-156 -154 -69 -108 -87 -124 -99 -94 -8 20 -15 26 -16 13 0 -15 -15 -20 -36
-12 -29 10 -30 7 -10 -15 14 -15 25 -39 25 -53 0 -14 -11 -24 -25 -21 -15 3
-28 -21 -31 -61 l-7 -67 -38 45 c-22 24 -39 52 -39 62 0 10 -8 14 -17 8 -9 -6
-36 7 -60 29 -24 23 -43 33 -43 25 0 -9 -9 -2 -20 14 -43 68 33 270 114 304
31 13 114 24 185 26 77 1 131 11 136 25 13 39 -112 90 -188 76 -104 -20 -306
8 -294 40 10 26 87 38 298 45 85 3 115 -6 180 -55z m4365 24 c-8 -44 -88 -57
-130 -22 -28 23 -26 28 16 40 88 24 121 19 114 -18z m-3826 -147 c7 -32 22
-53 33 -46 11 7 16 29 11 50 -6 21 -4 38 3 38 16 -1 88 -222 76 -234 -25 -25
-190 20 -199 54 -11 42 -168 126 -185 99 -6 -10 14 -24 45 -31 100 -24 168
-108 87 -108 -98 0 -341 -308 -341 -432 0 -86 -27 -88 -53 -3 -11 36 -17 45
-13 21 5 -33 -1 -42 -24 -33 -16 6 -30 19 -30 29 0 10 -7 17 -15 16 -176 -28
52 428 254 507 47 18 79 42 72 53 -6 10 -1 26 11 33 12 8 30 2 40 -13 10 -16
18 -20 18 -11 0 10 14 7 30 -7 17 -14 30 -18 30 -9 0 8 18 -1 39 -20 52 -47
107 43 61 99 -22 26 -21 29 6 19 17 -7 37 -39 44 -71z m-1060 -77 c-7 -44 -22
-86 -32 -92 -10 -6 -18 -81 -18 -165 -1 -107 -7 -145 -20 -124 -31 48 -23 153
23 323 46 165 71 196 47 58z m4651 -116 c152 -113 233 -395 144 -503 -49 -61
-73 -28 -34 47 16 30 28 79 27 108 -2 41 -5 44 -12 13 -5 -22 -22 -69 -38
-104 -16 -35 -26 -74 -23 -87 4 -20 -33 -30 -160 -43 -14 -1 -25 -9 -25 -16 0
-8 -38 -26 -85 -40 -47 -15 -94 -34 -104 -43 -10 -10 -37 -17 -60 -16 -32 0
-16 24 77 112 106 99 119 121 127 205 10 97 -52 290 -69 218 -5 -19 1 -52 13
-74 35 -66 27 -146 -14 -135 -19 5 -80 15 -135 22 -55 8 -116 18 -135 23 -23
7 -35 0 -35 -22 0 -18 -9 -27 -21 -19 -14 8 -14 21 2 41 13 15 17 28 9 28 -8
0 2 25 21 55 29 45 30 50 4 29 -28 -23 -37 -19 -64 34 -39 76 -39 104 1 52 29
-38 30 -38 17 15 -11 45 -8 54 19 45 17 -5 46 -14 63 -20 25 -8 26 -18 9 -55
-21 -43 -21 -43 9 -6 17 21 31 47 31 57 0 22 139 -1 172 -28 12 -10 26 -13 32
-8 76 77 125 -363 49 -447 -36 -39 -36 -40 2 -30 22 6 54 39 73 74 l33 63 -11
-60 c-9 -49 -7 -53 11 -25 23 38 7 122 -20 106 -9 -6 -20 53 -26 130 -10 148
-67 248 -127 225 -22 -8 -25 4 -15 52 9 45 4 62 -15 64 -16 1 -1 14 32 29 79
37 133 23 251 -66z m459 57 c0 -7 30 -14 67 -15 41 -2 89 -24 121 -54 35 -32
43 -48 23 -45 -17 2 -44 22 -60 43 -23 30 -30 32 -30 9 0 -16 17 -52 38 -79
38 -50 23 -137 -19 -111 -10 6 -33 -11 -51 -39 -18 -28 -41 -46 -50 -40 -10 6
-32 -13 -51 -41 -18 -28 -38 -47 -43 -42 -5 6 -37 -16 -72 -48 -64 -61 -104
-48 -81 26 7 22 2 33 -15 30 -17 -4 -30 28 -38 95 -8 56 -26 124 -41 150 -14
27 -24 58 -21 69 4 11 0 13 -8 5 -17 -17 -69 20 -69 48 0 11 71 16 160 12 103
-4 162 2 168 16 8 23 72 32 72 11z m-3925 -135 c58 -33 120 -139 95 -163 -5
-6 -1 -21 11 -35 14 -17 11 -28 -13 -37 -24 -9 -29 -26 -19 -65 11 -42 -2 -33
-61 45 -40 54 -76 101 -78 104 -11 13 -90 20 -89 8 0 -8 36 -53 80 -101 104
-114 104 -114 -81 -106 -120 4 -160 0 -160 -19 0 -20 -5 -21 -24 -2 -13 13
-58 24 -100 24 -65 0 -76 6 -76 43 0 58 -21 35 -42 -47 -16 -63 -17 -62 -10
17 7 81 188 343 258 375 47 22 245 -4 309 -41z m-920 -302 c5 -15 6 -31 1 -36
-18 -17 -256 114 -256 141 0 34 239 -65 255 -105z m5105 64 c0 -30 -44 -89
-60 -79 -9 6 -23 2 -30 -10 -7 -11 -32 -30 -56 -42 -28 -15 -16 7 35 60 72 75
111 100 111 71z m-1097 -94 c14 14 55 25 91 25 75 0 88 -41 32 -96 -32 -32
-33 -32 -21 0 7 19 5 40 -4 46 -10 6 -24 -8 -31 -30 -15 -47 -50 -54 -50 -9 0
17 9 26 20 19 11 -7 20 -3 20 8 0 45 -36 37 -58 -13 -27 -58 -61 -33 -61 45 0
33 3 35 18 10 15 -24 24 -25 44 -5z m-251 -27 c-7 -17 -12 -48 -12 -68 0 -39
-178 -120 -266 -120 -36 -1 -39 -4 -14 -21 21 -15 -11 -17 -110 -9 -77 7 -387
15 -690 18 l-550 7 560 -28 c308 -15 621 -33 696 -39 151 -13 224 1 173 33
-24 15 -22 19 11 20 22 0 74 13 115 28 82 29 85 27 54 -31 -42 -78 -94 -82
-1383 -90 l-1254 -9 -33 50 c-22 33 -28 69 -19 110 l13 61 274 -3 c310 -3 635
-27 483 -36 -363 -21 -49 -33 700 -27 988 9 1220 39 1220 161 0 14 10 25 22
25 12 0 17 -14 10 -32z m174 -35 c8 7 14 5 14 -5 0 -11 -26 -34 -57 -53 l-56
-33 3 55 c5 88 31 117 59 65 13 -24 29 -37 37 -29z m-3078 7 c13 0 42 -14 63
-31 22 -18 26 -25 10 -17 -72 38 -204 17 -141 -22 11 -7 20 -28 19 -46 0 -23
-10 -17 -30 20 -33 61 -18 124 25 107 16 -6 40 -11 54 -11z"/>
<path d="M2932 3373 c-6 -23 -6 -45 -1 -50 5 -6 9 1 9 15 0 13 9 19 20 12 12
-7 17 -19 12 -27 -5 -8 7 -14 27 -14 20 0 35 11 33 25 -6 34 -32 58 -32 28 0
-13 -9 -19 -21 -11 -14 9 -15 20 0 37 15 18 12 25 -8 25 -15 0 -33 -18 -39
-40z"/>
<path d="M4073 3207 c-18 -19 -17 -462 2 -474 8 -5 16 103 17 239 2 136 1 248
-1 248 -3 0 -10 -6 -18 -13z"/>
<path d="M1446 2270 c-2 -91 27 -243 32 -168 7 110 39 114 752 108 363 -4 867
2 1120 14 956 43 930 45 930 -88 0 -86 29 -88 45 -3 35 181 -23 198 -582 175
-227 -9 -696 -17 -1043 -18 -796 -2 -1090 -20 -1164 -72 -73 -51 -73 -51 -81
57 l-8 95 -1 -100z"/>
<path d="M1373 2224 c-9 -37 -11 -72 -5 -79 23 -22 35 11 28 78 l-7 67 -16
-66z"/>
<path d="M3397 2141 c-264 -11 -329 -27 -209 -49 39 -8 76 -22 82 -31 16 -27
-53 -161 -84 -161 -30 0 -35 -52 -7 -69 23 -15 252 126 327 201 40 39 61 49
71 32 11 -17 34 -18 84 -4 247 71 408 -59 338 -274 -64 -198 -394 -561 -584
-642 -30 -13 -55 -35 -55 -49 0 -18 -47 -26 -159 -30 -88 -3 -198 -18 -245
-35 -95 -32 -476 -42 -476 -12 0 10 34 28 75 40 69 20 70 21 10 12 -73 -10
-75 -5 -52 185 12 104 14 105 80 105 42 0 73 11 80 30 13 35 59 40 78 9 7 -12
-4 -34 -24 -49 -64 -47 -7 -79 78 -43 135 56 118 158 -30 181 -237 37 -293
134 -155 272 34 34 8 230 -30 230 -43 0 -87 -136 -125 -388 l-18 -121 59 4
c33 3 64 -6 68 -20 6 -17 -13 -25 -61 -25 -91 0 -102 -45 -102 -415 l0 -265
-131 -2 c-71 -1 -152 -10 -180 -19 -103 -34 1216 34 1406 73 75 15 143 29 150
30 90 16 -193 33 -516 31 l-410 -2 410 -10 c402 -11 408 -12 291 -38 -97 -22
-167 -23 -390 -4 -149 14 -336 29 -416 35 -138 11 -145 14 -145 60 l0 50 245
-11 c135 -5 200 -4 145 4 l-100 13 110 15 c271 37 311 39 280 15 -23 -17 -10
-19 56 -9 47 7 148 13 224 14 77 0 134 8 128 18 -6 9 -26 17 -46 17 -64 0 -64
28 0 61 165 86 433 365 541 566 l66 123 14 -120 c8 -66 10 -138 4 -160 -8 -34
-6 -35 13 -10 18 23 21 0 14 -100 -5 -71 -4 -112 3 -90 7 23 18 -29 25 -120
10 -126 11 -116 5 50 -5 116 -13 359 -20 540 -9 268 -17 335 -43 355 -33 26
-251 28 -747 6z m-407 -1340 c139 -15 139 -15 -72 -18 -117 -2 -269 -9 -337
-16 l-126 -13 25 46 c26 49 49 49 510 1z"/>
<path d="M1538 2098 c-35 -35 -41 -59 -32 -135 9 -81 127 -660 164 -807 9 -33
40 -64 91 -89 70 -33 79 -45 79 -110 0 -79 50 -113 96 -65 74 80 -2 230 -134
261 -137 33 -111 94 71 170 73 30 111 58 116 86 23 126 50 246 63 281 14 36
12 37 -18 13 -52 -43 -43 8 16 85 61 80 88 191 48 194 -16 1 -5 9 22 18 l50
16 -55 2 c-30 1 -55 -7 -55 -18 0 -44 -4 -51 -46 -74 -24 -14 -36 -25 -25 -25
10 -1 3 -13 -17 -27 -26 -19 -37 -63 -44 -173 -10 -158 -36 -230 -74 -208 -13
7 -17 6 -9 -3 23 -26 -25 -70 -76 -70 -29 0 -51 15 -59 40 -7 22 -21 40 -31
40 -11 0 -17 7 -15 15 3 8 -7 47 -22 85 -47 121 -52 348 -9 398 39 45 120 60
94 17 -11 -19 -8 -20 14 -3 16 13 88 28 159 34 72 6 148 17 170 25 32 10 34 9
10 -9 -24 -17 -18 -21 30 -21 48 0 54 4 30 21 -24 17 -21 20 15 12 25 -6 45
-7 45 -3 0 79 -587 102 -662 27z"/>
<path d="M2400 2100 c-26 -17 -25 -19 5 -20 43 0 46 -37 5 -53 -16 -6 -30 -20
-30 -30 0 -11 10 -13 22 -6 15 9 14 -1 -2 -30 -31 -58 -44 -166 -19 -150 11 6
-3 -39 -31 -102 -27 -63 -50 -126 -50 -140 0 -15 -14 -35 -31 -45 -48 -26 8
-63 75 -50 47 9 56 22 67 103 7 51 16 116 21 143 4 28 14 100 21 160 7 61 30
132 51 159 50 65 -28 110 -104 61z"/>
<path d="M3607 1991 c-35 -15 -68 -44 -74 -64 -31 -101 -171 -736 -164 -743
42 -42 151 132 151 242 0 69 101 444 127 469 50 51 233 57 233 8 0 -42 -114
-247 -144 -260 -9 -3 -16 -19 -16 -34 0 -15 -25 -57 -55 -93 -67 -80 -111
-156 -90 -156 26 1 225 191 225 215 0 13 13 30 28 39 88 50 160 315 102 373
-41 41 -232 44 -323 4z"/>
<path d="M2184 1895 c-33 -40 -80 -174 -113 -321 -44 -196 -43 -201 27 -165
58 30 91 81 72 112 -6 9 13 89 42 177 60 183 46 286 -28 197z"/>
<path d="M2792 1904 c-8 -13 -30 -24 -50 -24 -48 0 -115 -72 -78 -85 36 -12
96 6 96 29 0 10 9 13 20 6 11 -7 20 -3 20 9 0 11 14 21 30 21 17 0 30 10 30
21 0 12 -8 16 -18 10 -10 -6 -22 0 -27 13 -6 19 -11 19 -23 0z"/>
<path d="M3344 1848 c-46 -39 -84 -84 -84 -100 0 -15 -11 -28 -25 -29 -14 0
-8 -13 14 -30 22 -16 51 -26 64 -21 42 16 47 -46 6 -68 -23 -13 -39 -42 -39
-73 0 -87 -44 -207 -76 -207 -24 0 -24 -5 -3 -31 18 -22 30 -24 40 -8 31 50
40 -22 10 -79 -32 -62 -17 -91 37 -70 18 7 32 36 33 65 0 29 17 134 37 233 25
129 30 193 15 225 -16 37 -11 55 28 96 43 46 73 169 41 169 -8 0 -52 -32 -98
-72z"/>
<path d="M2880 1790 c0 -20 -20 -30 -57 -30 -105 0 -254 -131 -198 -175 39
-30 115 -44 115 -20 0 37 101 115 149 115 66 0 100 46 72 99 -26 47 -81 55
-81 11z"/>
<path d="M2783 1563 c-18 -12 -7 -21 39 -30 234 -47 137 -313 -113 -313 -60 0
-63 -31 -7 -61 67 -36 323 39 330 96 1 8 8 40 17 71 41 146 -146 312 -266 237z"/>
<path d="M2224 1390 c-91 -24 -175 -53 -187 -65 -38 -38 -33 -553 6 -561 51
-10 74 92 63 278 -12 209 4 236 154 255 97 12 109 18 123 72 20 75 34 73 -159
21z"/>
<path d="M1860 1259 c-60 -31 -96 -58 -79 -58 17 -1 63 -18 103 -38 l71 -36
13 90 c15 112 22 110 -108 42z"/>
<path d="M3105 1288 c15 -15 -26 -134 -53 -154 -12 -8 9 -13 46 -10 113 10
131 176 20 176 -14 0 -19 -5 -13 -12z"/>
<path d="M2298 1190 c-2 -5 -4 -18 -5 -28 -2 -10 -9 -25 -17 -33 -8 -8 -6 -30
5 -50 21 -41 6 -99 -27 -99 -14 0 -15 -7 -3 -19 38 -38 110 -2 83 41 -17 28
-17 52 0 98 14 36 15 60 3 60 -11 0 -14 9 -7 20 7 11 3 20 -9 20 -11 0 -22 -4
-23 -10z"/>
<path d="M2704 1083 c-25 -16 360 -9 406 7 11 4 -70 7 -180 8 -110 1 -212 -6
-226 -15z"/>
<path d="M4030 947 c46 -89 40 -267 -9 -267 -21 0 -42 16 -47 35 -7 26 -10 27
-12 5 -4 -53 -309 -108 -326 -59 -4 12 -23 15 -46 6 -35 -13 -33 -17 21 -41
55 -25 50 -26 -61 -14 -66 7 -205 14 -310 14 -355 1 -1292 33 -1361 47 -38 7
-62 6 -54 -3 14 -16 329 -56 685 -88 168 -15 159 -16 -140 -16 -208 -1 -296 5
-250 16 47 10 18 13 -87 6 -99 -6 -166 -2 -183 12 -36 30 -44 5 -29 -90 l13
-80 4 70 c3 68 4 69 35 30 26 -32 30 -33 20 -5 -9 26 -1 35 33 35 36 -1 39 -4
14 -22 -23 -15 -16 -18 30 -10 127 22 1034 18 1315 -6 224 -19 311 -20 364 -2
39 12 79 17 91 10 11 -7 20 -4 20 7 0 10 15 24 32 31 24 9 30 3 24 -23 -8 -30
6 -35 97 -38 59 -1 107 6 107 15 0 10 10 18 21 18 12 0 16 -9 9 -20 -7 -11 -3
-20 8 -20 21 0 21 -1 21 221 0 168 -19 262 -55 274 -15 5 -13 -11 6 -48z
m-600 -367 c-28 -12 2 -18 100 -20 114 -3 129 -7 81 -21 -34 -10 -160 -10
-300 1 -132 11 -277 21 -321 23 -86 5 187 28 370 32 77 2 98 -3 70 -15z m550
-2 c25 -18 25 -20 -5 -11 -19 7 -35 3 -35 -8 0 -10 -22 -19 -50 -19 -49 0 -64
19 -37 47 21 20 93 15 127 -9z"/>
<path d="M3410 766 c-143 -16 -433 -33 -644 -39 -290 -8 -389 -17 -406 -37
-19 -23 -10 -24 54 -6 70 19 180 17 556 -12 86 -7 97 -6 40 5 -110 19 144 43
462 43 196 0 225 4 215 31 -10 24 2 30 60 26 39 -3 78 1 86 9 19 19 -117 13
-423 -20z"/>
<path d="M1840 720 c-38 -24 44 -24 120 0 46 15 44 16 -20 18 -38 1 -83 -7
-100 -18z"/>
<path d="M2029 504 c4 -4 82 -14 174 -22 166 -16 166 -17 47 -21 -66 -2 -160
-12 -210 -22 -89 -17 -39 -15 410 17 77 5 203 9 280 9 108 0 129 5 90 19 -44
16 -806 35 -791 20z"/>
<path d="M3135 466 c36 -5 90 -5 120 0 30 4 1 8 -65 8 -66 0 -91 -4 -55 -8z"/>
<path d="M4032 466 c-8 -8 -128 -12 -268 -9 -318 7 -314 -8 7 -23 214 -10 319
2 287 35 -6 6 -18 5 -26 -3z"/>
<path d="M1842 232 c4 -4 71 -13 148 -19 91 -8 126 -6 100 6 -38 17 -266 30
-248 13z"/>
</g>
</svg>
