<?xml version="1.0" standalone="no"?>
<!DOCTYPE svg PUBLIC "-//W3C//DTD SVG 20010904//EN"
 "http://www.w3.org/TR/2001/REC-SVG-20010904/DTD/svg10.dtd">
<svg version="1.0" xmlns="http://www.w3.org/2000/svg"
 width="900.000000pt" height="948.000000pt" viewBox="0 0 900.000000 948.000000"
 preserveAspectRatio="xMidYMid meet">
<metadata>
Created by potrace 1.10, written by Peter Selinger 2001-2011
</metadata>
<g transform="translate(0.000000,948.000000) scale(0.100000,-0.100000)"
fill="#000000" stroke="none">
<path d="M4016 9413 c-1 -2 -28 -4 -60 -5 -32 -1 -62 -8 -68 -15 -7 -9 -22
-11 -43 -7 -22 4 -37 1 -47 -9 -8 -9 -31 -19 -51 -22 -20 -4 -38 -13 -41 -21
-3 -8 -14 -14 -26 -14 -11 0 -42 -13 -68 -30 -27 -16 -54 -30 -61 -30 -6 0
-11 -3 -11 -7 0 -5 -21 -20 -48 -35 -26 -15 -60 -38 -77 -52 -48 -41 -49 -41
-101 -81 -58 -44 -184 -175 -184 -191 0 -6 -17 -31 -38 -55 -47 -55 -72 -94
-72 -113 0 -8 -6 -21 -12 -28 -18 -19 -36 -48 -49 -78 -6 -14 -15 -33 -20 -42
-5 -10 -9 -23 -9 -28 0 -6 -9 -32 -21 -58 -11 -26 -24 -56 -28 -67 -18 -43
-40 -132 -46 -180 -7 -53 -19 -98 -66 -235 -16 -47 -29 -98 -29 -114 0 -15 -4
-35 -9 -44 -5 -9 -14 -55 -21 -102 -24 -177 -28 -196 -40 -230 -29 -79 -39
-117 -45 -165 -4 -27 -10 -59 -15 -70 -5 -11 -14 -87 -20 -170 -20 -264 -25
-304 -38 -317 -6 -6 -12 -31 -12 -55 0 -23 -7 -63 -16 -89 -23 -69 -23 -392 0
-425 9 -13 16 -29 16 -36 0 -6 22 -57 49 -112 50 -105 91 -157 253 -325 102
-106 116 -135 95 -198 -11 -32 -21 -44 -38 -46 -13 -2 -32 -10 -43 -18 -11 -8
-39 -14 -62 -14 -41 0 -127 -31 -139 -50 -3 -6 -18 -10 -33 -10 -15 0 -36 -7
-46 -15 -11 -8 -28 -15 -37 -15 -10 0 -30 -7 -46 -15 -15 -8 -107 -52 -203
-99 -127 -62 -191 -99 -232 -136 -31 -27 -60 -50 -65 -50 -5 0 -22 -13 -38
-30 -16 -16 -34 -30 -39 -30 -10 0 -84 -67 -112 -102 -6 -7 -32 -32 -58 -56
-25 -24 -46 -49 -46 -57 0 -7 -11 -27 -25 -43 -31 -36 -66 -145 -92 -277 -3
-16 -11 -37 -17 -45 -7 -8 -20 -42 -30 -75 -10 -33 -24 -73 -32 -88 -8 -16
-14 -37 -14 -47 0 -15 -24 -76 -49 -120 -4 -8 -15 -31 -23 -50 -50 -114 -62
-140 -82 -162 -11 -13 -30 -40 -40 -60 -10 -21 -34 -51 -52 -68 -19 -16 -42
-43 -51 -58 -10 -15 -30 -37 -44 -49 -46 -39 -138 -167 -145 -201 -4 -18 -11
-35 -15 -38 -5 -3 -9 -29 -9 -57 0 -29 -7 -65 -15 -81 -8 -15 -15 -41 -15 -57
0 -15 -4 -31 -10 -34 -5 -3 -18 -25 -28 -48 -11 -23 -31 -55 -46 -71 -15 -16
-32 -38 -37 -50 -5 -11 -13 -28 -19 -36 -5 -8 -16 -33 -25 -55 -22 -54 -88
-189 -96 -195 -4 -3 -10 -20 -14 -38 -7 -34 -34 -94 -45 -102 -9 -6 -50 -95
-50 -107 0 -5 -19 -30 -42 -55 -24 -26 -60 -73 -80 -105 -21 -32 -43 -67 -50
-78 -7 -11 -15 -22 -18 -25 -6 -6 -34 -57 -70 -130 -39 -78 -83 -236 -96 -344
-3 -27 -9 -57 -13 -65 -5 -9 -12 -50 -16 -91 -4 -41 -11 -79 -15 -85 -4 -5
-13 -41 -18 -80 -6 -38 -15 -90 -20 -115 -37 -181 -44 -239 -38 -318 4 -53 12
-93 24 -110 24 -37 90 -102 103 -102 6 0 28 -13 49 -30 21 -16 44 -30 51 -30
19 0 107 -29 142 -46 16 -8 37 -14 47 -14 10 0 21 -4 24 -9 7 -11 88 -51 103
-51 6 0 16 -7 23 -15 7 -8 20 -15 30 -15 10 0 23 -7 30 -15 7 -8 21 -15 32
-15 11 0 34 -7 51 -16 57 -30 67 -34 79 -34 18 0 98 -41 142 -72 21 -15 48
-28 58 -28 20 0 72 -24 98 -44 33 -27 123 -46 214 -46 66 0 98 -4 112 -15 12
-9 43 -14 88 -15 60 0 72 -3 106 -30 28 -22 48 -30 78 -30 22 0 53 -6 69 -14
28 -14 91 -32 148 -43 17 -3 43 -16 58 -29 15 -13 44 -26 65 -30 20 -4 49 -13
65 -21 20 -10 69 -14 182 -14 113 0 163 -4 189 -14 20 -9 67 -15 108 -15 43 0
95 -8 128 -19 42 -14 62 -16 84 -8 17 6 65 7 125 2 53 -4 112 -9 131 -10 19
-2 54 -7 78 -11 35 -5 51 -3 80 14 34 18 46 19 167 11 183 -12 176 -12 182 12
6 21 9 22 117 15 93 -6 114 -10 133 -28 19 -18 29 -20 79 -13 32 4 69 15 83
24 22 15 39 17 116 10 50 -4 112 -12 139 -18 44 -10 55 -9 92 10 28 13 44 28
46 42 3 21 8 22 83 21 44 0 166 -2 270 -3 105 -1 236 -6 293 -12 76 -8 106 -8
116 0 10 9 37 9 101 1 50 -6 92 -7 98 -2 15 11 200 17 522 16 243 0 439 -14
493 -35 50 -20 127 -32 202 -33 108 0 249 13 295 29 22 8 67 15 100 16 33 2
69 7 80 13 21 10 122 31 219 45 32 5 63 14 69 20 6 6 20 11 31 11 26 0 126 41
126 52 0 4 10 8 23 8 13 0 32 7 43 15 10 8 26 15 35 15 9 0 24 10 35 21 22 25
123 72 139 65 7 -2 31 4 55 15 23 10 64 19 90 19 29 0 52 6 60 14 6 8 35 22
63 32 29 9 61 22 72 29 11 6 38 14 60 17 50 7 148 53 221 104 100 70 247 224
291 305 12 22 33 49 47 60 13 10 34 40 47 67 12 26 25 49 29 52 3 3 14 23 23
46 15 33 18 59 14 140 -5 122 -20 191 -58 267 -16 33 -29 65 -29 72 0 7 -7 18
-15 25 -8 7 -15 19 -15 27 0 8 -13 32 -30 53 -16 21 -30 41 -30 45 0 17 -59
132 -74 144 -9 7 -16 21 -16 31 0 10 -7 23 -15 30 -8 7 -15 16 -15 21 0 5 -11
27 -25 49 -14 22 -32 61 -41 87 -9 27 -29 69 -45 96 -16 26 -29 51 -29 55 -1
4 -9 25 -20 47 -11 22 -19 46 -20 53 0 6 -4 12 -8 12 -9 0 -52 81 -52 98 0 7
-13 35 -28 64 -16 29 -35 71 -42 93 -7 22 -21 60 -32 85 -39 86 -40 89 -69
220 -6 25 -16 59 -24 75 -35 80 -45 107 -45 120 0 9 -4 23 -9 33 -28 51 -69
151 -74 177 -5 29 -57 152 -77 185 -5 8 -21 39 -35 67 -15 29 -30 55 -36 58
-5 4 -9 15 -9 26 0 11 -13 47 -30 81 -16 33 -30 68 -30 77 0 9 -7 26 -15 37
-8 10 -15 31 -15 46 0 14 -18 70 -40 124 -22 54 -40 102 -40 107 0 19 -75 176
-105 221 -12 18 -36 63 -54 100 -34 72 -80 137 -119 169 -12 11 -34 41 -47 68
-28 54 -81 111 -125 134 -16 8 -36 30 -45 48 -16 34 -90 93 -155 123 -8 4 -31
19 -50 33 -19 14 -53 34 -75 45 -22 10 -65 31 -96 47 -31 16 -63 29 -70 29 -8
1 -32 9 -54 20 -22 11 -46 19 -52 20 -7 0 -13 5 -13 10 0 6 -8 10 -18 10 -10
0 -27 7 -38 15 -10 8 -26 15 -36 15 -9 0 -52 26 -95 58 -43 31 -100 68 -126
82 -26 13 -47 28 -47 31 0 4 -21 17 -47 29 -49 22 -53 24 -138 60 -27 12 -64
28 -82 36 -17 8 -40 14 -51 14 -12 0 -24 5 -27 10 -3 6 -17 10 -31 10 -14 0
-34 5 -45 11 -11 5 -48 15 -82 20 -91 14 -146 38 -153 65 -11 45 35 139 113
231 42 48 79 90 84 91 5 2 9 9 9 16 0 7 9 21 20 31 24 22 103 181 127 255 9
30 23 66 30 80 7 14 13 46 13 72 0 26 4 49 9 52 8 6 25 105 36 211 15 156 -33
356 -122 505 -25 41 -27 55 -30 160 -1 63 -5 131 -8 150 -3 19 -7 62 -10 95
-2 33 -9 83 -15 110 -17 77 -27 124 -40 195 -7 36 -18 72 -25 80 -7 8 -15 24
-19 35 -13 44 -28 173 -27 225 3 110 -60 297 -121 362 -16 16 -28 34 -28 41 0
13 -75 75 -169 142 -57 40 -102 78 -176 148 -22 21 -69 61 -105 89 -36 28 -67
53 -70 57 -18 22 -168 135 -203 153 -23 12 -56 31 -72 43 -17 12 -53 32 -80
44 -28 12 -59 26 -70 31 -66 29 -169 40 -413 42 -140 2 -255 2 -256 1z m441
-63 c94 -5 179 -13 190 -19 10 -5 38 -19 63 -31 25 -12 64 -35 88 -51 24 -16
47 -29 53 -29 5 0 9 -9 9 -21 0 -15 4 -19 16 -15 26 10 87 -37 307 -237 68
-63 78 -77 53 -77 -7 0 -16 -9 -19 -20 -3 -13 0 -20 9 -20 8 0 14 -7 14 -15 0
-8 10 -20 23 -26 12 -7 24 -15 27 -18 10 -13 132 -81 145 -81 7 0 15 -7 19
-15 3 -8 13 -15 21 -15 16 0 119 -74 159 -114 37 -37 54 -98 65 -234 6 -74 13
-138 16 -143 4 -5 2 -16 -3 -25 -7 -13 -17 -8 -63 33 -68 60 -119 96 -126 89
-8 -7 42 -62 140 -156 86 -81 161 -200 140 -221 -10 -10 -176 155 -248 246
-49 61 -186 198 -243 243 l-42 34 0 -26 c0 -13 5 -28 10 -31 6 -3 10 -19 10
-35 0 -16 6 -35 14 -42 7 -8 21 -28 30 -46 9 -18 23 -32 30 -32 29 0 342 -322
393 -405 57 -91 105 -300 74 -319 -5 -3 -21 15 -36 41 -15 27 -38 59 -50 73
-12 14 -43 61 -69 104 -51 85 -61 97 -177 220 -42 45 -83 95 -92 111 -26 48
-57 126 -57 142 0 8 -6 13 -12 11 -8 -3 -14 -27 -15 -64 -4 -89 32 -155 125
-232 76 -64 152 -137 152 -147 0 -10 -43 6 -75 29 -16 12 -39 26 -50 33 -11 7
-51 31 -89 54 -66 40 -177 96 -257 132 -22 9 -41 12 -50 7 -10 -7 -7 -11 14
-19 15 -6 27 -15 27 -21 0 -5 6 -10 14 -10 8 0 21 -6 28 -12 19 -18 49 -36 78
-49 13 -5 27 -14 30 -18 3 -4 23 -18 45 -31 22 -13 42 -27 45 -30 9 -11 129
-101 178 -133 109 -72 209 -175 227 -234 5 -19 3 -22 -12 -16 -10 4 -31 20
-48 38 -29 29 -127 95 -143 95 -4 0 -31 16 -61 35 -29 19 -56 35 -59 35 -4 1
-19 11 -33 23 -171 144 -179 149 -243 153 -34 2 -75 0 -91 -5 -17 -5 -23 -10
-15 -10 9 -1 23 -10 33 -21 9 -11 29 -20 44 -20 38 0 118 -40 175 -87 89 -73
167 -133 171 -133 16 0 122 -81 182 -139 39 -37 90 -83 115 -101 70 -52 114
-105 159 -194 59 -115 65 -142 66 -316 0 -199 -26 -377 -66 -452 -5 -10 -9
-24 -9 -31 0 -22 -92 -201 -116 -225 -23 -23 -46 -13 -26 11 14 16 71 181 126
364 16 52 20 172 7 228 -6 23 -9 8 -15 -59 -5 -50 -14 -104 -21 -120 -7 -17
-24 -65 -38 -106 -14 -41 -41 -120 -61 -174 -20 -55 -36 -106 -36 -115 0 -21
-197 -424 -287 -586 -18 -33 -36 -67 -40 -75 -8 -18 -93 -151 -172 -269 -31
-47 -93 -124 -137 -171 -45 -47 -90 -104 -100 -126 -10 -21 -21 -41 -24 -44
-3 -3 -16 -22 -28 -43 -26 -45 -38 -60 -77 -101 -17 -17 -42 -53 -55 -81 -26
-56 -101 -187 -111 -195 -5 -4 -61 -111 -90 -171 -15 -31 -31 -174 -38 -334
-3 -90 -10 -167 -14 -171 -10 -10 -499 -29 -522 -20 -14 5 -16 13 -10 44 19
107 17 166 -9 225 -14 31 -31 57 -37 57 -6 0 -9 -6 -6 -14 13 -32 28 -134 25
-161 -5 -46 -30 -36 -52 20 -22 56 -29 162 -14 212 11 38 2 81 -14 65 -17 -17
-13 -210 6 -267 9 -27 16 -78 16 -112 l0 -63 -84 0 c-69 0 -88 3 -110 21 -35
28 -56 70 -57 116 -1 21 -4 49 -9 63 -7 23 -8 23 -15 -14 -4 -21 -5 -67 -2
-102 l6 -64 -43 0 c-46 0 -77 23 -91 68 -11 38 -35 19 -35 -29 0 -15 -7 -19
-39 -19 -21 0 -44 6 -50 13 -6 8 -10 45 -9 83 1 70 -11 148 -27 174 -5 8 -11
30 -14 49 -4 19 -12 36 -19 39 -19 6 -15 -59 6 -88 24 -35 25 -231 1 -255 -23
-24 -194 -11 -217 16 -23 27 -43 87 -52 154 -4 33 -11 70 -15 83 -6 19 -4 22
18 22 37 0 42 17 7 24 -24 4 -30 11 -30 31 0 14 7 28 15 31 21 8 19 21 -4 29
-12 3 -21 17 -23 33 -2 21 -9 27 -30 29 -39 3 -43 -12 -11 -37 27 -21 27 -21
28 -159 1 -89 6 -149 14 -169 7 -17 10 -43 7 -58 -6 -23 -10 -25 -39 -18 -18
4 -59 8 -92 9 -62 2 -105 17 -105 37 0 6 -7 19 -14 27 -13 14 -22 79 -26 171
0 13 -2 13 -9 1 -5 -8 -8 -65 -6 -128 3 -102 1 -114 -15 -123 -10 -6 -21 -10
-24 -10 -10 0 -56 79 -56 95 0 8 -9 32 -20 52 -11 21 -20 45 -20 55 0 9 -4 20
-10 23 -5 3 -10 21 -11 38 0 18 -4 41 -8 52 -8 19 -8 19 -15 -3 -9 -26 -3 -57
30 -168 30 -101 31 -140 3 -155 -53 -28 -95 43 -104 177 -2 36 -11 79 -20 96
-8 17 -15 53 -15 79 0 26 -4 51 -10 54 -5 3 -10 40 -10 81 0 41 -4 74 -9 74
-6 0 -13 -31 -17 -70 -3 -38 -11 -70 -15 -70 -22 0 -2 -132 32 -205 5 -11 10
-42 12 -70 1 -27 7 -56 14 -63 6 -7 11 -35 11 -62 -2 -56 5 -52 -119 -64 -66
-7 -89 8 -68 42 10 16 9 28 -3 63 -11 28 -19 97 -23 194 -7 156 -16 202 -25
125 -6 -55 -24 -55 -28 1 -2 29 1 44 13 53 14 10 16 22 10 69 -12 96 -32 59
-25 -45 1 -20 -3 -28 -14 -28 -22 0 -23 117 -1 146 8 11 14 41 15 74 0 83 -16
93 -23 14 -4 -45 -12 -70 -23 -79 -13 -9 -16 -24 -12 -79 2 -37 9 -70 14 -74
6 -4 14 -35 17 -69 4 -34 13 -79 20 -100 21 -55 37 -132 39 -179 1 -34 -4 -47
-27 -68 -30 -28 -64 -33 -95 -14 -30 19 -34 3 -7 -26 29 -31 72 -34 89 -6 16
26 38 26 38 0 0 -21 -13 -26 -91 -33 -46 -4 -47 -4 -75 41 -16 25 -42 60 -57
76 -15 17 -43 54 -62 82 -19 28 -41 56 -49 63 -9 8 -16 19 -16 27 0 7 -6 17
-12 21 -18 11 -48 79 -48 108 0 26 52 135 80 170 9 11 23 36 30 55 8 19 17 37
20 40 9 7 39 70 34 70 -13 0 -88 -93 -159 -199 -42 -61 -42 -61 -55 -108 -11
-36 -10 -47 5 -80 10 -21 29 -46 42 -56 12 -10 23 -26 23 -35 0 -10 13 -32 29
-49 48 -53 118 -146 136 -182 23 -47 9 -76 -44 -91 -25 -6 -49 -22 -63 -41
-32 -44 -101 -109 -114 -109 -20 0 -74 100 -89 166 -16 68 -12 86 22 125 11
14 26 16 74 12 75 -7 77 7 5 41 -74 35 -118 34 -142 -1 -16 -23 -19 -44 -17
-124 3 -111 15 -146 72 -209 22 -25 41 -52 41 -60 1 -8 12 -35 25 -60 13 -25
31 -60 39 -79 19 -40 40 -165 32 -186 -3 -8 3 -19 14 -25 11 -6 20 -17 20 -26
0 -8 14 -44 30 -79 34 -72 37 -100 14 -109 -29 -11 -81 -6 -94 9 -7 8 -18 15
-26 15 -27 0 -244 262 -244 295 0 11 66 -9 80 -25 22 -26 96 -63 111 -57 10 4
8 7 -6 12 -11 3 -31 24 -44 45 -27 44 -37 49 -101 61 -95 17 -140 29 -177 49
-21 11 -42 20 -48 20 -5 0 -21 10 -35 21 -17 14 -21 22 -12 26 21 8 44 75 37
111 -7 38 7 42 53 15 26 -15 32 -15 47 -3 16 14 14 18 -31 57 -36 32 -57 43
-81 43 -24 0 -33 5 -39 22 -8 26 20 51 48 42 12 -3 20 1 25 11 3 10 49 61 102
114 117 117 184 218 195 296 3 22 21 90 41 150 20 61 38 131 39 157 1 27 6 51
10 55 4 5 35 10 69 13 47 4 63 9 65 22 2 12 -5 18 -30 21 -25 3 -21 4 17 6 28
1 61 8 74 15 l25 14 -30 6 c-16 3 -36 5 -44 4 -8 -1 -34 0 -57 0 -52 2 -57 22
-18 65 22 23 34 27 80 27 29 0 60 3 68 6 9 3 23 -3 31 -13 9 -10 25 -28 37
-41 11 -13 18 -30 15 -39 -9 -22 3 -53 20 -53 9 0 14 -10 14 -27 0 -39 15 -61
23 -34 6 25 -2 61 -14 61 -5 0 -9 14 -9 31 0 17 -6 43 -14 57 -7 15 -22 44
-32 65 -11 21 -43 65 -71 97 -51 56 -64 80 -43 80 6 0 14 10 19 23 6 15 38 38
93 66 45 24 97 51 113 62 17 10 37 21 45 25 8 3 38 17 65 30 28 13 60 24 72
24 12 0 25 5 28 10 3 6 -3 10 -14 10 -12 0 -21 7 -21 15 0 8 4 15 10 15 5 0
18 9 28 20 17 18 27 19 165 13 80 -3 144 -10 141 -15 -3 -4 -18 -8 -34 -8 -16
0 -32 -4 -35 -10 -3 -5 -16 -10 -28 -10 -13 0 -31 -6 -42 -14 -11 -7 -33 -16
-49 -20 -31 -8 -124 -64 -143 -87 -6 -8 -13 -25 -15 -39 -3 -23 -8 -25 -60
-28 -34 -2 -61 -9 -68 -17 -7 -8 -21 -15 -31 -15 -10 0 -21 -5 -24 -10 -12
-20 25 -22 71 -4 42 16 48 16 73 1 31 -18 41 -14 41 15 0 32 47 84 101 112 28
14 55 26 60 26 12 0 92 34 131 55 14 8 33 15 42 15 9 0 19 7 22 15 4 9 19 15
38 15 17 0 40 7 50 15 11 8 25 15 32 15 7 0 41 17 76 37 78 47 139 62 248 62
92 1 113 -6 110 -35 -1 -11 -2 -28 -1 -38 1 -18 2 -18 19 -2 18 15 20 14 45
-16 15 -17 27 -38 27 -45 0 -7 5 -13 10 -13 6 0 15 -11 20 -25 5 -14 14 -25
20 -25 5 0 10 -11 10 -25 0 -14 4 -25 9 -25 14 0 20 25 10 41 -5 8 -9 24 -9
37 0 13 -8 37 -17 55 -9 18 -16 41 -14 52 1 12 -9 31 -23 44 -28 26 -26 41 4
41 23 0 90 -62 90 -83 0 -8 -10 -17 -22 -21 -22 -6 -22 -7 12 -36 19 -16 40
-30 47 -30 7 0 31 -20 54 -45 23 -25 50 -45 58 -45 9 0 25 -15 35 -32 19 -33
54 -67 69 -68 15 0 6 34 -28 98 -20 37 -44 76 -54 87 -10 11 -27 36 -37 55
-46 85 -131 175 -223 236 -27 17 -56 37 -63 43 -7 6 -62 48 -123 93 -138 103
-440 403 -510 508 -28 41 -66 107 -84 145 -19 39 -39 79 -45 90 -6 11 -12 91
-14 178 -4 171 0 201 60 402 38 126 50 157 108 280 51 106 96 204 137 295 13
30 33 73 43 95 24 52 109 224 123 250 56 98 116 199 142 240 18 28 47 77 65
110 18 33 39 67 46 76 21 23 17 32 -11 25 -36 -9 -35 9 8 161 17 60 12 133 -9
133 -8 0 -14 -7 -14 -15 0 -8 -13 -41 -29 -72 -16 -32 -46 -94 -66 -138 -21
-44 -65 -136 -97 -205 -33 -69 -64 -134 -69 -145 -4 -11 -17 -41 -28 -67 -12
-26 -21 -52 -21 -58 0 -5 -4 -18 -10 -28 -10 -18 -35 -86 -50 -137 -23 -77
-45 -136 -80 -210 -35 -74 -82 -177 -115 -250 -8 -16 -16 -38 -19 -47 -3 -10
-13 -18 -22 -18 -14 0 -15 10 -9 78 4 42 11 95 16 117 27 110 59 231 78 294 6
18 28 56 49 85 59 78 147 240 175 322 21 64 22 94 2 94 -8 0 -15 -8 -15 -19 0
-10 -6 -24 -14 -30 -7 -6 -16 -25 -19 -41 -7 -30 -99 -186 -136 -229 -12 -13
-24 -21 -28 -18 -11 12 33 178 72 272 7 17 21 53 31 80 19 52 102 198 116 203
4 2 8 8 8 14 0 6 13 27 29 47 16 20 39 55 51 79 12 23 26 42 31 42 5 0 9 7 9
16 0 8 7 22 15 30 8 9 15 22 15 30 0 8 -7 14 -15 14 -8 0 -15 -5 -15 -10 0
-20 -225 -311 -228 -295 -2 9 1 21 6 28 5 7 13 27 17 45 4 18 13 45 21 60 8
15 14 34 14 42 0 8 7 24 15 34 8 11 15 27 15 35 0 18 89 200 108 219 6 7 12
19 12 27 0 7 3 15 8 17 4 2 18 19 32 40 38 54 99 127 152 180 46 46 201 168
213 168 5 0 64 39 75 50 3 3 28 16 55 29 28 14 52 27 55 30 11 14 137 71 155
71 11 1 34 7 50 15 32 16 212 15 572 -5z m1031 -647 c2 -8 -5 -13 -17 -13 -12
0 -21 6 -21 16 0 18 31 15 38 -3z m155 -3107 c29 -14 77 -28 107 -32 30 -4 60
-10 65 -14 6 -5 28 -11 50 -15 22 -4 45 -11 50 -15 6 -4 26 -11 45 -15 19 -4
41 -11 50 -16 8 -5 38 -18 65 -29 28 -11 58 -25 68 -31 10 -5 43 -23 73 -40
70 -37 107 -63 162 -114 65 -59 124 -95 157 -95 17 -1 48 -9 70 -20 22 -11 45
-19 52 -20 6 0 24 -6 40 -14 15 -8 39 -19 53 -24 161 -67 292 -143 358 -208
69 -69 49 -80 -33 -19 -16 13 -55 33 -85 45 -30 12 -86 35 -124 51 -38 16 -86
29 -107 29 -48 0 -104 28 -147 75 -28 29 -41 35 -76 35 -23 0 -50 6 -61 14
-11 7 -36 17 -55 21 -19 4 -80 38 -135 75 -183 122 -260 175 -265 180 -19 20
-66 41 -112 49 -29 6 -77 15 -105 21 -29 6 -90 10 -135 8 -75 -3 -83 -5 -86
-23 -2 -12 7 -30 20 -42 25 -23 113 -73 128 -73 16 0 158 -69 165 -80 3 -5 15
-10 26 -10 10 0 19 -4 19 -10 0 -5 14 -10 30 -10 21 0 30 -5 30 -16 0 -11 6
-14 20 -9 19 6 69 -16 97 -42 7 -6 25 -21 40 -33 19 -15 23 -24 15 -32 -8 -8
-18 -7 -36 6 -16 10 -46 16 -80 16 -30 0 -57 4 -60 9 -3 5 -18 12 -33 16 -15
3 -30 10 -33 13 -9 13 -125 78 -165 94 -89 34 -154 50 -186 45 -88 -14 -176
-63 -154 -85 9 -9 94 -6 180 6 56 8 78 7 110 -5 39 -15 144 -62 197 -89 14 -8
37 -14 50 -14 12 0 32 -7 42 -15 11 -8 34 -15 50 -15 39 0 134 -48 141 -71 12
-37 211 -189 248 -189 7 0 23 -10 37 -22 14 -13 43 -35 66 -51 22 -15 50 -36
61 -46 11 -11 43 -29 70 -41 54 -23 88 -65 65 -79 -20 -12 -52 -79 -46 -95 3
-8 1 -17 -5 -21 -13 -8 -15 -55 -2 -55 5 0 11 10 13 23 2 12 10 22 18 22 24 0
18 -90 -12 -165 -69 -178 -88 -268 -104 -500 -3 -36 -12 -79 -20 -97 -7 -17
-14 -35 -14 -41 0 -15 -40 -62 -54 -62 -7 0 -50 29 -96 65 -91 71 -86 70 -253
66 -43 -1 -83 1 -89 5 -9 6 -57 8 -290 12 -118 2 -133 12 -125 80 5 46 -8 102
-24 102 -10 0 -11 -15 -9 -109 l1 -64 -38 7 c-91 16 -251 26 -420 25 -100 0
-187 2 -193 6 -13 8 -13 42 -1 97 6 24 15 86 21 138 7 52 19 138 27 190 20
131 32 288 26 330 -3 26 0 40 11 49 11 9 16 30 16 62 0 32 4 49 13 49 6 1 28
33 47 73 19 40 42 83 52 96 22 29 23 60 3 67 -8 4 -15 11 -15 16 0 8 40 62 85
115 38 44 114 163 119 187 4 17 19 46 34 65 38 51 45 63 107 189 31 61 59 112
61 112 3 0 29 -11 57 -24z m-2529 -116 c5 -5 6 -16 3 -24 -8 -21 -129 -23
-146 -2 -9 11 -9 16 0 22 37 23 121 26 143 4z m-214 -51 c0 -5 -6 -9 -14 -9
-7 0 -19 -7 -26 -15 -7 -9 -30 -15 -54 -15 -22 0 -50 -7 -60 -15 -11 -8 -29
-15 -41 -15 -12 0 -30 -7 -41 -15 -10 -8 -27 -15 -36 -15 -9 0 -30 -7 -47 -15
-17 -8 -45 -22 -62 -30 -17 -8 -36 -15 -44 -15 -7 0 -18 -7 -25 -15 -7 -8 -23
-15 -35 -15 -12 0 -28 -6 -35 -14 -6 -8 -23 -16 -37 -18 -15 -2 -28 -9 -31
-15 -6 -19 63 -17 78 2 7 8 21 15 30 15 10 0 33 8 52 17 18 9 45 22 60 30 14
7 35 13 46 13 12 0 23 4 27 9 3 5 19 12 36 16 17 4 42 13 57 21 15 8 37 14 49
14 12 0 24 4 27 9 4 5 25 12 49 16 23 4 53 13 67 20 14 7 46 16 72 20 38 6 54
3 80 -12 18 -11 56 -26 83 -33 28 -7 58 -20 67 -28 10 -8 28 -16 40 -17 37 -4
38 -4 38 -19 0 -20 -18 -24 -70 -14 -90 16 -263 -17 -410 -79 -20 -9 -79 -17
-140 -19 -114 -5 -206 -21 -230 -39 -8 -7 -22 -15 -30 -19 -8 -3 -28 -15 -45
-26 -16 -11 -40 -24 -52 -29 -11 -5 -24 -15 -28 -20 -3 -6 -16 -11 -28 -11
-12 0 -31 -7 -41 -15 -11 -8 -30 -15 -42 -15 -12 0 -27 -7 -34 -15 -7 -8 -21
-15 -31 -15 -10 0 -35 -21 -56 -47 -53 -67 -62 -72 -118 -73 -63 0 -97 -9 -92
-24 2 -6 28 -11 62 -11 38 0 60 -4 62 -12 3 -7 -3 -13 -11 -13 -9 0 -19 -7
-22 -15 -4 -9 -19 -15 -38 -16 -17 0 -40 -4 -50 -8 -33 -13 -1 -23 75 -23 46
-1 75 -6 84 -14 7 -8 18 -14 23 -14 12 0 46 -50 38 -57 -2 -3 -18 4 -35 16
-16 12 -47 28 -68 35 -35 12 -43 12 -73 -5 -21 -11 -56 -18 -87 -19 -42 0 -53
-3 -53 -16 0 -14 8 -16 59 -10 65 7 82 -5 56 -41 -8 -10 -15 -30 -15 -45 0
-34 -42 -68 -84 -68 -18 0 -41 -7 -52 -15 -24 -18 -54 -19 -54 -2 0 29 38 131
53 142 9 7 12 16 8 24 -5 7 -3 26 3 42 10 27 15 30 50 27 25 -2 41 2 44 10 3
10 -4 12 -32 7 -32 -7 -36 -5 -36 14 0 12 13 34 29 49 16 15 32 37 36 50 3 12
25 35 48 50 23 15 103 77 177 138 74 61 151 120 171 131 20 10 44 27 54 36 9
9 25 17 34 17 10 0 24 7 31 15 7 8 20 15 30 15 10 0 23 7 30 15 7 8 18 15 24
15 6 0 40 14 76 32 36 17 81 38 100 46 19 8 42 18 51 22 32 16 170 50 200 50
17 0 37 7 46 15 15 15 33 12 33 -6z m3245 -179 c20 -32 314 -196 385 -215 33
-8 68 -25 109 -52 19 -13 46 -23 60 -23 14 0 35 -7 45 -15 11 -8 37 -15 58
-15 21 0 46 -4 56 -9 52 -27 123 -63 164 -83 31 -15 48 -30 48 -41 0 -14 -5
-17 -22 -11 -13 4 -47 8 -76 9 -30 2 -59 8 -65 14 -6 6 -26 11 -43 11 -18 0
-36 5 -39 10 -3 6 -23 10 -43 10 -20 0 -50 7 -66 15 -15 8 -38 15 -50 15 -11
0 -34 7 -50 15 -30 16 -97 21 -80 7 5 -5 50 -23 99 -42 174 -63 193 -72 204
-97 14 -30 14 -29 -5 -48 -29 -28 -81 -9 -218 78 -25 16 -64 48 -90 73 -11 11
-29 23 -39 27 -23 8 -13 27 14 27 11 0 17 5 14 10 -3 6 -15 10 -26 10 -10 0
-19 4 -19 9 0 11 -66 51 -86 51 -8 0 -14 7 -14 15 0 8 -7 15 -15 15 -8 0 -54
39 -103 88 -90 90 -141 152 -123 152 5 0 13 -5 16 -10z m163 -230 c23 -16 46
-30 50 -30 12 0 82 -77 82 -89 0 -6 7 -14 16 -19 9 -5 14 -14 10 -20 -7 -11
-65 17 -94 45 -7 7 -17 13 -21 13 -13 0 -82 73 -97 103 -20 37 0 36 54 -3z
m-1222 -234 c-9 -14 -16 -36 -16 -49 0 -19 -7 -26 -27 -30 -58 -11 -58 23 -2
82 28 29 45 39 52 32 7 -7 5 -18 -7 -35z m1504 -11 c0 -8 7 -15 15 -15 8 0 25
-11 39 -25 23 -23 23 -25 6 -25 -11 0 -20 5 -20 10 0 6 -7 10 -15 10 -9 0 -18
7 -21 15 -4 8 -12 15 -20 15 -8 0 -14 7 -14 15 0 8 7 15 15 15 8 0 15 -7 15
-15z m626 5 c33 0 134 -127 168 -210 37 -92 52 -116 118 -187 72 -78 89 -106
120 -198 11 -33 26 -74 33 -91 8 -16 28 -61 45 -98 33 -74 38 -106 16 -106
-17 0 -106 99 -106 117 0 7 -13 31 -29 55 -16 24 -43 75 -61 113 -78 169 -104
221 -117 228 -7 4 -13 17 -13 28 0 11 -7 22 -15 25 -8 4 -15 16 -15 29 0 12
-7 28 -15 35 -8 7 -15 22 -15 34 0 11 -13 36 -28 53 -21 26 -42 36 -93 49 -65
16 -69 16 -139 -6 -59 -18 -83 -32 -134 -81 -54 -50 -124 -154 -113 -166 9 -9
96 37 101 54 11 31 145 106 199 111 92 9 183 -39 217 -114 11 -24 20 -48 20
-53 0 -6 4 -11 9 -11 4 0 11 -23 14 -51 4 -28 18 -71 32 -96 14 -25 25 -51 25
-58 0 -7 7 -18 15 -25 8 -7 15 -23 15 -36 0 -13 9 -28 20 -34 11 -6 20 -15 20
-20 0 -6 14 -29 30 -52 17 -22 30 -46 30 -52 0 -19 77 -94 115 -112 49 -23 98
-87 123 -159 28 -82 38 -105 97 -210 28 -49 62 -119 75 -155 13 -36 30 -76 37
-90 7 -14 13 -33 13 -42 0 -9 4 -19 9 -22 5 -3 12 -22 16 -42 3 -20 10 -44 15
-53 5 -9 19 -50 31 -91 80 -269 124 -384 225 -590 48 -96 113 -229 146 -295
32 -66 63 -137 69 -158 5 -21 25 -55 43 -75 19 -20 43 -59 55 -85 13 -27 36
-70 52 -97 16 -26 29 -54 29 -62 0 -8 14 -42 32 -74 67 -125 80 -171 85 -294
4 -99 2 -122 -15 -165 -14 -35 -25 -50 -38 -50 -26 0 -41 57 -26 99 14 39 15
79 3 120 -5 17 -17 60 -27 96 -9 36 -22 79 -30 95 -23 54 -55 120 -64 135 -5
8 -19 38 -31 65 -53 125 -165 338 -180 343 -5 2 -9 8 -9 13 0 11 -42 72 -52
77 -5 2 -8 8 -8 14 0 6 -13 27 -30 48 -16 21 -30 40 -30 44 0 3 -33 55 -74
116 -80 117 -106 164 -106 188 0 7 -6 28 -14 45 -8 18 -19 52 -25 77 -5 25
-15 68 -21 95 -6 28 -15 66 -20 85 -21 86 -32 139 -41 193 -5 32 -13 67 -19
77 -5 10 -10 32 -10 48 0 45 -70 228 -154 400 -14 30 -26 60 -26 68 0 47 -44
130 -111 208 -14 16 -29 -32 -21 -70 6 -28 14 -40 31 -44 18 -4 28 -19 42 -65
11 -33 21 -77 24 -98 3 -21 12 -55 21 -75 25 -60 106 -304 115 -349 5 -24 13
-62 18 -85 5 -24 14 -66 20 -95 5 -29 14 -60 19 -70 29 -57 54 -152 53 -197
-1 -21 3 -44 9 -51 6 -8 10 -35 8 -62 -3 -46 -4 -48 -35 -51 -25 -3 -34 -9
-39 -28 -7 -27 -22 -29 -78 -9 -22 8 -52 11 -66 8 -30 -6 -49 12 -31 30 6 6
11 21 11 34 0 16 6 23 19 23 11 0 23 -5 26 -10 5 -8 69 -40 80 -40 2 0 1 9 -2
19 -3 11 -16 22 -29 25 -28 7 -31 30 -8 76 16 31 16 34 0 45 -9 7 -16 21 -16
31 -1 10 -11 32 -24 48 l-23 28 -17 -23 c-18 -26 -21 -49 -6 -49 6 0 10 5 10
10 0 6 7 10 16 10 16 0 16 -11 -1 -54 -7 -15 -5 -17 13 -12 20 7 21 4 16 -26
-10 -56 -12 -60 -41 -56 -17 2 -32 12 -38 26 -14 32 -25 27 -25 -13 0 -22 6
-38 15 -41 20 -8 19 -44 -2 -60 -17 -13 -17 -15 6 -34 13 -11 34 -20 48 -20
13 0 36 -6 51 -14 15 -8 49 -17 75 -21 26 -4 47 -11 47 -16 0 -5 -4 -9 -10 -9
-5 0 -10 -4 -10 -10 0 -15 57 -12 91 5 28 15 29 18 23 64 -4 31 -2 51 5 55 6
4 13 1 15 -6 2 -7 14 -45 25 -83 15 -53 40 -98 96 -179 42 -59 90 -136 107
-170 18 -33 35 -63 38 -66 3 -3 21 -30 39 -60 19 -30 54 -85 78 -121 47 -72
50 -79 28 -79 -27 0 -16 -38 24 -79 126 -131 164 -228 192 -486 4 -44 11 -93
14 -110 9 -46 -7 -109 -29 -113 -18 -4 -19 2 -13 87 5 74 2 108 -15 174 -23
92 -25 97 -38 77 -15 -24 -35 3 -21 28 15 29 15 50 -1 34 -18 -18 -28 -14 -28
12 0 22 -30 62 -72 95 -15 11 -21 11 -34 0 -14 -11 -18 -11 -28 2 -6 9 -33 25
-59 37 -45 20 -60 21 -215 16 -150 -4 -261 -18 -347 -44 -16 -5 -64 -12 -105
-16 -41 -4 -84 -13 -95 -20 -11 -8 -31 -14 -46 -14 -14 0 -34 -9 -44 -20 -18
-20 -18 -20 26 -17 38 4 195 34 349 67 25 5 77 12 115 15 39 4 89 11 113 17
33 8 64 8 128 -2 47 -7 87 -17 90 -22 3 -4 20 -8 37 -8 18 0 41 -7 51 -15 11
-8 28 -15 38 -15 11 0 18 -7 18 -20 0 -11 5 -20 10 -20 6 0 15 -11 20 -25 5
-13 22 -43 37 -67 43 -67 53 -96 53 -157 0 -49 -5 -63 -32 -99 l-32 -42 -23
27 c-13 14 -23 30 -23 36 0 5 -13 26 -28 46 -16 20 -32 44 -35 54 -4 9 -11 17
-17 17 -5 0 -10 5 -10 10 0 14 -42 70 -52 70 -14 0 -9 -27 8 -41 8 -7 24 -29
35 -48 11 -20 30 -55 43 -78 13 -23 29 -65 36 -93 l12 -51 -38 -36 c-22 -20
-54 -47 -71 -60 -18 -14 -33 -30 -33 -37 -1 -6 -27 -33 -58 -61 -32 -27 -78
-77 -103 -109 -49 -67 -57 -71 -260 -126 -156 -43 -155 -43 -151 -1 1 19 7 40
12 46 15 18 24 121 12 129 -12 7 -19 -15 -24 -68 -2 -16 -9 -31 -15 -34 -10
-3 -13 35 -13 167 0 130 -4 180 -15 208 -8 19 -15 44 -15 54 0 10 -15 52 -34
92 -35 73 -45 84 -223 248 -17 16 -38 29 -47 29 -8 0 -17 4 -20 9 -3 5 -33 23
-66 40 -51 27 -70 31 -132 31 -40 0 -91 -5 -113 -11 -22 -6 -62 -14 -90 -19
-27 -5 -61 -12 -75 -15 -23 -6 -23 -7 -6 -17 22 -12 122 -3 180 18 56 19 136
18 182 -4 50 -22 144 -84 144 -94 0 -5 6 -8 13 -8 14 0 151 -110 174 -139 14
-18 54 -100 71 -146 25 -69 42 -189 45 -330 l4 -150 -37 -55 c-37 -54 -105
-112 -165 -143 -51 -25 -187 -69 -255 -83 -36 -7 -94 -20 -130 -29 -36 -9 -84
-20 -108 -25 -23 -5 -51 -14 -61 -20 -11 -5 -39 -10 -62 -10 -23 0 -56 -4 -73
-9 -92 -29 -366 -28 -366 1 0 10 48 78 65 91 5 4 25 6 42 3 18 -3 35 0 38 5 4
5 11 9 17 9 7 0 6 -6 -2 -15 -7 -8 -9 -15 -4 -16 29 -3 82 5 102 15 l24 13
-27 17 c-16 11 -33 15 -43 10 -20 -9 -82 -14 -100 -8 -11 3 -10 8 2 26 18 25
21 58 6 58 -5 0 -10 -4 -10 -10 0 -5 -4 -10 -8 -10 -5 0 -8 21 -7 48 1 47 18
92 35 92 5 0 7 22 3 48 -3 27 -1 57 5 68 16 31 -31 104 -68 104 -15 0 -33 7
-40 15 -15 18 -15 82 0 100 5 6 7 14 4 17 -8 9 -15 239 -7 252 4 6 8 28 8 48
1 41 29 86 62 103 12 6 27 16 34 22 35 28 93 53 123 53 20 0 36 6 39 15 4 8
24 23 47 35 24 12 40 27 40 38 0 25 39 60 81 73 19 6 72 19 119 29 162 35 195
46 198 63 3 12 10 15 33 10 33 -6 41 12 8 22 -14 5 -17 10 -10 18 5 7 12 29
16 50 6 31 3 44 -14 67 -11 16 -21 43 -21 60 0 26 -4 30 -26 30 -15 0 -43 14
-63 30 -20 17 -43 36 -51 43 -20 16 -49 31 -90 45 -100 35 -250 172 -250 227
0 25 -26 51 -54 56 -28 6 -69 89 -60 122 3 15 12 27 20 27 10 0 14 15 14 60 0
49 3 61 20 70 12 6 29 8 39 5 15 -4 17 -1 13 20 -2 14 3 36 12 50 9 14 12 25
6 25 -6 0 -14 -8 -17 -17 -11 -30 -52 -66 -68 -59 -20 7 -19 43 3 55 16 9 15
14 -10 63 -24 49 -27 63 -27 177 -1 68 -4 127 -6 132 -3 4 3 14 15 21 11 7 20
20 20 30 0 9 4 19 9 22 17 11 22 88 7 111 -24 37 -30 90 -13 125 14 27 14 32
1 37 -9 3 -14 15 -12 32 2 20 -1 26 -17 26 -18 0 -20 6 -17 62 4 73 -10 109
-19 48 -4 -34 -7 -37 -14 -20 -5 11 -19 35 -32 54 -25 36 -31 98 -13 132 15
28 28 23 39 -13 8 -28 9 -29 10 -9 1 14 -6 32 -14 41 -14 15 -13 21 2 56 12
29 16 64 15 139 -2 107 16 186 63 270 12 22 25 58 29 79 4 21 14 48 21 60 24
36 18 226 -6 226 -5 0 -9 11 -9 25 0 30 16 33 23 5 7 -26 27 -26 27 0 0 17 35
75 90 146 48 62 181 137 228 128 16 -3 38 -1 49 5 10 6 24 8 31 6 8 -3 20 -5
28 -5z m-2220 -121 c3 -6 17 -8 30 -5 35 9 40 -15 15 -69 -12 -25 -21 -50 -21
-56 0 -7 -7 -17 -16 -24 -13 -9 -19 -49 -29 -206 -8 -107 -18 -207 -24 -222
-6 -16 -11 -58 -11 -94 0 -36 -4 -82 -10 -102 -5 -20 -12 -53 -15 -73 -5 -34
-10 -39 -46 -48 -79 -21 -83 -17 -79 85 7 191 3 406 -9 418 -8 8 -11 5 -12
-14 -1 -13 0 -28 1 -34 1 -5 -5 -50 -14 -100 -9 -49 -19 -153 -23 -230 l-8
-139 -32 -7 c-54 -11 -58 2 -55 192 1 93 7 180 12 194 6 15 10 36 10 48 0 12
6 33 14 47 45 84 66 121 99 172 21 32 41 68 46 80 5 13 28 47 50 77 23 30 41
58 41 63 0 4 6 8 14 8 7 0 21 11 30 25 18 27 31 31 42 14z m-3226 -229 c0 -11
-9 -37 -20 -57 -11 -21 -20 -45 -20 -55 0 -9 -4 -19 -9 -22 -5 -4 -12 -25 -16
-49 -4 -23 -14 -54 -21 -69 -8 -15 -14 -36 -14 -47 0 -37 -77 -196 -122 -254
-17 -21 -43 -44 -58 -52 -40 -20 -142 -123 -174 -174 -15 -23 -37 -46 -50 -52
-19 -9 -23 -18 -23 -55 0 -50 11 -55 46 -19 27 29 38 31 69 9 25 -17 28 -36 9
-56 -7 -7 -24 -35 -37 -63 -40 -82 -110 -167 -185 -222 -95 -71 -137 -106
-152 -130 -25 -39 -43 -55 -88 -83 -22 -13 -44 -30 -48 -37 -9 -15 -27 -8 -27
11 0 7 9 23 20 36 11 13 20 26 20 30 0 11 83 96 113 115 15 9 27 22 27 28 0 6
10 21 22 34 17 18 19 26 10 35 -15 15 -15 61 -1 165 10 71 17 89 46 123 21 24
43 40 56 40 12 0 29 5 37 10 13 8 11 11 -7 16 -13 4 -23 9 -23 13 0 4 36 42
81 86 161 159 245 299 319 527 12 37 30 78 41 92 10 13 19 30 19 37 0 22 51
79 83 93 48 22 77 20 77 -4z m697 -332 c-2 -13 -4 -3 -4 22 0 25 2 35 4 23 2
-13 2 -33 0 -45z m563 -399 c74 -6 209 -14 300 -19 165 -8 273 -19 450 -45
180 -27 355 -38 467 -31 290 21 343 27 518 61 212 41 249 45 391 44 82 0 172
-4 199 -9 28 -5 163 -12 300 -15 138 -3 302 -10 365 -16 63 -5 163 -11 221
-13 85 -2 110 -6 132 -22 49 -35 28 -51 -40 -30 -100 31 -669 55 -848 36 -60
-7 -215 -14 -344 -15 -261 -4 -364 -12 -337 -27 10 -5 153 -7 364 -3 496 8
610 8 857 0 204 -7 224 -9 275 -32 50 -23 115 -31 175 -21 16 2 21 -3 23 -30
3 -24 10 -35 28 -42 17 -7 33 -28 50 -67 14 -32 29 -66 35 -75 13 -26 11 -117
-5 -190 -10 -47 -14 -170 -16 -476 -1 -331 -4 -420 -16 -447 -8 -19 -14 -47
-14 -62 -1 -15 -7 -39 -15 -53 -23 -40 -19 -70 8 -70 12 0 30 8 39 19 8 10 20
20 26 22 8 3 8 16 0 44 -7 28 -7 48 1 68 11 28 11 28 35 10 42 -31 50 -96 14
-108 -20 -6 -18 -8 16 -15 41 -8 56 -23 56 -56 0 -22 96 -104 122 -104 16 0
90 -56 138 -104 24 -24 49 -38 75 -42 22 -3 52 -17 68 -30 16 -13 40 -24 53
-24 25 0 74 -40 74 -60 0 -10 -32 -15 -88 -11 -19 2 -41 -4 -50 -12 -22 -20
-66 -37 -122 -47 -25 -4 -58 -13 -75 -19 -16 -6 -41 -13 -55 -15 -25 -5 -45
-21 -137 -107 -37 -34 -56 -45 -92 -49 -54 -7 -111 7 -129 32 -45 62 -63 57
-61 -15 2 -46 -4 -86 -31 -232 -4 -22 -8 -33 -9 -24 0 9 -10 19 -21 22 -16 4
-20 14 -20 49 0 24 5 59 10 78 6 19 14 72 19 118 7 63 14 89 30 106 14 15 24
42 28 77 3 30 13 64 20 76 10 15 14 45 12 96 -2 44 1 80 8 88 6 8 14 40 18 71
6 46 4 63 -9 83 -20 31 -21 120 -1 240 8 50 15 122 15 160 1 112 -44 227 -66
170 -9 -21 -34 0 -34 28 0 24 -14 13 -16 -11 -1 -10 -2 -28 -3 -42 -1 -14 -6
-32 -11 -40 -9 -13 -12 -13 -24 3 -12 15 -14 12 -20 -29 -11 -85 -7 -261 9
-321 8 -31 15 -93 16 -138 0 -44 5 -116 10 -160 5 -44 9 -98 9 -120 -1 -52
-28 -195 -39 -209 -5 -6 -12 -54 -14 -106 -3 -52 -10 -196 -16 -319 -6 -137
-15 -229 -22 -237 -19 -23 -54 -17 -56 9 -1 12 -4 45 -7 74 -3 29 -1 55 4 58
6 3 11 -6 11 -22 l1 -28 8 30 c11 43 11 225 0 200 -5 -11 -9 -34 -9 -52 -1
-35 -16 -53 -23 -25 -2 9 -1 82 3 162 4 85 3 155 -3 170 -5 14 -8 59 -6 100 2
64 0 75 -15 78 -15 3 -17 -8 -19 -110 -1 -62 -1 -192 0 -288 1 -96 -2 -211 -6
-255 -5 -44 -5 -122 -1 -174 9 -101 -1 -149 -20 -99 -13 33 -22 35 -39 7 -10
-16 -20 -20 -41 -16 -16 3 -36 0 -47 -7 -43 -29 -94 -32 -471 -21 -204 6 -403
1 -391 -10 2 -2 124 -6 272 -10 148 -4 294 -11 325 -17 69 -11 233 -10 246 3
5 5 17 9 26 9 9 0 23 10 31 22 13 20 17 21 45 9 23 -9 29 -17 26 -32 -7 -26 5
-24 33 6 13 14 27 25 33 25 13 0 31 56 31 96 0 32 2 34 33 34 28 0 35 -6 50
-40 10 -22 23 -40 28 -40 5 0 9 79 9 184 0 101 3 191 6 200 3 9 14 16 24 16
15 0 19 -12 24 -72 11 -110 10 -135 -2 -238 -13 -110 -37 -189 -61 -197 -9 -3
-23 -11 -31 -18 -8 -6 -37 -20 -63 -29 -40 -15 -80 -18 -233 -17 -102 0 -200
4 -217 10 -18 6 -111 15 -207 22 -96 6 -204 14 -240 16 -36 3 -101 0 -145 -6
-202 -27 -366 -33 -470 -17 -121 19 -205 34 -263 46 -23 6 -55 10 -70 10 -15
0 -36 7 -46 15 -25 19 -46 19 -82 0 -16 -8 -41 -15 -56 -15 -34 0 -159 -19
-213 -32 -22 -5 -69 -16 -105 -25 -69 -17 -481 -29 -1042 -32 l-276 -1 -7 30
c-4 16 -11 32 -16 35 -15 10 -11 151 5 164 35 29 16 154 -29 191 -8 7 -15 20
-15 29 0 9 -6 28 -14 42 -20 38 -26 73 -16 88 6 10 2 23 -11 39 -14 19 -19 41
-19 91 -1 36 -7 84 -15 106 -8 22 -15 54 -15 72 0 41 -9 63 -26 63 -10 0 -14
14 -14 50 0 42 -3 50 -19 50 -14 0 -21 10 -25 35 -4 19 -11 35 -16 35 -5 0
-13 12 -16 28 -7 27 -14 45 -47 110 -9 19 -17 38 -17 44 0 5 -6 24 -14 41 -43
102 -55 208 -31 284 17 54 16 92 -3 148 -28 81 -42 132 -42 154 0 13 -6 47
-14 75 -24 85 -37 139 -45 183 -4 23 -12 48 -18 55 -6 7 -13 27 -16 43 -2 17
-9 44 -15 60 -44 130 -57 225 -30 225 6 0 9 3 6 6 -12 11 -46 -16 -52 -41 -4
-14 -11 -23 -16 -20 -16 10 -12 73 6 100 14 21 15 38 7 103 l-9 77 -8 -93 c-9
-112 -27 -119 -39 -16 -12 108 1 231 28 273 59 92 137 119 354 120 121 1 214
14 269 37 18 8 52 14 75 14 24 0 47 4 53 9 22 21 120 25 314 10z m-1600 -462
c52 -31 109 -81 153 -135 21 -26 62 -73 90 -106 29 -32 55 -64 59 -71 4 -7 33
-30 65 -51 32 -21 61 -43 65 -48 4 -6 12 -6 20 1 19 15 105 22 117 10 16 -16
13 -37 -3 -37 -8 0 -29 -13 -47 -29 -24 -22 -30 -33 -22 -43 6 -7 13 -26 17
-41 9 -37 30 -29 36 14 3 21 11 34 20 34 19 0 26 -51 9 -71 -9 -11 -9 -18 4
-32 8 -9 17 -26 19 -37 2 -11 10 -19 18 -17 22 5 40 -28 40 -74 0 -24 5 -55
12 -70 11 -24 10 -29 -15 -50 -35 -30 -34 -44 2 -44 23 0 31 -6 41 -32 6 -18
19 -48 27 -66 11 -22 13 -36 6 -43 -14 -14 -43 0 -53 25 -8 20 -9 20 -9 -4 -1
-15 4 -31 10 -37 6 -6 8 -16 5 -22 -9 -15 -36 -14 -36 1 0 6 -2 9 -5 6 -3 -3
6 -26 20 -52 14 -26 25 -53 25 -61 0 -21 -19 -28 -36 -14 -20 16 -22 11 -16
-38 3 -37 7 -43 27 -43 44 0 67 -31 67 -88 0 -29 5 -52 10 -52 6 0 8 -12 5
-27 -6 -35 1 -53 22 -53 14 0 71 -60 71 -75 0 -4 6 -21 14 -38 34 -79 66 -190
66 -232 0 -13 9 -48 19 -77 30 -82 35 -124 15 -132 -27 -10 -59 -7 -80 9 -10
8 -26 15 -35 15 -9 0 -22 6 -28 14 -15 18 -159 39 -206 30 -55 -10 -50 -22 12
-29 32 -3 68 -10 81 -16 13 -5 32 -9 44 -9 11 0 46 -16 77 -35 31 -18 82 -42
112 -51 54 -17 56 -19 72 -68 52 -173 66 -248 66 -384 1 -92 1 -93 -31 -123
-38 -34 -89 -41 -81 -10 3 11 0 28 -6 38 -9 15 -10 12 -11 -19 0 -30 -4 -37
-22 -40 -14 -2 -26 -14 -32 -30 -10 -30 0 -51 13 -29 13 20 51 -17 51 -51 0
-38 -16 -44 -24 -8 -5 27 -36 44 -36 20 0 -5 -12 -21 -27 -35 -21 -18 -24 -25
-12 -25 11 0 22 -16 31 -42 8 -24 18 -50 22 -58 3 -9 0 -24 -7 -34 -11 -15
-17 -16 -35 -7 -11 6 -34 11 -50 11 -16 0 -32 3 -36 7 -4 4 -17 8 -29 8 -15 0
-23 7 -25 22 -3 20 -7 22 -47 16 -33 -4 -51 -1 -70 11 -23 15 -56 25 -148 43
-15 3 -32 13 -37 23 -6 11 -18 15 -37 13 -18 -3 -47 5 -77 21 -27 14 -60 26
-73 26 -16 0 -27 7 -30 20 -6 21 -25 28 -21 8 2 -8 -10 -14 -30 -16 -29 -3
-33 0 -38 27 -4 18 -21 42 -45 61 -30 24 -39 38 -39 62 l0 31 48 -8 c26 -5 65
-8 86 -7 27 1 43 -4 52 -16 12 -16 13 -15 14 5 0 29 -28 37 -113 34 -41 -1
-75 3 -83 10 -11 9 -16 6 -24 -16 -14 -37 -4 -67 36 -106 19 -18 34 -40 34
-50 0 -22 -26 -43 -42 -33 -7 4 -24 7 -39 6 -19 -2 -28 3 -32 17 -3 14 -11 18
-26 14 -15 -4 -27 1 -36 13 -13 19 -14 19 -28 0 -14 -19 -15 -19 -26 2 -15 27
-31 29 -24 2 10 -36 -23 -33 -76 6 -28 21 -51 44 -51 51 0 6 -13 31 -29 55
-15 24 -31 55 -35 70 -3 15 -15 29 -26 33 -10 3 -22 15 -25 26 -9 27 -35 24
-35 -3 0 -22 40 -72 78 -100 10 -7 22 -25 26 -40 5 -24 3 -28 -15 -28 -11 0
-39 16 -62 35 -33 28 -47 34 -68 30 -40 -9 -110 17 -314 115 l-121 58 -17 55
c-21 67 -22 97 -2 97 17 0 19 12 5 26 -8 8 -8 19 0 38 5 15 10 40 10 54 0 15
7 38 16 50 16 24 16 63 -1 63 -5 0 -12 -8 -14 -18 -1 -10 -9 -25 -17 -34 -7
-8 -18 -33 -23 -55 -7 -32 -9 -23 -9 60 0 75 -4 102 -16 114 -14 14 -16 14
-22 -2 -10 -27 3 -293 17 -354 15 -65 7 -77 -41 -56 -138 61 -131 56 -125 94
4 19 13 47 21 62 8 15 14 39 14 53 0 26 35 184 49 220 18 46 81 267 100 355 7
30 22 81 33 113 10 31 17 66 13 77 -10 31 32 35 170 16 83 -11 132 -13 148 -7
40 15 226 34 278 28 52 -6 70 -16 169 -90 40 -30 71 -46 83 -43 10 2 21 -2 24
-10 3 -8 16 -14 29 -14 13 0 24 -4 24 -10 0 -5 11 -12 25 -16 14 -3 34 -17 44
-30 10 -13 22 -24 26 -24 13 0 106 -82 100 -88 -13 -14 -102 -42 -131 -42 -17
0 -37 -7 -44 -15 -7 -8 -16 -15 -21 -15 -5 0 -17 -8 -27 -18 -33 -33 -131
-169 -141 -195 -6 -15 -15 -27 -20 -27 -5 0 -12 -8 -15 -17 -14 -39 -84 -140
-102 -147 -16 -6 -19 -36 -4 -36 6 0 10 4 10 9 0 5 16 26 35 45 19 20 35 40
35 45 0 5 6 11 13 14 7 2 21 22 32 43 11 22 22 41 25 44 3 3 23 32 45 65 68
104 146 175 193 175 9 0 26 6 37 13 11 8 35 17 53 20 18 4 42 16 54 26 19 18
19 21 4 27 -10 4 -15 15 -14 32 3 22 -1 26 -25 26 -28 1 -60 24 -138 99 -22
20 -46 37 -54 37 -11 0 -13 8 -9 29 5 23 1 32 -23 48 -20 15 -34 18 -50 12
-28 -10 -30 -39 -3 -39 11 0 20 -4 20 -10 0 -5 -9 -10 -20 -10 -11 0 -20 5
-20 10 0 6 -4 10 -10 10 -5 0 -26 11 -46 25 -29 19 -33 26 -20 31 22 8 20 34
-3 34 -10 0 -40 12 -66 26 -77 40 -123 54 -230 69 -118 16 -197 37 -203 54 -8
25 10 81 35 112 22 25 31 30 55 25 25 -5 28 -3 23 13 -5 16 3 22 42 34 74 23
101 26 176 15 50 -7 73 -6 81 2 16 16 -11 29 -64 31 -25 0 -56 4 -70 8 -28 8
-137 -5 -154 -18 -6 -4 -22 -11 -36 -14 -38 -10 -126 -92 -151 -142 l-22 -44
28 -41 c15 -22 35 -40 44 -40 9 0 34 -7 56 -15 26 -9 81 -14 153 -15 61 0 112
-4 112 -9 0 -5 -19 -19 -42 -31 -40 -21 -56 -23 -256 -23 -147 -1 -216 3 -224
11 -16 16 34 162 80 232 35 55 90 123 137 170 14 14 25 31 25 36 0 6 9 19 20
29 11 10 20 23 20 29 0 6 32 74 71 151 39 77 77 158 85 180 19 55 30 200 15
209 -6 4 -11 16 -11 27 0 29 44 42 125 36 71 -5 114 -21 172 -63 17 -13 34
-24 38 -24 3 0 22 -16 43 -35 20 -19 96 -81 167 -137 72 -57 135 -108 140
-114 17 -20 149 -116 171 -124 27 -11 64 -85 64 -128 0 -50 19 -37 22 15 3 44
5 48 33 54 l30 7 -27 1 c-21 1 -32 10 -47 39 -22 42 -60 78 -111 106 -19 11
-73 49 -120 85 -47 36 -91 70 -98 76 -8 5 -29 24 -47 41 -18 17 -40 34 -49 37
-20 8 -20 21 -1 37 13 10 19 9 36 -6 12 -11 22 -17 23 -15 1 4 39 -6 71 -18
23 -10 113 -30 168 -38 23 -3 37 -1 37 6 0 6 -17 11 -39 11 -22 0 -44 6 -51
15 -7 8 -21 15 -32 15 -11 0 -32 6 -46 13 -15 8 -42 21 -60 30 -19 9 -42 17
-52 17 -9 0 -23 7 -30 15 -7 8 -20 15 -29 15 -9 0 -25 6 -36 14 -11 7 -31 16
-45 19 -14 3 -61 19 -105 36 -44 17 -87 31 -96 31 -9 0 -49 11 -89 24 l-73 23
64 33 c35 18 78 40 94 48 39 19 113 89 131 125 13 25 19 27 52 21 20 -3 53
-16 72 -27z m-504 -321 c3 -7 -1 -29 -9 -47 -8 -19 -17 -57 -21 -84 -5 -28
-11 -54 -15 -60 -4 -5 -17 -37 -30 -70 -22 -56 -108 -236 -134 -280 -19 -31
-99 -137 -125 -165 -39 -42 -109 -153 -128 -200 -9 -25 -19 -67 -21 -95 -2
-27 -7 -57 -10 -65 -4 -8 -7 -24 -8 -35 -2 -43 -17 -122 -31 -158 -8 -20 -14
-50 -14 -65 0 -15 -4 -32 -9 -37 -5 -6 -14 -30 -19 -55 -20 -82 -35 -135 -48
-167 -8 -17 -14 -37 -14 -44 0 -7 -6 -31 -14 -54 -41 -122 -47 -147 -49 -238
-2 -85 -4 -97 -20 -97 -9 0 -26 15 -37 33 -32 51 -21 185 34 417 9 36 20 90
26 120 6 30 15 69 20 85 5 17 14 66 20 110 25 183 49 302 76 362 8 17 14 35
14 40 0 6 11 30 24 54 14 24 34 62 46 84 12 22 58 86 104 143 45 56 96 131
113 165 47 92 73 154 73 171 0 8 4 17 9 20 5 3 12 18 15 33 13 52 47 112 77
135 17 13 40 31 52 40 27 21 46 23 53 4z m5571 -393 c6 -14 -7 -94 -26 -168
-5 -23 -13 -99 -16 -170 -4 -103 -27 -360 -34 -385 -1 -3 -5 1 -10 9 -5 7 -7
80 -4 161 3 96 -1 194 -11 281 -18 151 -13 209 15 209 13 0 20 10 25 38 4 20
8 40 10 44 6 10 45 -4 51 -19z m2154 -1569 c9 -11 10 -20 2 -33 -6 -9 -14 -36
-18 -59 -7 -43 -41 -80 -58 -63 -4 4 -8 37 -8 72 -1 54 3 66 21 81 27 22 44
23 61 2z m-121 -135 c15 -27 12 -56 -9 -97 -22 -43 -78 -99 -88 -88 -4 4 -1
11 6 16 8 4 11 15 7 25 -5 14 -14 9 -49 -30 -51 -59 -121 -105 -159 -105 -15
0 -28 2 -28 5 0 8 53 54 63 55 4 0 15 8 26 18 113 106 164 161 177 193 18 39
36 42 54 8z m-1992 -192 c2 -17 -3 -34 -11 -40 -8 -7 -17 -37 -21 -66 -9 -86
-8 -85 -316 -186 -25 -8 -61 -15 -80 -15 -37 0 -68 -14 -54 -23 54 -33 292 2
390 57 63 35 77 22 44 -41 -28 -51 -86 -113 -107 -113 -7 0 -49 -12 -93 -27
-74 -25 -82 -26 -133 -14 -41 10 -110 12 -298 5 -134 -4 -505 -8 -824 -9 -319
-1 -715 -2 -880 -2 -165 -1 -327 -2 -360 -2 -33 -1 -333 -4 -666 -7 l-606 -5
-32 27 c-38 32 -47 52 -60 135 -8 49 -7 67 4 90 8 15 15 41 15 56 l0 28 432
-3 c268 -2 439 -7 451 -13 10 -6 110 -12 221 -14 229 -5 308 -19 161 -29 -49
-3 -142 -11 -205 -17 -63 -6 -135 -13 -158 -14 -73 -6 -72 -24 2 -32 24 -3
106 2 183 12 104 13 167 16 258 10 232 -14 571 -20 640 -12 39 5 401 10 806
12 534 2 741 5 757 14 21 11 158 51 262 76 62 15 86 26 152 74 41 29 48 40 54
78 6 42 8 44 38 41 26 -2 32 -8 34 -31z m-2051 -89 c24 -12 42 -27 40 -32 -2
-7 -75 -11 -218 -10 -184 1 -216 -2 -226 -15 -9 -12 -29 -16 -93 -15 -45 0
-86 6 -92 12 -18 18 17 27 107 27 65 0 83 3 93 18 7 9 27 17 45 18 18 1 43 5
57 9 14 4 74 8 134 9 93 1 115 -2 153 -21z m123 -48 c0 -5 -7 -10 -15 -10 -8
0 -15 5 -15 10 0 6 7 10 15 10 8 0 15 -4 15 -10z m798 -16 c53 -7 65 -17 35
-28 -26 -10 -392 -30 -400 -22 -11 10 18 26 48 26 14 0 29 4 35 9 17 17 188
26 282 15z m568 -7 c4 -4 2 -13 -5 -20 -14 -14 -276 -23 -334 -10 -52 11 -51
27 3 34 61 9 326 6 336 -4z m-1523 -23 c43 -8 48 -19 10 -28 -40 -11 -386 -8
-413 2 l-25 10 25 6 c54 13 341 20 403 10z"/>
<path d="M4069 9276 c-3 -3 -32 -10 -65 -15 -32 -5 -81 -17 -109 -27 -83 -29
-273 -131 -353 -189 -66 -49 -80 -55 -123 -55 -48 0 -74 -15 -45 -26 25 -9 19
-29 -19 -71 -35 -38 -125 -202 -125 -228 0 -7 -6 -26 -14 -42 -8 -15 -28 -57
-45 -93 -16 -36 -48 -103 -70 -150 -75 -162 -83 -187 -53 -171 20 11 140 199
175 276 8 17 27 44 44 60 16 17 37 54 46 83 9 30 26 66 37 82 11 15 20 35 20
43 0 9 4 19 10 22 13 8 50 93 50 116 0 16 9 18 93 17 133 -2 183 5 261 32 46
17 83 39 111 66 l42 41 119 12 c168 17 302 10 386 -21 62 -23 148 -85 148
-107 0 -5 8 -12 18 -16 11 -3 24 -17 30 -30 6 -14 16 -25 20 -25 12 0 92 -115
92 -132 0 -17 -37 -41 -51 -32 -15 9 -81 -5 -74 -17 4 -5 24 -9 46 -9 21 0 39
-4 39 -10 0 -19 147 -44 171 -29 22 13 -20 82 -107 174 -42 44 -105 114 -142
155 -81 92 -96 105 -149 129 -83 38 -420 35 -476 -4 -38 -26 -73 -19 -96 20
-11 20 -27 38 -36 41 -27 11 -16 23 28 29 165 22 320 33 352 25 17 -5 66 -16
110 -25 95 -20 285 -82 301 -98 4 -4 31 -7 61 -7 40 0 53 4 53 15 0 9 -9 15
-24 15 -13 0 -26 7 -30 15 -3 8 -14 15 -23 15 -10 0 -27 6 -38 14 -11 7 -35
17 -53 21 -18 4 -45 13 -60 21 -15 8 -36 14 -47 14 -11 0 -51 12 -90 26 -38
14 -90 30 -115 36 -54 12 -223 22 -231 14z m-224 -221 c0 -31 -68 -60 -170
-72 -62 -8 -94 -8 -102 -1 -20 16 -16 25 15 33 15 3 38 14 52 23 37 25 99 41
155 39 43 -2 50 -5 50 -22z"/>
<path d="M4603 9265 c-19 -21 -16 -24 12 -12 14 7 25 15 25 20 0 12 -24 7 -37
-8z"/>
<path d="M4670 9240 c0 -5 -7 -10 -15 -10 -8 0 -15 -4 -15 -10 0 -14 23 -13
38 2 15 15 16 28 2 28 -5 0 -10 -4 -10 -10z"/>
<path d="M4702 9208 c-19 -19 -14 -28 13 -28 18 0 25 5 25 20 0 22 -20 26 -38
8z"/>
<path d="M4747 9183 c-14 -13 -6 -33 13 -33 11 0 28 -9 37 -20 10 -11 21 -20
26 -20 19 0 186 -149 199 -178 16 -36 66 -103 80 -107 9 -3 19 -16 22 -29 3
-12 24 -49 46 -82 22 -32 40 -63 40 -69 0 -5 30 -41 65 -80 68 -73 75 -85 50
-85 -17 0 -18 -2 -9 -25 4 -9 16 -21 28 -26 29 -13 51 -27 119 -74 109 -75
126 -85 130 -77 4 6 -28 75 -83 177 -32 61 -52 83 -101 116 -79 53 -269 241
-269 266 0 12 -3 23 -8 25 -4 2 -22 22 -41 46 -28 37 -31 45 -20 59 12 14 11
15 -10 8 -19 -6 -23 -4 -18 8 4 11 -5 22 -26 36 -18 11 -41 28 -52 38 -33 30
-102 83 -109 83 -4 0 -24 11 -46 25 -42 26 -52 29 -63 18z"/>
<path d="M3694 8876 c-11 -28 1 -51 36 -68 19 -9 48 -17 63 -18 15 0 44 -7 64
-15 38 -16 118 -21 109 -6 -3 4 -20 11 -37 15 -17 3 -42 15 -56 26 -14 11 -36
20 -49 20 -12 0 -26 5 -29 10 -3 6 -13 10 -22 10 -8 0 -28 9 -44 21 -25 17
-30 18 -35 5z"/>
<path d="M5180 8880 c0 -5 7 -10 15 -10 8 0 15 5 15 10 0 6 -7 10 -15 10 -8 0
-15 -4 -15 -10z"/>
<path d="M4135 8723 c-24 -13 -38 -14 -80 -5 -45 9 -51 9 -64 -9 -10 -15 -26
-19 -65 -19 -30 0 -60 -6 -72 -15 -10 -8 -33 -15 -51 -15 -39 0 -65 -9 -57
-21 8 -14 64 -10 114 7 73 26 342 28 450 4 47 -10 117 -26 155 -34 81 -19 105
-20 105 -6 0 6 -4 10 -9 10 -5 0 -13 9 -16 20 -5 15 -15 20 -41 20 -19 0 -57
11 -86 25 -28 14 -60 25 -70 25 -20 0 -25 -26 -5 -33 9 -4 9 -6 0 -6 -6 -1
-15 4 -18 9 -3 6 -25 10 -48 10 -49 0 -78 13 -52 24 9 3 26 6 38 6 12 0 29 5
37 10 28 18 -131 11 -165 -7z"/>
<path d="M4580 8579 c0 -11 60 -69 72 -69 5 0 16 -8 26 -17 43 -43 127 -104
151 -109 14 -4 31 -11 36 -18 10 -11 28 -22 105 -64 42 -24 160 -139 160 -156
0 -7 -9 -21 -20 -31 -20 -18 -23 -18 -95 -1 -41 10 -77 22 -81 27 -3 5 -15 9
-27 9 -12 0 -55 12 -96 25 -57 19 -85 24 -118 19 -78 -12 -66 -23 44 -39 24
-4 45 -11 49 -16 3 -5 17 -9 32 -9 15 0 40 -7 56 -15 15 -8 36 -15 45 -15 9 0
28 -6 43 -14 14 -8 73 -17 130 -20 103 -7 104 -6 128 19 l25 26 -21 37 c-28
50 -164 158 -260 207 -44 22 -83 44 -89 48 -19 15 -117 77 -122 77 -7 0 -75
52 -107 82 -30 28 -66 37 -66 17z"/>
<path d="M4008 8550 c-7 -11 -23 -20 -35 -20 -12 0 -36 -8 -55 -17 -58 -29
-65 -31 -102 -38 -20 -4 -39 -11 -42 -16 -3 -5 -13 -9 -22 -9 -27 0 -154 -69
-189 -103 -29 -27 -33 -37 -33 -83 0 -64 39 -147 110 -233 11 -13 22 -32 25
-42 8 -24 25 -25 25 -1 0 16 -19 58 -56 125 -15 26 -14 30 2 41 13 10 14 15 4
21 -7 4 -16 2 -21 -6 -17 -27 -29 13 -26 85 4 67 4 69 38 83 18 7 36 17 39 21
9 14 77 52 93 52 8 0 17 7 21 15 3 10 19 15 44 15 42 0 166 60 176 85 3 8 12
15 21 15 8 0 15 7 15 15 0 21 -18 19 -32 -5z"/>
<path d="M3850 8284 c-66 -31 -115 -55 -130 -64 -8 -5 -23 -11 -32 -14 -10 -3
-18 -10 -18 -16 0 -14 27 -13 58 4 103 53 198 72 280 56 66 -13 154 -36 197
-51 46 -16 306 -48 338 -42 67 13 40 45 -46 55 -149 17 -223 29 -238 37 -9 6
-34 13 -55 17 -22 3 -45 11 -53 17 -7 7 -68 13 -140 14 -100 2 -133 0 -161
-13z"/>
<path d="M3337 8133 c-4 -3 -7 -16 -7 -28 0 -13 -7 -28 -15 -35 -8 -7 -15 -21
-15 -31 0 -10 -4 -20 -9 -23 -9 -6 -32 -52 -71 -141 -12 -27 -34 -77 -50 -110
-27 -56 -81 -175 -100 -220 -38 -88 -56 -124 -76 -157 -13 -21 -24 -43 -24
-49 0 -7 -15 -44 -34 -83 -41 -84 -114 -241 -209 -446 -66 -142 -71 -163 -70
-311 0 -106 3 -143 16 -169 10 -18 17 -39 17 -47 0 -13 20 -62 53 -133 23 -51
109 -204 120 -215 7 -7 24 -25 38 -41 39 -44 129 -125 179 -163 25 -19 50 -40
55 -46 13 -15 172 -135 179 -135 3 0 20 -13 38 -30 18 -16 38 -30 46 -30 7 0
15 -7 18 -15 4 -8 15 -15 25 -15 10 0 19 -4 19 -9 0 -5 21 -21 48 -37 94 -54
152 -96 152 -110 0 -8 7 -17 15 -20 9 -4 15 -19 15 -40 0 -38 29 -106 42 -98
4 3 4 13 -1 22 -4 9 -11 36 -15 60 -5 32 -3 42 7 42 19 0 100 -90 116 -127 7
-17 23 -40 37 -52 13 -11 24 -25 24 -31 0 -5 7 -10 15 -10 8 0 15 -9 15 -20 0
-23 10 -26 28 -8 14 14 16 38 2 38 -15 0 -60 49 -60 66 0 41 -23 104 -39 104
-9 0 -28 22 -43 49 -15 26 -34 54 -43 61 -8 7 -15 19 -15 26 0 8 -22 30 -50
51 -27 20 -54 49 -61 65 -6 15 -18 28 -25 28 -8 0 -67 44 -131 97 -65 53 -137
108 -160 122 -23 14 -43 34 -45 46 -2 11 -12 21 -22 23 -10 2 -37 22 -59 44
-22 22 -50 46 -62 54 -12 8 -28 26 -36 41 -8 15 -31 45 -52 67 -21 22 -45 52
-53 67 -7 15 -24 36 -37 46 -25 19 -34 35 -81 129 -15 33 -33 67 -38 78 -5 10
-11 87 -13 170 -4 135 -2 156 15 187 58 105 56 100 37 110 -21 12 -22 57 -2
83 8 11 15 27 15 37 0 9 7 22 15 29 8 7 15 21 15 31 0 24 53 62 67 48 7 -7 14
-1 21 20 6 17 16 31 21 31 6 0 11 7 11 15 0 8 4 15 9 15 13 0 51 68 51 91 0
10 -4 19 -10 19 -5 0 -10 -9 -10 -20 0 -11 -9 -29 -20 -40 -11 -11 -20 -27
-20 -35 0 -17 -16 -20 -25 -6 -6 10 56 133 81 162 8 8 14 23 14 32 0 9 4 17
10 17 5 0 12 11 16 25 4 16 13 25 25 25 13 0 19 7 19 22 0 12 12 34 26 49 14
15 23 32 20 38 -9 14 -26 14 -26 0 0 -7 -15 -26 -32 -44 -40 -40 -47 -49 -78
-100 -13 -22 -28 -43 -33 -46 -8 -6 -23 -29 -47 -74 -6 -11 -18 -32 -28 -47
-97 -150 -182 -315 -182 -356 0 -9 -7 -26 -15 -36 -8 -11 -15 -34 -15 -52 0
-17 -7 -48 -15 -67 -17 -42 -19 -154 -4 -212 6 -22 14 -67 19 -100 4 -33 13
-73 20 -90 41 -94 85 -181 97 -188 7 -4 13 -15 13 -22 0 -8 9 -15 20 -15 13 0
20 -7 20 -19 0 -11 5 -23 10 -26 6 -3 10 -15 10 -26 0 -16 5 -18 28 -13 26 6
26 6 7 -9 -20 -15 -20 -16 13 -61 17 -26 32 -50 32 -55 0 -5 7 -11 15 -15 16
-6 21 -26 7 -26 -16 0 -97 85 -153 160 -138 183 -218 403 -218 595 0 137 14
176 214 580 111 224 135 263 185 300 44 32 113 92 160 138 21 20 47 37 57 37
11 0 23 4 28 9 6 5 31 20 56 34 45 24 155 43 225 38 18 -1 35 2 39 8 9 16
-195 14 -233 -2 -39 -16 -112 -10 -112 9 0 22 -20 16 -30 -8 -13 -33 -66 -87
-137 -141 -39 -29 -63 -41 -63 -33 0 8 3 16 8 18 4 2 15 17 24 33 9 17 44 78
77 136 32 59 64 115 69 125 51 101 74 158 82 204 5 30 12 64 15 76 6 21 -16
50 -28 37z m-236 -2258 c10 -4 19 -11 19 -16 0 -5 6 -9 13 -9 6 0 30 -16 52
-35 22 -19 45 -38 50 -43 85 -63 205 -176 205 -193 0 -5 5 -9 12 -9 14 0 48
-30 48 -42 0 -14 -14 -9 -40 15 -14 12 -43 34 -65 49 -102 70 -243 184 -279
225 -17 20 -43 48 -58 64 -16 15 -28 33 -28 40 0 6 12 0 26 -14 14 -15 35 -29
45 -32z"/>
<path d="M4550 8044 c0 -14 46 -54 63 -54 10 0 25 -7 33 -15 9 -8 24 -15 35
-15 10 0 19 -4 19 -9 0 -5 29 -23 64 -40 37 -17 73 -43 86 -60 12 -17 27 -31
33 -31 7 0 26 -30 42 -66 35 -77 89 -133 226 -235 51 -39 96 -75 97 -80 2 -5
-12 -9 -31 -9 -22 0 -37 6 -41 15 -3 10 -19 15 -46 15 -22 0 -40 5 -40 10 0 6
-7 10 -15 10 -12 0 -61 21 -117 51 -10 5 -29 9 -43 9 -14 0 -28 7 -31 15 -6
15 -44 21 -44 7 0 -9 69 -42 87 -42 6 0 16 -7 23 -15 7 -8 25 -15 41 -15 18 0
34 -8 41 -20 7 -11 20 -20 28 -20 9 0 23 -9 33 -20 9 -11 29 -20 46 -20 16 0
34 -7 41 -15 7 -8 19 -15 27 -15 8 0 31 -11 51 -25 20 -14 42 -25 49 -25 6 0
15 -9 18 -20 3 -11 11 -20 17 -20 6 0 35 -16 64 -35 29 -19 55 -35 59 -35 3 0
28 -18 54 -40 26 -22 57 -40 68 -40 60 0 125 -114 178 -312 10 -36 23 -61 35
-68 22 -12 22 -27 -6 -169 -16 -86 -18 -155 -4 -146 6 3 10 14 10 23 0 9 6 29
14 44 8 15 17 42 21 60 4 18 12 39 19 47 15 20 15 223 -1 242 -7 8 -15 35 -19
59 -4 24 -13 55 -21 69 -7 14 -13 31 -13 38 0 6 -7 24 -14 40 -8 15 -17 35
-20 43 -3 8 -10 22 -15 30 -5 8 -12 22 -15 30 -15 38 -45 77 -77 98 -19 12
-45 31 -59 42 -14 11 -56 42 -95 70 -38 27 -75 53 -80 57 -6 4 -37 26 -70 48
-33 22 -61 43 -63 48 -2 4 -8 7 -14 7 -5 0 -35 19 -66 43 -31 23 -84 61 -116
82 -65 43 -96 70 -96 83 0 5 -20 31 -45 58 -25 27 -45 54 -45 61 0 22 -79 71
-185 114 -64 26 -122 51 -137 59 -20 11 -38 13 -38 4z m795 -599 c28 -18 82
-56 122 -84 39 -27 84 -56 100 -65 43 -23 119 -93 110 -102 -4 -4 -28 7 -52
24 -25 18 -52 32 -60 32 -7 0 -16 4 -20 9 -3 6 -27 20 -53 33 -57 27 -118 72
-152 112 -74 87 -73 96 5 41z"/>
<path d="M4980 8010 c0 -5 9 -10 19 -10 11 0 23 5 26 10 4 6 -5 10 -19 10 -14
0 -26 -4 -26 -10z"/>
<path d="M3645 7920 c-17 -11 -38 -20 -47 -20 -9 0 -29 -6 -45 -14 -15 -8 -55
-27 -87 -42 -53 -25 -136 -96 -136 -116 0 -21 48 3 108 54 18 15 39 28 47 28
8 0 41 16 74 35 32 19 62 35 65 35 9 0 59 50 55 55 -3 2 -18 -5 -34 -15z"/>
<path d="M3974 7709 c-3 -5 82 -9 188 -9 106 0 210 -3 232 -7 31 -5 38 -3 34
8 -4 11 -46 14 -227 15 -122 1 -224 -3 -227 -7z"/>
<path d="M3725 7690 c-4 -6 11 -10 37 -9 36 1 39 2 18 9 -36 11 -48 11 -55 0z"/>
<path d="M3825 7680 c-4 -6 5 -10 19 -10 14 0 26 5 26 10 0 6 -9 10 -19 10
-11 0 -23 -4 -26 -10z"/>
<path d="M4520 7683 c0 -10 52 -34 58 -28 3 2 -1 11 -8 20 -13 15 -50 21 -50
8z"/>
<path d="M4685 7620 c3 -5 17 -10 31 -10 14 0 22 4 19 10 -3 6 -17 10 -31 10
-14 0 -22 -4 -19 -10z"/>
<path d="M3120 7235 c0 -8 5 -15 10 -15 6 0 10 7 10 15 0 8 -4 15 -10 15 -5 0
-10 -7 -10 -15z"/>
<path d="M5578 7077 c13 -16 42 -97 42 -120 0 -10 6 -20 14 -23 10 -4 12 -24
8 -92 -3 -66 -1 -96 12 -126 19 -45 22 -206 5 -271 -5 -22 -12 -61 -14 -88 -3
-26 -9 -55 -14 -65 -5 -9 -12 -37 -16 -62 -4 -25 -14 -53 -23 -63 -11 -12 -15
-37 -14 -84 1 -70 -10 -103 -32 -103 -16 0 -26 -21 -26 -53 0 -11 -7 -28 -15
-37 -9 -10 -19 -35 -22 -56 -6 -36 -36 -92 -68 -125 -8 -9 -15 -26 -15 -38 0
-12 -7 -24 -15 -27 -16 -6 -45 -58 -45 -81 0 -7 -4 -13 -8 -13 -15 0 -102 -89
-102 -105 0 -8 -8 -15 -18 -15 -10 0 -26 -13 -35 -30 -10 -16 -25 -30 -32 -30
-8 0 -21 -13 -30 -30 -9 -16 -19 -30 -24 -30 -4 0 -20 -27 -35 -59 -26 -56
-44 -76 -142 -156 -18 -14 -37 -25 -44 -25 -6 0 -10 -10 -8 -24 3 -25 -26 -66
-47 -66 -13 0 -43 -38 -61 -80 -15 -33 -71 -102 -136 -168 -38 -38 -49 -55
-41 -63 11 -11 31 5 89 72 11 13 40 40 64 59 24 19 60 52 79 72 20 20 83 86
141 145 111 113 170 184 170 201 0 6 6 15 13 19 7 4 32 33 55 63 23 30 63 70
89 89 48 34 141 149 182 226 12 22 30 54 41 70 18 30 47 87 76 155 9 19 22 48
30 63 8 16 14 33 14 39 0 5 6 24 14 41 15 33 52 143 105 312 28 89 31 106 22
145 -6 25 -11 79 -11 120 -1 74 -5 98 -34 215 -25 99 -44 162 -55 184 -6 11
-11 31 -11 45 0 14 -4 26 -10 26 -5 0 -16 14 -25 30 -9 17 -23 30 -31 30 -12
0 -14 -3 -6 -13z"/>
<path d="M2970 6946 c0 -18 -7 -39 -15 -46 -16 -14 -20 -40 -6 -40 12 0 53 98
46 110 -13 21 -25 9 -25 -24z"/>
<path d="M2917 6833 c-11 -10 -8 -43 3 -43 6 0 10 11 10 25 0 26 -2 29 -13 18z"/>
<path d="M5153 5200 c-18 -20 -33 -40 -33 -43 0 -4 -20 -27 -45 -53 -44 -45
-55 -64 -35 -64 6 0 10 7 10 15 0 8 5 15 10 15 13 0 50 37 50 50 0 5 6 13 13
17 14 9 77 88 77 97 0 14 -17 2 -47 -34z"/>
<path d="M3325 5087 c-4 -10 -1 -25 7 -35 7 -9 24 -37 37 -62 13 -25 41 -71
62 -102 22 -32 39 -62 39 -67 0 -5 6 -16 13 -23 7 -7 24 -43 37 -80 25 -71 45
-86 56 -43 10 38 -4 75 -42 114 -19 20 -34 45 -34 58 0 12 -4 25 -10 28 -14 9
-12 42 3 48 6 2 9 8 4 12 -4 5 -12 4 -19 -3 -8 -8 -18 -3 -39 20 -16 16 -29
34 -29 38 0 4 -7 10 -15 14 -8 3 -15 15 -15 26 0 11 -4 20 -10 20 -5 0 -16 12
-24 28 -13 24 -15 25 -21 9z"/>
<path d="M2457 5073 c-25 -24 18 -32 49 -8 18 14 17 14 -12 15 -17 0 -34 -3
-37 -7z"/>
<path d="M3960 4979 c0 -11 6 -27 13 -34 23 -26 33 -40 57 -80 13 -22 26 -42
29 -45 14 -13 51 -70 51 -80 0 -5 4 -10 8 -10 8 0 25 -29 75 -126 18 -35 37
-45 37 -19 0 20 -57 142 -70 150 -5 3 -10 14 -10 24 0 10 -7 24 -15 31 -8 7
-15 19 -15 28 0 16 -45 62 -60 62 -12 0 -35 42 -31 58 2 14 -43 62 -60 62 -5
0 -9 -9 -9 -21z"/>
<path d="M3034 4909 c-55 -16 -154 -126 -154 -171 0 -19 -81 -145 -115 -178
-34 -33 -37 -50 -8 -50 15 0 93 78 93 93 0 4 11 25 25 47 14 22 25 44 25 50 0
18 77 130 84 123 3 -3 6 -34 6 -69 0 -34 3 -69 6 -78 13 -34 24 -2 24 69 0 54
4 78 16 89 8 9 18 16 22 16 18 -1 64 -54 81 -92 10 -24 27 -50 37 -58 11 -9
28 -27 40 -42 21 -26 55 -33 154 -29 40 1 104 36 95 52 -5 7 -13 5 -24 -5 -12
-11 -42 -17 -100 -18 -78 -3 -84 -2 -102 22 -10 14 -23 30 -27 35 -10 13 -34
58 -61 117 -12 26 -34 57 -48 68 -28 22 -26 22 -69 9z"/>
<path d="M2467 4853 c-20 -14 -37 -30 -37 -35 0 -4 -4 -8 -9 -8 -6 0 -22 -11
-37 -25 l-27 -25 23 0 c13 0 32 7 41 16 26 23 77 2 85 -35 4 -14 12 -45 20
-69 8 -23 14 -49 14 -57 0 -8 5 -15 11 -15 11 0 10 38 -7 218 -7 72 -18 77
-77 35z"/>
<path d="M2060 4810 c0 -17 42 -70 52 -64 15 9 8 39 -12 57 -23 19 -40 22 -40
7z"/>
<path d="M3800 4806 c0 -8 5 -18 10 -21 6 -3 10 1 10 9 0 8 -4 18 -10 21 -5 3
-10 -1 -10 -9z"/>
<path d="M3830 4751 c0 -12 5 -21 10 -21 6 0 10 6 10 14 0 8 -4 18 -10 21 -5
3 -10 -3 -10 -14z"/>
<path d="M2247 4725 c-20 -20 -27 -35 -27 -65 0 -51 13 -58 28 -15 7 18 28 45
47 60 19 14 35 30 35 36 0 19 -56 8 -83 -16z"/>
<path d="M3860 4691 c0 -12 5 -21 10 -21 6 0 10 6 10 14 0 8 -4 18 -10 21 -5
3 -10 -3 -10 -14z"/>
<path d="M3890 4636 c0 -14 5 -26 10 -26 6 0 16 -12 22 -27 8 -21 12 -24 15
-11 4 18 -20 73 -37 83 -6 4 -10 -5 -10 -19z"/>
<path d="M3002 4632 c2 -9 11 -17 21 -17 24 0 23 18 -3 27 -17 6 -21 4 -18
-10z"/>
<path d="M3577 4643 c-10 -10 -8 -63 2 -63 5 0 12 -13 16 -30 4 -16 10 -30 15
-30 5 0 12 -10 16 -22 3 -13 12 -30 19 -38 6 -8 20 -42 30 -75 10 -33 21 -64
26 -69 5 -6 9 -17 9 -27 0 -22 47 -72 55 -59 4 6 3 40 0 75 -7 58 -9 63 -25
55 -26 -14 -43 12 -48 76 -4 44 -9 58 -28 71 -14 8 -24 25 -24 38 0 12 -9 30
-20 40 -11 10 -20 29 -20 42 0 22 -10 30 -23 16z"/>
<path d="M4540 4630 c-8 -5 -11 -12 -8 -16 10 -9 38 3 38 16 0 12 -10 13 -30
0z"/>
<path d="M2160 4611 c0 -12 5 -21 10 -21 6 0 10 6 10 14 0 8 -4 18 -10 21 -5
3 -10 -3 -10 -14z"/>
<path d="M2560 4582 c0 -19 12 -42 22 -42 14 0 5 43 -9 48 -7 2 -13 -1 -13 -6z"/>
<path d="M2187 4566 c-9 -23 4 -77 17 -73 6 2 10 19 9 37 -1 38 -17 59 -26 36z"/>
<path d="M3950 4536 c0 -14 5 -26 10 -26 6 0 10 9 10 19 0 11 -4 23 -10 26 -6
4 -10 -5 -10 -19z"/>
<path d="M4230 4541 c0 -11 4 -21 9 -21 18 0 21 18 6 30 -13 10 -15 9 -15 -9z"/>
<path d="M2366 4518 c-12 -45 -6 -174 8 -194 13 -17 14 -6 13 93 -2 111 -9
145 -21 101z"/>
<path d="M2995 4519 c-4 -5 -4 -26 0 -46 5 -26 9 -33 18 -24 13 13 57 15 57 2
0 -11 80 -54 87 -47 6 6 -48 55 -61 56 -5 0 -28 16 -52 35 -27 22 -45 31 -49
24z"/>
<path d="M2610 4507 c19 -21 111 -28 117 -9 3 8 -10 12 -45 12 -28 0 -59 3
-69 6 -16 6 -17 5 -3 -9z"/>
<path d="M4438 4504 c-5 -4 -8 -16 -8 -28 0 -14 3 -17 11 -9 6 6 9 19 7 28 -1
9 -6 13 -10 9z"/>
<path d="M2040 4475 c0 -8 9 -15 20 -15 11 0 20 7 20 15 0 8 -9 15 -20 15 -11
0 -20 -7 -20 -15z"/>
<path d="M3984 4449 c0 -29 -4 -43 -17 -50 -25 -14 -21 -26 14 -44 22 -12 29
-22 27 -38 -1 -12 2 -23 7 -25 17 -4 18 96 1 120 -9 12 -16 35 -16 50 0 16 -4
28 -9 28 -5 0 -8 -18 -7 -41z"/>
<path d="M4260 4417 c0 -59 2 -65 30 -86 47 -34 78 -25 112 31 20 31 27 55 23
68 -10 31 -35 25 -35 -8 0 -44 -22 -82 -47 -82 -27 0 -34 11 -37 58 -2 36 -23
82 -38 82 -5 0 -8 -28 -8 -63z"/>
<path d="M3023 4344 c7 -45 10 -48 36 -39 26 8 27 29 1 55 -31 31 -43 25 -37
-16z"/>
<path d="M3935 4330 c-11 -17 5 -32 21 -19 8 6 14 15 14 20 0 12 -27 11 -35
-1z"/>
<path d="M2397 4294 c-10 -10 -9 -56 2 -72 6 -10 10 -7 15 11 7 28 -6 72 -17
61z"/>
<path d="M4034 4245 c-3 -14 -1 -47 6 -73 26 -106 42 -152 51 -146 17 10 10
98 -11 137 -11 20 -20 50 -20 66 0 39 -18 49 -26 16z"/>
<path d="M3937 4226 c-4 -15 -6 -31 -2 -34 10 -10 16 6 13 35 l-3 28 -8 -29z"/>
<path d="M3777 4160 c-5 -14 -5 -34 3 -125 2 -29 2 -29 11 9 9 39 -3 144 -14
116z"/>
<path d="M3150 4030 c0 -6 8 -13 18 -17 9 -3 39 -24 65 -46 27 -21 51 -36 55
-33 10 11 -12 38 -59 73 -44 32 -79 42 -79 23z"/>
<path d="M3510 3952 c0 -45 5 -84 10 -87 8 -5 9 20 4 77 -3 45 -8 85 -10 87
-2 2 -4 -32 -4 -77z"/>
<path d="M3225 3868 c11 -6 22 -15 25 -19 7 -11 88 -37 95 -31 3 3 5 14 5 24
0 15 -8 18 -44 18 -25 0 -48 5 -51 10 -3 6 -16 10 -28 10 -22 -1 -22 -1 -2
-12z"/>
<path d="M3800 3835 c0 -14 5 -25 10 -25 6 0 10 11 10 25 0 14 -4 25 -10 25
-5 0 -10 -11 -10 -25z"/>
<path d="M2398 3749 c24 -4 52 -4 65 1 16 6 5 9 -43 8 -63 0 -64 0 -22 -9z"/>
<path d="M1828 3088 c9 -9 15 -9 24 0 9 9 7 12 -12 12 -19 0 -21 -3 -12 -12z"/>
<path d="M5550 5050 c-44 -8 -140 -61 -140 -77 0 -24 20 -22 91 8 71 30 74 31
198 25 69 -3 162 -10 206 -15 84 -9 144 1 115 19 -8 6 -29 10 -45 10 -17 0
-55 6 -85 14 -61 16 -286 27 -340 16z"/>
<path d="M5336 5043 c-3 -3 -6 -25 -6 -47 0 -25 -9 -56 -23 -78 -12 -20 -35
-57 -51 -82 -26 -42 -29 -76 -8 -76 8 0 91 107 125 162 15 26 16 31 2 44 -8 9
-15 28 -15 44 0 29 -12 45 -24 33z"/>
<path d="M6107 4783 c-3 -4 -5 -45 -6 -91 0 -60 3 -82 11 -80 20 7 31 169 11
175 -6 2 -13 0 -16 -4z"/>
<path d="M6200 4616 c0 -8 5 -18 10 -21 6 -3 10 3 10 14 0 12 -4 21 -10 21 -5
0 -10 -6 -10 -14z"/>
<path d="M6089 4510 c-3 -75 -1 -223 2 -260 2 -14 5 45 8 130 4 85 3 164 -1
175 -4 12 -8 -6 -9 -45z"/>
<path d="M5636 4553 c-8 -8 -8 -66 0 -87 12 -32 24 -15 24 33 0 47 -9 68 -24
54z"/>
<path d="M6177 4543 c-9 -8 -9 -48 0 -56 12 -13 30 13 25 38 -4 25 -13 31 -25
18z"/>
<path d="M6283 4527 c-4 -8 -17 -19 -28 -25 -20 -11 -20 -11 1 -12 19 0 54 28
54 43 0 12 -19 7 -27 -6z"/>
<path d="M6391 4400 l1 -55 11 43 c7 31 7 46 -1 54 -9 9 -12 -1 -11 -42z"/>
<path d="M5647 4389 c-20 -45 -19 -110 1 -117 8 -2 12 11 12 47 0 27 5 53 10
56 12 7 14 55 2 55 -4 0 -15 -19 -25 -41z"/>
<path d="M6150 4415 c0 -8 5 -15 10 -15 6 0 10 7 10 15 0 8 -4 15 -10 15 -5 0
-10 -7 -10 -15z"/>
<path d="M6462 4418 c-8 -8 -12 -59 -12 -162 0 -82 2 -147 4 -145 2 2 6 62 9
132 4 99 8 132 21 146 29 32 9 60 -22 29z"/>
<path d="M6643 4316 c-29 -30 -29 -36 2 -36 21 0 25 5 25 30 0 17 -1 30 -2 30
-2 0 -13 -11 -25 -24z"/>
<path d="M6519 4285 c-16 -32 -20 -48 -12 -56 7 -7 13 -2 18 18 3 15 15 36 26
46 23 21 25 37 5 37 -8 0 -25 -20 -37 -45z"/>
<path d="M6297 4290 c-3 -11 -1 -23 4 -26 5 -3 9 6 9 20 0 31 -6 34 -13 6z"/>
<path d="M5650 4227 c-9 -13 -14 -38 -12 -60 3 -33 6 -38 22 -34 23 6 56 -16
46 -31 -3 -6 -2 -13 3 -16 4 -3 11 -19 14 -36 4 -16 11 -30 17 -30 12 0 13 34
1 58 -17 34 -30 67 -33 87 -2 12 -10 19 -20 17 -18 -3 -32 24 -18 33 12 7 13
35 3 35 -5 0 -15 -11 -23 -23z"/>
<path d="M6286 4135 c-7 -19 3 -47 15 -39 5 3 9 14 9 24 0 24 -16 34 -24 15z"/>
<path d="M6240 4059 c0 -37 4 -58 10 -54 6 3 10 31 10 61 0 30 -4 54 -10 54
-6 0 -10 -27 -10 -61z"/>
<path d="M5610 4072 c0 -10 4 -22 9 -27 5 -6 11 -25 13 -44 3 -33 30 -62 44
-48 4 4 2 17 -4 30 -6 12 -16 41 -22 65 -11 42 -40 60 -40 24z"/>
<path d="M5700 3928 c0 -10 8 -31 19 -48 15 -25 20 -28 25 -15 10 27 7 45 -9
45 -7 0 -19 8 -24 18 -10 16 -10 16 -11 0z"/>
<path d="M2256 5171 c-19 -7 -18 -8 4 -14 26 -7 43 0 35 14 -7 10 -13 10 -39
0z"/>
<path d="M7078 4277 c-20 -17 -51 -55 -68 -84 -17 -29 -43 -61 -58 -72 -16
-12 -21 -20 -13 -21 8 0 22 -7 32 -16 21 -19 43 -10 31 12 -6 11 3 27 32 55
60 60 76 66 99 38 28 -35 8 -119 -29 -119 -10 0 -12 -9 -7 -30 3 -20 -1 -45
-12 -69 -9 -21 -15 -49 -13 -62 l3 -24 15 26 c59 106 130 278 130 317 0 8 -7
29 -16 48 -14 30 -21 34 -53 34 -26 0 -46 -9 -73 -33z"/>
<path d="M6848 4093 c-57 -4 -74 -15 -42 -27 29 -11 101 -6 113 7 10 13 5 29
-8 25 -3 -1 -32 -3 -63 -5z"/>
<path d="M6970 3910 c0 -5 7 -10 15 -10 8 0 15 5 15 10 0 6 -7 10 -15 10 -8 0
-15 -4 -15 -10z"/>
<path d="M7020 3866 c0 -13 -3 -31 -6 -40 -10 -27 25 -19 38 8 13 29 5 56 -17
56 -9 0 -15 -9 -15 -24z"/>
<path d="M7083 3796 c-18 -18 -33 -37 -33 -44 0 -16 -90 -102 -106 -102 -8 0
-14 -8 -14 -18 0 -10 -7 -27 -15 -39 -8 -12 -12 -29 -9 -38 4 -9 -2 -28 -12
-43 -11 -15 -28 -43 -38 -63 -17 -32 -18 -41 -6 -68 15 -36 19 -34 53 31 14
26 34 59 44 75 11 15 23 41 27 57 4 15 41 73 82 128 70 91 95 147 69 153 -5 1
-25 -12 -42 -29z"/>
<path d="M6967 3763 c-4 -3 -7 -13 -7 -21 0 -12 3 -12 15 -2 8 7 15 16 15 21
0 11 -14 12 -23 2z"/>
<path d="M7464 3699 c-16 -22 -34 -46 -40 -53 -6 -6 -14 -21 -18 -33 -4 -12
-13 -27 -21 -33 -8 -7 -15 -21 -15 -30 0 -10 -4 -20 -9 -22 -11 -4 -101 -190
-101 -207 0 -23 22 -5 44 35 12 22 38 60 58 84 20 25 41 64 47 88 7 23 16 42
21 42 5 0 17 13 26 29 13 22 25 29 48 29 29 0 32 -4 48 -57 9 -31 17 -76 18
-101 0 -25 3 -70 6 -100 2 -30 5 -59 5 -65 1 -32 -21 -217 -31 -255 -12 -48
-5 -134 11 -125 5 4 9 29 9 56 0 28 6 62 14 77 12 25 27 158 31 297 3 70 -14
245 -25 260 -4 6 -10 25 -13 42 -9 47 -36 83 -61 83 -14 0 -33 -14 -52 -41z"/>
<path d="M6690 3586 c0 -19 4 -24 15 -19 18 6 16 34 -2 41 -8 2 -13 -6 -13
-22z"/>
<path d="M6990 3436 c0 -40 93 -156 126 -156 6 0 14 -7 18 -15 4 -11 14 -13
38 -9 49 10 55 21 10 21 -45 0 -80 29 -130 106 -15 23 -31 45 -37 49 -11 8
-25 10 -25 4z"/>
<path d="M6742 3405 c-10 -21 -9 -25 3 -25 9 0 15 10 15 25 0 14 -2 25 -3 25
-2 0 -9 -11 -15 -25z"/>
<path d="M6807 3366 c-6 -15 1 -26 15 -26 4 0 8 9 8 20 0 23 -15 27 -23 6z"/>
<path d="M7444 3337 c-16 -12 -51 -44 -79 -70 -27 -26 -53 -47 -58 -47 -4 0
-13 -5 -20 -10 -48 -41 -62 -50 -72 -50 -7 0 -15 -9 -18 -20 -6 -23 -3 -24 24
-10 14 8 27 7 48 -5 19 -9 32 -11 36 -5 3 6 -1 13 -9 16 -25 10 -19 21 35 64
68 54 83 52 95 -7 11 -57 28 -59 32 -4 2 32 -1 43 -17 53 -12 7 -21 20 -21 28
1 23 25 50 45 50 10 0 24 -8 31 -17 19 -27 38 -4 25 30 -13 33 -38 34 -77 4z"/>
<path d="M6823 3310 c-5 -19 -6 -19 -18 -4 -16 23 -22 10 -30 -61 -11 -113
-10 -175 4 -175 12 0 32 79 38 150 3 32 11 58 19 63 16 9 19 47 3 47 -6 0 -13
-9 -16 -20z"/>
<path d="M7400 3125 c-7 -8 -18 -15 -25 -15 -8 0 -19 -15 -25 -34 -6 -19 -14
-36 -18 -38 -12 -5 -82 -112 -82 -125 0 -6 -3 -13 -7 -15 -12 -5 -53 -66 -53
-78 0 -5 -6 -10 -14 -10 -16 0 -29 -27 -17 -34 12 -8 63 53 87 104 4 8 10 17
13 20 14 12 51 70 51 80 0 5 4 10 8 10 5 0 13 10 19 23 6 12 29 43 52 69 23
26 37 49 32 52 -5 3 -14 -1 -21 -9z"/>
<path d="M7162 3049 c-12 -18 -11 -20 5 -17 10 2 19 11 21 21 5 23 -10 21 -26
-4z"/>
<path d="M7045 3020 c-8 -14 3 -30 21 -30 10 0 14 -12 14 -40 0 -27 5 -43 15
-47 24 -9 28 2 15 43 -10 28 -10 39 -1 42 18 6 13 22 -8 22 -11 0 -23 5 -26
10 -3 6 -10 10 -15 10 -5 0 -12 -4 -15 -10z"/>
<path d="M6984 2945 c-3 -8 -15 -17 -26 -21 -14 -4 -17 -9 -10 -16 14 -14 62
16 62 37 0 19 -19 19 -26 0z"/>
<path d="M6834 2888 c-4 -7 10 -12 19 -6 1 1 13 -4 25 -11 20 -11 23 -18 17
-47 -3 -19 -2 -34 3 -34 12 0 18 25 18 69 -1 31 -3 33 -39 36 -21 1 -40 -2
-43 -7z"/>
<path d="M6715 2849 c-8 -35 6 -57 23 -37 11 14 5 68 -8 68 -5 0 -11 -14 -15
-31z"/>
<path d="M7646 2844 c-10 -26 -7 -64 7 -92 8 -15 25 -49 38 -75 19 -39 25 -44
27 -27 2 12 -1 27 -7 33 -6 6 -11 21 -11 33 0 12 -7 27 -15 34 -10 8 -15 30
-15 61 0 48 -12 64 -24 33z"/>
<path d="M7544 2811 c-4 -17 -10 -31 -15 -31 -5 0 -9 -13 -9 -28 0 -15 -4 -32
-9 -37 -5 -6 -19 -33 -31 -62 -22 -52 -22 -53 -4 -97 18 -44 28 -52 116 -90
42 -18 94 -21 104 -5 3 6 -3 21 -15 33 -21 20 -23 20 -35 4 -17 -23 -28 -23
-60 3 -15 11 -33 19 -40 16 -18 -7 -51 62 -37 76 6 6 11 30 11 52 0 51 8 60
32 38 10 -9 18 -11 18 -6 0 6 9 13 21 16 27 7 20 30 -12 37 -29 7 -37 37 -14
54 19 14 17 47 -3 54 -7 2 -15 -9 -18 -27z"/>
<path d="M7740 2760 c0 -19 3 -21 12 -12 9 9 9 15 0 24 -9 9 -12 7 -12 -12z"/>
<path d="M7888 2715 c-4 -33 -1 -44 18 -61 28 -27 38 -20 17 12 -9 14 -19 39
-23 57 l-7 32 -5 -40z"/>
<path d="M8104 2718 c-8 -12 25 -40 41 -35 5 2 10 10 10 17 0 17 -42 32 -51
18z"/>
<path d="M7070 2666 c0 -24 17 -28 23 -6 3 13 0 20 -9 20 -8 0 -14 -6 -14 -14z"/>
<path d="M7637 2598 c7 -29 32 -58 50 -58 7 0 13 8 13 18 0 18 -41 62 -58 62
-6 0 -8 -10 -5 -22z"/>
<path d="M6987 2590 c-12 -35 -16 -80 -7 -85 6 -3 7 1 4 9 -4 11 0 16 10 16
17 0 20 22 6 55 -6 16 -9 17 -13 5z"/>
<path d="M6781 2383 c1 -65 5 -61 12 10 2 26 1 47 -4 47 -5 0 -9 -26 -8 -57z"/>
<path d="M7070 2350 c0 -6 10 -25 22 -43 13 -18 24 -34 26 -36 1 -3 7 0 12 5
7 7 1 22 -17 47 -28 37 -43 46 -43 27z"/>
<path d="M7700 2320 c0 -12 47 -12 75 0 15 6 8 9 -27 9 -27 1 -48 -3 -48 -9z"/>
<path d="M7928 2254 c-13 -13 -46 -16 -209 -16 -194 0 -229 -3 -229 -17 0 -6
78 -16 314 -38 67 -7 166 37 166 74 0 18 -22 17 -42 -3z"/>
<path d="M7192 2213 c2 -10 10 -18 18 -18 22 0 18 29 -3 33 -14 3 -18 -1 -15
-15z"/>
<path d="M7315 2201 c-57 -4 -73 -8 -55 -13 14 -4 42 -8 64 -8 37 0 38 -1 31
-27 -3 -16 -13 -41 -21 -57 -17 -34 -18 -46 -4 -46 6 0 10 9 10 20 0 11 4 20
9 20 5 0 14 13 20 29 8 18 30 37 61 53 75 39 65 41 -115 29z"/>
<path d="M8003 2173 c-35 -7 -27 -21 15 -28 59 -10 85 -20 93 -36 31 -64 32
-68 19 -99 -10 -25 -17 -30 -34 -26 -49 14 -72 16 -86 6 -13 -9 -11 -13 10
-30 44 -35 132 -21 149 23 5 12 16 29 25 36 9 8 16 29 16 51 0 31 -7 44 -40
74 -36 32 -45 36 -93 35 -28 -1 -62 -4 -74 -6z"/>
<path d="M6976 2085 c4 -9 11 -14 16 -13 15 5 11 23 -6 26 -11 2 -14 -2 -10
-13z"/>
<path d="M7340 2023 c0 -10 5 -25 10 -33 8 -12 10 -9 10 12 0 15 -4 30 -10 33
-5 3 -10 -2 -10 -12z"/>
<path d="M7716 1872 c-124 -42 -154 -69 -64 -59 30 4 75 14 99 23 32 11 88 16
203 17 117 1 160 5 163 15 3 8 -7 12 -34 12 -21 0 -51 7 -67 15 -18 10 -57 15
-110 15 -67 0 -100 -7 -190 -38z"/>
<path d="M7470 1738 c0 -4 8 -8 18 -8 10 0 23 -5 29 -11 12 -12 93 -3 93 11 0
16 -21 22 -35 10 -8 -7 -15 -7 -19 -1 -8 12 -86 11 -86 -1z"/>
<path d="M8313 1733 c-21 -8 -15 -30 10 -37 12 -3 35 -17 50 -32 53 -49 75 -2
24 54 -19 21 -55 27 -84 15z"/>
<path d="M8026 1713 c-40 -14 -56 -15 -92 -5 -26 7 -52 8 -66 3 -13 -5 -54
-11 -93 -15 -113 -11 -248 -37 -272 -52 -12 -8 -34 -14 -49 -14 -33 0 -101
-30 -108 -47 -6 -15 10 -17 19 -3 3 6 30 10 60 10 30 0 56 4 59 9 3 4 34 11
68 14 35 4 81 9 103 12 32 5 36 4 23 -5 -10 -6 -18 -15 -18 -20 0 -16 37 -11
56 7 21 22 55 26 219 27 153 1 210 -13 262 -63 26 -25 37 -31 43 -21 16 26
-24 84 -66 94 -34 9 -30 26 6 26 17 0 30 -4 30 -10 0 -5 7 -10 15 -10 27 0
-13 49 -53 65 -44 19 -84 18 -146 -2z"/>
<path d="M6997 1294 c-10 -11 3 -24 24 -24 12 0 19 -7 19 -19 0 -11 5 -23 10
-26 14 -9 13 48 -2 63 -13 13 -41 16 -51 6z"/>
<path d="M6954 1205 c-7 -18 -45 -20 -62 -3 -6 6 -15 8 -19 4 -13 -12 28 -36
63 -36 17 0 37 -6 43 -14 17 -21 51 -27 51 -10 0 8 -7 17 -15 20 -12 5 -13 9
-4 20 14 17 12 19 -24 28 -20 5 -29 2 -33 -9z"/>
<path d="M6770 1180 c0 -5 9 -10 21 -10 11 0 17 5 14 10 -3 6 -13 10 -21 10
-8 0 -14 -4 -14 -10z"/>
<path d="M7040 1122 c0 -4 14 -18 30 -32 17 -14 30 -32 30 -40 0 -8 12 -46 26
-85 40 -111 42 -119 42 -195 l-1 -72 -43 4 c-48 3 -62 -9 -16 -14 25 -3 27 -6
30 -59 3 -54 2 -57 -39 -97 -34 -32 -46 -39 -60 -31 -21 11 -32 -2 -23 -26 5
-12 14 -14 38 -9 17 4 35 13 41 20 5 7 22 18 38 23 16 6 27 18 27 29 0 10 5
23 12 30 6 6 12 35 13 64 0 29 7 63 14 76 19 35 -5 190 -41 268 -15 34 -28 65
-28 70 0 5 -14 22 -30 38 -17 16 -30 33 -30 38 0 4 -7 8 -15 8 -8 0 -15 -3
-15 -8z"/>
<path d="M7140 1092 c0 -4 9 -13 20 -20 22 -13 27 -3 8 16 -14 14 -28 16 -28
4z"/>
<path d="M7190 1043 c0 -5 4 -15 10 -23 11 -18 25 -7 17 15 -6 15 -27 21 -27
8z"/>
<path d="M6535 1030 c-3 -5 -1 -18 4 -27 9 -16 10 -14 11 10 0 28 -5 34 -15
17z"/>
<path d="M7231 971 c-1 -27 2 -32 11 -23 8 8 8 17 0 34 -10 22 -11 21 -11 -11z"/>
<path d="M6570 946 c0 -14 5 -26 10 -26 6 0 10 9 10 19 0 11 -4 23 -10 26 -6
4 -10 -5 -10 -19z"/>
<path d="M7263 770 c0 -118 0 -121 7 -45 4 44 4 101 0 125 -5 31 -7 5 -7 -80z"/>
<path d="M6605 858 c-10 -24 1 -48 21 -48 12 0 14 3 6 13 -5 6 -12 21 -14 32
-5 18 -6 18 -13 3z"/>
<path d="M6660 783 c0 -16 72 -65 86 -59 8 3 43 -2 77 -11 82 -21 189 -28 217
-13 36 19 11 28 -95 32 -55 2 -107 8 -115 13 -8 5 -31 10 -50 10 -19 1 -50 9
-69 18 -37 19 -51 21 -51 10z"/>
<path d="M7646 773 c-3 -3 -6 -32 -6 -64 0 -52 -3 -60 -31 -83 -21 -18 -29
-32 -25 -43 6 -14 10 -13 31 7 13 12 31 37 39 55 25 52 19 154 -8 128z"/>
<path d="M6980 410 c0 -24 15 -27 24 -4 9 22 8 24 -9 24 -8 0 -15 -9 -15 -20z"/>
<path d="M6931 360 c0 -33 1 -34 11 -12 8 17 8 26 0 34 -9 9 -12 4 -11 -22z"/>
<path d="M6775 331 c-16 -4 -29 -10 -27 -14 1 -4 2 -11 2 -17 0 -5 7 -10 15
-10 8 0 15 -4 15 -10 0 -5 5 -10 11 -10 5 0 9 8 7 18 -1 9 1 23 6 30 11 18 7
19 -29 13z"/>
<path d="M1136 3403 c-3 -3 -6 -19 -6 -34 0 -16 -14 -49 -32 -74 -42 -60 -27
-70 22 -15 31 35 40 53 40 82 0 36 -11 54 -24 41z"/>
<path d="M2145 3513 c-3 -10 -3 -58 0 -108 4 -49 8 -109 9 -132 2 -24 9 -49
15 -57 7 -8 11 -34 9 -58 -2 -33 0 -43 12 -43 9 0 16 11 18 31 4 39 87 134
139 159 32 15 51 17 142 10 130 -10 158 -10 344 0 118 6 181 4 315 -10 148
-16 184 -17 312 -6 254 22 423 24 579 7 182 -20 387 -20 527 0 75 10 217 17
458 20 193 2 358 6 368 10 44 14 250 26 578 33 395 9 390 10 426 -57 15 -28
18 -53 17 -133 -1 -79 1 -99 12 -99 40 0 76 165 54 242 -19 65 -50 106 -94
125 -59 26 -659 32 -797 8 -55 -10 -200 -20 -353 -26 -143 -5 -334 -12 -425
-15 -138 -6 -178 -4 -245 11 -69 16 -102 17 -245 9 -197 -10 -396 -10 -821 1
-308 8 -369 5 -369 -15 0 -6 65 -10 168 -11 188 -1 280 -10 247 -24 -32 -15
-331 -11 -429 4 -73 12 -106 12 -185 3 -53 -7 -189 -12 -303 -12 -264 0 -295
-8 -386 -97 l-63 -62 4 155 c4 141 3 154 -13 154 -10 0 -21 -8 -25 -17z"/>
<path d="M2036 3478 c-3 -13 1 -33 10 -46 11 -17 14 -36 9 -66 -13 -82 -17
-176 -7 -176 24 0 35 36 39 119 3 70 0 92 -12 104 -8 9 -15 29 -15 46 0 37
-16 49 -24 19z"/>
<path d="M2270 3405 c0 -8 5 -15 10 -15 6 0 10 7 10 15 0 8 -4 15 -10 15 -5 0
-10 -7 -10 -15z"/>
<path d="M5705 3218 c-231 -3 -458 -9 -505 -12 -47 -4 -177 -9 -290 -11 -534
-12 -565 -29 -50 -26 69 0 168 0 220 0 52 -1 110 -1 129 -1 21 1 46 -8 66 -24
40 -30 90 -32 98 -4 3 13 14 20 29 20 23 0 23 0 -4 -23 -16 -12 -31 -37 -35
-56 l-6 -34 38 7 c22 4 48 14 59 22 11 8 36 14 56 14 19 0 53 7 75 15 22 8 63
14 90 14 28 0 68 -6 90 -14 22 -8 50 -15 63 -15 26 0 123 -70 146 -105 43 -65
73 -223 46 -240 -5 -3 -10 -23 -10 -43 0 -20 -9 -50 -20 -67 -11 -16 -20 -36
-20 -43 0 -7 -12 -31 -27 -55 -15 -23 -26 -50 -25 -59 0 -10 -6 -18 -14 -18
-8 0 -14 -9 -14 -20 0 -11 -7 -23 -15 -26 -8 -4 -15 -13 -15 -21 0 -8 -16 -29
-35 -47 -19 -19 -35 -38 -35 -44 0 -5 -7 -12 -15 -16 -8 -3 -15 -12 -15 -21 0
-8 -4 -15 -10 -15 -5 0 -10 -5 -10 -10 0 -6 -29 -41 -65 -78 -35 -37 -65 -72
-65 -77 0 -6 -12 -18 -27 -27 -16 -9 -62 -50 -103 -92 -41 -42 -81 -76 -87
-76 -18 0 -53 -32 -53 -48 0 -7 -4 -11 -9 -8 -4 3 -16 -3 -26 -14 -10 -11 -24
-20 -32 -20 -7 0 -13 -7 -13 -15 0 -8 -9 -15 -20 -15 -11 0 -20 -7 -20 -15 0
-8 -9 -15 -19 -15 -11 0 -23 -4 -26 -10 -3 -5 -14 -10 -24 -10 -10 0 -24 -7
-31 -15 -7 -8 -20 -15 -29 -15 -9 -1 -26 -9 -37 -19 -19 -15 -21 -23 -14 -59
4 -23 5 -44 2 -47 -3 -3 -25 -5 -48 -5 -40 0 -43 1 -41 28 2 27 1 27 -48 23
-27 -1 -68 -9 -90 -17 -22 -7 -65 -14 -95 -14 -58 0 -191 -24 -221 -40 -10 -6
-33 -10 -52 -10 -19 0 -54 -9 -78 -19 -36 -15 -83 -20 -254 -27 -115 -4 -227
-7 -247 -6 -42 2 -55 -10 -32 -29 10 -8 51 -14 111 -16 64 -2 101 -8 116 -18
17 -12 50 -15 147 -14 204 1 253 14 75 20 -220 6 -239 35 -25 38 66 1 101 6
114 16 13 10 44 15 85 15 42 1 73 6 85 15 11 8 41 15 67 15 26 0 51 5 54 10 7
11 74 14 99 4 9 -3 16 -14 16 -24 0 -14 -9 -20 -32 -22 -17 -2 -33 -9 -36 -15
-5 -17 69 -18 86 -1 11 11 48 16 286 39 90 8 114 7 140 -5 52 -24 101 -30 115
-13 20 25 -35 57 -101 58 -29 1 -66 4 -83 8 -37 8 -45 38 -13 50 109 41 218
111 356 228 68 57 271 260 323 323 176 212 286 424 304 586 9 73 -10 150 -52
211 -30 45 -147 143 -169 143 -8 0 -14 5 -14 10 0 6 -9 10 -19 10 -11 0 -22 4
-25 9 -4 5 -24 12 -47 16 -22 4 -38 9 -35 12 5 6 83 14 167 18 32 1 82 6 112
9 32 4 63 3 74 -3 10 -5 26 -12 35 -15 27 -8 56 -64 63 -120 3 -28 7 -186 8
-351 2 -231 5 -305 16 -324 9 -17 13 -69 15 -181 1 -156 6 -184 27 -163 8 8 9
56 5 155 -9 198 -9 203 -24 221 -11 13 -13 75 -7 329 8 387 8 384 -11 424 -18
38 -47 60 -89 65 -16 2 -219 1 -450 -3z m-155 -88 c0 -5 -9 -10 -20 -10 -11 0
-20 5 -20 10 0 6 9 10 20 10 11 0 20 -4 20 -10z m-674 -1574 c10 -8 16 -18 12
-21 -10 -10 -85 -11 -95 -1 -10 9 24 36 47 36 9 0 25 -6 36 -14z"/>
<path d="M2351 3175 c-38 -21 -92 -76 -103 -104 -15 -40 -11 -203 7 -254 8
-25 18 -67 22 -93 3 -26 12 -59 20 -74 7 -14 13 -46 13 -72 0 -26 4 -49 9 -53
6 -3 13 -27 16 -53 3 -26 12 -69 20 -96 8 -26 15 -63 15 -82 0 -18 4 -35 9
-39 5 -3 13 -36 16 -73 4 -37 11 -71 15 -77 5 -5 13 -37 19 -70 22 -128 31
-171 40 -195 5 -14 12 -45 16 -69 3 -24 12 -53 20 -64 8 -12 15 -43 15 -69 0
-28 6 -52 15 -62 8 -8 15 -28 15 -44 0 -43 11 -92 21 -92 15 0 10 72 -7 121
-20 56 -13 119 14 119 9 0 36 -11 58 -24 23 -13 71 -33 106 -45 110 -37 136
-72 142 -196 10 -209 34 -196 35 19 1 132 0 141 -23 170 -28 37 -182 116 -225
116 -10 0 -39 9 -64 20 -47 21 -61 46 -51 87 6 23 64 68 114 88 8 4 22 11 30
16 8 5 27 14 43 20 15 6 27 15 27 20 0 5 13 9 29 9 16 0 34 7 41 15 7 8 20 15
30 15 23 0 82 30 97 49 17 22 17 164 1 159 -7 -3 -15 -15 -16 -29 -2 -13 -15
-36 -28 -50 -14 -14 -33 -41 -42 -58 -13 -24 -33 -38 -76 -56 -33 -13 -64 -29
-69 -34 -6 -6 -23 -11 -38 -11 -15 0 -29 -7 -33 -16 -4 -11 -13 -14 -31 -10
-19 5 -27 0 -42 -24 -17 -30 -37 -37 -61 -21 -22 14 -63 113 -69 166 -3 28
-11 59 -18 70 -7 11 -15 43 -18 70 -8 73 -37 198 -48 209 -5 6 -9 23 -9 40 0
16 -4 43 -9 60 -6 17 -17 69 -26 116 -9 47 -21 105 -27 130 -14 58 -16 87 -19
186 -3 95 3 107 84 164 l57 39 387 2 c214 2 575 2 803 0 414 -2 590 5 540 20
-14 4 -421 7 -905 7 -708 0 -885 -3 -904 -13z"/>
<path d="M4268 3173 c12 -2 30 -2 40 0 9 3 -1 5 -23 4 -22 0 -30 -2 -17 -4z"/>
<path d="M4378 3173 c12 -2 30 -2 40 0 9 3 -1 5 -23 4 -22 0 -30 -2 -17 -4z"/>
<path d="M5250 3116 c0 -7 -18 -25 -39 -40 -21 -15 -41 -36 -44 -46 -3 -10
-20 -25 -38 -33 -19 -8 -43 -24 -53 -36 -11 -11 -23 -21 -28 -21 -5 0 -29 -15
-52 -33 -24 -18 -64 -44 -88 -56 -28 -15 -49 -36 -58 -55 -7 -17 -19 -38 -27
-48 -8 -9 -11 -18 -6 -21 5 -3 32 17 61 44 29 27 55 49 58 49 2 0 28 18 57 39
29 22 63 45 77 51 14 6 45 22 70 35 25 13 51 24 58 24 29 2 60 33 67 68 3 19
12 44 18 55 10 15 9 21 -3 28 -21 13 -30 12 -30 -4z"/>
<path d="M5585 3018 c-33 -5 -73 -14 -90 -20 -16 -6 -46 -13 -65 -15 -19 -3
-49 -11 -67 -19 -17 -8 -35 -14 -40 -14 -5 0 -16 -26 -25 -57 -9 -32 -21 -78
-28 -103 -7 -25 -13 -66 -14 -91 -1 -28 -8 -53 -19 -63 -11 -12 -17 -33 -17
-65 0 -26 -5 -52 -11 -58 -6 -6 -13 -29 -15 -50 -1 -21 -10 -56 -18 -78 -8
-22 -15 -56 -16 -75 0 -19 -7 -44 -15 -54 -9 -12 -15 -42 -15 -77 0 -32 -4
-60 -9 -64 -6 -3 -13 -27 -16 -53 -3 -26 -10 -54 -15 -63 -4 -9 -11 -38 -15
-65 -4 -27 -13 -70 -21 -96 -9 -26 -14 -59 -12 -73 3 -24 4 -24 67 25 35 27
70 59 79 71 9 13 18 59 22 118 8 93 25 192 55 316 74 308 107 443 115 460 5
11 11 36 15 56 7 47 14 52 110 85 149 50 354 41 385 -16 20 -37 4 -122 -39
-213 -22 -49 -41 -93 -41 -99 0 -5 -9 -21 -20 -35 -11 -14 -20 -31 -20 -38 0
-6 -12 -22 -26 -36 -38 -35 -124 -150 -124 -165 0 -8 -8 -14 -18 -14 -22 0
-54 -52 -46 -74 5 -13 -1 -16 -25 -16 -20 0 -34 -6 -38 -17 -4 -9 -22 -30 -40
-46 -18 -16 -33 -35 -33 -43 0 -8 -6 -14 -12 -14 -14 -1 -58 -34 -58 -44 0 -4
-18 -25 -40 -47 -40 -40 -49 -59 -30 -59 6 0 10 4 10 10 0 5 20 23 44 39 23
16 81 66 127 110 46 45 87 81 91 81 4 0 8 4 8 9 0 5 23 33 51 62 28 30 65 73
82 97 16 23 34 42 39 42 4 0 8 7 8 15 0 7 6 18 13 22 8 4 17 15 20 23 4 8 16
29 27 45 11 17 24 40 29 52 5 11 15 24 20 28 6 3 11 14 11 24 0 10 7 24 15 31
8 7 15 21 15 32 0 10 7 30 16 43 9 13 14 37 13 53 -2 16 2 37 10 45 10 13 11
29 1 85 -18 101 -51 132 -161 151 -73 12 -97 12 -184 -1z"/>
<path d="M6384 2985 c-4 -8 -2 -21 4 -28 5 -6 13 -27 17 -44 8 -40 22 -43 31
-6 5 17 1 38 -11 60 -20 36 -32 42 -41 18z"/>
<path d="M3819 2948 c-5 -13 -16 -34 -24 -48 -8 -14 -15 -48 -15 -77 0 -28 -4
-54 -9 -58 -5 -3 -13 -31 -16 -63 -4 -31 -12 -70 -20 -87 -7 -16 -15 -58 -19
-93 -3 -35 -10 -71 -16 -82 -5 -10 -10 -41 -10 -68 0 -27 -7 -66 -15 -85 -26
-63 -22 -71 33 -62 26 5 64 8 85 8 29 -1 35 2 28 11 -10 12 3 36 20 36 7 0 69
-86 69 -95 0 -2 -7 -2 -15 1 -11 5 -17 -3 -21 -25 -4 -17 -10 -33 -14 -36 -4
-3 -31 2 -59 11 -29 8 -73 14 -99 12 l-47 -3 -12 -50 c-6 -27 -12 -93 -12
-145 -1 -52 -6 -113 -12 -135 -10 -40 -22 -280 -19 -405 0 -44 6 -70 17 -82
14 -15 14 -22 3 -42 -18 -34 -2 -119 23 -124 25 -5 47 16 47 44 0 37 34 44
206 44 140 0 182 7 138 24 -9 3 -79 6 -157 6 -190 0 -184 -2 -190 73 -5 57 -3
64 20 85 17 15 35 22 54 20 16 -1 30 2 31 7 2 6 -10 11 -27 13 -45 4 -85 23
-85 39 0 8 18 22 40 30 45 18 45 28 -1 37 -25 5 -30 10 -24 23 4 10 17 110 30
222 18 151 28 208 40 220 12 12 34 16 95 14 97 -3 110 7 90 67 -7 22 -10 43
-6 47 7 7 54 -3 171 -36 103 -29 165 -59 165 -80 0 -27 -90 -81 -136 -82 -62
-2 -89 -12 -92 -37 -3 -20 1 -22 45 -22 113 1 223 74 239 157 17 91 -23 114
-291 163 -109 20 -120 23 -140 36 -11 8 -25 14 -32 14 -36 0 -79 81 -69 133 7
40 42 107 64 126 13 10 14 15 5 18 -9 3 -13 26 -13 64 0 60 3 78 36 223 l18
79 -23 18 c-31 25 -59 24 -72 -3z"/>
<path d="M3675 2882 c-4 -20 -13 -44 -20 -52 -13 -15 -32 -121 -42 -234 -3
-33 -11 -66 -19 -73 -16 -16 -17 -27 -14 -100 4 -98 -27 -148 -107 -173 -24
-7 -43 -17 -43 -22 0 -4 -9 -8 -21 -8 -12 0 -19 -5 -17 -12 6 -18 84 -21 143
-5 50 13 50 14 58 63 4 27 11 90 15 139 5 50 13 100 20 112 7 12 12 42 12 66
0 25 7 61 15 80 8 20 15 61 15 91 0 39 4 55 15 60 10 4 15 20 15 50 0 56 -16
68 -25 18z"/>
<path d="M5145 2868 c-11 -6 -22 -14 -25 -17 -3 -3 -21 -17 -40 -30 -39 -27
-47 -34 -107 -90 -24 -22 -49 -43 -57 -48 -8 -5 -17 -34 -21 -70 -7 -62 -7
-63 20 -73 40 -15 61 -5 87 43 15 27 39 51 69 67 99 55 101 57 104 148 2 45 0
82 -3 82 -4 0 -16 -6 -27 -12z"/>
<path d="M3136 2851 c-11 -11 -25 -21 -33 -21 -7 0 -13 -11 -13 -24 0 -13 -7
-29 -15 -36 -8 -7 -15 -17 -15 -23 0 -6 -7 -17 -15 -26 -26 -27 -65 -91 -65
-106 0 -8 6 -15 14 -15 12 0 33 22 96 97 5 7 10 16 10 21 0 5 7 15 15 22 8 7
15 19 15 28 0 8 7 23 16 33 8 9 14 29 12 44 l-3 27 -19 -21z"/>
<path d="M3274 2817 c-11 -6 -26 -22 -32 -36 -6 -14 -15 -33 -20 -41 -26 -44
-42 -80 -42 -97 0 -11 -7 -28 -15 -39 -8 -10 -15 -31 -15 -46 0 -15 -5 -39
-12 -55 -6 -15 -13 -55 -14 -87 -2 -32 -7 -62 -13 -66 -6 -3 -14 -34 -17 -68
-4 -34 -13 -67 -20 -73 -8 -6 -14 -26 -14 -45 0 -18 -4 -44 -10 -59 -13 -33 5
-41 46 -20 16 8 34 15 40 15 6 0 21 9 34 20 13 11 37 21 54 21 28 2 29 2 5 6
-25 4 -26 8 -27 61 -2 134 71 408 135 502 28 42 30 81 5 103 -21 19 -37 20
-68 4z"/>
<path d="M6385 2761 c-8 -25 4 -91 16 -91 9 0 14 37 10 75 -3 30 -18 40 -26
16z"/>
<path d="M4108 2753 c-4 -11 -65 -53 -76 -53 -5 0 -18 -8 -30 -17 -11 -10 -30
-26 -42 -36 -12 -10 -19 -21 -16 -24 6 -6 55 15 66 28 11 12 92 49 107 49 9 0
24 7 33 15 10 9 40 18 69 22 64 7 59 15 -13 18 -42 2 -56 -1 -56 -11 0 -8 -4
-14 -10 -14 -5 0 -10 7 -10 15 0 15 -16 21 -22 8z"/>
<path d="M4327 2683 c-2 -4 -7 -20 -11 -35 -6 -26 -8 -26 -83 -26 -66 0 -85
-4 -123 -26 -25 -14 -52 -29 -60 -32 -21 -10 -97 -72 -126 -103 -53 -57 -8
-125 78 -119 39 3 43 5 49 37 15 72 148 153 267 164 34 3 69 11 77 17 27 23
10 120 -21 120 -7 0 -19 3 -27 6 -8 3 -17 2 -20 -3z"/>
<path d="M3033 2533 c-38 -39 -50 -75 -35 -108 8 -18 8 -26 -3 -35 -8 -7 -17
-28 -20 -49 -16 -102 -16 -101 0 -101 20 0 35 40 35 91 0 22 6 50 14 62 8 12
17 38 20 58 4 21 14 51 22 69 23 45 5 52 -33 13z"/>
<path d="M5085 2488 c-4 -24 -13 -47 -20 -53 -14 -11 -26 -65 -40 -180 -4 -27
-13 -64 -21 -82 -8 -17 -14 -48 -14 -70 -1 -21 -7 -49 -15 -63 -8 -14 -15 -41
-15 -60 0 -19 -7 -44 -15 -54 -8 -11 -15 -27 -15 -35 0 -8 -25 -52 -55 -97
-62 -91 -63 -114 -9 -114 35 0 84 18 96 35 4 5 8 26 8 45 0 64 22 235 32 255
6 11 13 50 16 87 3 40 10 72 18 79 8 6 14 30 14 54 0 23 7 59 15 78 8 20 15
54 15 75 0 23 6 45 15 52 16 13 21 90 6 90 -5 0 -12 -19 -16 -42z"/>
<path d="M4070 2325 c0 -12 15 -15 71 -15 49 0 75 -4 85 -15 9 -8 30 -15 49
-15 20 0 35 -6 39 -15 3 -8 12 -15 19 -15 20 0 68 -47 89 -86 19 -35 25 -119
9 -128 -5 -3 -12 -18 -16 -33 -8 -32 -66 -92 -115 -119 -19 -10 -42 -24 -50
-30 -19 -14 -217 -35 -249 -27 l-23 6 27 -41 c32 -49 61 -57 174 -49 72 5 213
45 235 67 6 6 19 10 31 10 11 0 27 5 35 10 13 9 13 12 -1 23 -15 11 -14 15 11
40 81 82 65 250 -31 322 -22 17 -53 40 -68 53 -16 12 -35 22 -43 22 -8 0 -18
4 -23 9 -13 12 -126 33 -197 37 -46 3 -58 1 -58 -11z"/>
<path d="M3323 2183 c-13 -2 -23 -9 -23 -14 0 -15 73 -6 78 9 4 12 -11 13 -55
5z"/>
<path d="M3520 2125 c-14 -8 -39 -14 -56 -15 -16 0 -39 -7 -50 -15 -10 -8 -32
-15 -49 -15 -16 0 -41 -7 -55 -15 -14 -8 -41 -14 -61 -15 -20 0 -42 -7 -49
-15 -7 -9 -29 -15 -52 -15 -48 0 -118 -34 -119 -58 0 -9 0 -61 1 -114 1 -70
-3 -105 -14 -127 -20 -38 -22 -191 -3 -209 8 -9 13 -54 15 -130 3 -99 1 -120
-12 -131 -9 -8 -16 -28 -16 -47 0 -27 5 -35 24 -40 43 -10 68 0 88 36 17 32
19 47 12 155 -11 176 -5 495 9 525 7 14 25 31 40 38 48 23 245 73 298 75 44 2
51 -1 55 -20 10 -38 1 -58 -29 -61 -28 -3 -37 -26 -13 -35 24 -10 56 5 61 27
2 11 6 54 8 94 3 40 10 79 16 85 6 6 11 21 11 34 0 27 -22 30 -60 8z"/>
<path d="M6294 1843 c2 -82 5 -170 7 -198 l2 -50 7 55 c10 67 12 302 4 324
-18 46 -24 3 -20 -131z"/>
<path d="M2895 1934 c-22 -13 -47 -26 -55 -30 -8 -3 -28 -12 -45 -20 -16 -7
-58 -26 -92 -41 -35 -15 -63 -33 -63 -39 0 -7 18 -15 40 -18 22 -3 58 -9 80
-12 21 -3 44 -12 51 -20 6 -8 19 -14 28 -14 9 0 28 -13 41 -30 39 -47 53 -40
45 24 -5 39 -3 67 8 98 9 24 18 62 21 86 7 49 0 51 -59 16z"/>
<path d="M4657 1939 c-14 -8 -16 -14 -6 -25 23 -28 88 -11 76 20 -7 18 -43 21
-70 5z"/>
<path d="M4516 1873 c-11 -11 -6 -23 9 -23 8 0 15 4 15 9 0 13 -16 22 -24 14z"/>
<path d="M4685 1863 c-11 -3 -30 -24 -43 -51 l-23 -46 21 -28 c23 -31 19 -35
-35 -40 -16 -2 -30 -7 -30 -13 0 -16 69 -17 122 -2 45 14 48 16 45 46 -1 21 3
34 13 37 26 10 19 69 -10 88 -13 9 -28 15 -32 15 -4 -1 -17 -4 -28 -6z"/>
<path d="M3495 1746 c-6 -91 2 -233 13 -221 9 8 11 315 2 315 -4 0 -11 -42
-15 -94z"/>
<path d="M4157 1633 c-9 -2 -15 -9 -12 -14 7 -10 355 -13 405 -3 22 5 28 9 18
15 -13 9 -378 10 -411 2z"/>
<path d="M3497 1504 c-4 -4 -22 -8 -39 -8 -39 -1 -72 -46 -50 -68 9 -9 17 -10
30 -1 12 7 24 8 36 1 25 -14 46 -2 45 24 -1 32 -13 61 -22 52z"/>
<path d="M5996 1482 c-3 -5 7 -21 21 -36 14 -15 28 -39 32 -54 10 -38 31 -40
31 -3 0 59 -62 128 -84 93z"/>
<path d="M2585 1375 c4 -33 11 -65 15 -70 5 -6 10 -33 12 -59 2 -31 8 -51 17
-54 11 -4 13 7 9 53 -3 31 -11 60 -18 65 -7 4 -10 15 -7 24 7 17 -10 75 -26
91 -6 7 -7 -11 -2 -50z"/>
<path d="M3496 1338 c-5 -20 -4 -51 0 -70 l7 -33 7 32 c4 17 4 49 0 70 l-7 38
-7 -37z"/>
<path d="M6079 1243 c-1 -54 0 -125 1 -159 l2 -61 -53 -6 c-28 -4 -56 -4 -60
-1 -5 3 -9 26 -9 50 0 32 -4 44 -12 41 -8 -2 -12 -20 -12 -43 2 -44 -8 -54
-50 -54 -16 0 -52 -6 -80 -14 -28 -8 -76 -22 -107 -31 -38 -11 -86 -15 -155
-13 l-99 3 3 28 c3 21 -1 27 -16 27 -11 0 -25 -6 -32 -14 -6 -8 -21 -16 -33
-18 -40 -6 -19 -23 53 -43 39 -11 72 -24 73 -30 1 -6 -47 -11 -125 -13 -111
-2 -133 0 -167 17 -33 17 -71 22 -252 30 -137 6 -218 6 -225 0 -7 -5 -124 -12
-260 -16 -195 -5 -278 -2 -384 10 -89 10 -261 18 -502 21 -204 3 -384 10 -405
15 -21 6 -110 15 -198 21 -88 5 -181 13 -207 16 -29 4 -48 2 -48 -4 0 -12 24
-22 53 -22 11 0 28 -6 36 -14 11 -9 70 -18 176 -26 88 -6 201 -15 250 -20 50
-4 218 -9 375 -9 188 -1 280 -5 270 -11 -8 -5 -69 -10 -135 -11 -130 0 -191
-12 -120 -22 22 -3 119 -6 215 -6 105 0 187 -4 204 -11 54 -20 176 -23 274 -6
53 9 149 16 230 16 75 0 191 7 257 15 125 15 308 18 360 5 35 -8 24 -16 -45
-29 -41 -8 -36 -9 50 -12 52 -2 145 -3 205 -4 91 0 110 -3 110 -15 0 -28 -207
-49 -318 -31 -40 6 -175 16 -302 21 -126 6 -271 13 -321 17 -50 3 -113 2 -140
-2 -47 -8 -47 -9 -19 -16 17 -3 73 -7 125 -9 52 -1 120 -6 150 -11 30 -5 144
-14 254 -19 109 -5 214 -14 235 -20 56 -15 222 -12 272 5 24 9 49 13 57 10 8
-3 25 4 39 15 28 22 73 26 90 9 6 -6 16 -8 22 -5 18 12 12 43 -11 59 -22 15
-18 16 62 12 67 -2 89 0 103 13 11 10 43 18 83 20 54 4 64 2 64 -12 0 -21 38
-21 68 0 29 20 28 34 -2 34 -13 0 -29 7 -36 15 -11 13 -15 14 -29 2 -11 -10
-38 -13 -86 -12 -49 2 -77 -2 -95 -13 -27 -17 -29 -18 -107 -20 -30 -1 -58 -8
-67 -17 -21 -21 -26 -19 -26 14 0 34 17 41 103 41 36 0 67 6 82 16 14 9 32 14
40 10 8 -3 43 3 77 13 35 10 98 19 141 20 65 2 78 0 84 -15 3 -9 1 -24 -5 -33
-7 -9 -17 -27 -22 -39 -6 -13 -19 -26 -29 -29 -11 -3 -22 -14 -24 -25 -5 -18
-11 -19 -42 -14 -30 6 -40 4 -50 -11 -11 -15 -25 -18 -79 -17 -36 1 -72 7 -81
14 -12 10 -16 9 -21 -6 -4 -11 -13 -26 -21 -36 -8 -9 -10 -18 -5 -22 5 -3 15
1 22 9 18 21 118 20 142 -2 17 -15 19 -15 38 2 13 12 24 15 32 8 7 -5 29 -9
48 -9 28 1 36 5 38 23 2 15 13 25 29 29 18 5 32 21 48 57 13 27 29 54 36 58
11 6 10 12 -3 26 -14 16 -25 162 -28 376 0 9 -4 17 -10 17 -6 0 -10 -40 -11
-97z"/>
<path d="M4103 1297 c4 -12 156 -15 930 -16 147 -1 267 -5 267 -10 0 -12 -120
-51 -156 -51 -17 0 -39 -7 -50 -15 -28 -21 -348 -21 -418 0 -54 17 -346 22
-346 6 0 -14 67 -21 208 -21 104 0 138 -3 157 -16 20 -13 52 -15 194 -12 119
2 174 7 183 16 7 7 37 12 70 12 32 0 75 7 95 15 19 8 48 15 64 15 15 0 40 5
56 12 15 6 47 14 71 17 69 10 54 26 -27 29 -44 2 -82 9 -94 17 -18 12 -115 15
-615 15 -468 0 -593 -3 -589 -13z"/>
<path d="M5780 1231 c0 -16 7 -34 15 -41 9 -7 15 -35 17 -76 4 -84 22 -83 26
2 2 47 -2 76 -15 104 -21 47 -43 52 -43 11z"/>
<path d="M4070 1241 c0 -4 17 -11 38 -15 57 -9 182 -7 182 3 0 5 -33 11 -72
14 -117 8 -148 8 -148 -2z"/>
<path d="M5610 1193 c-149 -7 -143 -29 10 -34 100 -4 105 -3 105 16 0 22 -9
24 -115 18z"/>
<path d="M4010 1149 c-25 -5 -211 -12 -415 -15 -298 -4 -374 -8 -392 -20 -12
-8 -37 -14 -55 -14 -18 0 -40 -4 -48 -10 -24 -15 13 -23 78 -16 127 14 378 25
567 26 110 0 243 5 295 10 52 5 194 12 315 16 121 3 226 10 233 14 34 18 -490
26 -578 9z"/>
<path d="M2541 1126 c15 -32 32 -34 27 -4 -2 13 -11 24 -21 26 -15 3 -16 0 -6
-22z"/>
<path d="M5085 1139 c-88 -4 -189 -13 -225 -18 -36 -6 -92 -13 -125 -17 -33
-4 -66 -12 -74 -18 -10 -8 -170 -13 -530 -17 -285 -3 -532 -10 -551 -15 -20
-6 -35 -16 -35 -24 0 -22 40 -24 86 -6 56 23 398 23 517 0 87 -16 172 -15 252
4 25 6 88 11 140 12 52 0 127 7 165 15 39 8 100 15 136 15 36 0 104 5 150 11
78 11 295 3 469 -17 29 -3 51 0 62 8 16 12 16 15 -3 37 -17 21 -23 23 -40 13
-20 -13 -59 -16 -59 -6 0 4 8 13 18 20 14 11 1 13 -88 12 -58 0 -177 -5 -265
-9z"/>
<path d="M2772 1080 c-24 -11 -41 -24 -37 -30 8 -13 71 -13 97 1 11 6 50 14
87 17 36 4 65 12 64 17 -2 6 -40 11 -85 12 -64 2 -93 -3 -126 -17z"/>
<path d="M2667 1034 c-9 -10 2 -24 19 -24 8 0 14 7 14 15 0 15 -21 21 -33 9z"/>
<path d="M5220 1020 c0 -13 90 -13 110 0 11 7 -3 10 -47 10 -36 0 -63 -4 -63
-10z"/>
<path d="M4365 1000 c4 -6 54 -9 123 -9 99 2 108 3 62 9 -84 12 -192 12 -185
0z"/>
<path d="M4975 1001 l-40 -6 34 -8 c71 -15 227 -5 215 14 -6 10 -146 10 -209
0z"/>
<path d="M2711 899 c-21 -17 -22 -22 -11 -49 7 -17 12 -67 11 -114 0 -59 3
-87 13 -95 10 -8 16 -8 24 2 14 17 0 169 -16 175 -7 2 -12 10 -12 18 0 17 34
18 52 1 8 -8 43 -13 96 -13 49 0 87 -5 94 -12 9 -9 141 -12 513 -11 480 1 575
5 548 22 -7 4 -223 9 -480 11 -568 5 -526 4 -518 16 3 6 36 11 73 11 37 1 81
5 97 9 31 9 -79 6 -292 -6 -96 -5 -114 -3 -119 10 -3 8 -16 21 -28 29 -19 13
-24 13 -45 -4z"/>
<path d="M2812 778 c2 -13 8 -23 13 -23 6 0 11 10 13 23 2 15 -2 22 -13 22
-11 0 -15 -7 -13 -22z"/>
<path d="M2925 790 c-18 -8 -17 -9 8 -9 15 -1 27 4 27 9 0 12 -8 12 -35 0z"/>
<path d="M6080 770 c-9 -17 -8 -20 10 -20 13 0 20 7 20 20 0 11 -4 20 -10 20
-5 0 -14 -9 -20 -20z"/>
<path d="M3047 763 c-32 -9 -7 -23 41 -23 26 0 65 -7 87 -15 27 -9 86 -14 180
-15 133 -1 200 -11 165 -23 -8 -3 -109 -11 -225 -17 -298 -17 -339 -21 -349
-30 -18 -18 51 -23 168 -11 67 6 184 14 261 18 92 4 145 10 155 19 8 7 50 14
95 17 44 2 99 9 123 16 43 11 92 6 92 -10 0 -5 -15 -9 -32 -10 -18 0 -42 -4
-53 -9 -15 -6 -6 -9 32 -9 28 -1 55 4 58 9 3 6 13 10 21 10 9 0 22 7 30 15 18
18 100 19 214 4 157 -21 167 -21 174 -10 4 6 -5 13 -21 16 -15 4 -46 14 -68
23 -35 15 -88 17 -517 14 -284 -2 -485 1 -495 6 -22 12 -112 22 -136 15z"/>
<path d="M4556 711 c-19 -7 -19 -8 0 -16 30 -13 414 -19 426 -7 7 7 -3 12 -33
16 -78 9 -373 15 -393 7z"/>
<path d="M2840 665 c0 -8 5 -15 10 -15 6 0 10 7 10 15 0 8 -4 15 -10 15 -5 0
-10 -7 -10 -15z"/>
<path d="M1056 2681 c-7 -11 22 -23 35 -15 5 3 7 10 4 15 -8 12 -32 12 -39 0z"/>
<path d="M1160 2619 c0 -13 24 -34 55 -49 11 -6 34 -19 50 -30 17 -11 40 -24
53 -30 12 -5 22 -14 22 -20 0 -5 4 -10 10 -10 15 0 110 -60 151 -94 20 -17 73
-59 118 -94 68 -53 80 -67 75 -86 -4 -17 1 -25 28 -38 23 -10 40 -30 56 -64
13 -27 28 -57 34 -68 5 -10 14 -48 19 -85 11 -76 22 -92 46 -68 14 14 15 20 4
44 -11 24 -10 29 10 44 25 19 28 52 12 134 l-11 50 -1 -47 c-1 -41 -4 -48 -21
-48 -14 0 -20 7 -20 23 0 12 -9 30 -20 40 -26 22 -25 48 1 81 27 35 20 41 -33
28 l-43 -11 -60 62 c-88 90 -154 149 -202 181 -24 16 -43 33 -43 37 0 12 27
11 35 -1 3 -5 15 -10 25 -10 11 0 27 -9 38 -20 19 -21 82 -50 107 -50 21 0 19
16 -2 24 -22 8 -48 23 -93 56 -40 28 -100 60 -115 60 -5 0 -22 7 -37 14 -15 8
-53 18 -85 22 -32 4 -75 13 -97 20 -47 17 -66 18 -66 3z"/>
<path d="M1968 2580 c-16 -28 -16 -29 3 -35 32 -10 39 -45 18 -80 -23 -36 -24
-45 -5 -45 14 0 30 32 42 83 6 26 -21 107 -36 107 -3 0 -13 -13 -22 -30z"/>
<path d="M913 2473 c-18 -7 -16 -34 5 -58 35 -41 203 -103 330 -122 18 -3 35
-9 38 -14 3 -5 14 -9 24 -9 28 0 120 -97 120 -126 0 -14 7 -27 15 -30 8 -4 15
-18 15 -34 0 -15 7 -33 15 -40 8 -7 15 -19 15 -28 0 -8 16 -44 35 -80 22 -40
33 -71 30 -83 -4 -11 -2 -19 4 -19 6 0 11 5 11 10 0 6 7 10 15 10 8 0 15 5 15
10 0 6 -5 10 -10 10 -6 0 -15 12 -21 28 -5 15 -19 44 -30 65 -10 21 -19 46
-19 56 0 10 -7 24 -15 31 -8 7 -15 20 -15 30 0 55 -110 220 -147 220 -7 0 -21
9 -30 20 -11 12 -30 20 -50 20 -22 0 -33 5 -33 14 0 32 36 27 112 -14 10 -6
23 -10 30 -10 24 -1 66 -45 102 -107 20 -35 46 -67 56 -73 11 -6 20 -15 20
-20 0 -5 14 -32 31 -60 23 -38 37 -50 55 -50 13 0 24 3 24 7 0 3 -26 36 -58
72 -32 36 -61 74 -65 84 -3 9 -11 17 -17 17 -5 0 -10 7 -10 15 0 9 -7 18 -15
21 -8 4 -15 14 -15 24 0 21 -50 66 -95 87 -16 7 -37 17 -45 21 -49 27 -83 42
-96 42 -9 0 -25 6 -37 12 -21 12 -78 29 -162 48 -43 10 -112 12 -132 3z m219
-72 c13 -5 32 -12 43 -16 19 -7 19 -7 -3 -16 -27 -10 -67 3 -75 25 -7 18 2 20
35 7z"/>
<path d="M1977 2301 c9 -23 19 -41 22 -41 4 0 12 13 18 29 9 25 8 30 -6 34 -9
3 -24 8 -33 12 -16 6 -16 4 -1 -34z"/>
<path d="M1860 2271 c-9 -19 -8 -21 15 -21 28 0 32 12 11 29 -12 10 -17 8 -26
-8z"/>
<path d="M1175 2050 c-3 -5 6 -12 20 -16 14 -3 25 -10 25 -15 0 -5 10 -14 23
-19 33 -15 61 -33 70 -47 4 -7 15 -13 22 -13 8 0 15 -4 15 -9 0 -5 8 -12 19
-16 10 -3 32 -24 47 -47 22 -31 30 -37 32 -24 6 29 -167 186 -204 186 -9 0
-22 7 -30 15 -18 17 -30 19 -39 5z"/>
<path d="M873 2043 c9 -2 25 -2 35 0 9 3 1 5 -18 5 -19 0 -27 -2 -17 -5z"/>
<path d="M976 2021 c-7 -11 41 -24 56 -15 8 5 5 10 -8 15 -27 11 -42 11 -48 0z"/>
<path d="M1060 1990 c0 -5 6 -10 14 -10 7 0 25 -9 39 -20 29 -23 47 -26 47 -7
-1 13 -62 47 -85 47 -8 0 -15 -4 -15 -10z"/>
<path d="M1670 1981 c5 -11 20 -27 31 -35 35 -24 53 -57 65 -121 l12 -60 1 71
c1 64 -1 72 -26 96 -16 14 -36 28 -45 31 -10 4 -18 13 -18 22 0 8 -7 15 -15
15 -12 0 -14 -4 -5 -19z"/>
<path d="M1295 1820 c-14 -16 -15 -20 -4 -20 16 0 39 19 39 32 0 14 -16 9 -35
-12z"/>
<path d="M1580 1801 c0 -5 6 -14 14 -20 12 -10 13 -8 9 8 -5 21 -23 30 -23 12z"/>
<path d="M951 1678 l-73 -22 -132 19 c-132 18 -195 16 -214 -8 -5 -6 -15 -72
-21 -146 -6 -74 -16 -140 -21 -146 -14 -17 -20 -109 -9 -126 8 -12 11 -12 19
1 5 8 8 21 5 28 -3 7 -1 20 4 30 17 31 51 166 51 199 0 44 28 111 51 124 11 6
87 9 182 8 90 -2 169 1 177 6 23 14 129 13 142 -2 6 -7 27 -17 48 -23 20 -5
54 -21 74 -35 43 -29 46 -30 46 -10 0 8 -17 28 -38 45 -96 76 -173 92 -291 58z"/>
<path d="M2190 1580 c0 -11 5 -20 10 -20 6 0 10 9 10 20 0 11 -4 20 -10 20 -5
0 -10 -9 -10 -20z"/>
<path d="M2240 1566 c0 -14 5 -28 10 -31 6 -4 10 7 10 24 0 17 -4 31 -10 31
-5 0 -10 -11 -10 -24z"/>
<path d="M1300 1545 c0 -8 4 -15 9 -15 5 0 16 -3 25 -6 9 -3 16 -1 16 5 0 6
-7 11 -15 11 -8 0 -15 5 -15 10 0 6 -4 10 -10 10 -5 0 -10 -7 -10 -15z"/>
<path d="M1954 1494 c3 -9 6 -18 6 -20 0 -2 7 -4 15 -4 18 0 19 12 3 28 -17
17 -31 15 -24 -4z"/>
<path d="M1927 1483 c-2 -4 4 -17 14 -27 16 -16 19 -17 19 -4 0 18 -26 43 -33
31z"/>
<path d="M1775 1440 c28 -12 65 -12 65 0 0 6 -19 10 -42 9 -33 0 -38 -2 -23
-9z"/>
<path d="M1880 1400 c35 -30 50 -36 50 -22 0 9 -63 52 -76 52 -5 0 7 -14 26
-30z"/>
<path d="M1942 1318 c2 -24 8 -43 13 -43 6 0 11 19 13 43 3 33 0 42 -13 42
-13 0 -16 -9 -13 -42z"/>
<path d="M567 1283 c-3 -26 -12 -52 -21 -58 -18 -14 -22 -45 -6 -45 6 0 14 8
17 18 4 9 13 23 20 30 14 15 18 102 4 102 -4 0 -11 -21 -14 -47z"/>
<path d="M2280 1303 c1 -14 27 -43 39 -43 16 0 14 16 -5 34 -16 17 -34 21 -34
9z"/>
<path d="M1838 1268 c-7 -7 -25 -19 -40 -27 -35 -18 -121 -100 -173 -165 -22
-27 -48 -56 -57 -65 -10 -8 -18 -19 -18 -24 0 -5 -13 -26 -30 -47 -16 -21 -30
-41 -30 -45 0 -3 -7 -13 -15 -21 -17 -18 -20 -34 -5 -34 6 0 10 4 10 9 0 6 10
21 23 34 12 14 47 55 77 93 84 104 122 146 159 179 19 16 42 38 52 47 40 38
67 49 102 43 40 -8 58 8 28 24 -27 15 -67 14 -83 -1z"/>
<path d="M1036 948 c-24 -106 -29 -169 -16 -188 18 -27 31 9 24 67 -6 47 -3
56 25 98 l31 46 -22 29 c-12 17 -22 30 -23 30 0 0 -9 -37 -19 -82z"/>
<path d="M546 899 c10 -12 28 -25 39 -30 11 -5 40 -21 64 -34 24 -14 50 -25
56 -25 17 0 143 -65 165 -85 21 -19 35 -5 25 25 -6 20 -159 100 -190 100 -8 0
-17 5 -20 10 -3 6 -16 10 -29 10 -13 0 -44 11 -70 25 -57 31 -65 31 -40 4z"/>
<path d="M957 842 c-4 -42 -3 -80 2 -90 16 -28 22 23 13 98 l-8 65 -7 -73z"/>
<path d="M2135 902 c14 -10 33 -41 46 -74 6 -16 15 -28 20 -28 15 0 10 50 -6
56 -8 4 -15 12 -15 20 0 7 -9 18 -19 24 -22 11 -41 13 -26 2z"/>
<path d="M1435 821 c-6 -11 9 -23 19 -14 9 9 7 23 -3 23 -6 0 -12 -4 -16 -9z"/>
<path d="M1406 774 c-4 -10 -2 -22 3 -27 7 -7 13 -5 17 7 4 10 2 22 -3 27 -7
7 -13 5 -17 -7z"/>
<path d="M2212 758 c2 -13 8 -23 13 -23 6 0 11 10 13 23 2 15 -2 22 -13 22
-11 0 -15 -7 -13 -22z"/>
<path d="M1804 728 c-10 -15 1 -19 26 -10 l24 9 -22 5 c-12 4 -25 2 -28 -4z"/>
<path d="M2244 694 c3 -9 6 -18 6 -20 0 -2 5 -4 10 -4 6 0 10 9 10 20 0 12 -7
20 -16 20 -11 0 -14 -5 -10 -16z"/>
<path d="M2424 627 c-8 -21 2 -35 16 -21 5 5 6 15 0 24 -8 12 -10 12 -16 -3z"/>
<path d="M1973 614 c-13 -6 22 -74 38 -74 13 0 11 18 -3 22 -6 2 -8 10 -4 17
6 9 31 11 100 6 82 -7 89 -6 76 8 -10 11 -42 17 -105 20 -49 3 -95 3 -102 1z"/>
<path d="M2270 563 c0 -14 19 -38 25 -32 8 8 -5 39 -16 39 -5 0 -9 -3 -9 -7z"/>
<path d="M1885 549 c-10 -16 1 -22 26 -14 17 6 19 9 8 16 -19 12 -26 11 -34
-2z"/>
<path d="M1718 544 c-7 -7 2 -44 11 -44 4 0 14 9 24 20 19 22 33 25 42 10 4
-6 11 -8 16 -4 19 12 -4 24 -45 24 -23 0 -45 -3 -48 -6z"/>
<path d="M1840 465 c0 -8 5 -15 10 -15 6 0 10 7 10 15 0 8 -4 15 -10 15 -5 0
-10 -7 -10 -15z"/>
<path d="M3165 420 c-10 -11 -30 -20 -44 -21 -24 0 -24 -1 -6 -9 32 -14 58
-11 84 9 24 18 24 19 4 29 -17 9 -24 8 -38 -8z"/>
<path d="M2708 362 c-23 -4 -23 -18 -1 -27 10 -3 70 -11 133 -16 63 -5 131
-14 150 -19 56 -15 154 -21 169 -11 25 16 -4 38 -57 45 -121 16 -369 33 -394
28z"/>
<path d="M4065 311 c-144 -12 -17 -21 315 -22 184 0 376 -5 425 -10 161 -17
377 -21 500 -11 120 10 297 -2 379 -27 98 -30 226 -39 399 -29 116 7 154 21
121 45 -13 9 -57 11 -189 6 -178 -6 -174 -7 -385 42 -42 9 -229 12 -775 12
-396 0 -751 -3 -790 -6z"/>
</g>
</svg>
