<svg xmlns="http://www.w3.org/2000/svg" width="400" height="421.3" version="1.0" viewBox="0 0 300 316"><path d="M125 4c-8 3-15 9-20 15-4 5-9 17-10 23l-2 8c-4 13-9 44-9 52 0 7 3 13 10 20l5 7c0 1-3 4-5 4l-19 8-8 5c-9 7-10 9-14 20-5 14-8 21-14 27l-6 9c0 4-12 29-15 32l-9 17-5 30c0 5 4 9 10 11l16 7c9 4 14 6 18 6l21 6 10 2 11 1h16l1 1h1l2 1 20-1 19-2 31-1c23 0 31 0 35 2h10a115 115 0 0 0 40-11c2 0 11-3 15-6 5-2 14-12 16-18 2-4 1-10-3-18a270 270 0 0 1-27-62l-6-14c-5-13-9-21-16-28-5-6-8-8-17-13l-15-7c-4-3-9-5-17-7-7-2-7-3-7-5l8-11c1-1 5-11 6-17 1-8 1-12-2-19l-3-12-2-15-2-12c-1-5-5-14-7-14l-10-8c-5-5-12-10-15-11-5-3-6-4-18-4-11 0-13 0-18 2zm34 2 10 8 9 7 2 2-3-1-3-2c-1 1 1 2 4 4 5 3 8 4 4 1h1l2 2 2 3c2 1 4 7 4 12v3l-2-2c-2-1-3-3-2-3 1-1-5-9-10-14s-6-6-5-7v-1h-1l-1-1h-1l-2-3-7-5c-4-2-5-3-6-2s-1 1 0 0l2 1c-1 0 0 2 3 3l3 2-4-1-11-4c-7-2-9-2-13-1l-12 5-9 4 2 2c4 1 11 1 14-2s13-4 18-2l9 6 4 5-4 1h-4l4 1h7c0-2-11-14-14-14-6-2-8-2-12-1h-8c-2-2-2-2 5-3 8-1 16 1 21 4l3 1h4c1-2 4 0 8 6 3 6 9 12 9 11l2 1-1 1h-2c-1 1-1 1 2 3l3 2 5 7 6 7-9-8-9-8 1 1 1 2v2l1 1v-2c-1-1-1-1 0 0s2 1 1 2l6 7c7 7 9 11 9 16 0 2-1 1-3-2l-7-10-6-8-1-3v3c0 2 1 5 6 9l5 6-4-3-18-9 4 3c8 4 19 13 21 16 1 2-2 0-12-7-6-4-9-5-11-4-1 1 0 1 2 2 4 1 11 5 21 14 8 7 10 14 8 27-1 5-6 17-7 16l2-8 3-12v-5l-1 5c-1 7-5 18-11 30s-10 18-15 24l-4 4-4 7-5 8c-4 7-4 9-5 16v8h-5l-9 1h-4l1-4c0-3 0-5-2-8-2-5-3-6-1-6l3 4-1-6c-1-6-3-10-8-19-2-3-2-4-1-5l2-2-2 1-1 2-3-4-9-9c-9-7-21-19-24-25-5-9-4-18 5-39a168 168 0 0 1 18-29l-2 4a4941 4941 0 0 0-22 48c0 5 3 15 7 21 4 5 16 15 18 15h1l4 4c3 2 4 3 5 6 1 5 2 5 2 1v-2c2 1 14 19 16 23l1 5c0 2 2 3 4 3l2-3c1-4 10-14 11-13h1c-1-1 1-4 4-6l8-9 5-5v1l1-2 3-5c4-5 6-10 9-19 3-7 3-9 2-15-1-9-3-15-5-16v4l1 1 1 2v5c1 2 1 14-1 17l-1 4-3 7-2 6-2 2v1l-1 2-2 1-2 3-6 5-3 3v1c0 2-3 3-4 2l-2 1 1 1c1-1 1 1-2 4l-3 2-2 1v1c3-2 2 0 0 3-1 1-2 2-3 1l-1 1c1 1 0 3-1 4l-3 4-1 2-1-2-1-3-1-1-2-6-4-6-1-2-3-4-2-4-1-2h-1l-3-4-3-4-6-5-6-5-1-1c-1 0-5-3-9-9-5-6-7-20-3-24v-5c1-2 2-3 3-2l1-1v-1l3-4 1-2c-3 2-2 0 0-3l1-2 1-2c1-1 1-1 0 0-3 3-12 18-14 24-2 7 0 19 5 22l1 3 2 2 8 6 11 10-15-11c-2-3-4-4-4-3l1 2-3-3c-4-4-8-12-9-18 0-4 0-6 2-11 3-8 10-21 11-21l3-3c4-3 7-5 13-6 4-1 4-1-2-1l-7 1 3-3 4-2 4-2c3-3 3-3 2-5l-2-4 10-3 9 1 13 2 10 1c5 2 11 2 12 1 0-1-1-3-4-5a135 135 0 0 0-25-16h-9c-12 2-15 3-6 2 9 0 21 1 22 3l7 5c11 7 13 9 11 10l-6-1-10-2-10-1c-10-2-15-2-20 0l-5 3v-3c0-2 1-3 4-5l5-2h1l1-1 4-3c2-2 2-3-1-1l-7 4c-10 4-11 6-7 13l3 5-6 2c-3 2-6 4-6 6l-5 5-4 2 2-2 5-10 1-1 3-9c0-2-2-2-4-1-2 2-2 2-2 0l2-6c2-3 2-5 1-6s0-3 2-6c2-6 3-8 0-6l-11 24 4-6 5-6-6 14-7 17-9 19 1-3c1-10 3-14 6-20l4-10-1 1-6 9c0-3 5-15 9-21 6-9 7-12 1-3l-6 7 5-13c5-11 15-19 27-24 5-2 25 0 30 2zm-31 8c-1 1-8 3-9 2-2-1 3-3 7-3 2 0 3 0 2 1zm15 12h-3c-1-1 0-1 2-1 1 0 2 0 1 1zm-41 52v-2l1-1-1 3zm92 53c8 2 15 5 19 9l8 4c6 1 13 6 16 8 2 2 2 2-4 0l-7-3-4-2-6-2-10-6c-6-5-8-5-14-6l-6 1c1 2 13 8 14 7l4 2 3 3-4-1-7-3-12-3c-5 2-3 3 2 3 6 0 19 4 22 8l8 5-3-3-5-4-1-2 3 2 4 3c1 1 2 2 3 1l1 1c-3 1-2 3 4 7s6 4 7 2l4-4 3-2-3-1c-2-1-2-1-1 1v1l-1-1-8-3c-7-2-10-4-18-11-5-4-7-5-9-5l-5-1c-1-3 8 0 13 3a54 54 0 0 0 18 10l5 2 6 3c3 2 6 3 7 2 1 0 3 1 4 4l3 5 3 5 6 9c3 7 3 8 0 6l-7-13-7-12c-4-1-9 1-12 5-4 4-3 6 1 2 3-4 5-4 10-4 1 0 4 4 6 9l9 14c5 6 10 17 15 31a229 229 0 0 0 20 45c4 7 5 13 3 17-1 3-2 2-2-3 0-6-5-19-13-31-8-11-8-12-11-27l-11-29c-2-2-3 0-1 3l4 8 3 10 5 19-1 4c-2 0-5-2-4-4 0-1-2-5-3-4l-1-1h-1l2 1 1 2c0 4-1 4-3-1-2-4-3-8-1-5v-3c-1-1-1-1-1 2-1 2 0 4 1 7l1 6c0 2 1 2 5 3 5 0 5 0 3 1l-2 1h2c2-1 3-1 3-4l1-1 4 9c2 2 11 16 11 18l-1-1 2 4c2 2 3 5 4 9 1 7 1 14-1 13l-1 2-1 2c-1 1-1 0-1-1 0-3-2-7-5-11l1 3 2 5-5 5-6 7c-1 1-10 4-15 4l-2 1c0 2-8 5-18 7-10 3-15 3-20 3-3 0-3 0-1-2 1-2 2-2 4-2 3 1 4 0 8-4v-1l-3 1c-2 0-2 0-1 1s0 1-2 1c-2 1-3 0-2-1l1-1 2-2v-3l-1 1c1 0 0 2-2 3l-2 1v-3c2-1 2-7 0-8s-2-2-2-10c0-7 1-10 2-11 2-3 2-2 1 1l-2 3 3-2 3-2 4-3 4-2 13-3c12-3 15-3 7-1-3 1-5 3-5 4-1 1-2 2-3 1-3-1-14 1-13 2h6c5-1 5-1 11 3 8 5 10 8 10 19v9l3-6v-3l-1 3c-1 2-1 1-1-4 0-8-2-14-7-17l-2-3 3-1 23-3c5 1 8 2 9 5l2 2 1 4-1 4c-2 0-1 2 1 2 2 1 2 0 2-2 0-7-3-14-8-15-7-2-26 0-32 3h-3c-2-1 2-5 7-6l4-2 6-1c6 0 7 0 9 2l2 2v-2c-1-5-2-5-6-5-4 1-5 1-6-1l-2-1 1 2-6 2c-5 0-9 2-11 3h-3c1-1 0-2-1-2-3 0-14 4-15 6-2 2-7 3-9 1-1-1-2 3-3 14 0 16-1 16-22 14h-22c-8 1-20-1-26-4l-23-1h-19l8 1 9 1h-7l-11 1h6a986 986 0 0 1 28 1c-12 2-47 3-48 1v-7l-2-6v-5l1 4c0 1 0 2 1 1 1-2-1-6-2-6s-2-1-2-3c0-4-2-12-3-11l-1-3v-1c-1 2-5-11-5-15 1-2 0-8-2-16a118 118 0 0 1-4-17l-1-4v2c0 4 0 5-1 3l-1-7c0-8 3-10 11-10l11-2c7-1 18-1 40 2 13 1 22 1 36-2a267 267 0 0 1 49 3c-5-2-26-2-39-1-14 1-14 1 10 1a116 116 0 0 1 34 3l1 1a205 205 0 0 1 1 46c-1 2-1 2 2 1l4 1c0 1 8 8 12 9l2 2 2 1c4 0 4-1 1-3l-2-2-2-3v-2c2 0 2-1 1-1s-3 3-2 4l-9-6-4-5v-4l1-2c0-5-2-5-2 0-1 6-2 4-1-3l1-4 1 2v-3l-1-10v-5c0 3 1 3 1 2v-9c-1 0-5-8-4-10 0-1 1-1 1 1l1-5 2-13h2c2 2 3 2 5 1s2-1 2 1v1h1v-2c-1-1 0-2 2-4 3-3 3-3 3 1 0 2-1 2-2 2v1l-1 3c0 3-1 3-3 2-2 0-2 0-2 2l-1 2v2h3v-5l1 2h1c1-1 2-2 3-1v-1l1-6c2-5 2-8 0-8s-3 1-6 5c-2 2-5 3-7 1v-7c1-7 0-10-2-6v3c2-3 1 1-1 6l-3 12c-1 10-2 11-5 8-3-2-7-3-20-3h-6v-7l-1 4v3l-11-1h-11a208 208 0 0 1 8-38l5-10 6-11 2-2 7 2zm-90 2-3 1c-2 0-2 0 0-1l2-1 1 1zm-7 2-3 1-19 8 10-3c12-5 15-6 20-3l5 2h-5l-9 1-8 2c-3 0-19 7-21 9l-4 2-2 1c1 1 5 0 8-2 4-3 10-6 12-5l3-1c1-1 1-1-1-1h-2l8-1 7-1-7 3-8 4-5 2-3 2h2l4-1 2-1c0-1 2-3 5-4l12-5c6-3 12-3 12 0l1 1c1-1 5 4 4 5l-2-2-2-2 3 5 6 13c5 11 6 13 6 7 0-3 0-3-1-2l-1 1c0-3 0-3-4-10-3-7-4-7-2-6l1-1-2-1c-1 0-2-1-2-3 0-4 0-6-3-8l-2-3c0-2 11 9 16 16 1 3 3 5 2 6l1 1 2 3c2 4 2 5 1 5l-1-1v-1h-2v1c2 2 2 4 2 10 0 8 1 14 2 12 1-1 1-1 1 1s0 2-4 1c-4 0-6-2-6-5 0-1-1-1-1 1 1 3 0 4-1 4-2 0-3-1-4-8l-1-7v7c1 6 1 7-1 7-1 0-2-1-2-3l-1-10c-1-6-1-6-1-2l1 8c1 6 0 7-4 7-3-1-4-1-5-5v-5l3 2 3 1-3-3c-4-1-5-3-2-2v-1l-2-2-1-1-1 1 1 8 1 7h-3c-4 0-5-2-6-8v3l-1 5-2-2-3-7-1-4 1 4 1 6-1 3c-2 1-2 0-3-4l-2-11c-1-5-1-5-1-2v10c1 2 1 3-1 3-2 1-2 1 0 1 3 0 5 4 2 4h-4l-2-7-1-14-6-16 1 5c2 3 2 6 2 9l2 12c1 8 1 10-2 10v-4c-3 3 0 6 3 4h1c-1 2-6 3-6 2l-4-7-5-7 5-10c2-3 4-3 5-1l1 1c0-2-3-9-6-11-1-2-2-2-5-1-5 1-5 2 0 1l6 1c1 2 1 2-1 1h-6c-2 0-3 1-1 1 3 0 2 4-2 5-3 1-3 1-2-2l1-3 2-5 1-2 1-1 6-5c6-5 13-8 22-12 7-2 8-2 8-1zm129 21c3 1 4 2 3 3h-6l-4-3v-2c-1-1-1-1 1-1l6 3zm-56 0-2 3v-3c2-3 3-2 2 1zm-1 5-2 3-1 10c-1 13-2 16-5 17-2 0-2 0-1-4v-14l-1 4-1 10-1 4c-2 1-2 0-2-6 0-7 1-11 7-20 3-4 5-6 6-5l1 1zm-99 2c1 2 1 3-4 2-3 0-4-1-3-2h7zm-2 4c-1 1-6 0-6-1h3l3 1zm-12 9c-2 7-3 9-7 12l-8 11h2c1-2 2-2 2-1 2 2-2 6-9 13a313 313 0 0 1-8 6l6-6 5-8-2 2c-2 4-3 4-2-1 0-5 1-7 4-7 2 0 2 0 1-1-2 0-1-1 1-3 4-3 11-16 11-18s6-8 7-8l-3 9zm10-7-1 2-3 4-2 4 4 6 4 6c1 1 0 3-2 5l-3 5c0 2 0 1-3-2l-2-7c1-4 1-4 5-3h1l-4-1c-3-1-3 0-4 3l3 9 4 7 2 5c2 7 2 8 0 8s-4-2-8-6c-5-6-6-8-1-4l5 2-2-2c-2-2-5-3-7-3l-4-1c-2-1-3-1-2-4 1-2 2-3 3-2 3 0 2-1-1-3-2 0-3-2-2-2h1c1 1 1 1 1-1l5-6 4-6 2-7c1-2 2-5 1-6l3-1 3 1zm68 3v2l-2-2 1-2 1 2zm-59 3c-1 1-1 0-1-2 0-1 0-2 1-1v3zm1 4h-1l1-2v2zm7 0h-1l1-2v2zm51 7c0 2 0 2-1 1l-1-5c0-3 0-3 1-1l1 5zm-81 26c9 10 9 10 12 9l3 1 1 3-2 2c-1 1-1 1-1-2 1-2 1-3-1-3s-2 1 0 4l1 4v4h-3l-10-8c-8-6-10-8-5-6 2 2 9 4 13 5l1-1-21-7-7-2 4-3 5-4c2-3 4-2 10 4zm-13 6 21 17c2 1 3 3 0 5l-1 2-5-4-6-5c-2 0-3-1-3-2l6 3 7 2c2 0-12-7-15-7l-5-1 7 5c6 4 10 8 10 9l1 1 5 10c1 5 1 5 1 1l1-4h1l1-3c0-2 0-2-1-1h-1l-1-2v2c1 3 1 4-1 0-2-3-2-3 0-4l2-3 2-4 2-3v-2l-1-1 2-1 1 3v4c1 1 0 1-1 1v1h2l1 1 1 3-1 2c-1 1-2 0-1-1l-1-2v1c0 2 0 1-1-1-2-3-4-4-3-1l1 2 4 7-2-2c-2-1-2-1-1 1 1 1 2 2 1 3l2 1 2 2h-2c-2-1-3-1-2 1h2l2 2 1 1c0-3 3 3 5 12l2 7h-2l-6-2h-5c-2 1-2 1 0 1l8 2c5 2 5 3 7 8l1 9c1 3 1 4-2 5-2 1-3 1-5-1-1-2-3-3-9-3l-7 1h-5l-3-1c-3 0-4 0-3-2 0-2 0-2-1-1-1 4-1 6 1 8l2 1-1-2c-3-1-2-3 1-3l2 1 1 1 2 1 2 1c1-2 6-2 7-1h2l1-1-4-1-4-1 15 2c1 2 2 3 0 2l-1 1h5c1 3 0 9-2 9h-1c-1 1-6-1-7-2l-4-2-6-1h-1l-1-1-14-2-6-4h1l1-1h-6l-4-2c-3 0-13-5-13-7-2-3-1-3 6 1 7 3 9 4 8 2l-9-5h-3c-1-1-3-2-4-1l1-1 1-5 1-3-1 3-2 3v-4 4l-1 7-9-5c0-2 3-23 6-34l6-11c2-3 6-9 7-13l5-7c2-1 2-1 1 2-1 5-6 16-9 20-5 6-6 8-6 13l-4 15-3 13c1 4 1 3 3-6l4-13 1-7 12-1h11l5 5 3 2c-1-3 0-2 4 1l3 3h-3c-3 1-5 3-10 10-3 5-3 5-4 3h-1c0 2 0 2-2 1-1-1-1-1 0 0v7c0 4 0 4-1 1v1c0 4 4 10 4 7l-2-2v-3l1-3c0-1 2-6 6-11 4-6 6-8 9-9l5-2h1l3 2c2 0 5 3 5 4l-1 1c-3 0-7 3-12 10l-5 7 5-5c5-7 10-11 12-11l2-2v-3l-2-1-4-1c-2 0-2-1-1-2l-2-4-1-3c0-1 1-1 1 1l4 2 1-1-2-1-2-1-1-3c-2-2-2-2-1 0 0 2 0 2-1 1l-2-2-3-7c-3-8-3-8-10-10l-2-1c6 0 10 2 11 5l7 9c2 1 3 4 3 6l1 2v-3l-3-6-6-7c-1-3-4-5-7-6-5-3-14-4-14-2 0 1 4 4 6 4l4 1 3 1c2 0 4 2 7 8l1 5-1 1-2-2-6-4c-6-3-6-2-1 1 3 1 6 5 8 7l4 3-1-1-1-2c1-2 2-1 4 3l2 4 1 1-1 1-2-1-6-4-6-4 2 1c6 3 2-2-5-6-2-2-6-3-9-3l-4-1 3 1c5 1 12 5 12 6l-3-1-8-2-6-2c-2-1 1-5 3-5h1c-1-1 5-2 8-1h4c1-1 1-1-6-3-3 0-11 3-12 6v3l-2 2c-1 1-1 1 1 1h8c9 0 4 2-5 2-8 0-8 0-8-3l6-9c5-6 9-17 9-21 1-4 1-4 3-4l5 1zm225 16-2 1-3-1v-1c0-2 1-2 3-1l2 2zm-42 11-1 1-1-2 1-1 1 2zm-151 4v-1l1-1-1 2zm-28 6-1 1c-1 0-2 0-1-1h2zm229 5h-2l-1-1 3 1zm-192 7h-1l1-2v2zm203 25-2 2-4 2c-4 4-4 2 0-2 3-2 5-5 5-6h1v4zm-156 1h-3c-1-1 0-1 2-1 1 0 2 0 1 1zm90 3-1 3c0 2-4 4-10 5l-5 2h4l7-1 4-1c0 2-4 5-6 6l-65 1H84l-1-2c-2-2-2-4-1-6v-3h34a856 856 0 0 1 17 2l-21 1a683 683 0 0 0 94-2c8-3 10-4 10-6l1-1 1 2zm-57 3 7 1h8l6-1h-2l-1-1c2-1 5-1 5 1l8 1c5 0 2 1-8 1h-17l-27-1c-10 0-11 0-6-1l6-2 21 2z"/><path d="M123 20c0 2 6 4 9 4 2 0-1-2-3-2l-4-2h-2zm28 27 6 3 8 7c4 5 7 8 10 8l16 12-11-7-4-2-11-4-15-5h-26l2 1 3 1h1c1-2 11-2 19-1 6 1 17 5 20 8l5 1 4 3 1 1 8 5c4 3 7 13 7 19l-1 4 2-4c2-4 1-11-2-18-2-4-3-6-14-13l-13-11c-2-3-16-11-15-8zm-40 18v1l2-1h-2zM99 85v2l1-1v-3l-1 2zm46 48c0 2 2 3 3 2l-1-1-1-1h-1zm1 6h1v-2l-1 2zm26 3-7 8-2 3 3-3c4-3 11-12 11-13l-5 5zm-33 11c0 1 2 2 3 1l-1-1h-2zm25 2h1c2-1 3-2 1-2l-2 2zm-19 3v3c1 1 2 0 1-3l-1-3v3zm14 2 2 1-2-1c-1-1-1-1 0 0zm-11 2c-1 1-1 1 0 0l1-2-1 2zm30-14-2 6-1 3 3-4 3-3 3-1 3-1 10 1h6l-10-2-11 1c-3 2-3 2-3 0h-1zm26 10v20l1-22-1 2zm3 4c-1 3-1 4 1 4 1 1 2 2 2 5 1 3 1 2 1-2s-1-5-2-5c-1 1-2 1-1-1 0-4 0-4-1-1zm-19 8 1 8 2 2 1 2v-2l-1-3-2-5v-7l-1 5zm17-1c0 1 0 2 1 1v-2c-1-1-1 0-1 1zm8 1c0 1 0 2 1 1v-3c-1-1-1 0-1 1zm3-1-1 5v5l1-5v-5zm2 4c-1 2-1 2 1 0v-2l-1 2zm3 0c-2 2-3 7-2 6l1-2 2-4 1-2-2 2zm-15 8 1 5v-3c0-6-1-7-1-2zm2-1v3l1-2 1-3v3l1 3v-4l-1-3c-1 0-2 1-2 3zm4 2c0 3 1 4 1 2v-4c0-2-1-1-1 2zm-24-1 2 4 1 2h1l1-3h-1c0 1-3-1-3-3l-1-2v2zm26 1h1v-2l-1 2zm-12 1c0 1 0 2 1 1v-2c-1-1-1 0-1 1zm16 5c0 1 0 2 1 1v-2c-1-1-1 0-1 1zm16 5-5 5h1l-2 3-2 9v5l2-7c3-7 5-11 5-8l3 5c2 2 3 3 5 2l4-6 4-6 2-1c3 2 2 26 0 24l-1 1h2l1 1-2 5-2 5 2 2c3 2 6 3 6 1l-1-1h-4l-1-1v-3c0-2 0-2 2 0 0 2 1 2 1 1l2 1c2 2 1 1-1-3l-2-2c-2 1-1-1 0-4 2-3 3-5 1-3v-8c1-7 0-16-2-18-1-2-4 1-7 8-4 7-6 7-9 3s-3-6-1-9c6-7 4-8-2-1zm-11 3 2 1c2 1 2 1 1-1-1-1-3-2-3 0zm-155 8 1 5v-9l-1 4zm4-5 1 11 1 1 2-4c3-2 3-2 37-2h53c52-3 48-3 48 4 0 5 2 4 2-1 1-5-1-7-5-8l-22 1a1245 1245 0 0 1-87 2l-23 1c-2 0-4 2-4 3-2 2-2 2-2-3v-6l-1 1zm75 5h-3c-1-1 0-1 2-1 1 0 2 0 1 1zm76-5-1 2 1-1 1-1h1-2zm3 2c-1 2-1 2 1 0v-2l-1 2z"/><path d="m75 202 1 1v-2c-1-1-1-1-1 1zm169 6-9 7c-4 4-5 5-8 3h-1l3 2 1 2c1 2 1 2 1 0l1-3 3-2h1c0 3 2 3 4 1l2-1-6 9-1 2 6-6 7-11c1-1 2-2 1-3v-3h2c0-2-2-1-7 3zm4 1-1 2-3 3-2 3-2 1h-2c-1-2 2-4 3-3l1-2c-1-2-1-2 1-2h1l2-3 2 2zm-9 5-2 1v-1c3-2 4-2 2 0zm-118-5c-48 1-46 0-46 8a810 810 0 0 0 15 66c-1 1-2 1 24 2l12 1h-6l8 1c6 1 4 1-9 1l-14-1h-4l-8-1h-3l1 5c0 5 1 5 1 0-1-3 0-4 1-3h4c2 0 2 0 1 1l42-1 31-1c-2 1 0 1 6 1s7 0 4 1h-14l-17-1c-5 0-5 0 2 1l33 1c3 0 4-2 2-2l-2-1c0-1 2-2 5-2l7-2 1 1-6 2-5 1h6l8-1-1-1-1-1 2-1c4 0 1 5-4 6h-6c-1 1 0 2 2 1l3 1c-1 1-1 1 0 0h5c3 0 3 1 3-12 0-8-1-13-3-13l1 3 1 8c0 4 0 5-2 5l-2-2c-1-2-1-2-1 0 0 1-1 2-5 3h-12c-1-2-3-2-10-1l-9 1h17l2 2h-22l-65-3c-3 0-3 0 2-2 4-1 4-1 1-1l-6 1c-1 1-2 0-2-5l-3-10c-2-7-1-7 4-4 6 3 7 5 7 10v3c1 1 1-1 1-4 0-8-1-9-6-11l-6-4 7-4 6-3 2-8 2-10h-1c-3 3-2 1 2-5l4-6-5 3-4 7v3l1 5-1 4c0 3-3 7-5 7l-6 3c-4 3-4 3-4 1l-1-3-2-7-3-18c-2-5-1-10 0-12l50-2c47 0 48 0 47 2s-10 9-12 9-4 6-2 8v-1c0-2 5-7 11-10l4-3c0-2 4-5 7-5 4 1 3 2-2 2l-2 1h4c9-2 16 1 18 7 1 4-4 14-10 20l-2 5-2 2c-1 0-9 6-8 7l-1 1-6 3-4 4c1 2 0 2-1 2s-2 0-1-1c0-1-1-2-3-2-4 1-5-2-2-6l1-3-2 1-3 1h-2l-2 1 1 2 2 1-2 1c-2 1-2 1 1 1l4 1c1 2 0 2-4 3l-7 1-14 1c-11 0-14-1-7-3l5-1-5 1-4-1 2-8v-7h4c4 0 5-1 2-3l-2-1c0 2 0 2-2 1s-5 0-6 3a119 119 0 0 0 1 30l1-2c0-1 3-1 28 1 12 1 18 1 27-1l6-1-4-1-24-1h-19l20 1c20 1 20 1 15 2h-20a1045 1045 0 0 0-29-3v-2c-1-2 0-3 8-2l13 1h6l-7-1c-5 0-5-1-2-1l10-1c7-2 12-1 7 0h14c8 0 9-1 2-2h-4l5-4c7-3 18-14 23-21 7-10 8-19 3-23-1-2-4-4-6-4l-3-2h9c1-1 3 0 5 1 1 1 2 2 2 10a354 354 0 0 0 2 34l-1-28-1-18h-87zm43 55-2 1c-1 0-2 0-1-1l1-1 2 1zm91-49h1v-2l-1 2z"/><path d="m123 218-2 6-1 5v5c-1 3-2 8-4 8l1-1-6 2-3 1 1-13 1-3 2-3v-3c-3-3-6 2-9 19-2 5-2 6 0 6l9-3 8-2 2-12 3-14c2-3 0-2-2 2zm60-2-6 1-9 40c0 2 9-5 15-11 7-6 14-15 15-21 2-5 0-9-5-10h-10zm14 4c1 2-3 10-6 15l-4 5-6 6-7 7v-4l3-16c4-15 4-15 14-15l6 1zm16-4 1 3h1l-1-3h-1zm-86 2a214 214 0 0 0-5 22c0 2 0 2 4 2 3 0 3 0 2-1v-1l2 2 6 2c8 1 9 4 2 5-8 2-9 3-5 6 3 3 6 3 13 1 6-2 8-4 4-3h-1c1 0 2-1 2-3 2-5-4-12-11-12-3 0-5-1-5-2 0-2 6-5 10-5 3 0 3-4-2-7l-3-1-2 1-8 6 4-2c3-2 9-3 10-1l-3 1c-3 0-9 3-10 6-2 3 0 4 7 5 10 2 13 7 7 12-2 3-4 3-7 3l-5-1c0-2 1-2 3-1 3 0 7-1 8-3l1-4-4-3c-14-3-15-4-13-9 1-1 2-3 1-4l1-6v-6c-2-1-3-1-3 1zm41 4c-4 3-5 4-5 6s1 3 2 3l2-2 2-2c2-1 2-1 2 2l-2 5-3 10-3 11c-2 3-2 5-1 5 4 0 4-1 11-35v-6l-5 3zm56-1c0 1 0 2 1 1v-2c-1-1-1 0-1 1zm-11 6v35l-2 14-1 11 1 3 2 2v-7l2-20 3-21-1-14h-1l-1-4-2-4-1 5zm1 4c-1 1-1 0-1-2 0-1 0-2 1-1v3zm2 5-1 16-1-6v-12l1-2 1-1v5zm9-11 1 1h3l2 3v-2c-2-2-5-4-6-2zm38 0 3 6-1-4-2-2zm7 0 1 1 1-1-2-1v1zm-37 3-1 4v1c2 0 3-1 2-4s-1-3-1-1zm-6 1c-2 2-2 12-1 11l4 3 2 1-2-3c-2-2-3-3-3-7s0-4 1-2l1 3v1l1-2c0-4-2-7-3-5zm6 7 1 2h2v2l-1 1-1 1c2 1 4 1 3-1l1-1 2 2 3 1c3 0 3 0 2 2v6l-1 1h2l1 1c-1 2 4 3 17 1l8-1h-14c-7 2-9 1-11-3l-2-4 3-2c2-2 3-2 8-2h8c2-1 0-1-9-1h-13l-5-3-4-2zm24 2c-2 1-2 1 1 1 4 0 5 0 3-1h-4z"/><path d="M266 244h3c2 1 3 1 3 3s-1 2-3 2l-2 1 4 1 3-2c0-4-1-6-5-6l-3 1zm-156 2-9 3v14c-1 13 0 14 1 14 2 0 2 0 2-13l1-11c1-2 9-4 12-4 1 0 2 3 0 3v1c1 0 2-1 2-3l1-4c0-2 0-2-10 0zm131 0c-1 1-1 1 0 0l2-2-2 2zm-11 0 2 1-3-2 1 1zm3 0 2 2h2l-1-1-2-1h-1zm-140 7-5 2 4 2 4 2c2 2 3 1 3-4v-5l-6 3zm63-1h2l-2-1v1zm84-1 2 1c0 1 1 1 0 0l-2-1z"/><path d="M117 255v6l-1 5-2 1 2 1 1 2c-2 3-2 5-1 5h1c1 1 1-4 1-10 0-11 0-13-1-10zm91 1h1v-2l-1 2zm40 1 1 1 3 1c4 0 3-2-2-2h-2zm-40 3-1 18c0 9 0 15-1 14h-56l18 1a994 994 0 0 1 37 1c1 2 3-2 3-6l1-5 1-5c0-4 0-4-1-2l-1-7v-11 2zm1 22h-1l1-2v2zm70-23c2 2 3 2 2 0l-3-1 1 1zm-144 3h9l11-1-20 1zm97 11c1 2 0 3-2 2h-1l-3 1h-3l4 1 7 1c3 2 5 8 5 12 0 2 0 2-5 1-7 0-12-2-12-3l-1-2-2-4c-1-2-1-2 0 0l1 5-1 2v1c0 2 1 2 1 1 0-2 1-3 3-1v2l2 1c10-1 13 0 13 2 0 3-2 4-4 2h-1l1 4c-1 2-1 2-2 1h-1l-2 4v1l6-5c6-6 7-10 5-17-2-5-2-6 0-4l2 9 1 6v-5c0-6-2-12-4-12l-4-1c-2-1-2-2 0-3l1-2h-4zm3 1-1 1v-1l1-1v1z"/><path d="m193 274 1 4c1 3 1 3 1 1l-2-6v1zm-8 3h4c2-1 1-1-2-1l-2 1zm-66 1c-9 0-15 1-16 2-2 1-2 1 0 0l25-1a701 701 0 0 0-9-1zm53 0-12 1a333 333 0 0 1-43 2v1h4l12-1 17 1h2l6-1 20-1 7-1h-4c-2 0-2 0 0-1 1-1 1-1-2-1l-7 1zm47 0 1 2 1 1-1-3h-1zm6 2-1 2 2-2 1-2-2 2zM94 291v3c2 1 2 0 1-3-1-2-1-2-1 0zm161 0-1 3-1 2h2l1-5-1-2v2zm-167 2h1v-2l-1 2zm138 3v1l1 1v2-4c-1-2-1-2-1 0zm4 2h1v-2l-1 2zm11 1-1 3c-2 2-2 2 0 1 2-2 3-3 2-4 0-2-1-3-1 0zM99 154l-4 6c-5 7-8 6-9-3l-2-4-5 3c-3 1-5 3-5 4 0 2 0 2 2 0l4-3h1l1-1 3 5c1 5 5 7 7 5l5-7 3-6v5l1 4v-4c0-5 1-5 5 0 2 3 3 4 6 3l4-1h-3c-5 0-5 0-7-4s-5-5-7-2z"/><path d="m83 165 1 5-1-8v3zm-25-2c-1 1 0 1 0 0 2 0 2-1 1-1l-1 1zm21 5 1 6v-3c0-7-1-9-1-3zm21-1 2 6h3l3 2-1-1-6-6c0-2 2-1 4 2l3 2-7-7-1 2zm26 12 1 7v-2c0-8-1-11-1-5zm-21 6c1 2 7 4 7 3l-2-1-4-2h-1zm-25 6h2c1-1 0-1-1-1s-2 0-1 1zm141-34 1 1v-1l-1-1v1zM33 246h2l-2-1v1zm14 3 3 3-2-3-3-3 2 3zm-14 10h-8c-6 0-6 0-7 2l-1 9-1 5 1-4 2-6c0-4 0-4 10-4 6-1 8 0 11 1 6 4 8 4 4 1-4-4-8-5-11-4zm41 2-1 1 4 11v-3c-2-3-3-6-1-4v-1l-2-4zm1 3h-1l1-2v2zm-5-2-1 2 1-1c1-2 0-2-1-1zm-4 2-2 1-2-1c-2 0-2 0-1 1l3 2c2 1 4 0 3-2v-1l1-1-2 1zm5 1-1 2 1-1 1-3-1 2zm1 2-1 3h1c1-1 1-1 1 1h1l-1-3-1-1z"/><path d="M19 273v2l1-3c0-1-1-1-1 1zm52 13c3 3 2 4 0 1l-3-1 2 2 3 1 1 1v2l1 1 2 2c1 0 2-1 1-2h-2v-3l-1-1-1-2-3-2v1zm-20 5v1l1-1v-2l-1 2zm17-1 2 1v-1h-2zm-8 1 2 1h1l-3-1zm20 2c2 3 2 4 2 2l-2-3v1zm-34 1c0 1 0 2 1 1v-2c-1-1-1 0-1 1zm-3 3-1 2v1h2l1 1-1-3-1-1zm3 2h1v-2l-1 2zm24 1v2l1-1v-1l1 1c0 2 4 5 4 4l1 1 2 4v-4c0-4 0-4-2-3s-2 1-3-1l-1-3-1-1-2 2zm-9 0 2 2v-1c0-2-2-3-2-1zm6 2 1 2c2 2 3 2 3 0l-1-1-2-1-1-1zm5 4c-1 1 0 1 1 1l1-1-1-1-1 1zm32-4-2 1h2l4-1h-4zm-16 2 4 1 10 1c3 0 4 0 2-1l-16-1zm42 1 29 1 32 2h17l-8-1-70-2z"/></svg>