<?xml version="1.0" standalone="no"?>
<!DOCTYPE svg PUBLIC "-//W3C//DTD SVG 20010904//EN"
 "http://www.w3.org/TR/2001/REC-SVG-20010904/DTD/svg10.dtd">
<svg version="1.0" xmlns="http://www.w3.org/2000/svg"
 width="300.000000pt" height="316.000000pt" viewBox="0 0 300.000000 316.000000"
 preserveAspectRatio="xMidYMid meet">
<metadata>
Created by potrace 1.10, written by Peter Selinger 2001-2011
</metadata>
<g transform="translate(0.000000,316.000000) scale(0.100000,-0.100000)"
fill="#000000" stroke="none">
<path d="M1248 3117 c-74 -32 -151 -89 -198 -148 -39 -50 -95 -171 -105 -230
-3 -19 -12 -56 -20 -84 -34 -127 -85 -438 -85 -518 0 -65 30 -126 96 -198 30
-32 54 -63 54 -68 0 -16 -30 -41 -49 -41 -20 0 -136 -46 -192 -76 -20 -11 -56
-35 -80 -54 -86 -66 -104 -91 -139 -196 -47 -141 -82 -211 -140 -274 -32 -35
-52 -68 -56 -90 -7 -39 -127 -293 -154 -325 -33 -40 -77 -121 -88 -165 -20
-78 -52 -265 -52 -303 0 -45 40 -88 99 -106 22 -6 95 -38 163 -70 86 -40 140
-60 178 -64 58 -5 134 -26 212 -58 26 -10 71 -19 100 -20 29 0 76 -5 103 -10
67 -13 148 -11 157 4 6 9 8 9 8 -1 0 -7 5 -10 10 -7 5 3 10 1 10 -5 0 -7 8 -9
21 -5 12 4 102 8 201 10 108 1 183 6 187 12 4 7 115 11 306 11 235 1 313 -2
358 -14 34 -9 75 -12 100 -9 136 20 239 47 307 79 41 20 81 36 90 36 17 0 109
34 149 55 51 26 138 124 160 182 18 44 7 104 -30 178 -141 275 -171 341 -209
460 -12 39 -26 74 -31 79 -5 6 -9 16 -9 24 0 8 -11 35 -24 61 -13 26 -38 88
-56 137 -50 136 -93 212 -159 286 -52 57 -78 75 -174 123 -61 30 -125 64 -142
75 -45 29 -92 49 -173 73 -69 20 -73 23 -67 46 5 21 54 93 75 111 14 12 49
111 59 170 14 76 10 121 -18 187 -11 26 -22 82 -26 123 -3 41 -14 109 -25 150
-10 41 -21 97 -24 124 -6 46 -48 136 -64 136 -4 0 -50 37 -102 81 -52 44 -120
95 -150 112 -53 31 -60 32 -180 35 -113 2 -131 0 -182 -21z m337 -19 c22 -10
71 -46 108 -78 37 -33 77 -65 88 -71 12 -6 18 -13 15 -16 -3 -4 -15 2 -25 11
-11 10 -25 15 -31 11 -8 -5 6 -18 36 -36 53 -31 80 -38 48 -13 -18 14 -18 15
3 4 13 -6 22 -14 20 -19 -1 -5 8 -17 21 -27 23 -19 41 -75 42 -128 l0 -29 -25
23 c-14 13 -23 25 -20 28 11 11 -41 87 -98 142 -51 50 -59 63 -47 71 12 9 12
10 -3 5 -12 -4 -16 -2 -11 6 4 7 3 8 -5 4 -6 -4 -10 -3 -9 3 2 6 -9 19 -23 28
-15 10 -48 33 -74 52 -36 25 -50 30 -58 22 -9 -9 -7 -10 7 -5 13 5 17 4 12 -4
-4 -7 8 -19 31 -31 21 -11 34 -20 30 -21 -4 0 -20 6 -35 14 -15 8 -64 24 -110
37 -73 20 -88 21 -136 10 -30 -7 -83 -30 -119 -51 -36 -22 -74 -40 -84 -41
-11 0 -5 -6 16 -15 40 -18 111 -10 144 16 31 25 127 36 180 20 30 -9 55 -27
86 -64 l45 -51 -40 -5 -39 -5 34 -8 c45 -10 71 -9 71 2 0 21 -114 140 -139
145 -62 13 -80 14 -124 5 -34 -6 -53 -5 -72 5 -25 13 -23 14 47 23 78 9 159
-4 204 -34 13 -8 30 -13 39 -10 8 4 17 1 21 -5 4 -7 9 -6 15 3 10 17 36 -5 75
-64 37 -55 91 -117 97 -110 3 2 8 -1 13 -8 4 -7 3 -10 -2 -6 -6 3 -16 2 -24
-3 -10 -6 -6 -13 17 -27 16 -10 30 -22 31 -26 0 -5 26 -35 56 -67 31 -32 56
-64 56 -72 0 -7 -41 30 -90 82 -49 52 -89 90 -90 84 0 -6 3 -14 8 -18 4 -4 8
-12 8 -17 1 -5 2 -13 3 -19 0 -5 6 -10 12 -10 8 0 7 6 -2 18 -13 15 -12 16 4
3 9 -8 15 -16 12 -19 -2 -3 24 -36 60 -73 61 -65 85 -112 85 -164 0 -14 -9 -6
-28 26 -15 25 -48 70 -73 100 -25 30 -50 65 -56 79 l-12 25 0 -28 c-1 -21 13
-44 57 -89 l57 -61 -45 30 c-53 35 -164 93 -181 93 -6 0 14 -13 45 -29 79 -42
187 -127 207 -163 11 -20 -22 -1 -119 68 -62 44 -93 56 -113 44 -8 -6 0 -12
25 -19 37 -10 103 -56 204 -140 86 -74 106 -141 82 -272 -10 -51 -58 -165 -66
-156 -2 2 7 37 21 77 14 41 24 94 24 119 l-1 46 -8 -50 c-10 -69 -49 -174
-111 -297 -61 -122 -97 -178 -152 -235 -23 -24 -38 -43 -33 -43 7 0 -30 -59
-45 -70 -3 -3 -25 -39 -48 -81 -36 -66 -42 -88 -48 -158 l-6 -81 -46 -2 c-25
0 -65 -2 -89 -4 l-42 -3 6 38 c4 27 0 50 -15 81 -24 50 -26 63 -9 58 6 -2 17
-20 24 -39 17 -47 17 -9 -1 64 -13 57 -32 99 -82 184 -22 37 -23 44 -9 49 9 3
16 13 16 22 0 12 -4 11 -16 -6 l-16 -23 -29 45 c-15 25 -54 65 -86 88 -92 69
-213 189 -244 243 -52 90 -39 185 53 390 48 109 151 289 171 302 5 3 8 2 5 -3
-2 -5 -12 -25 -20 -44 -9 -19 -59 -127 -111 -240 -52 -113 -98 -221 -102 -240
-8 -46 25 -153 65 -208 37 -52 160 -154 177 -148 7 3 12 0 10 -6 -1 -6 17 -22
40 -35 33 -19 45 -33 53 -64 13 -46 25 -53 16 -8 -5 27 -4 30 9 19 18 -15 136
-195 153 -233 6 -15 12 -36 12 -46 0 -17 18 -31 40 -31 4 0 13 14 19 30 13 40
101 141 115 133 6 -3 8 -3 4 1 -3 4 16 31 43 60 27 29 62 69 77 89 28 36 71
71 56 45 -4 -7 -4 -10 0 -6 4 3 8 10 8 15 0 4 13 26 28 48 40 59 60 100 90
191 26 75 27 89 19 154 -11 87 -28 146 -46 162 -11 9 -12 7 -4 -14 5 -14 7
-29 4 -32 -4 -3 -2 -6 4 -6 6 0 13 -11 15 -25 3 -14 1 -25 -4 -25 -5 0 -4 -9
3 -21 12 -24 5 -139 -11 -169 -6 -10 -10 -27 -10 -38 0 -10 -11 -41 -25 -68
-14 -27 -25 -55 -25 -62 0 -7 -7 -15 -15 -18 -8 -4 -12 -10 -9 -15 3 -5 -2
-12 -10 -15 -9 -3 -14 -9 -12 -13 2 -3 -10 -17 -27 -30 -18 -13 -41 -38 -53
-55 -11 -17 -26 -30 -32 -29 -6 2 -9 -3 -6 -11 5 -14 -22 -30 -36 -21 -5 3
-12 1 -15 -5 -4 -6 -3 -9 2 -8 18 6 11 -13 -16 -43 -16 -17 -30 -26 -32 -20
-2 6 -10 1 -18 -11 -13 -21 -13 -22 2 -9 23 18 21 1 -3 -27 -11 -13 -24 -21
-30 -17 -5 3 -8 0 -5 -7 3 -7 -5 -24 -17 -38 -13 -14 -23 -31 -23 -39 0 -8 -6
-16 -12 -18 -8 -3 -13 4 -13 14 0 11 -5 24 -12 31 -7 7 -9 12 -5 12 4 0 -6 27
-23 60 -17 33 -35 60 -40 60 -6 0 -10 7 -10 15 0 9 -11 27 -25 41 -14 14 -25
34 -25 45 0 11 -4 17 -10 14 -5 -3 -10 -2 -10 3 0 5 -13 22 -30 38 -16 16 -30
34 -30 39 0 6 -28 30 -60 54 -33 25 -60 49 -60 53 0 4 -6 8 -13 8 -11 0 -44
33 -87 86 -54 67 -74 208 -34 240 10 9 13 13 7 9 -17 -8 -16 -2 2 41 9 23 19
33 26 28 8 -4 9 -3 5 4 -4 7 -3 12 2 12 6 0 20 17 32 37 14 24 16 32 6 24 -23
-19 -20 1 4 27 12 12 18 22 14 22 -3 0 -1 8 7 18 12 15 11 16 -4 2 -30 -27
-118 -184 -133 -238 -23 -77 -1 -195 42 -226 8 -6 17 -20 18 -31 2 -11 8 -19
13 -18 6 1 44 -26 84 -60 96 -80 114 -97 105 -97 -10 0 -90 63 -143 114 -24
22 -43 36 -43 30 0 -5 3 -15 8 -20 4 -6 -8 6 -27 25 -41 43 -77 120 -86 181
-5 35 -1 60 18 110 32 83 95 210 105 210 4 0 21 12 37 28 39 35 69 50 125 62
42 9 40 9 -20 5 l-65 -5 30 25 c17 13 35 24 40 25 6 0 23 11 40 24 28 23 29
24 12 49 -9 15 -17 29 -17 32 0 10 76 37 105 37 17 0 57 -8 90 -16 32 -9 87
-16 121 -16 34 0 81 -7 104 -15 51 -18 106 -20 116 -3 4 6 -9 25 -32 45 -46
40 -200 143 -215 143 -5 0 -21 7 -35 16 -21 15 -34 15 -98 5 -119 -19 -141
-30 -51 -24 82 5 204 -9 214 -25 3 -5 38 -30 76 -55 107 -70 128 -89 110 -99
-9 -5 -36 -2 -67 8 -29 9 -73 18 -98 20 -25 2 -67 8 -95 14 -108 24 -157 23
-207 -3 l-48 -24 0 28 c0 23 8 32 40 49 23 11 45 18 50 15 6 -3 10 -1 10 4 0
6 6 11 13 11 8 0 24 11 37 25 24 26 19 36 -6 11 -8 -8 -40 -24 -71 -36 -99
-37 -112 -61 -69 -135 l25 -41 -54 -27 c-34 -17 -60 -37 -69 -56 -9 -16 -30
-40 -48 -53 l-33 -23 17 25 c22 31 52 92 50 103 -1 4 2 7 7 7 8 0 12 15 27 87
4 22 -16 26 -36 8 -18 -17 -19 -17 -15 1 2 11 12 39 20 64 12 31 14 50 7 61
-7 11 -3 29 14 63 29 57 31 78 5 51 -20 -20 -114 -225 -107 -232 2 -2 21 23
41 57 20 34 39 59 41 57 3 -2 -22 -62 -55 -133 -32 -71 -66 -151 -74 -179 -15
-50 -75 -185 -83 -185 -2 0 -1 15 2 33 16 97 30 138 64 197 22 36 41 79 45 95
5 27 3 26 -14 -10 -20 -40 -60 -96 -61 -84 -1 33 50 150 90 210 62 91 67 117
6 30 -25 -35 -48 -66 -52 -69 -13 -13 8 43 46 123 53 112 150 198 268 241 55
20 254 8 307 -18z m-302 -79 c-13 -13 -84 -30 -96 -22 -14 9 35 31 73 32 24 1
31 -2 23 -10z m150 -116 c-7 -2 -21 -2 -30 0 -10 3 -4 5 12 5 17 0 24 -2 18
-5z m-412 -520 c-12 -20 -14 -14 -5 12 4 9 9 14 11 11 3 -2 0 -13 -6 -23z
m916 -529 c78 -20 152 -55 193 -91 19 -16 55 -35 80 -42 57 -16 133 -57 160
-86 19 -20 16 -20 -37 6 -32 16 -65 29 -74 29 -9 0 -27 8 -40 19 -13 10 -38
22 -56 25 -17 4 -64 30 -103 57 -62 44 -78 51 -137 56 -51 5 -65 3 -61 -7 5
-16 126 -82 138 -75 5 3 21 -6 37 -19 l28 -25 -37 8 c-20 5 -52 18 -70 29 -43
25 -83 35 -119 27 -47 -11 -33 -23 24 -22 58 1 186 -48 220 -84 24 -26 66 -53
73 -46 3 2 -10 14 -28 25 -18 12 -39 31 -46 42 l-13 22 31 -19 c18 -10 36 -26
41 -35 6 -10 16 -15 27 -12 10 4 13 2 7 -3 -22 -18 -12 -34 45 -72 58 -38 60
-39 71 -20 5 11 23 28 39 37 l28 18 -25 11 c-21 10 -23 10 -13 -3 8 -9 9 -14
2 -14 -6 0 -13 4 -16 9 -3 5 -36 18 -73 30 -73 22 -99 38 -187 115 -44 38 -63
48 -91 48 -19 0 -38 5 -42 11 -15 25 79 -3 124 -37 50 -37 143 -90 143 -81 0
3 17 -4 37 -15 21 -11 45 -20 53 -20 9 0 37 -13 62 -29 28 -18 54 -27 66 -24
15 3 27 -5 46 -33 14 -21 26 -44 26 -51 0 -7 15 -30 33 -50 18 -21 43 -64 55
-96 27 -71 27 -75 3 -53 -10 9 -42 66 -72 126 -33 68 -60 112 -72 116 -36 11
-85 -6 -116 -42 -41 -46 -29 -65 12 -20 29 32 51 40 98 37 10 -1 34 -37 63
-96 25 -53 63 -115 84 -138 49 -53 102 -163 152 -311 37 -112 131 -325 156
-356 7 -8 28 -49 48 -91 35 -73 45 -134 30 -173 -12 -31 -22 -16 -21 32 0 63
-57 196 -138 316 -73 109 -78 120 -109 261 -24 107 -84 266 -110 293 -21 21
-28 -2 -8 -24 10 -10 28 -50 41 -89 12 -38 26 -79 31 -90 11 -27 40 -151 46
-197 4 -27 1 -38 -8 -38 -20 1 -45 24 -41 37 6 16 -16 55 -27 48 -4 -3 -11 0
-13 5 -3 6 -4 5 -3 -2 2 -7 8 -12 13 -11 6 1 11 -9 11 -22 0 -35 -11 -31 -31
10 -19 40 -24 82 -7 55 11 -18 12 -3 1 25 -7 18 -9 16 -15 -12 -5 -22 -1 -44
13 -77 12 -24 18 -52 15 -60 -5 -12 6 -17 48 -22 45 -7 49 -9 28 -15 l-25 -8
25 2 c19 2 26 9 31 32 4 17 7 24 8 17 1 -15 32 -84 41 -92 21 -19 110 -162
110 -177 0 -2 -5 -1 -12 3 -6 4 3 -10 20 -32 21 -27 35 -58 43 -97 13 -71 9
-133 -8 -129 -7 1 -13 -7 -13 -17 0 -11 -4 -23 -10 -26 -6 -3 -10 4 -10 18 0
27 -20 70 -50 107 -15 19 -14 12 7 -28 l27 -53 -53 -52 c-29 -29 -56 -58 -60
-66 -8 -13 -105 -42 -148 -44 -13 0 -23 -4 -23 -7 0 -16 -85 -51 -180 -74
-105 -25 -149 -31 -204 -28 -29 2 -29 2 -11 22 13 15 26 19 45 15 27 -6 43 4
75 45 11 14 13 19 5 13 -8 -7 -23 -13 -33 -13 -14 0 -17 -3 -9 -13 8 -9 4 -12
-18 -12 -19 -1 -26 3 -23 12 3 7 8 13 12 13 3 0 12 9 18 20 9 14 10 21 1 26
-6 4 -8 3 -5 -3 4 -6 -5 -21 -20 -34 -14 -13 -23 -19 -20 -12 4 6 1 14 -5 16
-10 4 -9 8 2 16 22 15 22 69 -2 82 -17 9 -19 20 -16 100 2 68 7 94 21 111 18
23 18 22 2 -11 l-17 -34 30 22 c17 11 33 21 36 21 3 0 17 11 32 25 15 14 37
27 48 29 12 3 70 16 130 30 119 27 148 28 67 1 -32 -10 -52 -24 -56 -36 -5
-14 -12 -18 -27 -14 -28 10 -142 -5 -131 -16 6 -6 30 -5 61 3 52 12 52 11 109
-28 81 -56 98 -88 98 -196 0 -49 1 -88 2 -88 12 0 33 38 32 58 l-1 27 -8 -25
c-6 -18 -8 -8 -9 40 -2 79 -26 137 -72 173 -21 17 -28 27 -19 28 8 0 22 2 30
4 51 12 209 32 230 30 52 -5 78 -17 89 -41 6 -14 14 -23 19 -21 4 3 8 -15 10
-39 2 -26 -2 -44 -8 -44 -18 0 -11 -17 10 -23 16 -4 20 0 20 21 -1 74 -35 139
-79 151 -70 18 -262 1 -321 -29 -8 -4 -21 -5 -27 -3 -25 9 16 50 62 63 25 7
45 16 45 20 0 4 29 8 64 9 54 2 68 -1 86 -19 l21 -21 -3 23 c-6 43 -17 50 -63
43 -38 -5 -45 -3 -59 17 -9 12 -16 17 -16 11 0 -7 5 -15 12 -19 7 -4 -22 -14
-65 -21 -43 -7 -92 -20 -109 -29 -28 -15 -30 -15 -25 0 4 10 1 16 -9 16 -32 0
-143 -42 -159 -61 -20 -21 -65 -25 -82 -8 -13 13 -23 -35 -29 -141 -8 -157
-11 -159 -228 -143 -88 6 -180 7 -221 3 -74 -9 -192 7 -258 35 -25 10 -88 15
-230 17 -107 2 -194 1 -191 -1 2 -2 41 -7 86 -11 l83 -7 -65 -2 c-36 -2 -85
-6 -110 -11 -30 -6 -10 -7 60 -2 58 3 130 6 162 7 31 0 60 3 64 8 9 8 76 8
119 -2 24 -5 11 -9 -65 -23 -125 -23 -468 -28 -481 -7 -12 18 -12 72 0 65 11
-7 2 30 -16 64 -15 30 -17 54 -3 45 6 -3 10 -18 11 -33 0 -15 3 -21 6 -14 8
21 -6 62 -22 62 -9 0 -15 10 -15 25 0 46 -21 125 -32 119 -7 -5 -9 3 -4 22 4
17 3 24 -2 16 -13 -20 -56 111 -48 151 4 21 -5 73 -26 152 -17 66 -32 132 -32
148 -1 15 -4 27 -8 27 -4 0 -9 17 -11 38 -2 20 -3 12 -2 -18 2 -37 0 -48 -5
-35 -5 11 -9 46 -9 77 -1 74 25 98 106 98 30 0 83 7 117 16 68 18 171 15 395
-12 127 -15 220 -11 357 17 67 13 493 -5 508 -22 8 -9 5 -10 -14 -6 -54 12
-262 17 -395 9 -136 -8 -133 -9 106 -9 175 0 252 -4 268 -13 13 -6 34 -10 47
-7 16 3 24 0 24 -9 0 -8 4 -14 9 -14 22 0 27 -65 21 -250 -4 -107 -10 -203
-14 -212 -7 -15 -3 -16 28 -11 27 4 36 2 36 -8 0 -13 84 -76 123 -91 10 -4 16
-11 14 -15 -3 -5 8 -8 24 -9 34 -1 37 6 9 24 -11 7 -20 18 -20 26 0 8 -8 17
-17 21 -17 6 -17 7 1 21 11 8 15 14 9 14 -16 0 -34 -25 -25 -35 13 -16 -55 30
-84 56 -16 14 -35 35 -41 47 -15 24 -18 66 -5 44 5 -8 8 1 8 23 -1 47 -13 44
-21 -6 -10 -61 -17 -40 -8 27 4 32 9 51 11 41 2 -9 8 -15 13 -12 5 4 5 13 0
23 -5 9 -11 55 -14 102 -3 48 -2 70 2 50 5 -25 10 -31 15 -19 4 8 2 27 -3 41
-7 18 -6 29 2 37 8 8 8 11 0 11 -16 0 -53 79 -46 98 6 13 8 13 13 -4 4 -11 8
10 9 49 1 62 8 111 18 130 2 4 14 1 25 -7 15 -11 27 -12 45 -5 22 8 24 7 19
-13 -3 -13 -3 -17 0 -10 3 6 10 9 16 6 6 -4 6 1 -1 13 -8 17 -6 24 14 42 32
27 32 27 31 -6 -1 -18 -6 -27 -14 -25 -8 1 -11 -2 -7 -7 3 -6 3 -22 -1 -35 -5
-21 -10 -25 -30 -20 -21 5 -24 3 -22 -17 2 -15 -2 -23 -9 -22 -7 2 -10 -4 -6
-13 5 -13 7 -13 14 -2 7 10 9 10 9 -2 0 -10 3 -11 11 -3 8 8 8 17 0 32 -8 14
-8 21 -1 21 5 0 10 -8 10 -17 1 -17 1 -17 14 -1 7 10 17 14 21 10 5 -4 5 -2 2
4 -4 6 3 34 15 61 22 52 20 83 -6 83 -15 0 -26 -9 -58 -49 -18 -22 -44 -27
-66 -12 -10 6 -11 21 -3 72 12 69 0 103 -19 55 -13 -34 -13 -46 0 -26 16 25
13 -11 -6 -61 -9 -24 -22 -80 -30 -123 -15 -94 -25 -108 -56 -78 -24 22 -71
29 -195 31 l-63 1 -2 33 -1 32 -4 -30 -4 -30 -107 3 c-59 2 -108 5 -109 6 -8
7 41 304 54 329 10 18 18 41 19 52 1 11 23 54 51 96 27 42 55 90 62 107 7 18
17 29 22 26 5 -3 35 -12 66 -20z m-902 -24 c4 -6 -6 -10 -22 -9 -25 0 -26 1
-8 9 11 5 21 9 22 9 1 1 5 -3 8 -9z m-70 -20 c-3 -5 -13 -10 -21 -10 -17 0
-195 -72 -190 -77 1 -2 43 12 92 31 124 48 150 51 204 28 l45 -19 -45 -1 c-25
-1 -65 -8 -89 -17 -24 -8 -59 -15 -79 -15 -37 0 -190 -69 -212 -95 -7 -8 -23
-15 -37 -15 -13 0 -22 -4 -19 -9 8 -12 44 -2 76 19 43 30 104 57 117 53 7 -2
20 1 30 7 15 9 13 10 -12 5 -19 -4 -26 -3 -20 3 6 5 42 12 80 15 l70 5 -65
-24 c-36 -13 -72 -33 -81 -43 -8 -10 -30 -22 -47 -26 -17 -3 -34 -11 -37 -16
-4 -5 6 -4 21 1 15 6 33 9 40 6 7 -3 16 3 19 13 3 11 29 29 58 41 29 12 79 35
113 51 64 31 124 32 124 2 0 -8 4 -12 9 -9 10 6 46 -43 38 -51 -3 -2 -11 5
-17 17 -6 12 -14 20 -17 17 -2 -3 7 -24 22 -46 14 -23 44 -83 66 -134 49 -112
59 -124 58 -71 0 31 -2 35 -9 19 -8 -17 -9 -18 -11 -2 -3 28 -3 30 -37 95 -36
70 -38 76 -19 66 7 -4 9 -3 4 2 -5 5 -14 9 -20 9 -7 0 -13 14 -13 30 -3 49 -9
65 -32 81 -12 8 -22 22 -22 31 0 22 114 -90 156 -155 19 -28 32 -57 28 -64 -4
-6 -3 -8 3 -5 5 3 17 -10 26 -29 19 -40 21 -54 7 -54 -5 0 -8 6 -6 13 1 6 1 8
-2 4 -2 -4 -11 -2 -20 5 -14 11 -14 9 1 -12 12 -17 17 -45 17 -96 0 -88 9
-141 21 -122 6 9 9 7 9 -9 0 -20 -4 -21 -37 -16 -48 7 -61 18 -66 51 -2 16 -4
11 -3 -10 1 -30 -2 -38 -16 -38 -23 0 -28 10 -38 83 l-9 62 3 -67 c3 -60 2
-68 -14 -68 -14 0 -18 8 -18 33 0 17 -4 61 -9 97 -10 61 -11 62 -11 20 -1 -25
2 -61 6 -80 13 -58 6 -72 -36 -68 -35 3 -38 6 -48 48 -6 25 -10 47 -8 49 3 3
18 -5 34 -18 17 -12 30 -17 30 -11 0 6 -16 18 -35 27 -36 17 -49 37 -17 27 16
-5 16 -5 0 6 -10 6 -18 17 -18 25 0 9 -6 12 -15 9 -10 -4 -12 -10 -7 -18 5 -6
12 -40 15 -76 l6 -65 -34 -2 c-35 -2 -48 16 -58 77 -3 14 -3 1 -2 -27 3 -39 0
-53 -10 -53 -7 0 -16 10 -20 23 -4 12 -13 42 -21 67 l-14 45 5 -40 c2 -22 7
-52 11 -66 4 -18 1 -28 -10 -32 -12 -5 -16 4 -22 41 -4 26 -12 74 -20 107 -11
53 -13 56 -15 25 -4 -51 -3 -61 5 -97 6 -28 4 -32 -16 -36 -21 -4 -21 -4 3 -6
33 -1 49 -40 18 -42 -10 -1 -26 -2 -36 -3 -13 -1 -17 11 -20 69 -2 39 -10 102
-18 140 -14 70 -51 172 -60 163 -3 -2 5 -24 17 -49 15 -30 22 -60 21 -94 -1
-27 5 -80 14 -117 17 -74 13 -98 -14 -98 -15 0 -16 2 -3 10 11 7 11 10 2 10
-8 0 -10 5 -6 13 4 6 3 8 -1 4 -28 -25 1 -61 30 -37 13 11 14 10 10 -3 -6 -15
-55 -30 -55 -17 0 4 -20 34 -45 66 -25 31 -45 63 -45 70 0 12 20 52 51 102 20
31 38 35 49 9 5 -12 9 -15 9 -7 1 23 -34 93 -56 112 -16 15 -25 16 -56 7 -50
-13 -47 -20 6 -13 33 5 46 2 57 -10 12 -16 11 -16 -11 -6 -18 8 -36 9 -60 2
-23 -7 -27 -10 -12 -11 29 -1 19 -39 -15 -52 -31 -12 -36 -7 -26 23 4 13 8 25
9 28 5 24 18 50 26 50 5 0 9 7 9 15 0 8 4 15 9 15 5 0 33 21 63 46 60 52 123
87 218 120 73 26 84 28 75 14z m1292 -207 c30 -10 40 -19 36 -29 -3 -10 -12
-13 -22 -8 -9 4 -26 7 -38 8 -20 1 -57 26 -39 26 5 0 2 8 -5 17 -12 15 -12 16
6 9 11 -5 39 -15 62 -23z m-560 -8 c-7 -14 -15 -25 -19 -25 -11 0 -10 7 4 30
18 28 28 25 15 -5z m-7 -40 c0 -13 -14 -34 -20 -30 -4 2 -10 -44 -14 -103 -8
-134 -16 -166 -43 -170 -19 -3 -20 1 -14 35 3 21 4 63 1 93 l-5 55 -8 -49 c-4
-27 -7 -68 -7 -91 0 -29 -5 -45 -15 -49 -12 -4 -15 6 -15 60 0 74 14 113 71
201 27 41 45 60 55 56 8 -3 14 -7 14 -8z m-987 -29 c8 -20 3 -22 -42 -18 -29
3 -38 8 -34 18 7 18 69 18 76 0z m-27 -35 c-5 -8 -56 -3 -56 5 0 2 14 4 31 4
16 0 28 -4 25 -9z m-112 -92 c-22 -70 -35 -91 -71 -124 -43 -40 -83 -92 -83
-109 0 -5 9 -1 19 8 12 11 21 14 25 7 12 -19 -21 -65 -94 -131 -39 -36 -73
-67 -76 -69 -2 -2 -4 1 -4 6 0 6 25 36 55 67 30 30 55 63 55 73 0 11 -6 6 -16
-14 -22 -45 -30 -41 -26 10 5 49 16 67 46 68 18 0 18 1 4 7 -15 6 -13 11 16
34 32 26 106 154 106 183 0 16 58 80 66 73 3 -3 -7 -43 -22 -89z m96 72 c0 -6
-5 -13 -10 -16 -6 -4 -20 -25 -31 -47 l-21 -40 39 -55 c21 -30 42 -60 47 -68
7 -9 0 -22 -22 -45 -18 -17 -32 -41 -32 -52 0 -17 -5 -13 -26 17 -18 27 -24
48 -22 74 3 37 6 38 48 26 19 -6 22 -5 14 5 -7 6 -27 13 -45 13 -32 2 -34 0
-37 -36 -3 -29 4 -49 28 -85 17 -26 33 -58 36 -72 3 -14 12 -38 19 -55 28 -64
28 -75 4 -75 -15 0 -42 20 -76 56 -56 59 -63 83 -15 47 15 -11 39 -24 52 -28
16 -5 9 3 -20 24 -25 17 -55 31 -67 31 -12 0 -33 5 -46 11 -22 10 -23 14 -14
40 8 21 16 27 29 23 28 -9 21 4 -12 21 -17 9 -28 21 -24 26 4 8 9 7 15 -2 7
-11 9 -9 9 6 0 11 21 39 45 63 25 24 45 52 45 62 0 11 8 41 19 67 10 26 16 54
14 61 -3 8 6 12 26 12 17 0 31 -4 31 -9z m683 -31 c3 -13 0 -20 -8 -20 -8 0
-13 9 -12 20 1 11 4 20 8 20 4 0 9 -9 12 -20z m-596 -27 c-3 -10 -5 -4 -5 12
0 17 2 24 5 18 2 -7 2 -21 0 -30z m10 -45 c-3 -8 -6 -5 -6 6 -1 11 2 17 5 13
3 -3 4 -12 1 -19z m70 0 c-3 -8 -6 -5 -6 6 -1 11 2 17 5 13 3 -3 4 -12 1 -19z
m511 -68 c1 -23 0 -23 -8 -5 -5 11 -8 34 -8 50 0 29 0 29 8 5 4 -14 8 -36 8
-50z m-811 -263 c88 -92 90 -94 123 -89 21 3 30 0 31 -9 0 -8 2 -22 4 -31 2
-9 -4 -19 -12 -22 -12 -5 -14 -1 -10 22 5 22 2 28 -12 28 -17 0 -17 -3 -4 -34
7 -18 11 -37 8 -42 -4 -6 -1 -10 4 -10 13 0 14 -10 1 -30 -8 -13 -11 -12 -27
3 -10 9 -55 44 -100 77 -85 61 -105 82 -55 56 24 -12 93 -35 130 -42 6 -1 12
1 12 4 0 8 -92 40 -208 74 l-73 22 36 22 c20 12 43 31 51 42 20 29 45 19 101
-41z m-124 -59 c18 -9 98 -72 210 -163 21 -18 22 -39 1 -59 -8 -9 -17 -16 -18
-16 -2 0 -21 16 -42 36 -22 20 -52 42 -67 51 -16 8 -26 17 -24 20 3 3 30 -8
60 -24 29 -16 59 -27 65 -25 18 6 -118 72 -148 72 -14 1 -36 7 -50 15 -62 36
-31 9 67 -58 60 -41 107 -79 106 -85 -2 -7 1 -12 7 -12 14 0 32 -38 46 -100
13 -53 13 -54 11 -12 -2 28 1 41 9 38 6 -2 11 1 11 7 0 7 4 21 8 32 5 16 5 17
-4 5 -9 -13 -11 -13 -11 2 0 9 -4 20 -10 23 -6 4 -6 -3 0 -21 14 -37 8 -39
-12 -3 -17 28 -16 30 2 42 11 6 20 21 20 32 0 11 8 25 19 32 10 6 21 23 23 37
3 14 1 23 -3 20 -5 -3 -9 0 -9 5 0 6 7 11 15 11 10 0 16 -11 17 -30 0 -16 1
-36 2 -42 1 -7 -5 -12 -12 -10 -8 1 -11 -2 -7 -7 3 -6 12 -8 20 -4 9 3 15 -1
15 -10 0 -9 3 -22 6 -30 3 -8 -1 -17 -9 -20 -10 -4 -13 0 -10 13 3 10 0 21 -5
24 -6 3 -8 -3 -6 -16 3 -15 -1 -12 -11 10 -17 35 -36 44 -28 12 3 -11 8 -20
12 -20 7 0 41 -54 41 -66 0 -4 -10 1 -22 12 -23 19 -23 19 -7 -1 9 -11 15 -25
12 -31 -2 -6 5 -14 17 -17 11 -3 20 -10 20 -16 0 -7 -8 -7 -25 -1 -19 7 -23 6
-19 -5 3 -7 12 -11 20 -8 8 3 18 -4 23 -18 9 -22 10 -22 11 -4 1 25 25 -35 50
-129 l19 -68 -22 5 c-12 3 -38 10 -57 15 -20 5 -44 5 -55 1 -19 -7 -19 -8 2
-8 13 -1 48 -11 78 -24 53 -21 56 -24 70 -72 7 -27 16 -68 19 -90 5 -36 3 -41
-21 -53 -24 -11 -30 -10 -49 11 -19 20 -33 24 -92 26 -41 1 -73 -2 -77 -8 -8
-14 -45 -14 -45 -1 0 6 -15 10 -34 10 -30 0 -34 3 -30 23 4 20 4 21 -5 2 -15
-31 -13 -50 9 -75 15 -17 20 -19 20 -8 0 9 -7 18 -15 22 -26 9 -16 25 15 24
17 -1 27 -5 23 -11 -3 -6 -1 -7 5 -3 6 3 15 -2 21 -11 7 -11 14 -14 18 -8 12
16 65 18 74 3 7 -10 9 -10 9 0 0 7 5 10 12 6 6 -4 8 -3 5 2 -3 5 -20 11 -38
12 -18 1 -35 5 -38 8 -11 11 132 -6 145 -17 17 -14 19 -33 2 -23 -7 4 -8 3 -4
-5 6 -9 11 -9 22 0 11 9 15 8 20 -4 9 -24 0 -82 -13 -82 -6 0 -14 -3 -18 -7
-7 -7 -56 11 -66 25 -3 4 -23 10 -44 13 -21 3 -45 10 -52 16 -7 6 -13 7 -13 3
0 -4 -6 -3 -12 3 -13 11 -79 24 -134 26 -32 2 -64 21 -64 38 0 5 5 6 12 2 7
-4 8 -3 4 5 -6 9 -11 9 -22 0 -11 -9 -18 -8 -30 1 -8 8 -26 15 -40 16 -37 4
-131 51 -138 70 -12 32 -5 32 63 -2 74 -36 86 -40 76 -24 -7 12 -85 53 -85 45
0 -3 -13 1 -29 9 -16 9 -32 12 -37 8 -5 -4 -3 0 2 8 6 8 14 29 17 45 l6 30
-14 -30 -13 -30 -5 40 c-2 22 -3 7 -2 -32 1 -40 1 -73 -1 -73 -22 0 -85 37
-90 52 -5 17 30 226 58 340 5 21 29 68 55 105 25 37 58 95 74 129 15 35 37 67
48 73 19 11 20 9 14 -21 -9 -52 -59 -154 -96 -201 -45 -56 -54 -73 -61 -129
-4 -26 -20 -93 -37 -149 -16 -56 -28 -116 -27 -133 5 -37 10 -26 32 64 8 36
24 95 34 132 11 37 18 69 16 71 -2 2 48 4 112 5 l116 1 44 -45 c25 -24 40 -35
34 -24 -15 28 -1 24 38 -9 l33 -29 -28 -7 c-37 -9 -58 -29 -101 -95 -31 -48
-36 -52 -43 -35 -7 19 -8 19 -8 1 -1 -16 -3 -17 -18 -5 -16 13 -17 12 -5 -3
10 -12 11 -30 6 -65 -8 -45 -9 -46 -15 -18 -6 25 -6 24 -4 -9 3 -35 45 -99 45
-69 0 6 -7 19 -16 27 -9 9 -12 21 -8 28 5 7 8 21 9 31 0 10 27 56 60 102 46
65 68 87 95 96 19 6 40 16 46 21 8 5 14 3 18 -7 3 -8 13 -15 22 -15 19 0 54
-27 54 -42 0 -4 -7 -8 -15 -8 -28 0 -64 -31 -115 -100 -27 -37 -50 -71 -50
-75 0 -4 20 20 45 54 53 70 103 114 120 107 7 -2 18 7 24 20 12 28 14 41 5 31
-4 -3 -16 0 -28 8 -11 8 -29 15 -39 15 -14 0 -17 5 -12 19 4 13 -1 27 -15 41
-11 11 -18 26 -14 32 4 7 11 4 18 -8 6 -11 21 -19 33 -20 12 0 20 3 17 8 -3 4
-14 8 -25 8 -10 0 -19 4 -19 8 0 5 -7 17 -15 28 -15 19 -15 19 -8 -1 6 -18 5
-18 -10 -6 -10 8 -16 16 -14 18 3 2 -12 36 -32 76 -36 72 -36 72 -101 94 -61
21 -62 22 -20 17 56 -8 96 -28 110 -55 15 -27 39 -57 72 -89 14 -15 28 -40 31
-56 l4 -29 2 31 c1 22 -8 41 -30 65 -16 19 -42 51 -57 73 -17 24 -43 46 -72
58 -53 23 -140 36 -140 21 0 -12 43 -43 59 -43 5 0 22 -5 38 -12 15 -6 32 -10
37 -9 16 4 38 -24 62 -77 27 -62 28 -66 12 -56 -7 4 -8 3 -4 -4 14 -22 -6 -12
-26 13 -11 14 -37 34 -59 45 -56 29 -60 24 -8 -8 25 -16 60 -48 78 -71 18 -23
36 -39 40 -36 3 4 -2 12 -11 19 -10 7 -15 16 -11 19 13 13 20 7 38 -33 10 -22
22 -40 27 -40 4 0 8 -4 8 -8 0 -5 -7 -9 -15 -9 -8 0 -15 3 -15 7 0 4 -27 22
-60 39 -33 18 -60 34 -60 37 0 3 9 0 19 -6 58 -30 20 16 -48 59 -26 17 -66 32
-91 35 l-45 6 38 -10 c45 -12 121 -49 114 -57 -3 -2 -16 1 -29 8 -12 7 -47 16
-77 20 -29 4 -58 12 -63 17 -14 14 10 55 28 48 8 -3 12 -2 9 4 -8 14 56 23 86
12 14 -6 32 -7 39 -2 14 8 9 10 -64 25 -28 6 -102 -29 -115 -53 -6 -11 -8 -27
-5 -35 3 -9 -2 -17 -13 -20 -12 -4 -10 -5 7 -5 14 1 50 0 80 -1 86 -2 40 -21
-53 -21 -77 0 -77 0 -73 25 5 29 9 36 54 95 47 61 94 167 96 213 1 34 3 37 29
37 16 0 38 -5 50 -12z m2247 -161 c0 -5 -7 -6 -16 -3 -9 3 -22 6 -30 6 -7 0
-11 6 -8 14 5 12 11 13 30 4 13 -6 24 -15 24 -21z m-420 -103 c0 -8 -4 -14
-10 -14 -5 0 -10 9 -10 21 0 11 5 17 10 14 6 -3 10 -13 10 -21z m-1508 -46
c-8 -8 -9 -4 -5 13 4 13 8 18 11 10 2 -7 -1 -18 -6 -23z m-278 -56 c2 -4 -4
-9 -15 -9 -11 -1 -17 2 -14 8 7 11 22 12 29 1z m2286 -52 c18 -12 2 -12 -25 0
-13 6 -15 9 -5 9 8 0 22 -4 30 -9z m-1923 -72 c-3 -8 -6 -5 -6 6 -1 11 2 17 5
13 3 -3 4 -12 1 -19z m2033 -245 c-8 -14 -19 -25 -23 -24 -4 1 -19 -7 -34 -19
-47 -37 -47 -21 1 21 25 22 46 48 46 57 0 13 3 13 12 4 10 -10 10 -18 -2 -39z
m-1557 -10 c-7 -2 -21 -2 -30 0 -10 3 -4 5 12 5 17 0 24 -2 18 -5z m893 -29
c-3 -9 -6 -22 -6 -30 0 -20 -37 -41 -100 -58 l-55 -15 40 0 c22 0 57 6 78 13
20 8 37 10 37 6 0 -16 -36 -48 -65 -57 -16 -5 -308 -10 -647 -12 l-616 -3 -17
26 c-12 17 -15 35 -10 56 l7 32 341 -7 c188 -4 344 -9 346 -11 2 -2 -79 -5
-180 -5 -101 -1 -197 -5 -214 -9 -16 -3 175 -5 425 -3 414 4 461 6 518 23 79
25 102 37 102 55 0 8 5 15 11 15 6 0 8 -7 5 -16z m-571 -30 c33 -3 65 -10 70
-14 6 -4 44 -4 85 0 41 4 68 8 60 10 -8 1 -19 1 -25 0 -5 -1 -7 2 -2 6 13 13
47 11 47 -3 0 -10 21 -13 83 -15 50 -1 19 -4 -83 -8 -91 -4 -167 -5 -170 -1
-5 6 -100 11 -275 13 -92 1 -101 2 -57 9 29 4 56 10 60 14 7 7 102 2 207 -11z"/>
<path d="M1230 2956 c0 -14 57 -37 90 -35 15 0 -12 14 -35 18 -5 1 -20 9 -32
17 -20 13 -23 13 -23 0z"/>
<path d="M1512 2690 c6 -9 30 -24 55 -34 30 -13 57 -35 83 -70 38 -50 74 -81
96 -81 14 0 167 -106 161 -112 -4 -4 -48 22 -107 64 -14 10 -33 19 -43 20 -10
2 -60 21 -112 43 -52 22 -117 45 -145 51 -50 11 -245 7 -257 -5 -4 -3 6 -6 20
-6 15 0 27 -6 27 -12 0 -9 3 -9 9 1 13 20 106 26 188 12 67 -12 173 -52 203
-77 8 -7 29 -15 45 -18 17 -3 36 -13 42 -23 7 -9 13 -14 13 -10 0 9 46 -20 81
-51 39 -34 72 -131 65 -190 l-6 -47 16 40 c19 49 13 114 -16 183 -19 44 -34
58 -138 131 -64 45 -125 94 -136 109 -19 29 -161 110 -144 82z"/>
<path d="M1110 2510 c-9 -6 -10 -10 -3 -10 6 0 15 5 18 10 8 12 4 12 -15 0z"/>
<path d="M986 2314 c-4 -9 -4 -19 -1 -22 2 -3 7 3 11 12 4 9 4 19 1 22 -2 3
-7 -3 -11 -12z"/>
<path d="M1451 1828 c-1 -21 15 -32 25 -17 4 7 3 9 -4 5 -6 -3 -13 2 -15 11
-4 16 -5 16 -6 1z"/>
<path d="M1461 1774 c0 -11 3 -14 6 -6 3 7 2 16 -1 19 -3 4 -6 -2 -5 -13z"/>
<path d="M1720 1737 c-25 -28 -56 -65 -69 -82 l-25 -30 33 30 c43 39 115 125
109 130 -2 2 -24 -19 -48 -48z"/>
<path d="M1391 1633 c-1 -17 16 -25 25 -12 4 7 3 9 -4 5 -5 -3 -13 0 -15 6 -4
9 -6 10 -6 1z"/>
<path d="M1639 1613 c-13 -15 -12 -15 9 -4 23 12 28 21 13 21 -5 0 -15 -7 -22
-17z"/>
<path d="M1448 1577 c-3 -15 -2 -30 3 -32 12 -8 16 8 9 35 l-6 25 -6 -28z"/>
<path d="M1587 1559 c7 -7 15 -10 18 -7 3 3 -2 9 -12 12 -14 6 -15 5 -6 -5z"/>
<path d="M1476 1543 c-6 -14 -5 -15 5 -6 7 7 10 15 7 18 -3 3 -9 -2 -12 -12z"/>
<path d="M1781 1676 c0 -10 -10 -34 -22 -52 -11 -19 -16 -34 -11 -34 6 0 20
16 32 36 12 19 25 33 27 30 3 -3 18 1 33 9 15 8 29 13 31 11 2 -2 45 -6 94
-10 69 -4 84 -3 65 5 -14 6 -59 13 -100 16 -59 4 -83 2 -107 -11 -29 -15 -32
-15 -36 2 -4 15 -5 15 -6 -2z"/>
<path d="M2036 1578 c-7 -28 -8 -203 -1 -196 5 5 15 218 10 218 -2 0 -5 -10
-9 -22z"/>
<path d="M2066 1538 c-8 -33 -8 -35 13 -41 14 -3 21 -16 24 -43 3 -30 4 -27 4
14 0 45 -3 52 -17 47 -14 -4 -16 -1 -12 20 5 31 -3 33 -12 3z"/>
<path d="M1883 1458 c0 -43 3 -78 7 -78 4 0 12 -10 18 -22 l11 -23 0 22 c1 12
-5 28 -13 35 -8 8 -13 30 -11 53 1 22 -1 51 -5 65 -5 16 -8 -3 -7 -52z"/>
<path d="M2052 1470 c0 -14 2 -19 5 -12 2 6 2 18 0 25 -3 6 -5 1 -5 -13z"/>
<path d="M2132 1465 c0 -16 2 -22 5 -12 2 9 2 23 0 30 -3 6 -5 -1 -5 -18z"/>
<path d="M2157 1473 c-4 -3 -6 -29 -6 -57 l2 -51 7 55 c7 59 7 64 -3 53z"/>
<path d="M2176 1434 c-9 -24 -2 -26 12 -4 7 11 8 20 3 20 -5 0 -12 -7 -15 -16z"/>
<path d="M2208 1433 c-17 -19 -31 -76 -17 -67 5 3 9 14 9 24 0 10 7 26 16 35
9 9 14 18 12 21 -3 2 -12 -4 -20 -13z"/>
<path d="M2061 1348 c0 -26 3 -49 7 -52 4 -2 6 12 4 32 -6 62 -10 69 -11 20z"/>
<path d="M2081 1358 l1 -33 8 30 7 30 5 -30 5 -30 2 33 c1 22 -3 32 -14 32
-10 0 -15 -10 -14 -32z"/>
<path d="M2123 1340 c0 -25 2 -35 4 -22 2 12 2 32 0 45 -2 12 -4 2 -4 -23z"/>
<path d="M1875 1349 c4 -13 14 -29 21 -37 8 -7 14 -19 14 -25 0 -7 4 -6 10 3
5 8 9 22 9 30 0 11 -2 11 -6 2 -6 -16 -33 3 -33 24 0 7 -5 16 -11 20 -8 4 -9
-1 -4 -17z"/>
<path d="M2141 1344 c0 -11 3 -14 6 -6 3 7 2 16 -1 19 -3 4 -6 -2 -5 -13z"/>
<path d="M2022 1330 c0 -14 2 -19 5 -12 2 6 2 18 0 25 -3 6 -5 1 -5 -13z"/>
<path d="M2182 1280 c0 -14 2 -19 5 -12 2 6 2 18 0 25 -3 6 -5 1 -5 -13z"/>
<path d="M2335 1234 c-22 -25 -42 -48 -45 -51 -3 -4 0 -3 7 1 7 4 1 -13 -12
-36 -16 -28 -25 -58 -25 -88 l1 -45 23 68 c24 70 46 106 46 74 0 -9 13 -30 28
-47 25 -25 31 -27 51 -17 13 7 33 30 45 52 12 22 28 51 35 64 7 13 17 19 21
15 25 -25 22 -263 -2 -248 -7 4 -8 2 -4 -5 4 -6 12 -8 18 -5 6 4 9 3 7 -2 -2
-5 -13 -31 -23 -58 l-20 -49 23 -18 c26 -21 61 -25 61 -8 0 6 -6 9 -14 6 -7
-3 -19 0 -25 6 -6 6 -11 7 -11 1 0 -5 -4 -3 -9 5 -5 7 -6 22 -3 33 5 20 6 19
18 -3 8 -14 13 -18 14 -10 0 11 4 9 15 -5 21 -27 18 -10 -3 26 -10 16 -22 27
-25 23 -12 -11 -7 11 8 37 16 28 20 54 5 30 -13 -20 -13 -7 0 82 10 68 0 162
-20 182 -15 15 -41 -15 -75 -83 -33 -67 -52 -75 -84 -35 -33 42 -34 61 -8 96
54 73 42 81 -18 12z"/>
<path d="M2230 1201 c0 -5 9 -11 21 -14 16 -4 18 -3 8 9 -13 16 -29 19 -29 5z"/>
<path d="M683 1122 c-1 -34 3 -59 8 -56 11 6 11 71 0 99 -5 12 -8 -3 -8 -43z"/>
<path d="M719 1173 c-3 -26 4 -99 11 -117 6 -14 9 -16 9 -5 1 8 11 25 24 37
23 22 26 22 363 18 186 -2 427 0 534 6 516 25 480 28 480 -45 0 -47 18 -40 21
8 4 52 -9 74 -48 81 -19 4 -121 3 -227 -2 -105 -5 -339 -9 -521 -8 -181 0
-289 -2 -240 -6 67 -4 40 -6 -110 -7 -110 -1 -212 -6 -227 -12 -14 -5 -34 -20
-43 -33 -16 -22 -16 -21 -13 35 2 31 0 57 -4 57 -5 0 -8 -3 -9 -7z m754 -50
c-7 -2 -21 -2 -30 0 -10 3 -4 5 12 5 17 0 24 -2 18 -5z"/>
<path d="M2225 1169 c-4 -6 -4 -13 -1 -16 3 -4 6 -1 6 6 0 7 5 9 10 6 6 -3 10
-1 10 4 0 14 -17 14 -25 0z"/>
<path d="M2256 1154 c-9 -24 -2 -26 12 -4 7 11 8 20 3 20 -5 0 -12 -7 -15 -16z"/>
<path d="M753 1142 c1 -14 5 -18 11 -12 7 7 6 14 -1 21 -9 9 -12 7 -10 -9z"/>
<path d="M2440 1084 c-25 -18 -64 -52 -88 -74 -46 -43 -52 -45 -85 -29 -21 10
-21 10 -3 -5 11 -9 23 -16 27 -16 4 0 10 -10 12 -22 4 -20 4 -19 6 5 0 15 6
27 12 27 7 0 18 8 25 18 12 16 13 16 14 0 0 -26 19 -32 41 -12 10 9 19 14 19
10 0 -10 -52 -86 -59 -86 -4 0 -7 -9 -8 -20 -1 -10 23 18 54 63 31 45 64 91
74 102 13 14 15 25 9 35 -14 22 -12 33 5 26 8 -3 15 -1 15 4 0 18 -24 9 -70
-26z m36 -19 c-1 -9 -6 -14 -10 -13 -4 2 -14 -12 -23 -30 -9 -18 -18 -30 -21
-27 -3 3 -13 -2 -22 -10 -16 -14 -18 -14 -23 -1 -7 17 25 40 38 28 4 -4 4 4 0
17 -6 21 -5 23 11 17 10 -4 15 -4 11 0 -9 9 12 34 28 34 7 0 12 -7 11 -15z
m-86 -40 c-7 -8 -18 -15 -24 -15 -6 0 -2 7 8 15 25 19 32 19 16 0z"/>
<path d="M1208 1070 c-479 -6 -461 -3 -460 -77 1 -46 130 -633 143 -649 5 -6
7 -13 5 -15 -5 -5 -16 -4 239 -16 115 -6 164 -11 125 -13 l-65 -4 85 -6 c64
-5 40 -6 -95 -7 -105 0 -163 3 -140 7 27 5 16 6 -33 3 -40 -2 -78 0 -85 4 -18
11 -38 13 -32 2 3 -4 8 -25 11 -46 6 -52 17 -57 12 -5 -3 33 0 41 10 37 8 -3
26 -5 40 -6 20 0 23 -2 10 -7 -25 -10 311 -4 417 8 131 14 345 21 315 11 -19
-7 -5 -10 55 -11 66 -2 74 -3 45 -10 -19 -5 -84 -4 -145 1 -60 5 -135 8 -165
7 -53 -1 -53 -1 20 -9 78 -8 285 -13 333 -7 28 3 38 18 12 18 -8 0 -15 6 -15
14 0 9 18 16 50 20 28 4 57 9 65 12 8 4 15 2 15 -3 0 -6 -26 -14 -57 -20 l-58
-10 68 2 c37 1 70 5 74 9 3 3 1 6 -5 6 -7 0 -12 5 -12 10 0 6 9 10 20 10 44 0
8 -46 -45 -56 -18 -3 -38 -3 -43 0 -6 3 -12 0 -15 -7 -4 -10 3 -12 25 -9 24 4
29 2 23 -9 -6 -11 -5 -11 4 -3 7 7 28 10 46 7 37 -5 34 -16 34 120 0 80 -11
127 -28 127 -5 0 -3 -12 5 -27 7 -16 14 -52 14 -80 0 -46 -3 -53 -19 -53 -12
0 -21 8 -24 23 -4 22 -4 22 -6 0 -1 -17 -10 -23 -51 -32 -69 -15 -99 -14 -116
4 -13 12 -32 14 -102 9 -48 -4 -89 -9 -92 -12 -3 -3 38 -2 90 1 52 3 88 3 80
0 -10 -4 -4 -10 20 -20 32 -12 29 -13 -45 -6 -44 4 -125 6 -180 5 -123 -3
-609 16 -650 25 -29 7 -28 7 20 20 48 12 49 12 10 9 -22 -1 -47 -6 -56 -10
-14 -6 -18 2 -24 50 -4 31 -13 77 -21 103 -21 70 -19 73 37 44 54 -29 68 -49
64 -100 -1 -18 3 -34 9 -36 7 -3 10 12 8 42 -5 83 -8 87 -67 112 -30 12 -55
29 -55 36 0 7 30 28 67 46 l67 32 16 80 c8 44 19 87 24 95 6 9 1 8 -12 -4 -35
-30 -26 -1 18 56 21 29 37 54 35 56 -4 5 -42 -20 -43 -28 -1 -11 -37 -70 -44
-70 -3 0 -1 -13 5 -29 6 -16 7 -36 2 -47 -4 -10 -7 -29 -6 -41 3 -29 -25 -70
-53 -77 -12 -3 -39 -17 -59 -30 -33 -22 -37 -23 -37 -8 0 10 -4 22 -9 28 -5 5
-14 38 -21 74 -18 97 -28 152 -35 180 -11 54 -8 101 8 118 16 15 63 17 497 19
465 2 480 2 470 -16 -9 -18 -103 -91 -116 -91 -23 0 -43 -63 -24 -75 6 -3 7 1
4 9 -7 19 46 69 104 97 23 12 42 26 42 33 0 21 40 46 70 44 41 -3 30 -14 -19
-17 -10 0 -21 -7 -24 -14 -4 -11 4 -11 46 0 88 23 158 -2 173 -62 11 -44 -33
-141 -93 -206 -13 -15 -26 -35 -27 -45 -2 -11 -7 -19 -12 -19 -14 0 -94 -67
-89 -75 2 -4 -1 -7 -8 -7 -7 0 -32 -12 -55 -28 -31 -21 -42 -34 -39 -47 4 -13
0 -18 -14 -18 -12 0 -16 5 -13 14 4 11 -3 14 -27 13 -42 -2 -50 23 -20 64 12
16 17 29 12 29 -5 0 -13 -5 -17 -11 -3 -6 -17 -9 -30 -6 -13 2 -24 0 -24 -4 0
-5 -8 -9 -17 -9 -14 0 -12 -4 7 -17 l24 -17 -24 -7 c-23 -7 -23 -7 6 -8 17 -1
37 -7 43 -15 9 -11 2 -15 -41 -21 -29 -5 -62 -11 -73 -13 -11 -2 -71 -6 -132
-9 -117 -4 -146 6 -70 25 l42 11 -44 -6 c-38 -4 -43 -3 -38 11 4 9 9 45 13 81
l7 65 33 0 c41 0 49 12 24 35 -19 17 -20 17 -20 1 0 -13 -4 -15 -16 -8 -26 14
-54 2 -61 -27 -4 -14 -7 -86 -7 -160 -1 -99 2 -135 12 -138 6 -3 12 3 12 13 0
19 28 18 280 -7 120 -11 178 -9 270 12 l55 13 -40 7 c-22 4 -128 7 -235 6
l-195 -1 205 -6 c199 -5 203 -5 147 -18 -47 -11 -84 -11 -195 -2 -75 7 -172
14 -215 17 -43 3 -75 8 -73 11 3 2 1 13 -4 23 -13 24 -2 26 83 17 40 -4 97 -6
127 -6 l55 1 -65 7 c-49 5 -55 7 -25 8 22 1 71 9 109 17 66 14 111 10 70 -6
-10 -5 1 -5 26 -1 25 4 76 6 113 5 75 -2 82 7 14 16 l-42 6 58 33 c65 36 175
141 224 212 70 102 83 187 36 233 -16 14 -44 33 -63 41 l-35 15 35 1 c19 1 46
3 60 5 14 1 34 -3 46 -10 18 -12 21 -23 22 -107 0 -51 5 -154 11 -228 17 -208
20 -224 15 -105 -2 61 -7 184 -10 275 -4 91 -11 171 -17 178 -10 13 -3 13
-869 2z m427 -550 c3 -5 -3 -10 -15 -10 -12 0 -18 5 -15 10 3 6 10 10 15 10 5
0 12 -4 15 -10z"/>
<path d="M2551 1014 c0 -11 3 -14 6 -6 3 7 2 16 -1 19 -3 4 -6 -2 -5 -13z"/>
<path d="M1233 983 c-8 -21 -17 -49 -19 -63 -3 -14 -8 -34 -11 -45 -4 -11 -7
-36 -8 -55 -1 -33 -19 -80 -31 -80 -3 0 -2 4 1 10 7 11 -14 4 -55 -17 -14 -7
-29 -13 -34 -13 -11 0 2 122 15 135 5 5 9 17 9 26 0 9 7 22 15 29 12 10 12 16
4 26 -29 35 -57 -20 -93 -184 -12 -56 -12 -63 2 -57 8 3 49 14 90 25 41 11 77
21 79 23 2 2 12 55 24 117 11 62 24 123 29 136 15 39 0 27 -17 -13z"/>
<path d="M1827 1005 c-27 -7 -50 -15 -53 -17 -9 -10 -94 -372 -94 -403 0 -11
89 55 150 111 68 64 135 159 150 214 15 55 0 86 -47 99 -45 13 -45 13 -106 -4z
m139 -40 c9 -23 -23 -105 -61 -159 -19 -27 -35 -47 -35 -43 0 4 -29 -24 -65
-61 l-65 -67 1 35 c0 19 15 93 32 165 36 145 33 142 135 144 38 1 54 -3 58
-14z"/>
<path d="M2130 1000 c0 -8 5 -22 10 -30 9 -13 10 -13 10 0 0 8 -5 22 -10 30
-9 13 -10 13 -10 0z"/>
<path d="M1266 983 c-3 -10 -12 -58 -21 -108 -9 -49 -19 -100 -22 -112 -5 -21
-2 -23 33 -23 29 0 35 3 24 10 -8 5 -10 10 -4 10 6 0 17 -7 24 -15 6 -7 31
-17 55 -21 81 -12 99 -48 29 -59 -80 -14 -92 -26 -55 -59 29 -26 61 -28 129
-5 60 20 86 36 40 25 -13 -3 -17 -3 -10 0 7 3 18 17 23 31 19 51 -44 123 -109
123 -30 0 -52 10 -52 24 0 16 63 46 95 46 39 0 32 40 -11 67 -19 13 -33 19
-30 14 3 -5 -7 -11 -22 -14 -29 -6 -87 -46 -78 -54 2 -3 18 5 34 17 33 24 92
32 99 13 3 -9 -6 -13 -25 -13 -31 0 -88 -34 -106 -63 -14 -23 2 -33 78 -48 97
-20 122 -65 67 -120 -24 -24 -38 -29 -75 -29 -34 0 -46 4 -46 15 0 11 7 13 29
9 28 -6 69 9 83 30 4 6 8 21 8 33 0 18 -8 24 -42 33 -136 33 -148 42 -125 87
9 17 12 35 7 43 -4 8 -2 37 5 65 10 38 10 52 2 57 -18 12 -25 9 -31 -9z"/>
<path d="M1679 936 c-35 -26 -46 -41 -46 -60 0 -19 5 -26 18 -26 11 0 19 7 19
15 0 8 9 19 21 26 20 10 21 9 14 -22 -4 -18 -11 -40 -15 -49 -5 -8 -16 -53
-26 -100 -10 -47 -26 -97 -36 -112 -21 -30 -23 -48 -5 -48 32 1 34 8 102 348
7 34 10 62 6 62 -3 0 -27 -16 -52 -34z"/>
<path d="M2242 950 c0 -14 2 -19 5 -12 2 6 2 18 0 25 -3 6 -5 1 -5 -13z"/>
<path d="M2125 886 c-4 -32 -3 -117 3 -189 6 -75 6 -143 1 -160 -5 -17 -12
-78 -15 -136 -4 -58 -11 -109 -17 -112 -6 -4 -1 -16 12 -30 l21 -23 0 70 c1
103 10 197 19 204 14 9 23 79 27 210 2 70 -1 132 -6 140 -5 8 -10 11 -11 5 0
-5 -7 10 -13 35 l-13 45 -8 -59z m12 -33 c-3 -10 -5 -4 -5 12 0 17 2 24 5 18
2 -7 2 -21 0 -30z m28 -55 c-10 -70 -13 -104 -16 -158 -1 -25 -5 5 -10 65 -5
67 -4 111 2 113 5 2 9 10 9 18 0 8 5 14 11 14 7 0 9 -17 4 -52z"/>
<path d="M2253 908 c-3 -7 -1 -8 5 -4 7 4 12 1 12 -6 0 -9 3 -9 10 2 8 13 10
13 10 -1 0 -9 7 -22 15 -29 13 -11 14 -9 1 16 -16 29 -41 40 -53 22z"/>
<path d="M2631 910 c0 -14 28 -72 29 -59 0 4 -7 22 -15 40 -8 19 -14 27 -14
19z"/>
<path d="M2700 910 c0 -5 5 -10 11 -10 5 0 7 5 4 10 -3 6 -8 10 -11 10 -2 0
-4 -4 -4 -10z"/>
<path d="M2331 880 c0 -15 -6 -31 -13 -38 -9 -9 -8 -12 4 -12 22 0 26 9 17 45
-6 28 -7 28 -8 5z"/>
<path d="M2265 870 c-11 -17 -11 -119 -1 -112 5 3 20 -8 33 -24 12 -16 23 -23
23 -15 0 7 -11 22 -24 32 -20 16 -24 28 -24 67 0 38 2 43 9 24 5 -13 7 -28 4
-32 -3 -5 -2 -11 3 -14 4 -2 9 10 10 28 3 35 -20 67 -33 46z"/>
<path d="M2334 805 c3 -9 6 -19 6 -21 0 -2 7 -4 15 -4 17 0 18 -2 9 -24 -3 -9
-11 -13 -18 -9 -6 3 -7 2 -3 -2 13 -15 36 -14 30 1 -3 8 0 14 6 14 7 0 14 -7
17 -15 4 -9 19 -15 35 -15 27 0 29 -2 19 -20 -7 -14 -8 -26 0 -39 13 -26 13
-34 -2 -25 -7 4 -8 3 -4 -5 4 -6 12 -8 18 -5 7 5 9 2 6 -7 -9 -23 44 -26 172
-12 l75 9 -48 8 c-31 6 -63 4 -91 -4 -63 -17 -88 -11 -109 30 l-17 35 27 23
c24 22 33 23 87 17 44 -4 66 -2 79 7 15 11 1 12 -90 6 -59 -5 -117 -6 -128 -3
-11 2 -37 21 -59 40 -21 20 -36 29 -32 20z"/>
<path d="M2570 779 c-22 -6 -20 -7 13 -8 38 -1 47 3 25 11 -7 3 -24 1 -38 -3z"/>
<path d="M2661 725 c3 -2 16 -6 30 -8 17 -3 24 -10 24 -28 0 -20 -4 -23 -24
-21 -15 2 -21 0 -17 -7 4 -6 18 -11 31 -11 18 0 26 7 31 25 8 33 -11 55 -49
55 -17 0 -28 -2 -26 -5z"/>
<path d="M1102 696 c-45 -13 -85 -25 -88 -29 -3 -3 -7 -67 -8 -141 -2 -125 0
-136 16 -136 21 0 21 -2 19 130 -1 58 2 110 6 115 8 11 91 35 118 35 18 0 20
-26 3 -33 -8 -3 -6 -6 5 -6 12 -1 17 7 17 28 0 16 3 36 6 45 8 20 8 20 -94 -8z"/>
<path d="M2409 703 c-13 -16 -12 -17 4 -4 16 13 21 21 13 21 -2 0 -10 -8 -17
-17z"/>
<path d="M2296 696 c10 -8 21 -12 24 -10 5 6 -21 24 -34 24 -6 0 -1 -6 10 -14z"/>
<path d="M2331 703 c-1 -7 8 -17 19 -23 14 -7 20 -7 20 0 0 5 -6 10 -14 10 -8
0 -17 6 -19 13 -4 9 -6 9 -6 0z"/>
<path d="M930 633 l-55 -25 40 -14 c22 -8 44 -19 49 -24 17 -17 21 -11 23 40
2 28 2 50 0 49 -1 0 -27 -12 -57 -26z"/>
<path d="M1558 643 c7 -3 16 -2 19 1 4 3 -2 6 -13 5 -11 0 -14 -3 -6 -6z"/>
<path d="M2400 646 c0 -2 7 -7 16 -10 8 -3 12 -2 9 4 -6 10 -25 14 -25 6z"/>
<path d="M1167 607 c-3 -7 -3 -34 -1 -60 3 -36 0 -47 -11 -47 -8 0 -15 -4 -15
-10 0 -5 7 -10 16 -10 11 0 14 -5 9 -17 -15 -38 -18 -56 -7 -50 5 4 13 1 15
-5 3 -7 6 38 6 100 1 108 -1 127 -12 99z"/>
<path d="M2081 604 c0 -11 3 -14 6 -6 3 7 2 16 -1 19 -3 4 -6 -2 -5 -13z"/>
<path d="M2478 593 c6 -2 10 -8 8 -12 -3 -4 12 -8 32 -9 46 -4 32 13 -18 21
-19 3 -29 3 -22 0z"/>
<path d="M2076 556 c-3 -13 -6 -93 -7 -177 -1 -85 -4 -149 -6 -142 -3 9 -11 9
-31 1 -31 -12 -240 -11 -412 2 -63 4 -119 5 -123 0 -5 -4 76 -11 180 -14 103
-4 218 -9 255 -12 42 -4 74 -1 88 6 17 9 24 9 30 1 12 -21 33 17 33 60 0 22 4
42 9 45 4 3 7 26 7 52 -1 43 -2 44 -9 17 -5 -19 -7 10 -6 78 1 59 2 107 0 107
-1 0 -5 -11 -8 -24z m11 -218 c-3 -8 -6 -5 -6 6 -1 11 2 17 5 13 3 -3 4 -12 1
-19z"/>
<path d="M2786 566 c21 -15 30 -14 19 3 -3 6 -14 11 -23 11 -13 0 -13 -2 4
-14z"/>
<path d="M1350 540 c-14 -4 25 -5 85 -2 61 2 112 6 114 8 8 7 -174 2 -199 -6z"/>
<path d="M2321 433 c4 -27 -2 -33 -22 -22 -16 8 -20 8 -14 -1 5 -8 -2 -10 -24
-7 -17 3 -31 1 -31 -4 0 -5 20 -8 44 -7 26 0 55 -5 68 -14 24 -16 48 -75 48
-116 0 -19 -4 -21 -52 -15 -64 7 -121 25 -118 37 1 5 -3 12 -8 15 -5 3 -14 20
-21 36 -9 23 -10 24 -6 5 3 -14 8 -36 12 -49 4 -16 2 -22 -5 -17 -6 4 -8 -2
-4 -16 5 -19 7 -20 10 -5 4 21 16 22 31 3 9 -11 9 -15 -1 -19 -7 -2 3 -4 22
-3 98 2 130 -4 130 -22 0 -32 -21 -44 -44 -24 -19 15 -19 15 -8 0 8 -10 11
-26 7 -39 -6 -17 -9 -19 -16 -8 -7 11 -9 10 -9 -5 0 -10 -8 -25 -17 -33 -10
-8 -13 -13 -6 -11 6 2 34 24 61 50 60 57 72 99 48 168 -17 49 -16 59 4 35 8
-9 17 -46 20 -83 l7 -67 2 53 c1 58 -21 124 -41 120 -7 -1 -23 4 -35 12 -19
12 -20 15 -6 25 9 7 13 17 9 23 -8 13 -37 16 -35 5z m29 -13 c0 -5 -5 -10 -11
-10 -5 0 -7 5 -4 10 3 6 8 10 11 10 2 0 4 -4 4 -10z"/>
<path d="M1926 418 c4 -6 11 -25 15 -42 7 -30 7 -30 8 -4 1 32 -8 58 -21 58
-5 0 -6 -5 -2 -12z"/>
<path d="M1848 393 c12 -2 32 -2 45 0 12 2 2 4 -23 4 -25 0 -35 -2 -22 -4z"/>
<path d="M1190 381 c-94 -4 -152 -11 -165 -19 -20 -14 -20 -14 0 -7 11 4 124
11 250 16 127 5 241 11 255 13 40 5 -181 3 -340 -3z"/>
<path d="M1715 383 c-22 -1 -74 -7 -115 -13 -41 -5 -158 -10 -260 -11 -102 -1
-179 -4 -172 -6 6 -3 10 -8 7 -13 -3 -5 12 -4 32 2 22 6 74 8 123 4 47 -3 121
-8 165 -10 50 -2 57 -1 20 2 -56 5 -52 6 65 17 69 7 158 10 199 7 49 -3 72 -2
68 5 -4 6 -19 9 -34 7 -24 -4 -25 -3 -8 5 17 8 14 9 -15 9 -19 -1 -53 -3 -75
-5z"/>
<path d="M2190 385 c0 -5 5 -17 10 -25 5 -8 10 -10 10 -5 0 6 -5 17 -10 25 -5
8 -10 11 -10 5z"/>
<path d="M2250 360 c-6 -11 -8 -20 -6 -20 3 0 10 9 16 20 6 11 8 20 6 20 -3 0
-10 -9 -16 -20z"/>
<path d="M944 253 c2 -12 -1 -24 -7 -26 -6 -2 -3 -6 6 -10 19 -7 21 6 6 38 -9
19 -9 19 -5 -2z"/>
<path d="M2551 248 c0 -15 -5 -30 -11 -33 -5 -3 -10 -11 -10 -18 0 -7 6 -5 16
5 10 9 14 26 11 44 l-4 29 -2 -27z"/>
<path d="M881 234 c0 -11 3 -14 6 -6 3 7 2 16 -1 19 -3 4 -6 -2 -5 -13z"/>
<path d="M2258 202 c-4 -14 -2 -20 5 -15 6 4 8 0 4 -10 -3 -10 -2 -17 3 -17
12 0 12 17 1 44 -7 19 -8 19 -13 -2z"/>
<path d="M2301 184 c0 -11 3 -14 6 -6 3 7 2 16 -1 19 -3 4 -6 -2 -5 -13z"/>
<path d="M2412 173 c2 -10 -6 -26 -17 -36 -20 -18 -19 -18 6 -2 19 11 25 22
22 35 -7 25 -16 26 -11 3z"/>
<path d="M986 1618 c-9 -13 -27 -38 -39 -57 -47 -72 -78 -64 -92 24 -3 25 -8
45 -11 45 -2 0 -26 -12 -54 -27 -32 -18 -50 -35 -50 -47 0 -16 3 -14 21 8 14
18 28 26 40 23 12 -3 16 -1 13 5 -4 6 -1 9 6 6 8 -2 20 -23 28 -47 17 -52 52
-73 77 -47 10 9 30 40 46 69 l29 52 0 -42 c0 -24 3 -43 8 -43 4 0 6 18 4 40
-5 51 8 51 45 1 25 -34 32 -38 63 -34 19 2 39 8 44 13 7 7 -5 8 -35 4 -44 -6
-45 -5 -65 32 -24 47 -55 55 -78 22z"/>
<path d="M827 1509 c3 -24 7 -46 9 -48 9 -10 3 65 -5 78 -6 10 -8 -1 -4 -30z"/>
<path d="M575 1530 c-3 -6 1 -7 9 -4 18 7 21 14 7 14 -6 0 -13 -4 -16 -10z"/>
<path d="M791 1484 c1 -21 5 -50 9 -64 5 -16 6 -2 3 35 -7 69 -13 86 -12 29z"/>
<path d="M1001 1488 c0 -23 17 -71 18 -54 1 4 13 1 27 -9 14 -9 28 -14 32 -11
3 3 1 6 -4 6 -14 0 -64 46 -64 59 0 20 17 12 44 -20 14 -17 26 -25 26 -19 0
14 -57 70 -71 70 -5 0 -9 -10 -8 -22z"/>
<path d="M1261 1369 c0 -19 4 -52 9 -74 7 -31 7 -24 3 30 -6 74 -13 101 -12
44z"/>
<path d="M1050 1308 c13 -14 70 -38 70 -29 0 5 -8 11 -17 14 -10 2 -27 8 -38
12 -11 5 -18 6 -15 3z"/>
<path d="M798 1253 c6 -2 18 -2 25 0 6 3 1 5 -13 5 -14 0 -19 -2 -12 -5z"/>
<path d="M2205 1590 c3 -5 11 -10 16 -10 6 0 7 5 4 10 -3 6 -11 10 -16 10 -6
0 -7 -4 -4 -10z"/>
<path d="M328 703 c7 -3 16 -2 19 1 4 3 -2 6 -13 5 -11 0 -14 -3 -6 -6z"/>
<path d="M470 670 c12 -16 24 -30 26 -30 3 0 -4 14 -16 30 -12 17 -24 30 -26
30 -3 0 4 -13 16 -30z"/>
<path d="M330 568 c-14 -5 -51 -6 -82 -3 -55 7 -58 6 -67 -17 -5 -13 -12 -51
-15 -84 l-5 -59 14 40 c7 22 14 53 14 68 1 33 5 35 101 40 63 3 80 0 110 -18
58 -36 79 -38 41 -5 -44 38 -79 50 -111 38z"/>
<path d="M740 552 c0 -7 -4 -11 -10 -7 -11 7 26 -105 40 -119 14 -14 12 -3 -5
30 -18 35 -21 68 -4 44 8 -11 9 -9 3 10 -9 34 -23 59 -24 42z m7 -34 c-3 -8
-6 -5 -6 6 -1 11 2 17 5 13 3 -3 4 -12 1 -19z"/>
<path d="M695 539 c-4 -6 -5 -12 -2 -15 2 -3 7 2 10 11 7 17 1 20 -8 4z"/>
<path d="M656 518 c-9 -12 -16 -17 -16 -10 0 6 -10 12 -22 11 -15 0 -18 -2 -8
-6 8 -3 22 -12 32 -20 17 -15 35 -2 24 16 -4 5 0 11 6 14 7 2 10 7 7 11 -4 4
-14 -3 -23 -16z"/>
<path d="M706 515 c-3 -9 -6 -22 -5 -28 0 -7 5 -1 10 12 5 13 8 26 5 28 -2 2
-6 -3 -10 -12z"/>
<path d="M721 493 c-1 -6 -4 -20 -7 -30 -5 -15 -4 -15 5 -3 9 13 11 12 12 -5
0 -11 3 -15 5 -9 3 6 0 22 -5 35 -5 13 -10 19 -10 12z"/>
<path d="M188 427 c-3 -19 -2 -25 4 -19 6 6 8 18 6 28 -3 14 -5 12 -10 -9z"/>
<path d="M713 302 c25 -27 21 -38 -5 -16 l-23 19 19 -22 c10 -13 23 -20 29
-16 6 4 8 0 4 -11 -4 -9 -3 -15 2 -12 5 3 11 -2 13 -12 3 -10 12 -19 21 -19 9
0 13 6 10 15 -5 11 -7 11 -14 0 -7 -10 -9 -8 -10 7 -1 11 -1 23 0 28 0 4 -3 7
-8 7 -5 0 -12 9 -16 19 -3 11 -13 22 -22 26 -15 5 -15 4 0 -13z"/>
<path d="M510 255 c0 -8 2 -15 4 -15 2 0 6 7 10 15 3 8 1 15 -4 15 -6 0 -10
-7 -10 -15z"/>
<path d="M680 261 c0 -5 7 -12 16 -15 14 -5 15 -4 4 9 -14 17 -20 19 -20 6z"/>
<path d="M600 246 c0 -2 9 -6 20 -9 11 -3 18 -1 14 4 -5 9 -34 13 -34 5z"/>
<path d="M801 230 c14 -31 19 -36 19 -24 0 6 -7 19 -16 30 -14 18 -14 18 -3
-6z"/>
<path d="M462 220 c0 -14 2 -19 5 -12 2 6 2 18 0 25 -3 6 -5 1 -5 -13z"/>
<path d="M431 188 c-1 -10 -6 -18 -12 -18 -5 0 -7 -5 -3 -11 4 -8 9 -7 15 2 7
12 9 12 9 0 0 -8 2 -12 5 -9 3 3 1 16 -4 29 -7 17 -10 19 -10 7z"/>
<path d="M461 174 c0 -11 3 -14 6 -6 3 7 2 16 -1 19 -3 4 -6 -2 -5 -13z"/>
<path d="M696 163 c-3 -7 0 -15 6 -19 7 -4 8 -3 4 4 -4 7 -2 12 3 12 6 0 11
-4 11 -10 0 -16 40 -52 41 -37 0 6 7 -1 14 -18 l14 -30 1 38 c0 35 -2 37 -20
27 -17 -9 -22 -7 -29 12 -5 13 -7 25 -6 28 2 3 -5 6 -15 6 -11 0 -22 -6 -24
-13z"/>
<path d="M612 158 c2 -6 10 -14 16 -16 7 -2 10 2 6 12 -7 18 -28 22 -22 4z"/>
<path d="M671 145 c0 -5 6 -18 13 -27 13 -17 26 -14 26 5 0 6 -3 7 -7 4 -3 -4
-12 1 -19 11 -7 9 -13 13 -13 7z"/>
<path d="M715 100 c-3 -5 1 -10 10 -10 9 0 13 5 10 10 -3 6 -8 10 -10 10 -2 0
-7 -4 -10 -10z"/>
<path d="M1040 140 l-25 -8 27 -1 c15 -1 30 4 33 9 7 11 0 11 -35 0z"/>
<path d="M880 120 c0 -5 20 -10 44 -10 24 0 65 -2 92 -5 34 -3 41 -2 24 3 -43
15 -160 24 -160 12z"/>
<path d="M1300 106 c3 -2 131 -7 285 -9 154 -3 302 -11 329 -17 39 -9 145 -8
166 1 3 1 -35 6 -85 11 -97 10 -703 22 -695 14z"/>
</g>
</svg>
